<svg width="52" height="52" viewBox="0 0 52 52" fill="none" xmlns="http://www.w3.org/2000/svg">
<g id="&#231;&#171;&#153;&#233;&#133;&#183; 1">
<path id="Vector" d="M42.8625 24.0073C41.8137 24.5884 40.3147 24.8772 39.0634 25.0201C41.0482 23.3333 42.975 21.4113 43.7542 18.9934C44.8111 15.7132 44.8432 12.6725 43.8545 9.42491C43.7686 9.1426 43.5284 8.93417 43.2364 8.88846C42.9416 8.83727 42.6523 8.9659 42.4824 9.20642C39.8603 12.941 36.3929 15.3229 32.6034 16.027C33.736 13.7483 34.9853 11.1762 34.7158 8.48743C34.6858 8.19014 34.4872 7.93644 34.2034 7.83738C33.9216 7.73877 33.6064 7.81093 33.3962 8.0247C29.3788 12.1158 26.172 12.9792 22.2992 13.0457C18.0232 13.1194 13.9396 15.0909 11.0972 18.4556C8.27787 21.7912 7.02993 26.0936 7.67334 30.2599C8.70701 36.9637 13.7097 41.9809 20.4188 43.041C21.2655 43.1747 22.1047 43.2401 22.931 43.2401C28.4413 43.2401 33.3859 40.3258 36.2113 35.2629C36.5334 34.687 37.0622 34.1218 37.6619 33.7107C40.3898 31.8442 42.363 29.4285 43.525 26.5285C43.6853 26.1276 43.8034 25.634 43.9064 25.1983L43.9862 24.8698C44.062 24.5719 43.9522 24.257 43.7079 24.0701C43.4636 23.8833 43.1313 23.8594 42.8625 24.0073ZM9.25704 29.1208C9.90452 31.1568 13.8844 31.8384 13.8844 31.8384C10.5623 35.4077 9.25704 29.1208 9.25704 29.1208ZM18.8679 31.8384C18.8679 31.8384 26.9901 30.8994 30.2262 28.1011C30.2262 28.1011 25.5129 38.8487 18.8679 31.8384Z" fill="white"/>
</g>
</svg>
