<svg width="30" height="46" viewBox="0 0 30 46" fill="none" xmlns="http://www.w3.org/2000/svg">
<g id="_&#233;&#141;&#165;&#230;&#131;&#167;&#231;&#156;&#176;_1" clip-path="url(#clip0_75_563)">
<path id="Vector" d="M14.0796 0.799805C16.2517 2.66248 18.426 4.5231 20.5981 6.38577C21.1479 6.85661 21.7061 7.32124 22.2413 7.81066C22.3662 7.92424 22.4891 8.11629 22.4912 8.2753C22.512 9.37597 22.5037 10.4766 22.4995 11.5794C22.4995 11.6579 22.4579 11.7384 22.4058 11.916C19.5672 9.50194 16.7828 7.13332 13.9338 4.71102C13.1382 5.43172 12.3968 6.18133 11.5742 6.82563C10.864 7.3832 10.6745 8.02543 10.6787 8.90514C10.712 18.6976 10.7016 28.488 10.6891 38.2805C10.6891 38.7699 10.8203 39.1086 11.2056 39.4328C11.9991 40.0957 12.7509 40.8102 13.5027 41.5227C13.8088 41.8138 14.0358 41.8531 14.3628 41.5371C15.0584 40.868 15.7727 40.2155 16.5183 39.6022C16.9994 39.2057 17.1931 38.7679 17.191 38.138C17.1722 29.6197 17.1764 21.1013 17.1847 12.583C17.1847 12.3083 17.2785 12.0337 17.3305 11.7611C17.5617 11.8974 17.8137 12.0069 18.0178 12.1741C19.3715 13.2975 20.7106 14.4374 22.0663 15.5587C22.385 15.821 22.5162 16.108 22.5141 16.5273C22.5016 23.7198 22.5016 30.9145 22.5141 38.1071C22.5141 38.5758 22.3808 38.898 22.0101 39.2119C19.4527 41.3678 16.9119 43.5464 14.3774 45.7292C14.0296 46.0307 13.8005 46.0038 13.4527 45.7044C10.9598 43.5505 8.45447 41.4111 5.93036 39.2903C5.54508 38.9682 5.39722 38.6357 5.39722 38.1463C5.40763 28.3208 5.40763 18.4952 5.39722 8.66766C5.39722 8.22367 5.49926 7.88707 5.85331 7.5897C8.5357 5.3326 11.2014 3.0631 13.8713 0.799805C13.94 0.799805 14.0109 0.799805 14.0796 0.799805Z" fill="white"/>
<path id="Vector_2" d="M24.6259 36.7981V18.002C24.6675 17.9627 24.7112 17.9235 24.7529 17.8843C26.3544 19.2431 27.9539 20.6019 29.6199 22.0164C29.1055 22.4749 28.6619 22.9003 28.1809 23.2844C27.8247 23.5673 27.6977 23.8895 27.6998 24.3438C27.7185 27.5074 27.7039 30.6732 27.7164 33.8368C27.7164 34.1982 27.6081 34.4377 27.3249 34.6649C26.5981 35.2472 25.9004 35.8647 25.184 36.4594C25.0486 36.5709 24.882 36.6432 24.6238 36.7981H24.6259Z" fill="white"/>
<path id="Vector_3" d="M3.11056 36.8641C2.42122 36.29 1.86725 35.7428 1.22997 35.3174C0.246987 34.6607 -0.00084224 33.812 0.0199838 32.6555C0.09704 28.7691 0.0533054 24.8806 0.0428924 20.9942C0.0428924 20.5998 0.15327 20.3189 0.46566 20.0608C1.32786 19.3525 2.16298 18.609 3.10848 17.7954V36.862L3.11056 36.8641Z" fill="white"/>
</g>
<defs>
<clipPath id="clip0_75_563">
<rect width="29.6" height="45.14" fill="white" transform="translate(0.0199585 0.799805)"/>
</clipPath>
</defs>
</svg>
