<svg width="43" height="42" viewBox="0 0 43 42" fill="none" xmlns="http://www.w3.org/2000/svg">
<g id="artstation 1" clip-path="url(#clip0_75_559)">
<path id="Vector" d="M0.839966 30.6623L4.34165 36.7138C4.691 37.4051 5.22505 37.9861 5.88454 38.3923C6.54403 38.7985 7.30317 39.0141 8.07772 39.015H31.3139L26.4926 30.661H0.839966V30.6623ZM42.28 30.705C42.28 29.8697 42.0326 29.0902 41.6105 28.4362L27.9974 4.77005C27.6407 4.09852 27.1081 3.53663 26.4566 3.14451C25.8051 2.75238 25.0593 2.54479 24.2989 2.54395H17.1039L38.1334 38.9788L41.4486 33.238C42.1013 32.1386 42.2813 31.6517 42.2813 30.705H42.28ZM23.0635 24.7273L13.6656 8.44785L4.26524 24.7273H23.0635Z" fill="white"/>
</g>
<defs>
<clipPath id="clip0_75_559">
<rect width="41.44" height="41.44" fill="white" transform="translate(0.839966 0.0600586)"/>
</clipPath>
</defs>
</svg>
