<svg width="46" height="46" viewBox="0 0 46 46" fill="none" xmlns="http://www.w3.org/2000/svg">
<g id="&#229;&#190;&#174;&#228;&#191;&#161; 1">
<path id="Vector" d="M30.5868 15.2306C31.0586 15.2306 31.5248 15.2667 31.9854 15.3194C30.7283 9.4614 24.4652 5.10742 17.3168 5.10742C9.32476 5.10742 2.77853 10.5547 2.77853 17.4728C2.77853 21.466 4.95691 24.7433 8.59771 27.288L7.14361 31.6614L12.2246 29.1139C14.045 29.4747 15.5047 29.8438 17.3168 29.8438C17.7746 29.8438 18.227 29.8216 18.6765 29.7883C18.3819 28.7983 18.2306 27.7714 18.227 26.7385C18.227 20.3866 23.6798 15.2334 30.5868 15.2334V15.2306ZM22.7696 11.2901C23.8658 11.2901 24.59 12.0116 24.59 13.105C24.59 14.1955 23.8658 14.9254 22.7696 14.9254C21.6818 14.9254 20.5857 14.1955 20.5857 13.105C20.5857 12.0116 21.6818 11.2901 22.7696 11.2901ZM12.5937 14.9254C11.5059 14.9254 10.407 14.1955 10.407 13.105C10.407 12.0116 11.5059 11.2901 12.5937 11.2901C13.6843 11.2901 14.4086 12.0116 14.4086 13.105C14.4086 14.1955 13.6871 14.9254 12.5937 14.9254Z" fill="white"/>
<path id="Vector_2" d="M43.8569 26.5623C43.8569 20.7486 38.0405 16.0117 31.5081 16.0117C24.5901 16.0117 19.1427 20.7486 19.1427 26.5623C19.1427 32.3842 24.5901 37.1128 31.5081 37.1128C32.9539 37.1128 34.4163 36.7493 35.8704 36.383L39.8581 38.5669L38.7647 34.9344C41.684 32.7422 43.8569 29.8423 43.8569 26.5623ZM27.4955 24.7474C26.774 24.7474 26.0414 24.0259 26.0414 23.2905C26.0414 22.569 26.7712 21.8364 27.4955 21.8364C28.5944 21.8364 29.3159 22.5663 29.3159 23.2905C29.3159 24.0259 28.5944 24.7474 27.4955 24.7474ZM35.493 24.7474C34.7715 24.7474 34.05 24.0259 34.05 23.2905C34.05 22.569 34.7715 21.8364 35.493 21.8364C36.5836 21.8364 37.3106 22.5663 37.3106 23.2905C37.3106 24.0259 36.5836 24.7474 35.493 24.7474Z" fill="white"/>
</g>
</svg>
