<svg width="51" height="52" viewBox="0 0 51 52" fill="none" xmlns="http://www.w3.org/2000/svg">
<g id="&#229;&#190;&#174;&#229;&#141;&#154; 1">
<path id="Vector" d="M47.0932 23.3009V23.3058C46.8812 23.9518 46.2993 24.4055 45.6188 24.4597C44.9383 24.514 44.2923 24.154 43.9816 23.5524C43.7794 23.1579 43.74 22.6993 43.8781 22.2752H43.8731C44.7904 19.4742 44.1296 16.4021 42.1373 14.2126C40.155 12.0281 37.142 11.0566 34.2375 11.673C33.7986 11.7667 33.34 11.6829 32.9652 11.4412C32.5905 11.1996 32.3242 10.8199 32.2305 10.386C32.0382 9.48354 32.6201 8.59099 33.5323 8.39867C37.4724 7.56529 41.7478 8.78331 44.6424 11.9689C47.5469 15.1495 48.326 19.489 47.0932 23.3009ZM35.3963 17.0333C35.0216 17.1122 34.6271 17.0431 34.3016 16.8311C33.9761 16.624 33.7542 16.2985 33.6704 15.9237C33.5027 15.1446 34.0008 14.3803 34.7898 14.2126C36.7771 13.7885 38.8433 14.4493 40.2043 15.9484C41.6196 17.5017 41.9943 19.6172 41.3927 21.4714C41.2744 21.8363 41.018 22.1371 40.6728 22.3097C40.3276 22.4823 39.9282 22.5168 39.5632 22.3985C38.7989 22.1519 38.3797 21.3382 38.6312 20.5838H38.6263C38.932 19.6468 38.7151 18.6162 38.0493 17.8814C37.3738 17.1516 36.3678 16.8262 35.3963 17.0333ZM36.6883 25.2142C39.2181 25.9933 42.0338 27.8771 42.0338 31.1909C42.0338 36.6843 34.055 43.6028 22.0623 43.6028C12.9148 43.6028 3.56027 39.1992 3.56027 31.9601C3.56027 28.1729 5.97658 23.7989 10.1336 19.6665C15.6862 14.1534 22.1658 11.6434 24.6019 14.0647C25.6769 15.1298 25.7804 16.979 25.0901 19.1833C24.7301 20.2928 26.1404 19.6764 26.1404 19.6813C30.6278 17.8124 34.5482 17.7039 35.9782 19.7356C36.7376 20.8155 36.6686 22.3343 35.9634 24.0948C35.638 24.9035 36.0621 25.0268 36.6883 25.2142ZM22.082 41.0089C29.3802 40.2939 34.918 35.8558 34.4446 31.0922C33.9712 26.3385 27.6691 23.0592 20.3709 23.7743C13.0726 24.4893 7.53485 28.9323 8.00825 33.6861C8.48165 38.4496 14.7838 41.724 22.082 41.0089ZM22.8118 27.4431C26.4067 28.3653 28.2411 31.7333 26.7716 35.0027C25.2824 38.351 20.9971 40.1312 17.3628 38.9674C13.8518 37.8431 12.3675 34.4011 13.906 31.2993C15.415 28.2617 19.3402 26.5456 22.8118 27.4431ZM20.1588 35.3577C20.8541 34.2285 20.4892 32.9365 19.3452 32.4532C18.2159 31.9848 16.7513 32.468 16.056 33.5529C15.3509 34.6427 15.6813 35.9446 16.8056 36.4476C17.9447 36.9653 19.4537 36.4722 20.1588 35.3577Z" fill="white"/>
</g>
</svg>
