<svg width="63" height="118" viewBox="0 0 63 118" fill="none" xmlns="http://www.w3.org/2000/svg">
<g id="Group 94">
<path id="Vector" d="M12.8908 49.7825C12.6945 52.1812 12.409 54.5711 12.3287 56.9787C12.2752 58.5246 12.5161 60.0705 12.7837 61.7229C12.0165 55.7705 16.2272 53.1763 20.4379 50.049C21.3478 52.5455 21.2943 54.7399 20.5003 56.8899C19.5636 59.4219 17.8686 61.4031 15.3172 62.3893C13.5063 63.0911 12.9354 64.2372 13.3457 65.9874C13.9434 68.5461 14.5857 71.1048 15.5849 73.7079C15.121 68.475 18.6448 65.3566 21.4192 61.4564C23.6316 64.1217 23.9527 66.8403 23.355 69.7455C22.7484 72.7128 20.9464 74.8984 18.7161 76.8707C18.1541 77.3682 17.6367 78.6298 17.8865 79.1984C19.064 81.8459 20.5182 84.369 22.2667 86.8477C20.5895 81.988 23.6226 78.2655 24.595 74.0544C29.3677 75.9734 30.7772 86.0037 25.2373 90.6502C27.3248 94.3727 30.4472 97.1358 33.8906 99.5878L33.8549 99.5523C39.2967 104.012 45.131 107.726 52.0804 109.503C55.5507 110.391 58.9317 111.626 62.286 113.03C58.2359 113.252 54.4623 111.875 51.0902 111.137C50.662 112.044 50.4747 113.048 49.868 113.589C45.7287 117.356 40.956 117.863 35.7462 116.219C33.8817 115.633 31.9102 115.357 29.9743 114.94C31.5355 110.835 37.352 108.792 46.3978 109.352C44.346 108.25 42.7313 107.388 41.1255 106.518C39.5019 105.638 37.8872 104.732 36.3171 103.87C31.6336 107.646 26.2365 107.983 21.1337 104.989C19.5369 104.057 17.8151 103.328 16.1915 102.449C15.6652 102.164 15.2637 101.667 14.8088 101.267C15.2905 100.867 15.7187 100.334 16.2718 100.076C20.8125 97.9531 25.4157 97.6955 30.0546 99.7922C30.5096 99.9965 31.0003 100.112 31.4731 100.263C31.2768 100.432 31.0805 100.601 30.8843 100.769C28.8146 98.2374 26.8074 95.661 24.6307 93.2356C24.2471 92.8091 23.1052 92.8269 22.3826 92.9868C17.4047 94.0529 13.31 92.667 9.97361 88.8556C8.72468 87.4341 7.34193 86.1192 5.84321 84.5734C11.053 82.2635 15.3529 84.4756 20.0097 86.6079C18.5109 84.1292 17.0568 81.6327 15.4689 79.2161C15.2637 78.9052 14.3895 78.9496 13.8275 78.9496C9.32238 78.923 6.03947 76.8529 3.80032 73.0415C2.58707 70.9715 1.41843 68.8659 0 66.3694C5.82537 65.9608 9.60785 68.6705 12.8015 72.6506C13.0067 72.5707 13.203 72.4907 13.4082 72.4108C12.632 69.6655 11.8738 66.9114 11.0263 64.1928C10.9549 63.9529 10.2769 63.8907 9.87548 63.7663C5.53098 62.3804 2.87254 59.5374 1.99829 55.0064C1.68606 53.3628 1.08835 51.7814 0.615545 50.1645C3.60406 49.4093 7.59172 52.4655 10.6694 57.2808C10.6694 55.6816 10.5178 54.0558 10.7051 52.4744C10.9638 50.3688 9.51864 49.738 8.13589 48.8229C5.22767 46.9039 3.65758 44.1765 3.50593 40.6494C3.41672 38.5349 3.22046 36.4205 3.04204 33.8262C7.90395 36.0207 10.0717 39.6721 11.0084 44.2742C11.2047 44.3186 11.401 44.3541 11.5883 44.3986C12.1592 41.982 12.7748 39.5744 13.2654 37.1401C13.3279 36.8203 12.8729 36.2694 12.5161 36.0029C9.24209 33.5953 8.08237 30.3525 8.98338 26.4878C9.38483 24.782 9.50972 23.0141 9.83087 20.8374C12.3287 22.2944 13.6758 24.3023 14.2111 26.6477C14.7463 28.9932 14.7285 31.463 15.1299 33.924C15.2102 33.3909 15.2816 32.849 15.3351 32.4936C16.0666 32.3248 16.6911 32.2715 17.2442 32.0405C19.5993 31.0543 21.892 29.9083 24.2828 29.0198C25.7993 28.4601 26.067 29.2775 25.6923 30.6634C24.7645 34.075 21.5441 36.9358 17.8508 36.7403C15.0853 36.5982 14.0594 37.8508 13.649 40.0986C13.1762 42.6928 12.8283 45.3136 12.5339 47.9345C12.4625 48.5475 12.8015 49.1961 12.9532 49.8358L12.9086 49.7913L12.8908 49.7825Z" fill="white"/>
<path id="Vector_2" d="M20.0364 24.1248C22.3559 21.726 25.3265 21.2551 28.3686 20.9886C28.9128 20.9442 29.4837 21.1396 30.0368 21.2196C29.9387 21.8326 30.0011 22.5434 29.7067 23.0498C28.2883 25.564 25.9778 26.9144 23.1766 27.0655C21.8741 27.1365 20.5271 26.4169 19.073 26.026C18.8678 26.4258 18.3682 27.3764 17.9846 28.1138C17.4404 26.8522 16.8071 25.7062 16.4413 24.489C15.8793 22.6233 15.005 20.6688 15.1567 18.8297C15.3529 16.502 16.4413 14.2543 17.1996 11.8022C19.4298 13.7301 20.8661 15.0628 20.0275 24.1337L20.0364 24.1248Z" fill="white"/>
<path id="Vector_3" d="M52.4997 105.292C52.3927 106.305 52.5265 107.104 52.1964 107.593C51.8663 108.081 50.9207 108.686 50.5193 108.526C46.5316 107.015 43.6769 104.501 43.2041 99.9346C43.0435 98.3976 42.6064 96.8872 42.2139 95.3858C41.75 93.6356 42.544 93.4135 43.9713 93.8221C48.7886 95.1992 52.7317 100.672 52.4997 105.283V105.292Z" fill="white"/>
<path id="Vector_4" d="M33.9085 99.5969C33.8996 99.5259 33.9085 99.4281 33.8728 99.3837C30.3312 95.3503 31.0895 90.4728 31.1609 85.7197C31.1876 84.1383 31.8745 83.9517 33.1235 84.5292C38.485 87.0079 40.7776 95.9633 37.2449 100.947C36.1387 100.494 35.0058 100.032 33.8728 99.5614L33.9085 99.5969Z" fill="white"/>
<path id="Vector_5" d="M12.9354 49.8268C12.9532 44.0965 15.9506 40.0452 21.3478 38.5882C22.9803 38.144 22.7751 39.4055 22.7395 40.3473C22.5164 45.2425 18.2255 49.356 12.8907 49.7913L12.9354 49.8357V49.8268Z" fill="white"/>
<path id="Vector_6" d="M31.8031 9.50088C33.7033 9.50088 35.5856 9.43869 37.459 9.5453C37.914 9.57195 38.5117 10.0695 38.7079 10.5048C38.8239 10.7536 38.3511 11.4021 38.0032 11.7042C35.9781 13.4722 33.0788 13.0812 30.9824 11.4821C29.4302 10.3005 28.5648 9.22546 28.8146 7.26203C29.1358 4.73889 30.7059 3.10418 32.4365 1.42505C33.8728 3.65501 33.6587 5.70728 31.8031 9.50088Z" fill="white"/>
<path id="Vector_7" d="M25.8975 16.0045C25.3087 16.502 24.7199 17.0084 24.1311 17.5148C20.2059 14.0944 22.2042 8.85265 25.9867 4.97021C27.423 7.13798 27.8512 9.38571 27.1196 11.8467C26.7004 13.2504 26.2722 14.6452 25.8529 16.0489L25.8975 16.0045Z" fill="white"/>
<path id="Vector_8" d="M25.8618 16.049C28.1812 14.2721 30.804 13.8723 33.623 14.3076C35.2288 14.5564 35.541 15.1872 34.4883 16.4843C32.8379 18.5188 29.5996 19.5316 27.0572 18.7676C25.5406 18.3145 24.9162 17.4971 25.8975 16.0045L25.8529 16.049H25.8618Z" fill="white"/>
<path id="Vector_9" d="M34.8809 7.91974C34.6579 7.48441 33.9888 6.78255 34.0245 6.12511C34.1405 4.0373 38.1817 0.714571 40.2602 0.91891C40.6438 0.954447 41.2415 1.603 41.2683 2.00279C41.4289 4.38379 38.0211 7.82201 34.8809 7.91974Z" fill="white"/>
</g>
</svg>
