<svg width="63" height="118" viewBox="0 0 63 118" fill="none" xmlns="http://www.w3.org/2000/svg">
<g id="Group 93">
<path id="Vector" d="M52.6263 56.9607C54.9903 53.3892 57.6309 50.5463 62.0557 49.6756C61.2528 56.7297 59.6828 61.9715 52.9474 63.8727C52.4211 64.0238 51.7788 64.6012 51.6361 65.1076C50.9402 67.4886 50.3961 69.914 49.9946 72.455C53.4292 68.6614 57.3366 66.1204 62.7248 66.2626C59.5846 72.988 57.0332 79.2781 48.7814 78.976C48.1034 78.9494 47.1578 79.6868 46.7474 80.3264C45.2844 82.6186 43.9998 85.0262 42.7508 87.2118C44.9811 86.2256 47.238 85.0795 49.6021 84.2178C52.1 83.3027 54.6513 83.2138 57.1403 84.511C53.7682 90.8099 47.0239 94.1326 40.4314 92.88C39.8337 92.7645 38.9237 92.7112 38.5847 93.0488C36.3188 95.332 34.1778 97.7219 31.9654 100.112C37.6391 97.7574 43.1879 97.4376 48.7368 101.489C45.3914 103.195 42.5635 104.776 39.6106 106.1C35.4356 107.965 31.4926 106.944 27.7101 104.785C27.2195 104.501 26.4344 104.145 26.0508 104.341C23.1604 105.807 20.3414 107.397 17.5046 109.12C23.6868 108.401 29.0661 109.671 33.0627 114.833C27.9421 114.984 23.2943 118.742 18.0666 116.406C16.2646 115.597 14.5607 114.522 12.9638 113.358C12.4642 112.994 12.4553 111.955 12.2412 111.279C8.64608 112.017 4.63165 112.852 0.617227 113.678C0.474492 113.314 0.331761 112.941 0.189026 112.576C15.3546 109.609 28.4238 103.186 38.0762 90.7477C35.1769 88.2246 33.9815 85.1151 34.1689 81.588C34.3205 78.6207 35.4356 76.0087 38.2993 73.7609C39.5928 78.132 42.278 81.8812 40.7079 86.6698C42.9649 84.2444 44.6867 81.588 45.4449 78.4519C45.5609 77.9721 44.8383 77.0837 44.2852 76.6661C39.9764 73.4056 38.4063 68.5103 40.2619 63.6773C40.5295 62.9843 41.0469 62.3802 41.6625 61.394C44.3744 65.4097 48.0142 68.4481 47.1132 73.6988L47.7733 73.6455C48.4245 71.3533 49.1471 69.07 49.7002 66.7512C50.182 64.7078 49.7359 63.313 47.4789 62.2114C42.7419 59.9192 40.815 54.7397 42.84 50.2087C46.1675 52.9273 50.2176 54.8285 50.744 59.9103C50.744 57.1118 50.7529 54.3132 50.744 51.5147C50.744 50.9283 50.6458 50.3419 50.5745 49.7645C50.1641 46.5039 49.7448 43.2523 49.3345 39.9917C49.0312 37.5485 47.6306 36.8023 45.2041 36.7578C40.8328 36.6779 37.6034 33.4529 37.2466 29.0018C40.2529 29.1884 43.0274 29.7215 45.4628 31.5872C46.2389 32.1824 47.1667 32.5822 48.4602 33.3196C48.2372 29.4105 48.3621 26.1589 50.4942 23.4136C51.1811 22.5252 52.0286 21.77 53.108 21.0859C53.3667 24.8262 55.4721 28.3355 53.6968 31.987C53.0367 33.3463 51.9661 34.5101 51.0919 35.7628C50.6904 36.3403 49.9054 36.9799 49.9679 37.513C50.2176 39.6186 50.7261 41.6975 51.1811 43.7676C51.2257 43.9541 51.6271 44.0519 52.0554 44.3095C53.0723 39.6808 55.1598 35.9938 59.6381 34.0215C61.342 39.2099 58.9245 46.495 54.5354 49.0537C52.6174 50.1731 51.9572 51.4702 52.3676 53.5669C52.5817 54.6775 52.5549 55.8324 52.6352 56.9696L52.6263 56.9607Z" fill="white"/>
<path id="Vector_2" d="M25.81 101.027C22.4378 95.3323 24.4897 87.3986 30.0206 84.5468C30.4489 84.3247 31.8137 84.8577 31.8137 85.0176C31.7513 88.518 31.8673 92.0718 31.2696 95.5011C30.7968 98.2197 28.5933 99.9788 25.81 101.027Z" fill="white"/>
<path id="Vector_3" d="M21.2246 93.8576C20.618 96.7716 20.2968 99.579 19.4315 102.209C18.3431 105.505 15.7739 107.522 12.4285 108.428C12.0449 108.534 11.1707 108.046 11.0369 107.655C9.3062 102.538 14.1592 94.6038 19.5385 93.6976C20.0024 93.6177 20.5109 93.7776 21.2246 93.8487V93.8576Z" fill="white"/>
<path id="Vector_4" d="M40.3868 39.4944C40.6366 39.3256 41.4841 38.4994 41.7249 38.6504C44.5172 40.374 47.925 41.3601 49.4326 44.7006C49.611 45.1004 49.9411 45.5091 49.9411 45.9089C49.9411 47.055 49.7894 48.201 49.7092 49.3471C48.7279 49.2316 47.693 49.276 46.7742 48.9651C43.2058 47.7479 40.3333 43.6967 40.3868 39.4944Z" fill="white"/>
<path id="Vector_5" d="M45.6055 11.8997C48.5672 17.399 49.7002 22.4986 44.6153 26.9497C42.385 23.7158 42.2423 15.9776 44.5796 12.7526C44.7848 12.4771 45.1237 12.2906 45.6144 11.8997H45.6055Z" fill="white"/>
<path id="Vector_6" d="M31.448 9.50101C29.8244 7.19998 29.1642 4.53469 30.2437 1.54956C32.9021 2.84667 34.8647 6.3382 34.151 8.90576C33.5266 11.1624 31.6264 12.6372 29.4408 12.7971C27.8529 12.9215 25.9705 12.1485 24.6056 11.2246C23.544 10.5049 24.5521 9.58985 25.5513 9.53655C27.4871 9.42105 29.4408 9.50101 31.448 9.50101Z" fill="white"/>
<path id="Vector_7" d="M39.6107 18.2607C36.5865 14.0495 33.9191 9.97164 37.4072 4.25903C38.6829 6.86213 40.2976 8.94106 40.6366 11.2066C40.9666 13.4543 40.0121 15.8975 39.6107 18.2607Z" fill="white"/>
<path id="Vector_8" d="M40.9934 27.2431C37.541 26.8522 35.0074 25.7861 33.4463 23.1297C33.1519 22.6233 33.0181 21.877 33.1519 21.3261C33.2054 21.104 34.1867 20.9264 34.7041 21.0063C37.2377 21.3883 40.021 21.1485 41.8855 23.4051C42.501 24.1514 43.2861 25.2974 43.0898 26.0082C42.9114 26.6567 41.5019 26.9766 40.9934 27.252V27.2431Z" fill="white"/>
<path id="Vector_9" d="M33.821 19.567C32.0992 18.5719 30.3061 17.6746 28.6736 16.5374C27.8529 15.9688 27.6209 14.9738 29.0037 14.6006C31.5996 13.8988 34.16 13.8099 36.3634 15.6668C36.9254 16.1376 37.2377 16.9106 37.657 17.5413C37.0057 17.9767 36.3813 18.4831 35.6765 18.8207C35.2305 19.0339 34.6684 18.9806 34.151 19.0428C34.044 19.2205 33.928 19.3893 33.821 19.567Z" fill="white"/>
<path id="Vector_10" d="M26.8894 7.79529C24.9892 7.72422 21.8758 4.72133 21.8134 2.0205C21.8044 1.62959 22.759 0.785581 23.0088 0.874424C25.5423 1.76285 28.0491 2.79343 28.9858 5.66306C29.3605 6.80914 29.4854 7.95521 26.8983 7.79529H26.8894Z" fill="white"/>
</g>
</svg>
