<svg width="453" height="100" viewBox="0 0 453 100" fill="none" xmlns="http://www.w3.org/2000/svg">
<path d="M27.179 16V32.064C27.179 35.136 25.963 37.952 23.979 40C25.963 42.048 27.179 44.864 27.179 48V64H20.331V48C20.331 45.504 18.283 43.456 15.787 43.456H11.243V64H4.395V16H11.243V36.544H15.787C18.283 36.544 20.331 34.56 20.331 32.064V16H27.179ZM48.1 15.808C53.028 17.024 56.676 21.504 56.676 26.816V53.312C56.676 59.648 51.556 64.704 45.284 64.704H44.9C38.564 64.704 33.508 59.648 33.508 53.312V26.816C33.508 20.544 38.564 15.424 44.9 15.424H45.284C46.244 15.424 47.204 15.552 48.1 15.808ZM49.764 53.312V26.816C49.764 26.752 49.764 26.688 49.764 26.624C49.7 24.704 48.356 23.104 46.628 22.528C46.18 22.4 45.732 22.336 45.284 22.336H44.9C42.404 22.336 40.356 24.32 40.356 26.816V53.312C40.356 55.808 42.404 57.856 44.9 57.856H45.284C47.78 57.856 49.764 55.808 49.764 53.312ZM86.438 64H79.526V45.568L70.118 34.048V64H63.27V16.064H70.118V23.104L79.526 34.688V16.064H86.438V64ZM116.176 32.32H109.264V26.816C109.264 24.32 107.28 22.336 104.784 22.336H104.4C101.904 22.336 99.856 24.32 99.856 26.816V53.312C99.856 55.808 101.904 57.856 104.4 57.856H104.784C107.28 57.856 109.264 55.808 109.264 53.312V45.568H103.568V38.72H116.176V53.312C116.176 59.648 111.056 64.704 104.784 64.704H104.4C98.064 64.704 93.008 59.648 93.008 53.312V26.816C93.008 20.544 98.064 15.424 104.4 15.424H104.784C111.056 15.424 116.176 20.544 116.176 26.816V32.32ZM153.711 16.064H160.559L156.143 38.336L151.087 64H144.303L144.239 63.808L139.183 38.336L134.831 16.064H141.679L145.903 38.336L147.567 46.976L149.295 38.336L153.711 16.064ZM164.895 16H171.743V64H164.895V16ZM200.849 32.32H193.937V26.816C193.937 24.32 191.953 22.336 189.457 22.336H189.073C186.577 22.336 184.529 24.32 184.529 26.816V28.864C184.529 30.912 185.425 32.896 187.025 34.24L191.505 38.208L196.049 42.112C197.905 43.712 199.185 45.568 199.953 47.68C200.593 49.344 200.849 51.136 200.849 53.312C200.849 57.152 198.929 60.544 196.049 62.656C192.657 65.024 189.265 64.704 189.073 64.704C182.737 64.704 177.681 59.648 177.681 53.312V48.192H184.529V53.312C184.529 55.808 186.577 57.856 189.073 57.856H189.457C189.905 57.856 190.353 57.792 190.801 57.664C192.529 57.088 193.873 55.488 193.937 53.568C193.937 53.504 193.937 53.376 193.937 53.312C193.937 50.944 193.553 49.088 191.505 47.36L186.961 43.392L182.481 39.424C179.409 36.8 177.681 32.896 177.681 28.864V26.816C177.681 20.544 182.737 15.424 189.073 15.424H189.457C195.729 15.424 200.849 20.544 200.849 26.816V32.32ZM222.708 16.128H229.62V53.12C229.62 59.456 224.5 64.512 218.228 64.512H217.844C211.508 64.512 206.452 59.456 206.452 53.12V16.128H213.3V53.12C213.3 55.616 215.348 57.664 217.844 57.664H218.228C220.724 57.664 222.708 55.616 222.708 53.12V16.128ZM259.37 38.272V45.184V64H252.458V45.184V38.272V27.392C252.458 24.896 250.474 22.912 247.978 22.912H247.594C245.098 22.912 243.05 24.896 243.05 27.392V38.272H252.458V45.184H243.05V64H236.202V45.184V38.272V27.392C236.202 21.12 241.258 16 247.594 16H247.978C254.25 16 259.37 21.12 259.37 27.392V38.272ZM273.056 57.088H284.896V64H273.056H266.208V16.064H273.056V57.088ZM325.474 32.32H318.562V26.816C318.562 24.32 316.578 22.336 314.082 22.336H313.698C311.202 22.336 309.154 24.32 309.154 26.816V28.864C309.154 30.912 310.05 32.896 311.65 34.24L316.13 38.208L320.674 42.112C322.53 43.712 323.81 45.568 324.578 47.68C325.218 49.344 325.474 51.136 325.474 53.312C325.474 57.152 323.554 60.544 320.674 62.656C317.282 65.024 313.89 64.704 313.698 64.704C307.362 64.704 302.306 59.648 302.306 53.312V48.192H309.154V53.312C309.154 55.808 311.202 57.856 313.698 57.856H314.082C314.53 57.856 314.978 57.792 315.426 57.664C317.154 57.088 318.498 55.488 318.562 53.568C318.562 53.504 318.562 53.376 318.562 53.312C318.562 50.944 318.178 49.088 316.13 47.36L311.586 43.392L307.106 39.424C304.034 36.8 302.306 32.896 302.306 28.864V26.816C302.306 20.544 307.362 15.424 313.698 15.424H314.082C320.354 15.424 325.474 20.544 325.474 26.816V32.32ZM342.725 22.912H328.069V16H342.725V22.912ZM350.533 22.912H342.725V16H350.533V22.912ZM342.725 64H335.812V22.912H342.725V64ZM370.395 16.128H377.307V53.12C377.307 59.456 372.187 64.512 365.915 64.512H365.531C359.195 64.512 354.139 59.456 354.139 53.12V16.128H360.987V53.12C360.987 55.616 363.035 57.664 365.531 57.664H365.915C368.411 57.664 370.395 55.616 370.395 53.12V16.128ZM406.801 38.976H399.889V27.392C399.889 24.896 397.905 22.912 395.409 22.912H390.993V57.152H395.409C397.905 57.152 399.889 55.104 399.889 52.608V39.04H406.801V52.608C406.801 58.944 401.681 64 395.409 64H384.145V16H390.993H395.409C401.681 16 406.801 21.12 406.801 27.392V38.976ZM413.333 16H420.181V64H413.333V16ZM441.35 15.808C446.278 17.024 449.926 21.504 449.926 26.816V53.312C449.926 59.648 444.806 64.704 438.534 64.704H438.15C431.814 64.704 426.758 59.648 426.758 53.312V26.816C426.758 20.544 431.814 15.424 438.15 15.424H438.534C439.494 15.424 440.454 15.552 441.35 15.808ZM443.014 53.312V26.816C443.014 26.752 443.014 26.688 443.014 26.624C442.95 24.704 441.606 23.104 439.878 22.528C439.43 22.4 438.982 22.336 438.534 22.336H438.15C435.654 22.336 433.606 24.32 433.606 26.816V53.312C433.606 55.808 435.654 57.856 438.15 57.856H438.534C441.03 57.856 443.014 55.808 443.014 53.312Z" fill="white"/>
<path d="M79.0259 96V81.28H83.5859C86.6059 81.28 88.7859 82.24 88.7859 84.9C88.7859 86.3 88.0059 87.64 86.6859 88.08V88.18C88.3659 88.54 89.5859 89.68 89.5859 91.68C89.5859 94.6 87.2059 96 83.9459 96H79.0259ZM81.3459 87.42H83.3259C85.5659 87.42 86.5059 86.58 86.5059 85.2C86.5059 83.66 85.4659 83.08 83.3859 83.08H81.3459V87.42ZM81.3459 94.18H83.6859C85.9859 94.18 87.3059 93.36 87.3059 91.56C87.3059 89.9 86.0259 89.18 83.6859 89.18H81.3459V94.18ZM92.1658 96V85H94.0458L94.2258 86.98H94.2858C95.0658 85.56 96.2258 84.72 97.4058 84.72C97.9458 84.72 98.3058 84.8 98.6458 84.96L98.2258 86.96C97.8458 86.84 97.5658 86.78 97.1258 86.78C96.2258 86.78 95.1458 87.4 94.4458 89.14V96H92.1658ZM104.535 96.26C101.815 96.26 99.3545 94.16 99.3545 90.52C99.3545 86.84 101.815 84.72 104.535 84.72C107.255 84.72 109.715 86.84 109.715 90.52C109.715 94.16 107.255 96.26 104.535 96.26ZM104.535 94.38C106.275 94.38 107.355 92.84 107.355 90.52C107.355 88.18 106.275 86.62 104.535 86.62C102.815 86.62 101.735 88.18 101.735 90.52C101.735 92.84 102.815 94.38 104.535 94.38ZM114.727 96.26C112.827 96.26 111.487 95.02 111.487 93.08C111.487 90.72 113.487 89.5 118.067 89C118.047 87.72 117.587 86.6 115.967 86.6C114.807 86.6 113.727 87.12 112.787 87.72L111.927 86.16C113.067 85.44 114.607 84.72 116.367 84.72C119.107 84.72 120.367 86.46 120.367 89.38V96H118.487L118.287 94.74H118.227C117.227 95.6 116.047 96.26 114.727 96.26ZM115.427 94.44C116.387 94.44 117.167 93.98 118.067 93.16V90.46C114.807 90.86 113.707 91.68 113.707 92.92C113.707 94 114.447 94.44 115.427 94.44ZM127.431 96.26C124.671 96.26 122.891 94.16 122.891 90.52C122.891 86.94 125.151 84.72 127.611 84.72C128.871 84.72 129.671 85.2 130.571 85.96L130.471 84.14V80.06H132.771V96H130.891L130.691 94.76H130.631C129.811 95.6 128.671 96.26 127.431 96.26ZM127.971 94.36C128.891 94.36 129.671 93.94 130.471 93.02V87.64C129.651 86.9 128.871 86.64 128.051 86.64C126.511 86.64 125.271 88.1 125.271 90.48C125.271 92.98 126.251 94.36 127.971 94.36ZM140.808 96.26C137.828 96.26 135.448 94.14 135.448 90.52C135.448 86.94 137.888 84.72 140.468 84.72C143.388 84.72 144.948 86.82 144.948 89.94C144.948 90.38 144.908 90.84 144.848 91.1H137.708C137.888 93.2 139.208 94.46 141.108 94.46C142.088 94.46 142.928 94.16 143.728 93.64L144.528 95.1C143.508 95.78 142.248 96.26 140.808 96.26ZM137.688 89.52H142.968C142.968 87.62 142.108 86.52 140.508 86.52C139.128 86.52 137.908 87.58 137.688 89.52ZM147.537 96V85H149.417L149.597 86.52H149.657C150.677 85.54 151.797 84.72 153.297 84.72C155.637 84.72 156.677 86.28 156.677 89.08V96H154.377V89.36C154.377 87.46 153.817 86.7 152.517 86.7C151.497 86.7 150.797 87.22 149.817 88.2V96H147.537ZM164.51 96V80.06H166.79V84.28L166.71 86.46C167.67 85.54 168.77 84.72 170.27 84.72C172.61 84.72 173.65 86.28 173.65 89.08V96H171.35V89.36C171.35 87.46 170.79 86.7 169.49 86.7C168.47 86.7 167.77 87.22 166.79 88.2V96H164.51ZM181.331 96.26C178.611 96.26 176.151 94.16 176.151 90.52C176.151 86.84 178.611 84.72 181.331 84.72C184.051 84.72 186.511 86.84 186.511 90.52C186.511 94.16 184.051 96.26 181.331 96.26ZM181.331 94.38C183.071 94.38 184.151 92.84 184.151 90.52C184.151 88.18 183.071 86.62 181.331 86.62C179.611 86.62 178.531 88.18 178.531 90.52C178.531 92.84 179.611 94.38 181.331 94.38ZM189.217 96V85H191.097L191.277 86.98H191.337C192.117 85.56 193.277 84.72 194.457 84.72C194.997 84.72 195.357 84.8 195.697 84.96L195.277 86.96C194.897 86.84 194.617 86.78 194.177 86.78C193.277 86.78 192.197 87.4 191.497 89.14V96H189.217ZM197.4 96V85H199.68V96H197.4ZM198.54 82.94C197.7 82.94 197.08 82.38 197.08 81.58C197.08 80.76 197.7 80.22 198.54 80.22C199.38 80.22 200.02 80.76 200.02 81.58C200.02 82.38 199.38 82.94 198.54 82.94ZM202.142 96V94.76L207.562 86.84H202.742V85H210.462V86.22L205.042 94.16H210.642V96H202.142ZM217.132 96.26C214.412 96.26 211.952 94.16 211.952 90.52C211.952 86.84 214.412 84.72 217.132 84.72C219.852 84.72 222.312 86.84 222.312 90.52C222.312 94.16 219.852 96.26 217.132 96.26ZM217.132 94.38C218.872 94.38 219.952 92.84 219.952 90.52C219.952 88.18 218.872 86.62 217.132 86.62C215.412 86.62 214.332 88.18 214.332 90.52C214.332 92.84 215.412 94.38 217.132 94.38ZM225.017 96V85H226.897L227.077 86.52H227.137C228.157 85.54 229.277 84.72 230.777 84.72C233.117 84.72 234.157 86.28 234.157 89.08V96H231.857V89.36C231.857 87.46 231.297 86.7 229.997 86.7C228.977 86.7 228.277 87.22 227.297 88.2V96H225.017ZM240.478 96.26C238.958 96.26 237.398 95.62 236.338 94.74L237.418 93.26C238.398 94.04 239.358 94.52 240.538 94.52C241.858 94.52 242.478 93.88 242.478 93.04C242.478 92.04 241.238 91.6 240.038 91.14C238.578 90.58 236.898 89.8 236.898 87.94C236.898 86.1 238.378 84.72 240.798 84.72C242.278 84.72 243.478 85.32 244.378 86.02L243.298 87.44C242.538 86.88 241.758 86.48 240.838 86.48C239.638 86.48 239.078 87.08 239.078 87.84C239.078 88.78 240.218 89.14 241.418 89.58C242.958 90.16 244.658 90.84 244.658 92.92C244.658 94.76 243.198 96.26 240.478 96.26ZM252.739 92.02C252.739 93.48 253.899 94.46 255.419 94.46C256.299 94.46 257.179 94.08 257.959 93.46C256.599 92.3 255.299 90.92 254.319 89.48C253.419 90.24 252.739 91.02 252.739 92.02ZM254.359 84.58C254.359 85.3 254.599 86.1 254.979 86.9C256.259 86.08 257.299 85.28 257.299 84.06C257.299 83.26 256.919 82.6 256.019 82.6C255.039 82.6 254.359 83.42 254.359 84.58ZM263.599 94.38L263.019 96.26C261.939 96 260.719 95.44 259.519 94.64C258.359 95.64 256.919 96.26 255.139 96.26C252.319 96.26 250.539 94.48 250.539 92.16C250.539 90.14 251.879 88.92 253.379 87.92C252.779 86.76 252.419 85.62 252.419 84.6C252.419 82.6 253.839 81 255.999 81C257.939 81 259.119 82.24 259.119 84.04C259.119 85.98 257.479 87.2 255.859 88.36C256.799 89.68 258.059 90.98 259.359 92.02C260.219 90.9 260.899 89.52 261.339 87.94H263.459C262.899 89.84 262.059 91.6 260.899 93.12C261.879 93.74 262.819 94.18 263.599 94.38ZM272.473 96.26C270.813 96.26 270.193 95.2 270.193 93.42V80.06H272.473V93.54C272.473 94.16 272.753 94.38 273.033 94.38C273.133 94.38 273.213 94.38 273.413 94.34L273.713 96.08C273.433 96.18 273.033 96.26 272.473 96.26ZM280.73 96.26C277.75 96.26 275.37 94.14 275.37 90.52C275.37 86.94 277.81 84.72 280.39 84.72C283.31 84.72 284.87 86.82 284.87 89.94C284.87 90.38 284.83 90.84 284.77 91.1H277.63C277.81 93.2 279.13 94.46 281.03 94.46C282.01 94.46 282.85 94.16 283.65 93.64L284.45 95.1C283.43 95.78 282.17 96.26 280.73 96.26ZM277.61 89.52H282.89C282.89 87.62 282.03 86.52 280.43 86.52C279.05 86.52 277.83 87.58 277.61 89.52ZM289.766 96.26C287.866 96.26 286.526 95.02 286.526 93.08C286.526 90.72 288.526 89.5 293.106 89C293.086 87.72 292.626 86.6 291.006 86.6C289.846 86.6 288.766 87.12 287.826 87.72L286.966 86.16C288.106 85.44 289.646 84.72 291.406 84.72C294.146 84.72 295.406 86.46 295.406 89.38V96H293.526L293.326 94.74H293.266C292.266 95.6 291.086 96.26 289.766 96.26ZM290.466 94.44C291.426 94.44 292.206 93.98 293.106 93.16V90.46C289.846 90.86 288.746 91.68 288.746 92.92C288.746 94 289.486 94.44 290.466 94.44ZM302.47 96.26C299.71 96.26 297.93 94.16 297.93 90.52C297.93 86.94 300.19 84.72 302.65 84.72C303.91 84.72 304.71 85.2 305.61 85.96L305.51 84.14V80.06H307.81V96H305.93L305.73 94.76H305.67C304.85 95.6 303.71 96.26 302.47 96.26ZM303.01 94.36C303.93 94.36 304.71 93.94 305.51 93.02V87.64C304.69 86.9 303.91 86.64 303.09 86.64C301.55 86.64 300.31 88.1 300.31 90.48C300.31 92.98 301.29 94.36 303.01 94.36ZM319.46 96.26C316.98 96.26 316.12 94.72 316.12 92.4V86.84H314.52V85.12L316.22 85L316.48 81.96H318.42V85H321.28V86.84H318.42V92.42C318.42 93.74 318.88 94.42 320.02 94.42C320.4 94.42 320.88 94.3 321.2 94.16L321.62 95.86C321 96.06 320.26 96.26 319.46 96.26ZM323.689 96V85H325.569L325.749 86.98H325.809C326.589 85.56 327.749 84.72 328.929 84.72C329.469 84.72 329.829 84.8 330.169 84.96L329.749 86.96C329.369 86.84 329.089 86.78 328.649 86.78C327.749 86.78 326.669 87.4 325.969 89.14V96H323.689ZM336.238 96.26C333.258 96.26 330.878 94.14 330.878 90.52C330.878 86.94 333.318 84.72 335.898 84.72C338.818 84.72 340.378 86.82 340.378 89.94C340.378 90.38 340.338 90.84 340.278 91.1H333.138C333.318 93.2 334.638 94.46 336.538 94.46C337.518 94.46 338.358 94.16 339.158 93.64L339.958 95.1C338.938 95.78 337.678 96.26 336.238 96.26ZM333.118 89.52H338.398C338.398 87.62 337.538 86.52 335.938 86.52C334.558 86.52 333.338 87.58 333.118 89.52ZM342.967 96V85H344.847L345.027 86.52H345.087C346.107 85.54 347.227 84.72 348.727 84.72C351.067 84.72 352.107 86.28 352.107 89.08V96H349.807V89.36C349.807 87.46 349.247 86.7 347.947 86.7C346.927 86.7 346.227 87.22 345.247 88.2V96H342.967ZM359.247 96.26C356.487 96.26 354.707 94.16 354.707 90.52C354.707 86.94 356.967 84.72 359.427 84.72C360.687 84.72 361.487 85.2 362.387 85.96L362.287 84.14V80.06H364.587V96H362.707L362.507 94.76H362.447C361.627 95.6 360.487 96.26 359.247 96.26ZM359.787 94.36C360.707 94.36 361.487 93.94 362.287 93.02V87.64C361.467 86.9 360.687 86.64 359.867 86.64C358.327 86.64 357.087 88.1 357.087 90.48C357.087 92.98 358.067 94.36 359.787 94.36ZM371.025 96.26C369.505 96.26 367.945 95.62 366.885 94.74L367.965 93.26C368.945 94.04 369.905 94.52 371.085 94.52C372.405 94.52 373.025 93.88 373.025 93.04C373.025 92.04 371.785 91.6 370.585 91.14C369.125 90.58 367.445 89.8 367.445 87.94C367.445 86.1 368.925 84.72 371.345 84.72C372.825 84.72 374.025 85.32 374.925 86.02L373.845 87.44C373.085 86.88 372.305 86.48 371.385 86.48C370.185 86.48 369.625 87.08 369.625 87.84C369.625 88.78 370.765 89.14 371.965 89.58C373.505 90.16 375.205 90.84 375.205 92.92C375.205 94.76 373.745 96.26 371.025 96.26Z" fill="white"/>
</svg>
