<svg width="454" height="100" viewBox="0 0 454 100" fill="none" xmlns="http://www.w3.org/2000/svg">
<path d="M27.2013 16V32.064C27.2013 35.136 25.9853 37.952 24.0013 40C25.9853 42.048 27.2013 44.864 27.2013 48V64H20.3533V48C20.3533 45.504 18.3053 43.456 15.8093 43.456H11.2653V64H4.41728V16H11.2653V36.544H15.8093C18.3053 36.544 20.3533 34.56 20.3533 32.064V16H27.2013ZM48.1223 15.808C53.0503 17.024 56.6983 21.504 56.6983 26.816V53.312C56.6983 59.648 51.5783 64.704 45.3063 64.704H44.9223C38.5863 64.704 33.5303 59.648 33.5303 53.312V26.816C33.5303 20.544 38.5863 15.424 44.9223 15.424H45.3063C46.2663 15.424 47.2263 15.552 48.1223 15.808ZM49.7863 53.312V26.816C49.7863 26.752 49.7863 26.688 49.7863 26.624C49.7223 24.704 48.3783 23.104 46.6503 22.528C46.2023 22.4 45.7543 22.336 45.3063 22.336H44.9223C42.4263 22.336 40.3783 24.32 40.3783 26.816V53.312C40.3783 55.808 42.4263 57.856 44.9223 57.856H45.3063C47.8023 57.856 49.7863 55.808 49.7863 53.312ZM86.4603 64H79.5483V45.568L70.1403 34.048V64H63.2923V16.064H70.1403V23.104L79.5483 34.688V16.064H86.4603V64ZM116.198 32.32H109.286V26.816C109.286 24.32 107.302 22.336 104.806 22.336H104.422C101.926 22.336 99.8783 24.32 99.8783 26.816V53.312C99.8783 55.808 101.926 57.856 104.422 57.856H104.806C107.302 57.856 109.286 55.808 109.286 53.312V45.568H103.59V38.72H116.198V53.312C116.198 59.648 111.078 64.704 104.806 64.704H104.422C98.0863 64.704 93.0303 59.648 93.0303 53.312V26.816C93.0303 20.544 98.0863 15.424 104.422 15.424H104.806C111.078 15.424 116.198 20.544 116.198 26.816V32.32ZM153.733 16.064H160.581L156.165 38.336L151.109 64H144.325L144.261 63.808L139.205 38.336L134.853 16.064H141.701L145.925 38.336L147.589 46.976L149.317 38.336L153.733 16.064ZM164.917 16H171.765V64H164.917V16ZM200.871 32.32H193.959V26.816C193.959 24.32 191.975 22.336 189.479 22.336H189.095C186.599 22.336 184.551 24.32 184.551 26.816V28.864C184.551 30.912 185.447 32.896 187.047 34.24L191.527 38.208L196.071 42.112C197.927 43.712 199.207 45.568 199.975 47.68C200.615 49.344 200.871 51.136 200.871 53.312C200.871 57.152 198.951 60.544 196.071 62.656C192.679 65.024 189.287 64.704 189.095 64.704C182.759 64.704 177.703 59.648 177.703 53.312V48.192H184.551V53.312C184.551 55.808 186.599 57.856 189.095 57.856H189.479C189.927 57.856 190.375 57.792 190.823 57.664C192.551 57.088 193.895 55.488 193.959 53.568C193.959 53.504 193.959 53.376 193.959 53.312C193.959 50.944 193.575 49.088 191.527 47.36L186.983 43.392L182.503 39.424C179.431 36.8 177.703 32.896 177.703 28.864V26.816C177.703 20.544 182.759 15.424 189.095 15.424H189.479C195.751 15.424 200.871 20.544 200.871 26.816V32.32ZM222.73 16.128H229.642V53.12C229.642 59.456 224.522 64.512 218.25 64.512H217.866C211.53 64.512 206.474 59.456 206.474 53.12V16.128H213.322V53.12C213.322 55.616 215.37 57.664 217.866 57.664H218.25C220.746 57.664 222.73 55.616 222.73 53.12V16.128ZM259.392 38.272V45.184V64H252.48V45.184V38.272V27.392C252.48 24.896 250.496 22.912 248 22.912H247.616C245.12 22.912 243.072 24.896 243.072 27.392V38.272H252.48V45.184H243.072V64H236.224V45.184V38.272V27.392C236.224 21.12 241.28 16 247.616 16H248C254.272 16 259.392 21.12 259.392 27.392V38.272ZM273.078 57.088H284.918V64H273.078H266.23V16.064H273.078V57.088ZM325.496 32.32H318.584V26.816C318.584 24.32 316.6 22.336 314.104 22.336H313.72C311.224 22.336 309.176 24.32 309.176 26.816V28.864C309.176 30.912 310.072 32.896 311.672 34.24L316.152 38.208L320.696 42.112C322.552 43.712 323.832 45.568 324.6 47.68C325.24 49.344 325.496 51.136 325.496 53.312C325.496 57.152 323.576 60.544 320.696 62.656C317.304 65.024 313.912 64.704 313.72 64.704C307.384 64.704 302.328 59.648 302.328 53.312V48.192H309.176V53.312C309.176 55.808 311.224 57.856 313.72 57.856H314.104C314.552 57.856 315 57.792 315.448 57.664C317.176 57.088 318.52 55.488 318.584 53.568C318.584 53.504 318.584 53.376 318.584 53.312C318.584 50.944 318.2 49.088 316.152 47.36L311.608 43.392L307.128 39.424C304.056 36.8 302.328 32.896 302.328 28.864V26.816C302.328 20.544 307.384 15.424 313.72 15.424H314.104C320.376 15.424 325.496 20.544 325.496 26.816V32.32ZM342.747 22.912H328.091V16H342.747V22.912ZM350.555 22.912H342.747V16H350.555V22.912ZM342.747 64H335.835V22.912H342.747V64ZM370.417 16.128H377.329V53.12C377.329 59.456 372.209 64.512 365.937 64.512H365.553C359.217 64.512 354.161 59.456 354.161 53.12V16.128H361.009V53.12C361.009 55.616 363.057 57.664 365.553 57.664H365.937C368.433 57.664 370.417 55.616 370.417 53.12V16.128ZM406.823 38.976H399.911V27.392C399.911 24.896 397.927 22.912 395.431 22.912H391.015V57.152H395.431C397.927 57.152 399.911 55.104 399.911 52.608V39.04H406.823V52.608C406.823 58.944 401.703 64 395.431 64H384.167V16H391.015H395.431C401.703 16 406.823 21.12 406.823 27.392V38.976ZM413.355 16H420.203V64H413.355V16ZM441.372 15.808C446.3 17.024 449.948 21.504 449.948 26.816V53.312C449.948 59.648 444.828 64.704 438.556 64.704H438.172C431.836 64.704 426.78 59.648 426.78 53.312V26.816C426.78 20.544 431.836 15.424 438.172 15.424H438.556C439.516 15.424 440.476 15.552 441.372 15.808ZM443.036 53.312V26.816C443.036 26.752 443.036 26.688 443.036 26.624C442.972 24.704 441.628 23.104 439.9 22.528C439.452 22.4 439.004 22.336 438.556 22.336H438.172C435.676 22.336 433.628 24.32 433.628 26.816V53.312C433.628 55.808 435.676 57.856 438.172 57.856H438.556C441.052 57.856 443.036 55.808 443.036 53.312Z" fill="white"/>
<path d="M156.134 96V81.28H160.694C163.714 81.28 165.894 82.24 165.894 84.9C165.894 86.3 165.114 87.64 163.794 88.08V88.18C165.474 88.54 166.694 89.68 166.694 91.68C166.694 94.6 164.314 96 161.054 96H156.134ZM158.454 87.42H160.434C162.674 87.42 163.614 86.58 163.614 85.2C163.614 83.66 162.574 83.08 160.494 83.08H158.454V87.42ZM158.454 94.18H160.794C163.094 94.18 164.414 93.36 164.414 91.56C164.414 89.9 163.134 89.18 160.794 89.18H158.454V94.18ZM169.274 96V85H171.154L171.334 86.98H171.394C172.174 85.56 173.334 84.72 174.514 84.72C175.054 84.72 175.414 84.8 175.754 84.96L175.334 86.96C174.954 86.84 174.674 86.78 174.234 86.78C173.334 86.78 172.254 87.4 171.554 89.14V96H169.274ZM181.643 96.26C178.923 96.26 176.463 94.16 176.463 90.52C176.463 86.84 178.923 84.72 181.643 84.72C184.363 84.72 186.823 86.84 186.823 90.52C186.823 94.16 184.363 96.26 181.643 96.26ZM181.643 94.38C183.383 94.38 184.463 92.84 184.463 90.52C184.463 88.18 183.383 86.62 181.643 86.62C179.923 86.62 178.843 88.18 178.843 90.52C178.843 92.84 179.923 94.38 181.643 94.38ZM191.835 96.26C189.935 96.26 188.595 95.02 188.595 93.08C188.595 90.72 190.595 89.5 195.175 89C195.155 87.72 194.695 86.6 193.075 86.6C191.915 86.6 190.835 87.12 189.895 87.72L189.035 86.16C190.175 85.44 191.715 84.72 193.475 84.72C196.215 84.72 197.475 86.46 197.475 89.38V96H195.595L195.395 94.74H195.335C194.335 95.6 193.155 96.26 191.835 96.26ZM192.535 94.44C193.495 94.44 194.275 93.98 195.175 93.16V90.46C191.915 90.86 190.815 91.68 190.815 92.92C190.815 94 191.555 94.44 192.535 94.44ZM204.539 96.26C201.779 96.26 199.999 94.16 199.999 90.52C199.999 86.94 202.259 84.72 204.719 84.72C205.979 84.72 206.779 85.2 207.679 85.96L207.579 84.14V80.06H209.879V96H207.999L207.799 94.76H207.739C206.919 95.6 205.779 96.26 204.539 96.26ZM205.079 94.36C205.999 94.36 206.779 93.94 207.579 93.02V87.64C206.759 86.9 205.979 86.64 205.159 86.64C203.619 86.64 202.379 88.1 202.379 90.48C202.379 92.98 203.359 94.36 205.079 94.36ZM217.916 96.26C214.936 96.26 212.556 94.14 212.556 90.52C212.556 86.94 214.996 84.72 217.576 84.72C220.496 84.72 222.056 86.82 222.056 89.94C222.056 90.38 222.016 90.84 221.956 91.1H214.816C214.996 93.2 216.316 94.46 218.216 94.46C219.196 94.46 220.036 94.16 220.836 93.64L221.636 95.1C220.616 95.78 219.356 96.26 217.916 96.26ZM214.796 89.52H220.076C220.076 87.62 219.216 86.52 217.616 86.52C216.236 86.52 215.016 87.58 214.796 89.52ZM224.645 96V85H226.525L226.705 86.52H226.765C227.785 85.54 228.905 84.72 230.405 84.72C232.745 84.72 233.785 86.28 233.785 89.08V96H231.485V89.36C231.485 87.46 230.925 86.7 229.625 86.7C228.605 86.7 227.905 87.22 226.925 88.2V96H224.645ZM241.618 96V80.06H243.898V84.28L243.818 86.46C244.778 85.54 245.878 84.72 247.378 84.72C249.718 84.72 250.758 86.28 250.758 89.08V96H248.458V89.36C248.458 87.46 247.898 86.7 246.598 86.7C245.578 86.7 244.878 87.22 243.898 88.2V96H241.618ZM258.44 96.26C255.72 96.26 253.26 94.16 253.26 90.52C253.26 86.84 255.72 84.72 258.44 84.72C261.16 84.72 263.62 86.84 263.62 90.52C263.62 94.16 261.16 96.26 258.44 96.26ZM258.44 94.38C260.18 94.38 261.26 92.84 261.26 90.52C261.26 88.18 260.18 86.62 258.44 86.62C256.72 86.62 255.64 88.18 255.64 90.52C255.64 92.84 256.72 94.38 258.44 94.38ZM266.325 96V85H268.205L268.385 86.98H268.445C269.225 85.56 270.385 84.72 271.565 84.72C272.105 84.72 272.465 84.8 272.805 84.96L272.385 86.96C272.005 86.84 271.725 86.78 271.285 86.78C270.385 86.78 269.305 87.4 268.605 89.14V96H266.325ZM274.508 96V85H276.788V96H274.508ZM275.648 82.94C274.808 82.94 274.188 82.38 274.188 81.58C274.188 80.76 274.808 80.22 275.648 80.22C276.488 80.22 277.128 80.76 277.128 81.58C277.128 82.38 276.488 82.94 275.648 82.94ZM279.251 96V94.76L284.671 86.84H279.851V85H287.571V86.22L282.151 94.16H287.751V96H279.251ZM294.24 96.26C291.52 96.26 289.06 94.16 289.06 90.52C289.06 86.84 291.52 84.72 294.24 84.72C296.96 84.72 299.42 86.84 299.42 90.52C299.42 94.16 296.96 96.26 294.24 96.26ZM294.24 94.38C295.98 94.38 297.06 92.84 297.06 90.52C297.06 88.18 295.98 86.62 294.24 86.62C292.52 86.62 291.44 88.18 291.44 90.52C291.44 92.84 292.52 94.38 294.24 94.38ZM302.126 96V85H304.006L304.186 86.52H304.246C305.266 85.54 306.386 84.72 307.886 84.72C310.226 84.72 311.266 86.28 311.266 89.08V96H308.966V89.36C308.966 87.46 308.406 86.7 307.106 86.7C306.086 86.7 305.386 87.22 304.406 88.2V96H302.126ZM317.586 96.26C316.066 96.26 314.506 95.62 313.446 94.74L314.526 93.26C315.506 94.04 316.466 94.52 317.646 94.52C318.966 94.52 319.586 93.88 319.586 93.04C319.586 92.04 318.346 91.6 317.146 91.14C315.686 90.58 314.006 89.8 314.006 87.94C314.006 86.1 315.486 84.72 317.906 84.72C319.386 84.72 320.586 85.32 321.486 86.02L320.406 87.44C319.646 86.88 318.866 86.48 317.946 86.48C316.746 86.48 316.186 87.08 316.186 87.84C316.186 88.78 317.326 89.14 318.526 89.58C320.066 90.16 321.766 90.84 321.766 92.92C321.766 94.76 320.306 96.26 317.586 96.26ZM329.848 92.02C329.848 93.48 331.008 94.46 332.528 94.46C333.408 94.46 334.288 94.08 335.068 93.46C333.708 92.3 332.408 90.92 331.428 89.48C330.528 90.24 329.848 91.02 329.848 92.02ZM331.468 84.58C331.468 85.3 331.708 86.1 332.088 86.9C333.368 86.08 334.408 85.28 334.408 84.06C334.408 83.26 334.028 82.6 333.128 82.6C332.148 82.6 331.468 83.42 331.468 84.58ZM340.708 94.38L340.128 96.26C339.048 96 337.828 95.44 336.628 94.64C335.468 95.64 334.028 96.26 332.248 96.26C329.428 96.26 327.648 94.48 327.648 92.16C327.648 90.14 328.988 88.92 330.488 87.92C329.888 86.76 329.528 85.62 329.528 84.6C329.528 82.6 330.948 81 333.108 81C335.048 81 336.228 82.24 336.228 84.04C336.228 85.98 334.588 87.2 332.968 88.36C333.908 89.68 335.168 90.98 336.468 92.02C337.328 90.9 338.008 89.52 338.448 87.94H340.568C340.008 89.84 339.168 91.6 338.008 93.12C338.988 93.74 339.928 94.18 340.708 94.38ZM349.581 96.26C347.921 96.26 347.301 95.2 347.301 93.42V80.06H349.581V93.54C349.581 94.16 349.861 94.38 350.141 94.38C350.241 94.38 350.321 94.38 350.521 94.34L350.821 96.08C350.541 96.18 350.141 96.26 349.581 96.26ZM357.838 96.26C354.858 96.26 352.478 94.14 352.478 90.52C352.478 86.94 354.918 84.72 357.498 84.72C360.418 84.72 361.978 86.82 361.978 89.94C361.978 90.38 361.938 90.84 361.878 91.1H354.738C354.918 93.2 356.238 94.46 358.138 94.46C359.118 94.46 359.958 94.16 360.758 93.64L361.558 95.1C360.538 95.78 359.278 96.26 357.838 96.26ZM354.718 89.52H359.998C359.998 87.62 359.138 86.52 357.538 86.52C356.158 86.52 354.938 87.58 354.718 89.52ZM366.874 96.26C364.974 96.26 363.634 95.02 363.634 93.08C363.634 90.72 365.634 89.5 370.214 89C370.194 87.72 369.734 86.6 368.114 86.6C366.954 86.6 365.874 87.12 364.934 87.72L364.074 86.16C365.214 85.44 366.754 84.72 368.514 84.72C371.254 84.72 372.514 86.46 372.514 89.38V96H370.634L370.434 94.74H370.374C369.374 95.6 368.194 96.26 366.874 96.26ZM367.574 94.44C368.534 94.44 369.314 93.98 370.214 93.16V90.46C366.954 90.86 365.854 91.68 365.854 92.92C365.854 94 366.594 94.44 367.574 94.44ZM379.578 96.26C376.818 96.26 375.038 94.16 375.038 90.52C375.038 86.94 377.298 84.72 379.758 84.72C381.018 84.72 381.818 85.2 382.718 85.96L382.618 84.14V80.06H384.918V96H383.038L382.838 94.76H382.778C381.958 95.6 380.818 96.26 379.578 96.26ZM380.118 94.36C381.038 94.36 381.818 93.94 382.618 93.02V87.64C381.798 86.9 381.018 86.64 380.198 86.64C378.658 86.64 377.418 88.1 377.418 90.48C377.418 92.98 378.398 94.36 380.118 94.36ZM396.568 96.26C394.088 96.26 393.228 94.72 393.228 92.4V86.84H391.628V85.12L393.328 85L393.588 81.96H395.528V85H398.388V86.84H395.528V92.42C395.528 93.74 395.988 94.42 397.128 94.42C397.508 94.42 397.988 94.3 398.308 94.16L398.728 95.86C398.108 96.06 397.368 96.26 396.568 96.26ZM400.797 96V85H402.677L402.857 86.98H402.917C403.697 85.56 404.857 84.72 406.037 84.72C406.577 84.72 406.937 84.8 407.277 84.96L406.857 86.96C406.477 86.84 406.197 86.78 405.757 86.78C404.857 86.78 403.777 87.4 403.077 89.14V96H400.797ZM413.346 96.26C410.366 96.26 407.986 94.14 407.986 90.52C407.986 86.94 410.426 84.72 413.006 84.72C415.926 84.72 417.486 86.82 417.486 89.94C417.486 90.38 417.446 90.84 417.386 91.1H410.246C410.426 93.2 411.746 94.46 413.646 94.46C414.626 94.46 415.466 94.16 416.266 93.64L417.066 95.1C416.046 95.78 414.786 96.26 413.346 96.26ZM410.226 89.52H415.506C415.506 87.62 414.646 86.52 413.046 86.52C411.666 86.52 410.446 87.58 410.226 89.52ZM420.075 96V85H421.955L422.135 86.52H422.195C423.215 85.54 424.335 84.72 425.835 84.72C428.175 84.72 429.215 86.28 429.215 89.08V96H426.915V89.36C426.915 87.46 426.355 86.7 425.055 86.7C424.035 86.7 423.335 87.22 422.355 88.2V96H420.075ZM436.355 96.26C433.595 96.26 431.815 94.16 431.815 90.52C431.815 86.94 434.075 84.72 436.535 84.72C437.795 84.72 438.595 85.2 439.495 85.96L439.395 84.14V80.06H441.695V96H439.815L439.615 94.76H439.555C438.735 95.6 437.595 96.26 436.355 96.26ZM436.895 94.36C437.815 94.36 438.595 93.94 439.395 93.02V87.64C438.575 86.9 437.795 86.64 436.975 86.64C435.435 86.64 434.195 88.1 434.195 90.48C434.195 92.98 435.175 94.36 436.895 94.36ZM448.133 96.26C446.613 96.26 445.053 95.62 443.993 94.74L445.073 93.26C446.053 94.04 447.013 94.52 448.193 94.52C449.513 94.52 450.133 93.88 450.133 93.04C450.133 92.04 448.893 91.6 447.693 91.14C446.233 90.58 444.553 89.8 444.553 87.94C444.553 86.1 446.033 84.72 448.453 84.72C449.933 84.72 451.133 85.32 452.033 86.02L450.953 87.44C450.193 86.88 449.413 86.48 448.493 86.48C447.293 86.48 446.733 87.08 446.733 87.84C446.733 88.78 447.873 89.14 449.073 89.58C450.613 90.16 452.313 90.84 452.313 92.92C452.313 94.76 450.853 96.26 448.133 96.26Z" fill="white"/>
</svg>
