<svg width="180" height="101" viewBox="0 0 180 101" fill="none" xmlns="http://www.w3.org/2000/svg">
<g id="_&#233;&#141;&#165;&#230;&#131;&#167;&#231;&#156;&#176;_1" clip-path="url(#clip0_33_7)">
<g id="Group">
<path id="Vector" d="M60.9442 73.6405C60.371 73.1421 59.7522 72.6811 59.2289 72.1328C55.3083 68.0212 52.3179 63.3197 50.1167 58.0742C48.9705 55.3414 48.3018 52.5131 47.683 49.6349C46.6654 44.9086 46.5865 40.149 47.2801 35.4143C48.0318 30.2519 49.4273 25.2597 51.994 20.6289C53.755 17.4559 55.6862 14.4116 58.2404 11.8532C60.3627 9.72675 62.6553 7.73321 65.0641 5.93072C67.0245 4.46879 69.2589 3.37235 71.3812 2.13469C72.3738 1.55324 72.9677 1.87719 72.976 2.99856C72.9926 5.21222 72.9552 7.43003 73.0009 9.64369C73.0175 10.4453 72.652 10.8107 71.9709 11.0849C69.3502 12.1356 66.9414 13.5685 64.736 15.3253C61.4508 17.9376 58.5062 20.9196 56.2386 24.4457C54.6728 26.8836 53.4435 29.5625 52.2432 32.2122C50.8145 35.3603 50.258 38.7327 50.0711 42.1758C50.0171 43.1725 49.7969 44.1568 49.7596 45.1536C49.6142 49.3816 50.4324 53.4891 51.7573 57.4554C53.2856 62.0405 55.599 66.2477 58.6391 70.0313C59.3286 70.8869 60.0429 71.7258 60.724 72.5855C60.9192 72.8347 61.0438 73.1421 61.1975 73.4203C61.1103 73.4951 61.0272 73.574 60.94 73.6488L60.9442 73.6405Z" fill="white"/>
<path id="Vector_2" d="M120.019 72.8638C120.347 72.3737 120.676 71.8795 121.008 71.3894C122.931 68.5445 124.962 65.766 126.731 62.8297C127.661 61.2847 128.172 59.478 128.812 57.7669C129.904 54.8513 130.535 51.8112 130.789 48.7254C130.959 46.6405 130.735 44.5223 130.677 42.4166C130.664 42.0387 130.589 41.6608 130.569 41.2828C130.365 37.6322 129.306 34.2016 127.964 30.8251C126.249 26.4933 123.591 22.7803 120.468 19.4079C117.743 16.4633 114.658 13.909 110.994 12.1564C110.168 11.7618 109.283 11.4628 108.494 11.0059C108.174 10.8232 107.855 10.329 107.846 9.97179C107.792 7.5837 107.805 5.19561 107.834 2.81166C107.842 1.94364 108.349 1.66538 109.142 2.05578C115.164 5.01286 120.381 8.95841 124.563 14.2704C126.752 17.0489 128.475 20.0641 129.941 23.2579C131.524 26.7092 132.695 30.2685 133.081 34.0729C133.293 36.1495 133.708 38.2095 133.895 40.2902C134.149 43.1227 133.8 45.922 133.144 48.688C132.944 49.5228 132.89 50.3908 132.695 51.2298C131.432 56.6538 129.381 61.7581 126.129 66.2893C124.53 68.5196 122.603 70.5173 120.813 72.6105C120.659 72.7932 120.414 72.9012 120.215 73.0424C120.152 72.9843 120.086 72.9261 120.024 72.868L120.019 72.8638Z" fill="white"/>
<path id="Vector_3" d="M90.2782 41.8684C90.0415 39.6215 89.7757 37.3746 89.5722 35.1236C89.3895 33.0968 89.4559 31.0285 89.0738 29.0474C88.4093 25.5837 88.3221 22.0867 88.0604 18.5938C87.8403 15.6824 87.4458 12.7835 87.047 9.89285C87.0055 9.60213 86.4033 9.20342 86.042 9.1785C84.3516 9.07052 82.6529 9.04975 80.9584 9.06221C80.2565 9.06637 79.9617 8.88363 79.9741 8.13605C80.0115 5.95561 79.9783 3.77518 79.9991 1.59475C79.9991 1.18773 80.0572 0.751645 80.2192 0.386163C80.3022 0.199269 80.7383 -0.0208511 80.9086 0.0456002C84.8002 1.61136 88.8371 2.20942 93.0027 1.83563C94.066 1.74011 95.096 1.2791 96.1509 1.02576C97.0189 0.818097 97.9035 0.672735 98.7757 0.494147C98.9751 0.452615 99.1869 0.406929 99.3613 0.311405C100.25 -0.191133 100.516 -0.128835 100.549 0.863782C100.632 3.38893 100.628 5.91408 100.587 8.43923C100.587 8.64689 100.067 9.01237 99.7766 9.02483C98.1527 9.10374 96.5247 9.12036 94.9008 9.11621C94.0452 9.11621 93.6963 9.44431 93.6216 10.3331C93.3142 14.0461 92.928 17.7507 92.5791 21.4554C92.2427 25.0188 91.9437 28.5906 91.5865 32.154C91.2709 35.3063 90.9054 38.4545 90.5565 41.6067C90.5482 41.7023 90.4859 41.7895 90.4444 41.8809C90.3862 41.8809 90.3239 41.8726 90.2658 41.8726L90.2782 41.8684Z" fill="white"/>
</g>
<g id="Group_2">
<path id="Vector_4" d="M83.2552 97.4466C83.0974 96.4374 83.1057 96.4208 83.9821 96.4208C85.037 96.4208 86.096 96.4374 87.1509 96.4125C87.6036 96.4042 87.7781 96.5786 87.749 97.0188C87.6909 97.9325 87.9234 98.8753 87.3794 99.7309C87.1053 100.163 86.7398 100.42 86.2331 100.42C83.4504 100.424 80.6678 100.429 77.8851 100.412C77.1542 100.408 76.3692 99.6146 76.3568 98.8753C76.3318 97.538 76.336 96.2006 76.3568 94.8633C76.3651 94.2694 77.0545 93.5343 77.6567 93.4554C78.2299 93.3806 78.8113 93.3183 79.3928 93.3142C81.4652 93.2975 83.5335 93.2934 85.606 93.3225C86.3535 93.3349 87.1551 93.3515 87.533 94.1946C87.6493 94.448 87.6784 94.7429 87.7615 95.0668C87.1509 95.1 86.636 95.3077 86.2871 94.693C86.2165 94.5684 85.8967 94.5477 85.6932 94.5477C83.3217 94.5435 80.9461 94.5477 78.5746 94.556C77.8727 94.556 77.5114 94.9256 77.4989 95.6317C77.4823 96.4706 77.4781 97.3137 77.4989 98.1568C77.5155 98.9293 77.8976 99.3031 78.6618 99.3031C80.9045 99.3072 83.1473 99.3072 85.39 99.3031C86.1583 99.3031 86.5612 98.9501 86.5903 98.1859C86.6069 97.7996 86.4947 97.4217 85.9382 97.4383C85.0577 97.4632 84.1773 97.4466 83.2594 97.4466H83.2552Z" fill="white"/>
<path id="Vector_5" d="M169.7 100.387H168.529C168.529 99.9718 168.529 99.5897 168.529 99.2076C168.529 97.4591 168.546 95.7147 168.521 93.9662C168.516 93.4928 168.678 93.364 169.144 93.3017C170.161 93.1688 170.846 93.7586 171.581 94.2653C173.147 95.3451 174.709 96.4249 176.262 97.5172C176.852 97.9284 177.417 98.3728 178.007 98.7881C178.148 98.8878 178.335 98.9293 178.501 98.9958C178.584 98.7881 178.729 98.5846 178.733 98.3769C178.758 97.1933 178.746 96.0055 178.746 94.8177C178.746 94.5145 178.754 94.2154 178.746 93.9122C178.733 93.4595 178.974 93.3183 179.394 93.3142C179.83 93.31 180.004 93.4762 180 93.9289C179.983 95.8892 179.983 97.8536 180 99.814C180 100.246 179.875 100.37 179.423 100.441C178.268 100.611 177.458 100.042 176.603 99.4152C174.954 98.1984 173.259 97.0396 171.586 95.856C171.013 95.4489 170.435 95.0461 169.7 94.5311V100.383V100.387Z" fill="white"/>
<path id="Vector_6" d="M50.1915 100.375C49.2986 100.495 48.5012 100.582 47.9696 99.6686C47.8367 99.4402 47.4089 99.2782 47.114 99.274C44.9377 99.2408 42.7614 99.2408 40.5852 99.274C40.2778 99.2782 39.8293 99.4111 39.6964 99.6354C39.1772 100.491 38.438 100.532 37.4952 100.37C37.8731 99.8306 38.1971 99.299 38.5875 98.8255C39.5884 97.6169 40.6225 96.4374 41.6318 95.2371C42.0512 94.7387 42.4541 94.2237 42.8653 93.7212C43.318 93.1688 44.2691 93.1439 44.7841 93.7295C45.5192 94.5601 46.2045 95.4323 46.9063 96.2879C47.9779 97.5961 49.0494 98.9002 50.1168 100.213C50.1417 100.242 50.15 100.283 50.1957 100.383L50.1915 100.375ZM46.4744 98.0613C46.437 97.8619 46.4536 97.6834 46.3747 97.592C45.6479 96.7447 44.8879 95.9224 44.1694 95.0668C43.8787 94.718 43.6918 94.7429 43.426 95.0834C43.0231 95.6026 42.5787 96.0885 42.1634 96.5952C41.8104 97.0272 41.4781 97.4715 41.1334 97.9076C41.1749 97.9616 41.2165 98.0115 41.258 98.0654H46.4744V98.0613Z" fill="white"/>
<path id="Vector_7" d="M148.323 100.354C149.046 99.519 149.707 98.7798 150.338 98.0197C151.094 97.106 151.82 96.1632 152.568 95.2412C152.992 94.7138 153.428 94.1946 153.864 93.6796C154.275 93.1937 155.239 93.1771 155.646 93.663C156.925 95.1997 158.187 96.7488 159.458 98.2897C160.006 98.9542 160.559 99.6104 161.182 100.354C160.206 100.474 159.408 100.595 158.902 99.6353C158.794 99.4318 158.42 99.2657 158.167 99.2615C155.903 99.2325 153.635 99.2366 151.372 99.2615C151.131 99.2615 150.77 99.3944 150.67 99.5813C150.159 100.524 149.349 100.507 148.323 100.354ZM157.461 98.0696C157.369 97.8162 157.353 97.6127 157.245 97.4881C156.543 96.6658 155.808 95.8684 155.118 95.0377C154.819 94.6764 154.632 94.747 154.371 95.0585C153.839 95.6939 153.27 96.3044 152.742 96.944C152.481 97.2597 152.273 97.621 151.97 98.0696H157.465H157.461Z" fill="white"/>
<path id="Vector_8" d="M11.5086 99.345V100.425C11.2428 100.425 10.9936 100.425 10.7444 100.425C8.35212 100.425 5.94326 100.279 3.56762 100.479C1.67791 100.637 -0.124577 98.7428 0.00832529 96.8655C0.116309 95.2998 0.743443 94.2158 2.11815 93.5969C2.64146 93.3602 3.28936 93.3311 3.88327 93.327C6.23398 93.3021 8.5847 93.327 10.9354 93.327C11.3632 93.327 11.5376 93.4557 11.5459 93.9209C11.5542 94.4151 11.3798 94.5522 10.9105 94.548C9.16199 94.5314 7.41765 94.5397 5.66915 94.548C4.87173 94.548 4.07016 94.602 3.2769 94.5646C2.03094 94.5023 0.697758 96.6163 1.4038 97.8041C2.0517 98.9006 2.80759 99.3491 4.02032 99.3284C6.30459 99.291 8.59301 99.3159 10.8773 99.3201C11.0683 99.3201 11.2594 99.3367 11.5127 99.3491L11.5086 99.345Z" fill="white"/>
<path id="Vector_9" d="M58.7305 94.6183V100.375H57.7089C57.6881 100.179 57.6549 99.9925 57.6549 99.8056C57.6549 97.8661 57.6673 95.9224 57.6424 93.9828C57.6341 93.4637 57.8335 93.3515 58.3152 93.2975C59.3909 93.1729 60.0803 93.8873 60.8445 94.3898C62.3563 95.3866 63.8182 96.4623 65.2968 97.5089C65.8865 97.9284 66.4597 98.3645 67.0494 98.7798C67.552 99.1328 67.7887 99.0165 67.8261 98.3769C67.8634 97.7747 67.8427 97.1683 67.8468 96.5661C67.8468 95.7022 67.8634 94.8384 67.8427 93.9787C67.8302 93.5135 67.9964 93.3142 68.4781 93.3142C68.9516 93.3142 69.0471 93.526 69.0471 93.9496C69.0305 95.9348 69.0388 97.9159 69.0388 99.9011C69.0388 100.047 69.0139 100.192 69.0056 100.325C67.6392 100.757 66.6299 100.13 65.6083 99.3737C63.9553 98.1526 62.2483 97.0064 60.5704 95.8268C60.1634 95.5403 59.7688 95.2288 59.3618 94.9422C59.2165 94.8384 59.0462 94.7719 58.743 94.6141L58.7305 94.6183Z" fill="white"/>
<path id="Vector_10" d="M24.2631 96.4166C25.4924 96.4166 26.7259 96.3875 27.9511 96.429C28.5616 96.4498 28.7652 96.1964 28.7485 95.6358C28.7361 95.0543 28.7568 94.4687 28.7485 93.8873C28.7402 93.4138 29.0268 93.3183 29.4214 93.3141C29.845 93.31 29.982 93.5093 29.982 93.9122C29.9737 95.8974 29.9696 97.8827 29.982 99.8679C29.982 100.279 29.8491 100.449 29.4172 100.437C29.0268 100.424 28.7402 100.399 28.7527 99.8928C28.7693 99.2698 28.7402 98.6427 28.7278 98.0156C28.7195 97.6376 28.5907 97.4383 28.1505 97.4383C25.5381 97.4549 22.9299 97.4549 20.3175 97.4383C19.8482 97.4383 19.7153 97.6418 19.7195 98.0571C19.7278 98.6593 19.7029 99.2657 19.7236 99.8679C19.7402 100.283 19.599 100.445 19.1671 100.433C18.7891 100.42 18.5649 100.366 18.569 99.9053C18.5856 97.8993 18.5815 95.8933 18.569 93.8831C18.569 93.4512 18.7642 93.3224 19.1588 93.3141C19.5783 93.3058 19.7361 93.4844 19.7236 93.8956C19.7029 94.5227 19.7319 95.1457 19.7195 95.7728C19.7112 96.238 19.8981 96.429 20.3757 96.4249C21.6715 96.4083 22.9631 96.4207 24.2589 96.4207V96.4124L24.2631 96.4166Z" fill="white"/>
<path id="Vector_11" d="M135.129 100.424C133.812 100.424 132.496 100.433 131.179 100.424C130.232 100.416 129.568 99.7683 129.564 98.8338C129.551 97.1933 129.564 95.5528 129.555 93.9123C129.555 93.5592 129.622 93.335 130.041 93.3308C130.469 93.3267 130.602 93.5177 130.598 93.9206C130.585 95.3036 130.585 96.6825 130.598 98.0655C130.606 98.9709 130.955 99.3156 131.852 99.3156C134.032 99.3156 136.213 99.3156 138.393 99.3156C139.348 99.3156 139.739 98.921 139.747 97.9367C139.756 96.6409 139.76 95.3451 139.747 94.0535C139.743 93.5966 139.83 93.3184 140.378 93.3184C140.927 93.3184 140.943 93.6215 140.939 94.0286C140.927 95.5611 140.964 97.0936 140.914 98.6262C140.889 99.353 140.536 99.9718 139.839 100.292C139.618 100.395 139.344 100.42 139.095 100.424C137.779 100.437 136.462 100.429 135.145 100.433L135.129 100.424Z" fill="white"/>
<path id="Vector_12" d="M110.633 93.4056C111.642 93.3059 112.373 93.1979 113.088 93.8832C113.968 94.7304 114.998 95.424 115.987 96.1508C116.115 96.2464 116.439 96.2422 116.572 96.1425C117.573 95.3991 118.603 94.6806 119.517 93.8375C120.219 93.1937 120.95 93.3433 121.71 93.3557C121.751 93.418 121.789 93.4803 121.83 93.5426C121.415 93.8998 121.012 94.2694 120.584 94.61C119.492 95.4822 118.366 96.317 117.299 97.2182C117.066 97.4176 116.934 97.8246 116.9 98.1485C116.838 98.7466 116.867 99.353 116.884 99.9552C116.896 100.383 116.655 100.437 116.306 100.437C115.962 100.437 115.713 100.395 115.725 99.9593C115.742 99.4651 115.671 98.9584 115.742 98.4725C115.837 97.7789 115.513 97.3386 115.023 96.9524C113.752 95.9556 112.477 94.9672 111.206 93.9704C111.044 93.8458 110.911 93.6838 110.633 93.4014V93.4056Z" fill="white"/>
<path id="Vector_13" d="M103.049 97.4466C101.222 97.4466 99.4403 97.4466 97.6586 97.4466C96.9691 97.4466 96.2797 97.4757 95.5944 97.4217C95.4449 97.4092 95.2123 97.1102 95.2123 96.9482C95.2123 96.7738 95.4491 96.454 95.582 96.454C98.0531 96.4249 100.52 96.4332 103.045 96.4332V97.4508L103.049 97.4466Z" fill="white"/>
</g>
</g>
<defs>
<clipPath id="clip0_33_7">
<rect width="180" height="100.487" fill="white"/>
</clipPath>
</defs>
</svg>
