<?xml version="1.0" encoding="UTF-8"?>
<svg id="_图层_2" data-name="图层 2" xmlns="http://www.w3.org/2000/svg" viewBox="0 0 159.74 556.64">
  <defs>
    <style>
      .cls-1 {
        fill: #fff;
      }
    </style>
  </defs>
  <g id="_图层_1-2" data-name="图层 1">
    <g>
      <path class="cls-1" d="M26.35,556.64v-1.46h1v1.46h-1Z"/>
      <path class="cls-1" d="M127.85,286.66c0,.05,.03,.19,0,.21-.79,.49-1.59,.98-2.4,1.47,.04,.07,.08,.24,.18,.3,.68,.37,1.45,.62,2.03,1.1,.53,.44,.85,1.13,1.26,1.71,.46,.65,1.23,.98,1.5,1.89,.19,.63,1,1.07,1.5,1.62,.37,.4,.71,.84,1.18,1.41-1.34,.32-2.47,.59-3.24,.77-1.1,1.1-1.98,1.98-2.74,2.74-.51-.02-.97-.05-1.83-.09-.14-.3-.43-.96-.79-1.75-.59,.18-1.25,.38-1.97,.6-.19-1.25-.38-2.49-.59-3.82,.22-.1,.56-.27,1-.48-.82-1.63-1.93-2.98-3.31-4.13-.29,.16-.61,.33-1.07,.59-.12-.43-.2-.71-.3-1.09h-1.72c-.11,.23-.27,.58-.53,1.13-.34-.42-.6-.75-.97-1.2-.1,.01-.39,.04-.86,.1,.76,1.38,1.43,2.59,2.13,3.87q-.36,.85,.06,3.31c-1.99,.24-3.12,1.98-4.69,2.76-.67,1.05-1.3,2.04-1.82,2.85-1.84,.36-3.18-.41-4.59-.91-1.24,1.03-.83,2.46-.94,4,.85,0,1.66-.05,2.46,.01,1.35,.11,2.68-.13,4.08,.38,.88,.32,2.29,.63,3.25-.39,1.4,.23,2.7-.28,4.04-.51,1.33-.23,2.64-.63,4.02-.59,.18,0,.36-.29,.51-.41,1.92,.7,3.86,1.01,5.63-.03,1.55-.92,3.32-.82,4.9-1.46,.28-.12,.57-.22,.92-.36,.3,.13,.71,.3,1.11,.5,1.8,.89,3.63,1.73,5.35,2.8,.64,.4,1.48,.45,2.19,.74,1.58,.66,2.93,1.66,4.03,3.09-.97,.91-1.82-.77-2.76-.19,.13,.53,.26,1.09,.39,1.66-.43,.21-.76,.37-1.2,.59,.2,.37,.38,.7,.59,1.09h-2.28c-.05,.91,1.13,1.87-.15,2.34,.23,.97,.41,1.73,.62,2.61,.29,.3,.68,.75,1.12,1.13,.15,.13,.44,.09,.64,.12,.53,1.68-.57,2.84-1.49,3.61-1.85,1.53-4.11,2.39-6.58,1.44-1.14-.44-2.45-.42-3.79-.62-.03,.47-.06,.87-.08,1.25-.8,.47-1.6,.94-2.49,1.46-.85-.85-1.59-1.59-2.45-2.45-.38,.35-.67,.61-.96,.88,.28,.54,.56,1.07,.87,1.66-.15,.05-.37,.19-.56,.16-.92-.13-1.8,.07-2.53,.54-.93,.6-1.71,.75-2.63,0-.24-.19-.76-.03-1.33-.03,.17-.72,.28-1.23,.43-1.85,.04,.04-.05-.13-.16-.14-.41-.03-.89-.14-1.24,.01-.64,.28-1.17,.79-1.81,1.07-.7,.32-1.48,.46-2.2,.74-.65,.25-1.29,.53-1.88,.89-.57,.35-1.07,.82-1.77,1.38,1.4,.76,3.09,.61,4.03,1.9,1.6-.07,2.75,1,4.25,1.72-.58,.3-1.07,.56-1.62,.85-.25-.19-.5-.38-.92-.69-2.54,1.95-5.41,3.2-8.9,2.5v2.3c-.37,.31-.68,.79-.98,.79-1.01-.01-.63,.99-1.1,1.39-.36,.3,.82,.94,.06,1.5,.18,.18,.37,.52,.53,.5,1.53-.14,2.95,1.46,4.59,.25,.38-.28,1.13-.03,1.69-.11,.53-.07,1.05-.26,1.83-.46,.18,.17,.53,.49,.96,.9h2.15c.08-.23,.13-.56,.31-.79,.1-.13,.42-.09,.75-.15v1.85c-.1,.03-.31,.14-.53,.16-1.13,.08-2.27-.12-3.5,.16,.52,1.66,1.95,1.93,3.11,2.57-.16,.18-.31,.35-.58,.66,1.51,.31,3.21-.28,4.42,1.24,.15,.48,.35,1.11,.57,1.81-.23,.01-.63,.09-.66,.02-.48-1.23-1.49-1.35-2.62-1.48-1.1-.13-2.29-.25-3.1-1.22,.2-.2,.32-.32,.45-.45-.91-.99-1.82-1.98-3.09-3.37-.87-.32-2.07,.49-3.49,.78,.41,.89,.79,1.68,1.82,1.79,1.23,.12,2,.94,2.76,1.73-1.08,1.93-2.61-.13-4.08,.45,.28,.45,.42,1.01,.74,1.16,1.2,.55,2.37,1.15,3.76,1.2,1,.04,1.98,.3,3.14,.49-.46-.49-.78-.84-1.1-1.19,.07-.09,.15-.18,.22-.26,2.21,1.15,4.41,2.31,6.69,3.5,.09-.31,.15-.53,.27-.95,.26-.04,.63-.09,.96-.14,.18,.11,.33,.17,.44,.28,1.95,1.9,4.24,3.32,6.52,4.77,1.81,1.15,3.51,2.47,5.65,3.99,.1,.03,.69,.21,1.4,.42,.69-.31,1.53-.68,2.68-1.19,.22,.47,.43,.93,.55,1.19,.9,.05,1.46,.07,2.01,.1,.37,1.12,1.69,1.86,1.12,3.26,2.56,.96,5.13,1.61,7.37,3.17,.4,.91,.79,1.83,1.21,2.74,1.11,2.38,1.12,4.45,.68,6.94-.33,1.84-.16,3.78-.09,5.67,.02,.67,.4,1.33,.69,2.22,.09,.08,.38,.34,.8,.71,.31-.54,.52-.91,.8-1.41,.37,.28,.68,.51,1,.76v2.48c-.61-.61-.53-1.74-1.88-1.51,.6,1.76-1.06,3.12-1,4.89,.54-.21,.92-.35,1.55-.59-.3,.62-.46,.94-.73,1.49,.9,.08,1.66,.15,2.44,.22,.49,3.48,.24,4.92-1.28,6.71,0,.49,.09,1.15-.03,1.78-.11,.6-.42,1.15-.7,1.87-1.25-.32-1.74,.99-2.35,1.42-1.15,.32-1.98,.55-2.98,.84,.29,.84,.58,1.69,.89,2.59-1.54,1.65-2.47,1.88-5.08,1.26-.47-.11-1.21-.24-1.45,0-.73,.74-1.56,.32-2.33,.47-.69,.13-1.36,.36-2.05,.48-.4,.07-.82,.01-1.4,.01-.77,.68-1.64,1.38-2.44,2.17-.82,.82-1.77,1.31-2.92,1.4-.59,.59-1.18,1.18-1.82,1.82-4.69,.67-9.16,2.86-14.1,2.6-.23,.24-.46,.47-.7,.71,.18,.31,.37,.63,.55,.94-.23,.17-.36,.35-.47,.33-1.89-.27-3.69,.4-5.54,.54-.51,.04-1.04,.33-1.47,.64-.88,.62-1.65,.52-2.53-.27-2.96,1.11-5.99,2.25-9.23,3.46-.45-.11-1.2-.29-2.06-.5-.3,.34-.56,.64-.88,.99,.21,.42,.42,.83,.69,1.38-.46,.34-.92,.68-1.54,1.14-.77,.23-1.81,.55-2.99,.91-.73-.63,.39-1.22,.44-2.06-.39-.38-.86-.83-1.34-1.31-2.19,.46-3.33,2.45-5.31,3.19,.44,.44,.74,.74,1.14,1.14-.54,.54-1.07,1.08-1.77,1.78,.54,.32,.9,.53,1.08,.63-1.65,1.22-3.37,2.48-5.21,3.84-1.82-.27-3.37,.64-4.92,2-1.82-.26-3.36,.66-4.82,1.82-1.61,.26-3.25,.52-4.98,.8,.36,.36,.6,.6,.93,.92h2.32c-.66,1.61-1.06,3.14,.02,4.62-1.66,.73-2.95,2.13-4.63,2.27-1.97,.16-3.2,1.58-4.87,1.93-.11,.7-.18,1.16-.25,1.6-.5,.03-.89,.06-1.46,.1,.23,.3,.36,.46,.59,.77-.25,.12-.53,.25-.96,.45,.08,.06-.07-.06-.22-.17-.38,.15-.76,.3-1.2,.47-.09-.42-.14-.65-.22-.98h-2.02c-.67,.78-1.35,1.57-1.79,2.08-.93,.4-1.54,.65-2.66,1.13,1.04,.16,1.5,.23,1.93,.29,.35,.89-.19,1.02-.86,.89,.21,1.07,.38,1.96,.61,3.19-.68-.26-1.02-.38-1.58-.59-.32,.49-.65,1.21-1.18,1.72-.56,.54-1.31,.89-2.03,1.35,.95,.61,.5,1.43,.68,2.12-2.59,.77-3.46,3.03-4.77,4.95-.82,.58-1.79,1.13-2.59,1.87-1.76,1.65-3.38,3.46-5.16,5.09-1.51,1.38-3.01,3.18-3.52,4.76-.76,2.35-1.47,4.7-2.23,7.16-.96-2.04,.79-3.57,.75-5.27-.59-.44-1.12-.85-1.86-1.41,1.2-.65,2.13-1.15,3.29-1.78,.45-.94,1.04-2.17,1.67-3.48-.69-.19-.79,.34-1.06,.54-.33,.25-.64,.55-.88,.88-.23,.31-.32,.71-.55,1.01-.25,.33-.58,.6-.95,.97-.1-.52-.19-.97-.27-1.43-.29-.11-.58-.21-1-.37,.57-1.2,1.13-2.37,1.78-3.74-1.06,.76-2.21,2.57-2.69,3.99-.52,1.52-1.06,3.03-1.58,4.49-.38-.03-.54-.04-.75-.06,.47-1.6,.56-3.45,1.47-4.71,1.83-2.56,2.53-5.78,4.87-8.01,0-1.5,0-3,0-4.6,.42-.27,.88-.56,1.44-.93v-2.2c.56-.82,1.05-1.54,1.48-2.17,.08-.98-.08-1.99,.3-2.73,.43-.84,.13-1.61,.28-2.39,.17-.84,.37-1.68,.58-2.64,2,.16,2.89-2.44,5.12-2.09,.51-.59,1.06-1.21,1.75-2,.12-.38,.24-1.1,.57-1.7,1.09-1.95,1.11-1.94,.98-3.93-.02-.33,0-.67,0-.99,.8-1.27,1.24-2.79,2.56-3.7,.52-.36,1-.91,1.57-1.02,1.5-.28,2.64-1.05,3.63-2.15,.07-.08,.32-.01,.5-.01,.67,.65-.11,.92-.36,1.37-.26,.46-.38,1.01-.59,1.61-.52,.33-1.12,.72-1.82,1.16,.03,.45,.06,.9,.12,1.77,.76-.85,1.18-1.46,1.74-1.91,.6-.48,1.32-.8,2.11-1.25,.02-.44,.06-1,.09-1.56,.24-.24,.47-.47,.7-.7,.18,.17,.36,.34,.63,.59,1.23-.73,2.33-1.61,3.04-2.92-.29-.12-.57-.23-.88-.36-.23-1.11,1.01-1.13,1.15-1.84,.51,.03,.83,.04,1.32,.07-.2,.32-.33,.54-.46,.76,1.65-.08,2.1-.42,2.31-1.73-.25,.12-.48,.23-.71,.34-.05-.16-.19-.35-.14-.45,.57-1.24,1.29-2.3,2.56-3.03,.56-.32,1.1-.91,1.65-1.39,.53-.47,1.14-.84,1.73-1.25,1.04-.71,2.02-1.53,3.14-2.09,1.09-.55,2.33-.8,3.49-1.22,.94-.34,2.01-.55,2.76-1.14,2.41-1.91,5.24-3.13,7.75-4.85,.77-.53,1.55-1.05,2.28-1.55,1.03,.56,1.96,.98,2.86,.14,.5,.27,.99,.52,1.41,.75,1.09-.33,2.18-.64,3.26-1.01,1.09-.37,2.19-.67,3.22-1.29,1.53-.91,3.33-.49,5.03-.55,1.87-1.29,2.88-3.82,5.62-4.06,.23-.4,.51-.87,.68-1.17,1.25-.13,2.32-.24,3.56-.36-.18-.24-.29-.4-.44-.59,.49-.36,1-.74,1.69-1.25-.48-.44-.82-1-1.16-1.01-.83-.02-1.66,.22-2.75,.4,.74-.91,1.47-1.41,2.43-1.43,.6,0,1.07-.14,1.55-.51,2.11-1.65,4.76-1.8,7.21-2.52,.66-.19,1.42-.34,1.92-.77,1.87-1.58,3.68-3.25,5.46-4.94,.44-.42,.71-1.03,1.07-1.59v-3.22c.61-.96,1.11-1.75,1.67-2.63-.46-.22-.79-.38-1.25-.6,.63-.42,1.2-.8,1.92-1.28,.38-.53-.05-1.76,1.37-2,.23,.62,.48,1.3,.76,2.06-.33,.68-.7,1.44-1.3,2.68,1.15-.57,1.52-1.3,1.63-1.38,1.05-.38,1.56-.57,2.23-.81-.21-.59-.66-.8-1-1.26v-2.01c-.92-.45-1.76-.85-2.8-1.35-.16,.31-.34,.68-.53,1.06-.07-.07-.14-.13-.2-.2v.92c-1.28,1.65-2.81,2.84-5.05,3.19,.11-.35,.22-.69,.39-1.22-.22-.72-1.03-.73-1.81-.62v-1.28c.79-.74,1.63-1.53,2.48-2.32-.51-.49-.94-.89-1.37-1.3-.09,.09-.21,.21-.32,.32-.57-.4-1.13-.79-1.84-1.29,.08-.35,.2-.87,.36-1.52-2.53-1.06-5.16-2.32-7.78-4.12-.78-.02-1.81,.05-2.79-.48-1.66-.89-3.53-.3-5.28-.55-2.59-.38-5.12-.98-6.51-3.63-.26-.49-.76-.86-1.13-1.26-3-.15-5-2.19-7.24-3.66-.1-.52-.18-.98-.26-1.42-.98-.01-3.37,2.51-5.96,6.23,1.16,.29,2.26,.56,3.4,.84,.12-.35,.22-.64,.34-.99,.2-.02,.42-.05,.68-.08-.14,.6-.27,1.16-.43,1.88-.37,.07-.88,.17-1.39,.27,0,.1,.01,.19,.02,.29,.39,.02,.78,.05,1.22,.08,.21,.41,.44,.86,.68,1.32q-1.67,.37-1.9,1.76c-1.45,1.84-2.83,3.61-4.23,5.37-1.04,1.3-2.24,2.19-3.94,3.05-.28,.14-.51,.36-.9,.64-.33-.31-.64-.6-.95-.89,.22-.22,.34-.34,.49-.49-.21-.23-.43-.45-.65-.69-.12,.07-.23,.14-.35,.19-1.57,.75-3.04,1.64-4.34,2.82-1.23,1.11-2.88,1.49-4.28,2.32-.47,.27-1.24,.53-1.3,.9-.25,1.4-1.57,1.13-2.3,1.92-.97-.6-1.83-1.14-2.72-1.69-1.55,.79-3.17,.63-4.77-.04-.21-.09-.34-.37-.55-.48-1.52-.76-2.4-1.6-3.23-3.06-.16-.27-.38-.51-.56-.77-1.21-1.7-1.64-2.64-1.91-4.7-.07-.51-.24-.88-.5-1.3-.56-.92-.99-1.92-1.39-2.75,.59-1.5,.65-3,.14-4.32-.36-.93,.09-1.87-.31-2.61-.42-.78-.45-1.52-.45-2.32,0-1.75,.03-3.5-.02-5.25-.02-.69-.24-1.38-.39-2.16,.28-.38,.66-.88,1.03-1.38-.08-.1-.16-.2-.24-.3-.18,.11-.36,.25-.55,.31-.21,.06-.45,.04-.72,.06,.04-.19,.03-.33,.09-.41,1.58-2.1,3.24-4.14,4.72-6.31,.36-.53,.53-1,1.2-1.3,.64-.28,1.12-.95,1.64-1.47,1.59-1.59,3.24-3.09,5.35-3.99,.21-.09,.4-.27,.57-.43,.95-.94,1.79-2.03,2.86-2.78,1.03-.72,1.44-1.88,2.36-2.67-2.64,.92-5.4,1.47-7.71,3.34-2.25,.2-4.68,.27-6.91,1.11-2.62,.99-5.29,1.99-7.28,4.17-.7,.76-1.47,1.45-2.38,2.04-.77,.49-1.4,1.6-1.55,2.53-.18,1.06-.72,1.89-1.1,2.82-.35,.86-1.01,1.56-1.03,2.59,0,.47-.46,.98-.8,1.39-1.03,1.24-2.11,2.43-3.18,3.65,.95,.73,.3,1.75,.55,2.43,.5,.5,.91,.91,1.36,1.36h.91c.48,.89,.95,1.77,1.54,2.88,.39,.28,1.03,.75,1.71,1.26-.06,.66-.11,1.26-.22,2.43-1.19-1.8-2.17-3.15-4.25-3.07-.56,1.15-1.17,2.37-1.78,3.63-.62-.31-1.02-.51-1.59-.79-.13,.64-.24,1.16-.4,1.96-.2-.58-.29-.87-.41-1.22-.39,.17-.78,.33-1.37,.58,.09,.64-.35,1.45,.5,2.11-.7,.17-1.37,.46-2.06,.48-.63,.02-1.26-.25-1.89-.39-.05-.44-.09-.83-.15-1.36-.28,.17-.5,.3-.72,.43-.56-.5-1.37-.9-1.63-1.53-.4-.97-1.71,.31-1.69-.86-1.47,.67-2.82,.62-4.26,.09-.22,.22-.51,.51-.96,.96-1.04-.19-2.2-.4-3.2-.57-1.5-.71-1.41-2.17-2.15-3.39-.28-.16-.75-.43-1.24-.72v-2.59c.55-1.07,1.28-2.19,1.72-3.42,.25-.69,.27-1.65-.01-2.31-.4-.92-.39-1.64,.19-2.44-.49-.36-1.3-.65-1.39-1.1-.19-.89-1.23-.44-1.57-1.14,0-1.48,.22-3-.08-4.42-.2-.95,.26-1.73,.11-2.61-.05-.31,.22-.77,.48-1.02,1.71-1.73,2.78-4.12,5.32-4.99,.79-.27,1.55-.73,2.23-1.23,1.15-.85,2.45-.61,3.69-.66,.27-.27,.5-.5,.8-.8-.61-.39-1.2-.78-1.94-1.25,0-1.23-.59-2.18-1.94-2.52-.18-.51-.24-1.11-.56-1.51-.37-.47-.58-.89-.68-1.49-.06-.4-.68-.72-1.05-1.07-.22,.22-.33,.28-.33,.34-.01,.66,0,1.32,0,2.02,.33,.45,.7,.95,1.07,1.44-.07,.11-.15,.22-.22,.33-.37-.15-.94-.19-1.08-.46-.53-1.02-1.14-1.9-2.09-2.62-.42-.32-.5-1.1-.73-1.67-1.02-2.55-1.3-5.29-2-7.92-.22-.84-.32-1.78-.6-2.5-.39-1-.63-1.73,.04-2.62,.03-.04-.26-.31-.48-.57,.33-.07,.56-.11,.98-.2,.24-1.02,.51-2.16,.79-3.36,.29-.03,.68-.08,1.01-.12,.31-.51,.59-.97,.88-1.44,.32,.21,.57,.37,.81,.53,1.24-1.38,2.27-2.91,3.98-3.78-.67-1.87,1.02-3.57,.56-5.4,1.67-1.88,1.73-4.41,3.07-6.27-1.2-2.44-3.68-2.68-5.72-3.54-2.45-1.04-4.33-3.29-4.32-5.81,.01-1.69-.26-3.42,.49-5.04,.19-.42,.24-.93,.52-1.28,1.59-1.99,2.2-4.41,3.12-6.71,.45-1.13,1.2-2.18,2.01-3.19,1.29-1.6,2.54-3.28,4.16-4.47,2.35-1.72,4.14-3.99,6.35-5.89,1.35-.2,2.38-1.06,3.38-1.95,.81-.72,1.51-1.56,2.32-2.28,.71-.64,1.57-1.12,2.24-1.8,.67-.67,1.13-1.56,1.81-2.23,.68-.67,1.51-1.18,2.11-1.64,1.16-.28,2.22-.36,3.13-.78,3.69-1.71,4.52-1.83,8.69-.99,.87,.17,1.77,.14,2.65,.24,.88,.1,1.75,.25,2.2,.32,1.48,.48,2.58,.84,3.77,1.23v1.36c.37,.41,.75,.83,1.14,1.26-.36,.67-.69,1.28-1.03,1.9,.08,.08,.2,.2,.39,.39-.34,.7-.69,1.43-1.04,2.16-.36,.75-.71,1.49-1.06,2.23-2.67-.6-5.11-1.15-7.71-1.73-.05-.29-.14-.75-.22-1.19-1.04-1.11-2.32-1.33-3.71-1.1-1.23,1.8-2.43,3.56-3.73,5.47,.13,.2,.33,.52,.39,.61-.18,1.31-.33,2.41-.48,3.57,.93,.5,.97,1.43,1.35,2.2,.45,.93,.19,1.56-.15,2.45-.72,1.88-1.4,3.75-2.49,5.47,.08,.08,.2,.2,.45,.45-.29,.12-.51,.21-.91,.38-.46,1.28-1.29,2.65-1.13,4.32,.03,.3,.02,.74-.16,.91-.59,.57,.02,1.51-.37,1.82-.79,.63,.06,.95,.08,1.39,.09,2.14-.46,4.02-1.65,5.84-1.13,1.74-2.1,3.61-2.41,5.75-.11,.74-.53,1.43-.84,2.2,.04,.05,.19,.22,.26,.3-1.02,2.06-2,4.05-3.14,6.36,1.06-.23,2.05-.16,2.46-.61,1.01-1.11,2.37-1.61,3.52-2.44,.17-.12,.22-.39,.35-.64-.89-.57-1.73-1.1-2.58-1.64v-1.15h4.07c-1.46-1.9,.46-2.49,.9-4.11,.73,1.33,.53,3.12,2.57,2.34-.07-1-.15-2.07-.24-3.29,.02-.03,.22-.28,.65-.84v2.35c.51-.26,.83-.41,1.35-.67,.1,.54,.18,.97,.28,1.47,.47,.47,1,1,1.67,1.67,.34,0,.83-.07,1.29,.02,.36,.07,.68,.34,1.13,.57,.23-.4,.43-.77,.65-1.15,2.07,1.77,2.1,1.8,2.62,3.02,1.07,.93,1.85,1.6,2.68,2.33-.36,.7-.68,1.31-1.02,1.97,.11,.17,.27,.42,.47,.74-1,1.27-2,2.52-2.98,3.77,.81,1.4,2.41,1.86,3.72,2.74,1.25,.84,2.47,1.73,3.66,2.56v1.71c.56,.17,1.13,.34,1.9,.58,.45-.29,1.08-.69,1.92-1.23-.44-.34-.7-.54-1.09-.85-.28-.57-.66-1.33-1.21-2.45v-1.63c.97-.66,1.47-1.95,2.8-2.28,.75-2.54,1.52-5.13,2.34-7.92-1.04,0-1.85-.04-2.66,0-1.95,.12-3.78-.35-5.59-.99-.96-.34-.99-.26-1.89-1.6,.7-.57,1.42-1.15,2.27-1.84-.47-.5-.8-.84-1.18-1.25,.35-.51,.72-1.04,1.18-1.7,.74,.38,1.6,.81,2.72,1.38,.7,0,1.69-.01,2.68,0,2.65,.03,5.15-.51,7.65-1.45,2.46-.92,5.1-1.37,7.65-2.07,.36-.1,.67-.41,.87-.53,.23-2.31,.45-4.48,.64-6.4,.3-.49,.5-.81,.7-1.13,.16,1.09,.24,1.94-.07,2.93-.43,1.36-.44,3.06-.03,4.44,.6,2.04,.27,4.05,.42,6.07,.02,.25,0,.5,0,.89,2.39,2.01,3.78,4.88,5.56,7.65h-2.19c-1.07,.98-1.84,1.92-1.91,3.35-.03,.64-.38,1.55-.88,1.83-1.24,.7-1.53,2.22-2.8,2.76-.58,.21-1.16,.42-1.58,.57-.26,1.48-.48,2.7-.72,4.06,.51,0,1.12,.16,1.26-.03,1-1.36,2.71-1.19,4.02-1.83,.94-.46,2.28-.09,3.41-.09,2.65-2.48,6.3-2.63,9.35-4.27-.18-2.47-1.64-4.22-3.34-5.83-.18-.52-.23-1.14-.56-1.51-.53-.57-1.35-.88-1.86-1.47-.49-.56-.56-1.52-1.59-1.54-.67-1.55-2.55-2.04-3.16-3.81v-4.82c.72-.77,1.43-1.53,2.35-2.52-.83-.19-1.33-.31-2.05-.47,.43-.6,.77-1.1,1.11-1.57-.15-.22-.33-.47-.52-.73,.68-1.29,2.76-1.13,2.62-2.85,2.61-.55,4.52-1.81,5.72-4.12h.96c.93-.93,1.86-1.86,3.02-3.02-1.13,0-2.14,.26-2.88-.07-.89-.4-1.51-.57-2.46-.14-.77,.34-1.76,.2-2.54,.26-2.14-1.41-3.01-4.98-3.47-7.44-.22-.05-.45-.11-.87-.21,.05-.42-.05-.98,.19-1.29,1.2-1.59,1.66-3.49,2.33-5.3-.17-.19-.33-.37-.6-.67,1.29-.27,2.51-.53,4.02-.85,.8-.84,1.83-1.92,2.98-3.13,.12-.91,.52-1.9,1.38-2.7,1.25-1.17,2.07-2.56,2.25-4.33,.06-.58,.52-1.11,.76-1.68,.31-.71,.88-1.32,.73-2.21-.04-.26,.18-.58,.34-.84,.36-.6,1.19-1.32,1.05-1.76-.36-1.19,.97-1.02,1.16-1.8,.15-.62,.95-1.1,1.47-1.63,.58-.6,1.19-1.17,1.76-1.77,.74-.76,1.55-1.34,2.65-1.47,.35-.04,.67-.39,1.06-.63-.18-.22-.32-.39-.46-.56,.09-.09,.18-.26,.28-.27,.33-.04,.73,.11,.99-.03,1.33-.74,2.52-.55,3.74,.29,.42,.29,1.08,.22,1.71,.33,.24,.36,.58,.79,.82,1.27,.24,.48,.38,1.01,.59,1.59,.51,.02,1.07,.05,1.6,.08,.3,.31,.57,.59,.96,1.01-1.36,1.13-2.58,2.14-3.8,3.16,1.44,1.48,.97,3.26,1.05,5.05,.49,.41,1.06,.89,1.63,1.36-.38,.38-.61,.61-.94,.94-1.23-.49-2.51-1-4.01-1.6-1.19,1.36-2.46,2.81-3.72,4.26,.58,.58,1.11,1.11,1.73,1.73h4.25c.72,.37,1.13,.58,1.73,.89-.35,.31-.65,.58-.77,.69,.38,.38,.86,.86,1.06,1.06v2.63c1.38,1.42,3.02,2.68,3.42,4.73h2.65c.22-.6,.45-1.25,.76-2.1,.18,.9,.32,1.62,.49,2.51-.96,.83-1.01,2.29-1.48,3.57-.53,1.43-1.85,2.24-2.84,3.38,.31,.11,.6,.21,1.17,.41-1.26,.57-2.33,1.1-3.14,2.01-.83,.93-1.76,1.78-2.63,2.66-.53,.14-1.05,.27-1.72,.45-.08-.04-.33-.19-.68-.39-1.45,1.16-3.33,1.42-5.06,2.06-.72,.27-1.44,.55-2.48,.94-3.62-.09-6.87,1.44-9.49,4.4,.86,1.12,1.53,1.54,2.37,1.04,1.72-1.03,3.55-.85,5.39-.89,.95-.02,1.87,.06,2.82-.45,.8-.42,1.8-.04,2.81-.45,1.43-.58,3.27-.13,4.72-.69,1.49-.57,2.87-.21,4.19-.43,.39,.39,.69,.69,1.05,1.05,1.83-.4,4.15,.92,5.52-1.48,.16,.16,.33,.33,.6,.6-.31,.67-.64,1.38-1.16,2.48,.76-.26,1.15-.39,1.68-.57,.03,.31,.07,.69,.13,1.33-.64,.52-1.4,1.13-2.43,1.97,.74,.09,1.06,.13,1.38,.16Zm-50.6,70.64c-.23-.25-.57-.62-.9-.99,.08-.09,.16-.18,.25-.27,.51,.14,1.02,.28,1.6,.43,.29-.29,.69-.69,1.08-1.08-.32-.75-.64-1.52-1.03-2.45-1.22,.24-2.29,.48-3.38,.66-.17,.03-.37-.18-.74-.36,.56-.63,1.04-1.15,1.42-1.58h2.55c.32,.32,.84,.84,1.37,1.38,.51-.17,1.16-.39,1.63-.55,.78-1.32,1.49-2.5,2.29-3.86h-1.7c-.44-.63-.75-.98-.95-1.39-.24-.48-.37-1.01-.59-1.62-.77,0-1.71,.26-2.38-.05-2.09-.98-4.12-.46-6.09,.11-1.11,.32-2.16,.8-3.34,1-1.03,.17-2.1,.63-2.96,1.23-1.45,1.02-2.74,2.27-4.03,3.35,.04,1.36,.01,2.54-1.41,3.03-.2,1.5-.73,3.06-.49,4.48,.25,1.52,1,2.98,.87,5.04,.35,.25,.95,.65,1.41,.98-.12,.34-.2,.55-.27,.76,.1,.07,.21,.13,.31,.2,.41-.32,.81-.64,1.14-.9-.23-.68-.4-1.14-.63-1.8,1.02,.3,1.75,.52,2.62,.78,.28,1.06,1.24,1.57,2.09,2.28,1.26,1.04,2.57,1.49,4.14,1.54,.68,.02,1.35,.28,2.08,.45,.35-.96,.71-1.92,1.07-2.91-.53-.05-.92-.08-1.27-.11-.25-.57-.46-1.07-.73-1.7,.37-.26,.78-.55,1.07-.76,0-1.2-.01-2.2,.02-3.19,0-.1,.22-.2,.46-.4,.43,.34,.88,.7,1.32,1.05,.2-.2,.32-.32,.39-.39,.51,.36,1,.7,1.71,1.2v-3.59Zm-47.51-25.27c1.53-1.39,3.22-2.93,4.92-4.45,.22-.2,.55-.29,.81-.45,2.29-1.43,4.95-1.77,7.48-2.46,.82-.22,1.32-.45,1.47-1.5-.57,.03-1.05,.06-1.64,.09,.27,.33,.4,.5,.64,.79h-2.27c-.95,.35-1.38,.52-1.87,.7-.86-.62-1.69-1.21-2.24-1.61-.34-1.17-.57-2-.87-3.05-.9-.71-1.98-1.56-3-2.37h-1.8c-.23,.31-.47,.63-.65,.87-1.41-.84-2.87-.52-4.19-.38-1.44,.16-2.73-1.11-4.39-.26,.95,1.38,1.83,2.67,2.74,4v4.87c-.3,1.04-.45,1.55-.54,1.87,.7,.78,1.26,1.39,1.85,2.04,1.58-.67,1.7,1.74,3.59,1.32Zm56.76-2.9c-.89,.02-2-.19-2.87,.51-1,.82-2.3,.9-3.39,1.48-.34,.18-.81,.19-1.05,.44-1.13,1.18-2.74,1.31-4.11,1.47-1.89,.22-3.33,1.01-4.81,1.94,.14,.31,.2,.45,.26,.59,2.09-.34,4.14-.98,6.3-.94,1.41,.02,2.99,.39,4.2-.1,1.34-.55,2.51-.16,3.91-.49-.28,.49-.41,.71-.67,1.18,1.02-.21,1.78-.36,2.77-.57-.36,.41-.51,.59-.62,.71,1.08,.35,2.18,.7,3.27,1.05,1.03-.24,2.15-.52,3.28-.77,.16-.04,.39-.07,.49,0,1.25,.96,2.33,.42,3.38-.34,.3-1.05-.61-1.43-1.09-2.05-.21-.27-.3-.62-.58-1.24,1.13,.35,1.9,.58,2.72,.83-.82,.72-.53,1.49-.42,2.5,.58-.36,.97-.61,1.4-.88-.33-2.19,1.17-4.09,.95-6.37-1.48,.1-2.78,.04-4.15,.44-1.29,.38-2.78,.08-4.74,.08-.21-.35-.6-.99-.99-1.64-1.2,.75-2.25,1.4-3.43,2.14Zm55.35,58.26c.92-.88,.26-1.53,.02-2.26-.24-.73,.02-1.5-.44-2.33-.37-.67-.29-1.53-1.44-1.73-.42,.73-.84,1.47-1.24,2.18,.25,.27,.42,.45,.57,.62-.19,.24-.37,.49-.64,.85,.62,.62,1.18,1.19,1.78,1.79-.22,.66-.42,1.24-.59,1.76,.53,1.2,1.45,2.48,.89,3.6-.65,1.31-.53,2.96-1.82,4.02-.4,.33-.46,1.13-.57,1.73-.38,2.07-1.36,3.07-3.54,3.53-.15,.03-.28,.12-.42,.19-.05,.39-.09,.79-.13,1.15-.71,.53-1.38,1.03-2.08,1.55,.27,.42,.44,.67,.71,1.09h-1.92c-.47,.74-.85,1.34-1.19,1.87-.67,.18-1.24,.34-1.58,.43-.7-.13-1.21-.22-1.59-.29-.66,1.26-1.23,2.36-1.69,3.24-1.52,.56-2.8,1.04-4.07,1.51,.49,.26,1.05,.09,1.41,.29,1.14,.64,2.33,.68,3.47,.27,1.08-.4,2.21-.56,3.28-1.12,1.81-.95,3.31-2.34,5.13-3.26,.9-.46,2.04-.86,2.51-1.63,.45-.74,1.05-1.04,1.61-1.54,.63-.56,1-1.4,1.54-2.21v-.73c-.53-.37-1-.7-1.38-.97,.39-.79,.69-1.41,.98-1.99-.25-.27-.41-.46-.8-.88h2.5c.15-.15,.2-.21,.26-.26,1.94-1.42,1.83-3.73,2.45-5.72,.16-.51-.25-.87-.45-1.3-.36-.76-.49-1.63-.78-2.68-.11-.11-.4-.4-.75-.75Zm-68.43,40.63c.17-.46,.32-.84,.51-1.33h-1.61c-.57,1.31-1.14,2.64-1.76,4.07-.8-.41-1.56-.79-2.21-1.12-1.1,.84-2.2,1.52-3.11,2.41-.95,.94-1.71,2.07-2.61,3.19,.4,.4,.67,.66,.7,.7,1.58-.25,2.88-.46,3.79-.6,1.13,.13,2.02,0,2.64,.35,1.5,.85,2.44,.07,3.57-.74,1.9-1.37,3.81-2.73,5.81-3.97,1.81-1.12,2.97-3.04,3.8-5.18-1.07,.24-2.02,.8-2.87-.12-.07,.96-.97,1.01-1.47,1.34-1.03-.48-1.92-1.24-3.42-.61-.15,.64-.35,1.45-.59,2.43-.48-.33-.87-.59-1.17-.8Zm-29.1-113.65c1.48,1.4,2.75,2.8,3.29,4.74,.16,.57,.67,1.05,1.03,1.56,.35,.5,.73,.98,1.16,1.55,1.54-.66,3.24-.88,4.81-1.58,1.49-.66,3.04-1.19,4.28-2.3,1.31-1.16,2.62-2.32,3.88-3.43-.6-.42-1.17-.81-1.76-1.23-.1,.27-.2,.56-.36,1-1.55-.71-3.05,.99-4.69,.06-.08,.46-.15,.92-.22,1.3-2.26,.36-4.24,.03-5.98-1.4-.34-.28-.85-.33-1.27-.52-.63-.28-1.26-.59-1.99-.93h-2.1c-.02,.38-.04,.7-.07,1.17Zm-13.91-32.09c-.6-1.89,.72-3.47,1.28-5.24,.78-2.46,2.75-4.13,4.09-6.22-.63-.29-1.25-.59-1.84-.86-.46-1.29-1.45-2.01-2.46-2.58,.12-.29,.27-.57,.35-.86,.02-.1-.16-.24-.28-.43-1.08,1.19-2.14,2.37-3.22,3.56-.29-.14-.59-.27-.99-.46,.04,.38,.06,.61,.08,.81,.35,.12,.64,.22,.82,.29-.14,1.01-.4,1.94-.37,2.86,.07,1.84,.02,3.77,.56,5.5,.48,1.54,.49,2.88-.1,4.27,.88,.5,1.47,.18,2.08-.63Zm50.78,15.29c1.18-1.08,.44-2.41,.64-3.57,.02-.1-.17-.25-.35-.49-.38,.28-.75,.57-1.15,.86,.27,.27,.39,.39,.65,.65-2,.85-4.04,1.28-6.27,1.82-.96,2.41-1.7,4.97-1.88,7.54,.35,.35,.53,.53,.7,.7,2.5-.01,3.87-1.15,4.31-3.42,.28-1.44,.89-2.78,1.64-4.1h1.69Zm28.06,19.14c-.79,.65-1.22,1-1.76,1.44-2.11-.53-3.93,1.14-5.97,1.05-.88,.88-1.65,1.65-2.41,2.41-1.23,.23-2.47,.47-3.63,.69-.18,.6-.35,1.16-.55,1.86,.42,.16,.89,.52,1.28,.44,1.52-.3,3.04-.65,4.51-1.16,.41-.14,.61-.86,.92-1.33,1.25,.14,2.6-.31,3.74,.53,2.14-.8,2.34-3.26,4-4.27-.04-.52-.06-.84-.13-1.67Zm-1.26-25.29c-1.97,.28-3.56,.43-5.12,.73-1.7,.33-3.27-.7-5.04-.49,1.38,2.28,2.67,4.41,4.09,6.74,.48-.67,.86-1.2,1.32-1.83,.26-.49,.61-1.14,.97-1.82-.07-.09-.2-.25-.32-.4,1.05-1.33,3.14-.88,4.1-2.93Zm-68.19,37.71c-2.63-.03-3.96,2.48-6.42,2.63-.67,1.13-2.1,1.7-2.68,3.22,1.23,.28,2.34,.53,3.3,.74,1.93-1.84,3.4-3.82,5.8-4.54v-2.04Zm39.96-1.49c.83,0,2.05,.36,2.76-.09,1-.62,1.91-.22,2.83-.41,.92-.19,1.84-.35,2.76-.53-.11-.11-.22-.22-.34-.33,.42-.42,.84-.84,1.1-1.1-.31-.03-.92-.1-1.62-.18,.26-.3,.42-.47,.82-.92-1.59,.21-2.89,.37-4.19,.56-.21,.03-.4,.22-.61,.31-1.71,.74-3.22,1.82-4.79,2.81-.03,.02,.06,.22,.13,.47,.36-.19,.69-.37,1.15-.61Zm34.72-71.42h-2.53c-.12,.98-.81,1.79-1.46,1.84-1.66,.11-1.94,1.36-2.61,2.5h3.81c1.19-1.13,2.09-2.57,2.79-4.33Zm-77.34,79.38c-1.99,.48-3.65,.87-5.67,1.36,.65,.49,1.02,.78,1.42,1.09-.43,1.53-2.37,1.15-3,2.39,.24,.23,.47,.47,.62,.62,.64,0,1.2,0,1.17,0,1.91-1.91,3.48-3.48,5.45-5.45Zm-8.02,.5c-1.96,.38-2.47,1.93-3.42,3.2,.36,.36,.64,.63,.89,.88,1.28-.52,2.73-.59,3.25-1.93-.26-.77-.48-1.42-.72-2.15Zm104.25,52.71c-.26-.78-.47-1.43-.69-2.09-.39-.16-.78-.32-1.27-.52-.35,.75-.77,1.49-1.03,2.28-.28,.84-1.03,1.68-.34,2.57,1.1-.74,2.18-1.47,3.34-2.24Zm-60.48-69.65c1.19-.19,2.2-.35,3.2-.52,.07-.01,.12-.1,.26-.24v-1.39c.6-.44,1.04-.77,1.78-1.31h-2.09c-.45,.45-.92,.92-1.38,1.38q-1.62,.3-1.77,2.07Zm-35.68-49.44c.74-.98,1.45-1.9,2.15-2.83-.32-.3-.55-.52-.63-.6-.59,.14-1.03,.28-1.48,.34-.46,.05-.93,.01-1.38,.01,.21,.59,.36,.97,.63,1.72-.79-.33-1.16-.48-1.57-.64,.4,1.43,.5,1.53,2.27,1.99Zm3.97,59.31c1.01,.42,1.92,.79,2.48,1.03,.87-.66,1.57-1.21,2.24-1.72-.07-.47-.13-.82-.16-1-1.54,.54-3.25,.35-4.57,1.7Zm77.5,82.84q-3.27-.31-3.23,.13c.29,.1,.58,.21,.95,.34-.51,.27-.94,.51-1.37,.74-.12-.12-.23-.23-.47-.47-.25,.75-1.57,.86-.95,2.28,1.67-.99,3.23-1.92,5.07-3.02Zm2.1-58.54c.82,2.61,2.61,3.2,4.47,3.71-.56-.8-1.19-1.54-1.92-2.13-.65-.53-1.43-.9-2.55-1.58Zm-61.79,13.68c-1.05-1.86-1.44-3.83-1.92-6.32-.54,2.68,.03,4.61,1.04,6.49,.23-.05,.45-.09,.88-.18Zm-9.19,89.28c-.71,.2-1.28,.36-1.96,.55,.03,.42,.05,.87,.08,1.32q1.74-.21,1.87-1.87Zm101.03-63.59c-.23-1.07-.45-2.05-.67-3.07-1.02,.69-.92,1.58-.73,2.3,.55,.3,.88,.48,1.39,.77Zm-118.12,80.28c-.57,.48-1.18,.99-1.82,1.52,1.79,.07,1.85,.02,1.82-1.52Zm87.82-63.54c-.77,.56-1.45,.8-.99,1.73,.36-.02,.77,.04,1.11-.09,.27-.1,.46-.43,.59-.55-.21-.33-.42-.65-.7-1.09Zm-8.61-156.1c.73,.42,.36,2.05,1.95,1.71q-.67-1.49-1.95-1.71Zm3.3,148.85c.67-.37,1.32-.65,1.87-1.06,.19-.14,.13-.6,.2-.98-.96,.51-1.75,.93-2.63,1.41,.29,.33,.43,.48,.56,.63ZM26.17,334.67c.29-.44,.54-.82,.78-1.19-.33-.33-.57-.57-.86-.86-.29,.35-.58,.69-.96,1.15,.41,.35,.7,.6,1.05,.9Zm85.2-78.75c0-.98-.85-1.2-1.56-1.62,.26,.63,.51,1.26,.79,1.93,.36-.14,.56-.23,.77-.31Zm-77.07,11.05c-.43-.5-.81-.93-1.18-1.36-.28,.28-.52,.52-.75,.75,.48,.61,1.01,1.09,1.94,.61Zm52.53,150.09c-.44-.95-1.08-1.09-1.93-.79v.79h1.93Zm38.59-19.5l-.25-.44c-.38,.03-.79-.01-1.13,.12-.27,.11-.46,.44-.69,.67,.09,.12,.18,.25,.28,.37,.6-.24,1.19-.49,1.79-.73Zm-34.01-74.05c.84,.3,1.49,.17,1.89-.75-.84-.3-1.49-.17-1.89,.75Zm-21.5-4.53c-.1-.13-.19-.27-.29-.4-.46,.19-.96,.32-1.37,.58-.22,.14-.3,.52-.64,1.18,1.05-.62,1.68-.99,2.3-1.35Z"/>
      <path class="cls-1" d="M77.3,253.16c-.92-.35-1.18-1.68-2.55-1.48,.27,.33,.41,.5,.55,.67-.09,.09-.19,.26-.3,.27-.96,.05-1.88-.02-2.81,.48-1.57,.84-3.33,.48-5.13,.54-.33-.39-.7-.83-1.31-1.55,.15-1.01,.36-2.34,.57-3.75,1.13-.61,2.33-1.17,3.41-1.9,.56-.38,1.04-.88,1.18-1.76,.16-1.06,.81-2.06,1.93-2.6,.35,.2,.68,.39,1.12,.65,.64-.86,1.05-1.87,2.23-2.26,.92-.31,1.69-1.08,2.63-1.72,.02-.21,.06-.61,.12-1.16,.26,.2,.42,.31,.68,.51,.72-.53,1.49-1.09,2.37-1.73-.53-.19-.82-.3-1.29-.47,.34-.49,.63-.92,1.02-1.48,.59,.48,1.07,.88,1.68,1.38,.32-.3,.6-.57,.93-.87-.14-.17-.28-.34-.43-.52,.59-1.65,.97-1.72,2.59-2.83,1.3-.89,2.76-1.47,4.15-2.37,1.89-.1,3.72-.57,5.36-1.9,1.13-.91,2.58-1.4,3.82-2.19,1.14-.72,2.19-1.59,3.4-2.48,1-.22,2.3,.42,3.39-.46,.68,.87,1.66,.29,2.37,.45,1.48-1,2.86-1.93,4.54-3.06,.78-.14,1.95-.35,3.12-.57,.67-.34,1.36-.68,2.09-1.04,.39-2.36,2.25-3.5,4.15-4.65v-.96c.93-.24,1.83-.47,2.73-.7,.42-.84,.84-1.67,1.41-2.78-.4-.11-.9-.26-1.4-.4,.11-.11,.21-.22,.32-.33-.47,.18-.93,.36-1.4,.54-.04-.08-.07-.16-.11-.24,2.56-2.27,5.13-4.54,7.67-6.79,.24,.2,.43,.36,.76,.63,.84-.59,1.69-1.2,2.68-1.9-.56-.2-.85-.3-1.24-.44,.87-.87,2.03-1.55,2.38-2.52,.3-.85,.94-1.47,1.15-2.27,.32-1.23,.44-2.5,.67-3.88,.08-.03,.3-.1,.7-.24,.39-2.21,1.68-4.28,2.16-6.63,1.08-1.05,.18-2.38,.58-3.6,.17-.17,.41-.41,.64-.64,.91,1.34,1.15,2.72,.15,4.18,.3,.15,.5,.25,.82,.41,.35-.72,.67-1.39,.98-2.03,.46-.08,.91-.15,1.53-.25-.66-1.3-1.95-2.08-1.68-3.58-1.54-.76-3.42-1.2-3.26-3.66,.43-1.24,.22-1.92-1.14-2.69-.05-.06-.13-.13-.14-.19-.01-.42,0-.83,0-1.47-.39-.29-.92-.68-1.6-1.19-.06,.04-.38,.22-.79,.46-.07-.49-.14-.95-.23-1.56-.48,.43-.87,.78-1.26,1.13-1.27-.37-2.44-.86-3.66-1.03-1.22-.17-2.49-.04-3.9-.04-.11,1.7-.17,3.34,.43,4.98,.69,1.88,1.47,3.76,1.88,5.71,.3,1.43,.06,2.97,.06,4.51-.85,.63-2.17,1-1.94,2.57-1.48,1.05-1.26,3.04-2.32,4.28-1.13,1.32-2.45,2.49-3.4,3.44-.34,.93-.63,1.5-.74,2.1-.1,.56-.02,1.15-.02,1.74-.33,.12-.62,.23-.91,.34,.18,.99,.36,1.98,.53,2.91-.78,.83-1.71,1.45-2.05,2.3-.35,.87-1.73,.65-1.6,1.81,0,.09-.36,.2-.54,.33-.86,.62-1.81,1.14-2.33,2.14-.04,.07-.11,.12-.17,.18-.18,.18-.33,.48-.53,.51-2.37,.42-3.21,3.08-5.47,3.71-.65,.18-1.18,.71-1.7,1.34-.81,.98-2.28,1.26-3.54,1.59-2.43,.63-4.63,1.72-6.8,2.9-2.56,1.39-5.1,2.81-7.96,2.66-2.12,1.35-4.23,2.12-6.52,1.97-.57,.72-1.1,1.4-1.58,2-2.48,0-4.82-.12-7.14,.04-1.93,.13-3.84,.45-5.79,.51-2.06,.06-4.03-.44-6.27-.65-.11-.15-.34-.48-.47-.66-.9-.23-1.63-.3-2.23-.61-.84-.44-1.58-1.08-2.16-1.49-.36-1.06-.63-1.87-.86-2.53-1.86-.62-1.69,1.25-2.7,1.89-.5-.63-1.02-1.28-1.67-2.09h-4.57c.29-.89,.54-1.67,.78-2.41,1.38-.08,1.04,1.38,2.17,1.98,1.51,.22,2.84-.43,3.53-2.37-.7-.24-1.5-.51-2.39-.81,.11-.15,.23-.31,.36-.48-.46-.68-.92-1.37-1.43-2.12,.3-.1,.58-.2,.9-.31-.03-.11-.02-.26-.09-.34-.78-.82-1.69-1.52-2.12-2.63-1.38-.37-1.66-1.83-2.65-2.64v-3.45c.6-.83,1.21-1.67,1.95-2.7v-4.29c.65-1.22,3.03-.44,2.47-2.6,.9-.89,1.8-1.76,2.69-2.63,.8-.79,1.6-1.6,2.55-2.24,.11,1.08-1.09,1.27-1.2,2.28,.33,.55,.86,.37,1.39,.22,.6-.18,1.2-.34,2.07-.59,.18-.17,.58-.54,1.24-1.15,.24,.66,.42,1.15,.52,1.41,1.36-.55,2.26-.92,3.25-1.32v-.55c-.18-.07-.39-.21-.46-.17-.7,.51-1.47,.58-2.29,.45,.52-1.3,.54-1.28,1.48-1.97,.76-.57,1.47-1.21,2.32-1.92,.45-1.42-.91-2.59-1.12-4.1-.21-1.52-.33-3.03-.4-4.5-.86-1.7-1.69-3.36-2.54-5.05,.19-.26,.37-.51,.55-.77-.14-.78-1.12-1.55-.05-2.35,.02-1.83,.24-3.68,0-5.47-.35-2.63-.37-2.59,0-5.1,.16-1.12,.47-2.44-.31-3.43,.46-1.49,1.25-2.72,2.16-3.93,.62-.82,.91-1.98,1.08-3.03,.36-2.26,1.76-4.02,2.95-5.77,1.41-2.09,2.59-4.41,4.48-6.18,.26-.24,.16-.85,.28-1.64-1.01,.53-1.75,.58-2.21,1.52-.29,.58-1.23,1.05-1.94,1.18-1.53,.26-2.54,1.46-3.96,1.94-.69,.23-1.09,1.31-1.7,2.12-.38-.03-.83-.07-1.59-.14,1.22-1.56,2.24-2.88,3.21-4.12,.41-2.11,1.72-3.6,2.77-4.66,.51-1.22,.83-2,1.21-2.93-.02-.03-.15-.19-.4-.51,.61-1.12,.8-2.69,2.84-2.69,.23-.53,.5-1.14,.83-1.88h-1.6c-1.21,1.38-2.32,3.24-3.95,4.32-1.66,1.1-2.03,3.28-4.02,4.01,.2-1.01,.39-1.99,.64-3.29,.49-.69,1.18-1.65,1.91-2.67-.4-.46-.76-.88-1.23-1.42,.87-.99,1.47-2.12,1.85-3.43,.29-1.01,1.19-1.82,1.69-2.79,1.06-2.06,1.61-4.33,2.49-6.47,.45-1.09,.92-1.37,1.87-1.38,.23-.65,.47-1.3,.68-1.91,.76,.11,1.49,1.44,2.35,3.96,.16-.01,.32-.03,.52-.05,.54-.88-.42-2.22,.89-2.87,.82,.33,.86,1.51,2.03,1.77-.48,.56-.84,.97-1.07,1.25,.7,1.96-.14,4.3,1.68,5.99,.68-.91,1.25-1.9,2.03-2.69,.79-.79,1.78-1.36,2.7-2.04-.21-.22-.32-.34-.54-.58,.61-1.06,1.25-2.17,1.92-3.33-.16-.32-.36-.73-.6-1.22,.4-.13,.69-.23,.98-.33,.05-.15,.15-.29,.15-.44,0-3-.01-6,.02-9,.01-1.14-.12-2.22-.49-3.3-.33-.96-.49-1.98-.78-3.21-.26-.15-.73-.43-1.32-.77,.16-.31,.33-.64,.59-1.15-.25-.23-.59-.56-1.1-1.05,.76,.06,1.68-.12,1.93,.21,.62,.82,2.18,.62,2.15,2.05,1.6,2.26,2.15,4.95,2.97,7.52,.69,2.15,1.38,4.32,1.55,6.62,.04,.59,.39,1.17,.57,1.66,.84,.77,1.56,1.69,2.5,2.22,.87,.49,1.24,1.5,2.31,1.69v1.67c.42,.45,.75,.8,1.08,1.15-.32,.32-.61,.61-.91,.91,.15,.25,.29,.5,.45,.77-.45,1.07-1.34,2.02-.91,3.52,1.78,.04,3.76-.04,5.04,1.38,1.84,.21,3.51,.39,5.19,.58,.11-.27,.22-.56,.32-.81,.93,.67,1.87,1.34,3.03,2.17,.3-.53,.54-.96,.82-1.44,.61,.54,1.01,.89,1.47,1.3,.31-.24,.56-.42,.75-.57,.55,.32,1.09,.88,1.64,.89,1.31,.04,1.74,.64,1.69,1.83,0,.11,.22,.23,.34,.35-.35,.82-.7,1.64-1.16,2.72-.24,.16-.75,.5-1.25,.82,.32,1.13,.61,2.17,.98,3.5-.38,.6-.92,1.45-1.54,2.43,.39,.43,.81,.88,1.24,1.36-.81,1.15-2.02,1.48-2.89,2.19-.92,.76-1.71,1.71-2.85,2.16-1.07,.42-2.2,.7-3.48,1.1-1.56-.64-3.69-.42-5.2-1.91-3.53,.15-6.98-1.09-10.17-.41-.87-.48-1.41-.78-2-1.11-.77,1.02-2.07-.83-2.81,.52q-1.05-.51-3.3-.2c-.4,.15-.8,.31-1.08,.42,.18,.43,.2,.64,.3,.71,.32,.21,.74,.3,1.01,.55,1.69,1.54,3.1,3.39,5.09,4.6,.31,.19,.5,.61,.7,.95,.74,1.25,1.83,2.25,2.61,3.43,1.58,2.4,3.74,4.43,4.53,7.37,.35,1.31,1.48,2.35,2.13,3.6,.35,.69,1.36,1.04,2.04,1.53,.82-.2,1.65-.4,2.65-.65,.16-.16,.46-.46,.84-.84h2.03c.78-1.29-.78-1.69-.9-2.74,.63-1.07,1.32-2.19,1.65-3.67,.34-.02,.73-.04,1.21-.06,.76-.94,1.79-1.7,2.45-2.89,.78-1.39,2.51-1.66,3.87-2,1.44-.36,2.77-1.05,4.26-1.23,.61-.07,1.21-.33,1.85-.52,.37,.54,.68,.99,1.08,1.58h2.05c.08-.23,.18-.52,.35-.98,.48,.19,.96,.37,1.49,.58,1.57-.15,2.39-1.46,3.47-2.41h2.6c-.45,.66-.75,1.1-1.14,1.67,.26,.45,.59,1.03,1.01,1.75h2.38c-.98,.76-1.56,1.21-1.81,1.4-.31,1.41-.52,2.39-.74,3.37,1.59,.29,2.93,1.01,3.69,2.18,.86,1.34,2.06,2.3,3.06,3.49h1.84c1.62-.45,1.1-2.52,2.52-3.11,.42,.62,.76,1.13,1.09,1.62h1.66c.72-1.13,1.48-2.32,2.2-3.45,.93,1.04,1.77,1.98,2.61,2.93h1.96c1.36,1.27,1.68,1.82,2.04,3.45,1.68-.14,2.18,1.49,3.33,2.19v2.16c.63,.5,1.3,1.04,2.05,1.64-.01,.07-.06,.3-.11,.55-.29-.16-.51-.28-.75-.41,.12,1.24,.17,2.42,.38,3.57,.14,.74,.53,1.44,.97,2.59,0,.51-.07,1.51,.02,2.5,.08,.85,.35,1.69,.54,2.58-.26,.1-.48,.18-.67,.25-.16-.13-.37-.23-.38-.33-.02-2.64-.97-5.08-1.64-7.58-.14-.52-.35-1.02-.58-1.65-1.1,1.65-2.17,3.24-3.16,4.72,.17,1.22,.33,2.39,.47,3.44-.21,.21-.26,.29-.33,.32-.04,.01-.12-.06-.17-.1-.77-.76-1.53-1.53-2.37-2.36-.29,.34-.58,.68-1,1.17,.53,.23,.86,.37,1.28,.56v5.15c.66,.42,1.25,.8,1.96,1.25-.33,.61-.64,1.19-1.01,1.87,.48,.71,1,1.48,1.6,2.39-.07,.93-.08,2-.26,3.04-.16,.91-.58,1.76-.79,2.66-.28,1.16-.47,2.33-.8,4.02-.1,.19-.46,.87-.84,1.59-.59,.47-1.25,.99-1.91,1.53l.37,.37c-.8,.79-1.59,1.59-2.36,2.35,.26,.54,.42,.86,.62,1.27-2.07,.47-1.71,2.97-3.69,3.89h-2.23c.68,.32,.99,.47,1.63,.77-1.3-.07-1.67,.91-1.71,1.42-.1,1.49-1.13,2.03-2.12,2.73-1.11,.79-2.17,1.64-3.25,2.46-.79-.19-1.62-.39-2.3-.55-1.06,.64-.9,2.2-2.28,2.17-.52,1.85-1.63,3.06-3.35,3.45-.36,.57-.66,1.03-.93,1.45h-1.12c-.16,.34-.32,.68-.52,1.11-.31-.14-.59-.26-.95-.43-.55,1.59-2.63,1.67-3.36,3.33-.76,0-1.51-.1-2.22,.02-.91,.15-2.05,.22-2.64,.79-1.36,1.33-3.11,1.8-4.66,2.79-.54-.22-1.04-.42-1.54-.63-.8,1.48-1.87,2.34-3.66,2.62-1.23,.19-2.48,.81-3.72,1.22-1.07,.36-2.02,.23-3.14-.42-.48,.67-.98,1.35-1.57,2.17-.37-.56-.69-1.04-1.07-1.62-1.13,.39-1.76,1.19-1.75,2.67-.85-.23-1.58-.42-2.5-.66-1.11,.85-2.3,1.78-3.42,2.64v1.72c-.27,.09-.56,.19-.93,.32v2.19c.25,.25,.55,.55,.88,.88v1.56c-.86,.53-1.66,1.01-2.46,1.5v1.15c-.37,.04-.76,.07-1.32,.12-.54,2.32-2.76,3.13-4.48,4.45-.49,.38-1.07,.64-1.75,1.04Zm-2.58-43.53c.24,1.04,1.27,1.51,1.87,2.37,.6,.87,1.87,1.02,2.98,1.14,.2,.02,.35,.34,.55,.48,.93,.64,2.09,.76,3.02,.44,1.46-.5,2.99-.71,4.45-1.32,2.13-.89,3.99-2.18,5.79-3.48,2.87-2.07,5.98-3.61,9.16-5.07,1.32,.23,1.93-1.27,3.24-1.29,.96-.02,1.91-.5,2.73-.74,.39,.24,.65,.4,.74,.45,2.46-.77,3.3-2.89,4.59-4.57,.23-.3,.45-.68,.49-1.04,.21-1.76,.46-3.52,.48-5.29,.02-1.41,.59-2.45,1.59-3.43-.23-1.79-.47-3.62-.68-5.27-1.22-3.48-2.88-6.54-5.05-9.33-.99,.51-1.47,1.35-1.43,2.22-.65,.25-1.09,.38-1.51,.59-.39,.19-.74,.46-1.48,.93,.14-.87,.2-1.31,.28-1.75,.1-.5,.22-.99,.33-1.48-.09-.03-.18-.05-.27-.08-.73,.94-1.45,1.87-2.24,2.88-.23,1.66,.34,3.3,.92,4.93-.71,.76-1.43,1.4-1.66,2.58-.23,1.18-.62,2.43-1.67,3.31-.36,.3-.39,.99-.6,1.48-1.22,2.81-2.21,5.76-4.45,7.54-.91,.33-1.49,.55-2.06,.76-.5-.2-1-.39-1.54-.6-.48,.43-.89,.79-1.24,1.11-1.44,.13-1.8-.65-1.74-1.82-.66-.6-1.31-1.2-2.06-1.9-.2,.36-.3,.54-.41,.72-.1,.18-.21,.37-.24,.42-.83-.16-1.6-.55-2.18-.36-.86,.28-1.78,.22-2.53,.51-.87,.34-1.73,.27-2.56,.46-1.19,.28-2.49,.57-3.45,1.27-2,1.44-4.34,2.01-6.69,3.03,.65,.13,1.15,.23,2.06,.41-.7,.47-1.11,.75-1.59,1.08,.53,.85,.97,1.56,1.36,2.2,1.77-.15,2.28-1.52,3.15-2.67,1.65,.23,3.32,.46,4.99,.69-.11,.12-.22,.24-.34,.36,.59,.31,1.18,.62,1.7,.88-.31,.54-.45,.8-.59,1.03,.13,.17,.25,.33,.27,.35-1.37,1.4-3.4,1.88-4.19,3.95-.95,.16-1.95,.34-2.81,.49-.41-.66-.69-1.13-.94-1.53h-1.76c-.49,.92,.01,1.44,.62,1.94h2.6Zm6.63-19.59h2.31c.58-.65,1.06-1.2,1.68-1.89v-.74c-.49-.31-1-.64-1.81-1.16,.94-.35,1.59-.58,2.22-.82,.23-1.87,.46-3.76,.7-5.72-.94-.59-1.75-1.07-2.53-1.6-.25-.17-.44-.44-.95-.98h2.39c0-.5,.14-.96-.02-1.11-.82-.78-.8-1.84-1.16-2.78-.94-2.44-2.06-4.8-3.15-7.18-.13-.27-.48-.44-.68-.62v-2.08c-1.61-2.69-1.58-2.74-4.43-4.22-.93-.48-1.4-1.2-1.95-2.2-.55,.24-1.11,.5-1.42,.63-.23,.91-.25,1.59-.56,2.11-.86,1.43-.89,3.04-.54,4.46,.26,1.04,.3,2.04,.41,3.06,.12,1.1,.44,2.19,.47,3.29,.06,2.08,.68,4.03,1.17,6.01,.09,.37,.36,.75,.33,1.1-.1,.94,.39,1.67,.72,2.46,.18,.43,.3,.88,.5,1.49,.74,.74,1.7,1.56,2.48,2.52,.79,.97,2.08,1.38,2.71,2.63,.67-.22,1.3-1.16,2.1-.33v.6c-.45,.08-.91,.15-1.59,.27,.2,.92,.4,1.81,.61,2.77Zm-6.89-43.84c-.18,.28-.48,.58-.61,.94-.42,1.25-.75,2.54-1.77,3.49-.94,.87-1.14,2.04-1.23,3.21-.1,1.32-.03,2.65,0,3.97,0,.11,.2,.22,.31,.32,.16-.02,.32-.03,.63-.06,.12-.79,.16-1.63,.48-2.46,.34-.89,.66-1.71,1.26-2.47,.63-.8,1.76-.22,2.22-1.07,.85,.41,1.59,.77,2.38,1.15q.18-1.89-1.35-4.9c-.5-.98-1.04-1.91-2.33-2.13Zm3.38-15.59c.03-1.83-1.23-2.2-1.94-3.27-.6,.39-1.4,.65-1.41,.95-.08,1.31-1.2,1.98-1.61,3.06-.06,.14-.03,.32-.04,.49,.16,.17,.32,.35,.48,.52-.26,.4-1.11,.77,.04,1.33,1.49-1.03,3.03-2.09,4.48-3.09Zm65.32,55.04c-.33,.31-.8,.55-.78,.75,.18,1.63-.59,3.04-1.15,4.63h1.48q1.58-2.71,1.55-3.92c-.47-.62-.81-1.06-1.1-1.46Zm-88.39,16.35c.88-1.27,1.45-2.2,.87-3.36-.24,0-.37-.03-.39,0-.5,.75-.82,1.57-.89,2.47-.01,.18,.17,.38,.42,.89Zm76.95,2.76c-1.43,.39-2.28,1.37-3.13,2.92,1.85-.51,2.13-2.09,3.13-2.92Zm4.46,8.4q-2.06,.15-2.17,1.47c.97,.08,1.24-.82,2.17-1.47Zm1.88-14.02c-.52,.34-1.53,.39-1.03,1.57,.83-.2,1.39-.48,1.03-1.57Z"/>
      <path class="cls-1" d="M28.78,81.65c1.96-.29,3.75,.32,5.5,1.14,.35,.16,.74,.31,1.11,.31,3.83,.02,7.67,.07,11.5-.02,1.17-.03,2.34-.42,3.52-.51,.42-.18,.86-.34,1.27-.55,2.16-1.08,4.35-2.17,6.18-3.75,.75-.65,1.45-.62,2.2-.66,3.3-2.9,6.62-5.75,10.7-7.46,1.86-.78,3.2-2.24,4.92-3.19,.53-.29,.75-1.16,1.2-1.91-.72-1.28-.3-2.87-.59-4.35-.29-1.5,1.08-2.9,.27-4.24,.1-.59,.12-1.14,.3-1.64,.18-.51,.52-.97,.98-1.79,0-2.83,.3-6.1-.08-9.29-.42-3.44-.19-6.88-.48-10.29-.16-1.9-.96-3.75-1.48-5.62-1.08-.72-.08-1.98-.81-2.94-.55-.73-.26-2.05-.69-2.94-.87-1.81-.34-3.76-.85-5.63-.5-1.86-.11-3.97-.11-5.95,.45-.67,.9-1.33,1.5-2.21,.19-.79,.1-1.89,.4-3,.55-2.09,2.02-3.28,3.48-4.49,.51-.43,1.5-1.19,2.32-.11,.7-.54,1.4-.79,2.06,.06,1.41-.31,2.65,.64,4.14,.52-.05,1.48,1.28,2.95-.14,4.42h-5.14c-.06-.28-.11-.51-.19-.89-1.65-.29-2.65,1.04-3.85,1.58,.9,.91,1.76,1.78,2.89,2.92,1.5-.19,3.31-.41,5.38-.67,.84-.52,1.89-1.18,2.96-1.85,.21,.21,.45,.45,.79,.79-.18,.6-.38,1.26-.59,1.96,.63,.29,1.26,.57,1.96,.89v1.07c-.49,.3-.96,.58-1.45,.88,.15,.17,.24,.35,.33,.36,1.25,.02,2.5,.01,4.01,.01,.21,.33,.52,.81,.84,1.3,.09-.07,.18-.13,.27-.2v3.41c-.95,.68-2.04,1.46-3.51,2.51-3.23,5.64-2.64,7.11-.87,11.45-1.71,3.04-1.64,6.5-1.69,9.98-.95-2.06-2.43-3.77-3.16-5.91-.31,1.97-.17,3.87,.28,5.77,.43,1.83,.69,3.7,1,5.36,.4-.37,.83-.79,1.62-1.53v-3.1c.08,0,.16-.01,.24-.02,.13,.65,.25,1.3,.39,1.94,.32,1.46,.73,2.86,1.76,4.03,.29,.33,.46,.84,.49,1.28,.05,.58,.1,1.05,.54,1.55,.38,.43,.44,1.14,.73,1.97,.38,.34,.98,.9,1.57,1.43,.36-.47,.87-1.13,1.57-2.03,.08,.91,.13,1.54,.18,2.11,.46,.22,.86,.41,1.27,.6,.32-.59,.32-1.49,1.48-1.41,.08,.23,.18,.51,.34,.99,.88,0,1.86-.09,2.83,.03,.84,.1,1.65,.42,2.35,.6,.74,.9,1.38,1.73,2.07,2.5,1.13,1.26,1.54,2.87,2.08,4.39,.37,1.04,.58,2.13,.57,3.28,0,1.34,.06,2.8,.57,3.99,1.23,2.84-.38,4.86-1.68,6.98-.42,.69-1.22,1.14-1.73,1.8-.95,1.24-2.41,1.58-3.72,1.86-1.46,.31-2.9,.55-4.33,1.03-1.24,.42-2.57-.06-3.76-.51-.61-.23-1.16-.42-1.81-.46-1.04-.07-2.16,.35-3.12-.29-.84-.56-2.03,.35-2.72-.69-1.58,0-3.24-.29-4.72,.09-1.16,.3-2.42,.41-3.53,1.1-2.38,1.47-5,2.53-7.23,4.26-.13,.1-.44-.02-.91-.06,.53-.53,.88-.94,1.3-1.28,.41-.34,.89-.6,1.57-1.05-1-.04-1.64-.1-2.47,.35-1.46,.79-2.86,1.59-4.14,2.68-1.37,1.16-2.79,2.27-4.45,3.08-1.79,.88-3.39,2.15-4.72,3.68-.33,.38-.4,.99-.64,1.64-1.08,.69-2.33,1.39-3.27,2.5-1.05,1.24-2.85,.78-4.1,1.84,.33,.64,.67,1.31,1.03,2.02-1.57,.15-3.15,.29-4.56,.42-.42,.72-.69,1.19-.91,1.58-1.1,.42-2.27-.31-3.21,.6-.21-.19-.43-.4-.65-.6,.15-.39,.31-.76,.5-1.25-.42-.06-.65-.09-.92-.13-.11,.32-.21,.61-.28,.8-1.35,.25-2.65,.5-3.91,.74v1.24c-.14,.08-.27,.22-.41,.23-1.03,.08-2.08-.19-3.07,.47-.31,.21-.94-.03-1.41-.12-.3-.06-.56-.3-.86-.33-1.76-.19-3.54-.26-5.29-.54-1.29-.21-2.55-.65-3.79-1.09-.3-.11-.62-.61-.64-.95-.05-.88-.47-1.18-1.27-1.48-.92-.35-1.71-1.07-2.84-1.82-.15-.76-.37-1.84-.59-2.94q-1.46-.13-2.54,2.35c-1.12-1.12-2.27-2.16-3.27-3.31-.84-.96-1.71-2.03-.44-3.24-.26-.38-.43-.64-.58-.86,0-.44,1.41-2.05,2.43-2.8-.32-.5-.81-1.04-.09-1.46-.15-.55-.3-1.05-.47-1.66,1.66-.48,3.22-.94,5.1-1.49,.25-.99,.57-2.3,.9-3.61-.29-.1-.58-.2-.95-.33,.51-1.84,2.33-3.09,2.08-5.09,.66-.28,1.21-.52,1.98-.85v7.36c.58-.31,1.07-.7,1.18-.61,.63,.52,1.44,.18,2.03,.44,1.55,.69,3.02,1.57,4.75,2.49ZM76.13,19.64c.24-.32,.57-.6,.71-.96,.58-1.54,.56-3.16,.52-4.78-.05-1.73,.43-3.13,2.21-3.82,.17-.07,.15-.6,.29-1.22-1.73,1.21-3.44,.46-4.84,.85-.21,1.8-.4,3.47-.59,5.21,.27,.28,.6,.63,.95,1v2.97c.26,.26,.49,.49,.76,.76Zm5.32,21.63c-.22-.78-.46-1.44-.58-2.13-.12-.63-.06-1.29-.18-1.92-.1-.52-.33-1.02-.51-1.53-.18-.51-.38-1.01-.58-1.52-.1,1.4,.21,2.71,.21,4.03,0,1.38,.32,2.65,.76,3.94,.27-.27,.5-.5,.87-.87Zm11.29,13.89c.52,.78,.92,1.37,1.53,2.27v-2.27h-1.53Zm-15.47-32.59v-1.42h-.83v1.42h.83Z"/>
      <path class="cls-1" d="M127.94,32.14h1.32v1.89c.66,.26,1.3,.52,2.02,.8-.12,.18-.27,.41-.48,.73,.7,1.31,1.41,2.69,2.12,4.04,.86,1.66,1.08,3.42,1.4,5.16,.18,.97,.26,1.88,1.07,2.62-.39,2.26,.61,4.43,.57,6.74-.02,1.21,.57,2.57,.97,3.81,.44,1.37,.46,2.7,.41,4.06-.05,1.47,.31,2.8,.75,4.19,.33,1.02,.3,2.26,.06,3.32-.19,.84-.64,1.88-1.98,1.66-.2-.03-.49,.39-.77,.64v1.96c1.12,3.5,2.12,6.58,3.13,9.74,.79,.38,1.83,.6,2.47,1.67-1.08,.73-2.09,1.42-3.11,2.11v1.69c-.69,.52-1.42,1.13-2.21,1.65-1.04,.68-2.09,1.35-3.37,1.51-1.65,1.62-4,1.15-5.94,1.93-.59,.24-1.49-.31-2.37-.53-.72-.89-1.93-1.55-2.37-2.9-.49,0-1.01,.1-1.47-.02-.66-.19-1.36-.43-1.88-.85-.91-.74-1.67-2.82-2.07-4.46-.11-.45-.29-.68-.1-1.24,.39-1.12,.53-2.34-.07-3.52-.17-.33-.31-.91-.14-1.15,1.28-1.81,.89-3.87,.96-5.64-1.2-2.55-2.48-4.86-3.35-7.32-.46-1.3-.82-2.74-.68-4.23,.15-1.6,0-3.15-.75-4.67-.37-.75-.21-1.75-.44-2.58-.43-1.31-1.21-2.63-1.21-3.94,0-2.95-.88-5.82-.59-8.78,.15-1.55,.86-3.25,2.19-4.6,.31-.32,.44-.81,.75-1.13,1.24-1.33,2.09-3.04,4.37-3.86h2.57c.27-.41,.56-.87,.98-1.52,1.21-.29,2.63-.74,4.09-.93,.62-.08,1.39,.27,1.95,.63,.53,.34,.88,.97,1.21,1.35Z"/>
      <path class="cls-1" d="M20.28,123.78c.36-.27,.61-.45,.81-.6,.27,.18,.53,.36,.88,.6,1.76-2.14,4.09-3.26,6.47-4.15,.42,.52,.81,.99,1.19,1.46,0,0-.12,.12-.29,.29,.3,.25,.56,.61,.9,.72,1.46,.48,3.8,.44,5.56-.22,.89-.33,1.67-.33,2.55-.05,.6,.19,1.37,.46,1.86,.24,1.75-.78,3.41-.48,5.1,.04,.23,.07,.5,0,.75,0,.57,.64,1.56,1.03,1.29,2.18,1.23,1.17,3.29,.5,4.47,2.09-.4,.48-.83,1.01-1.33,1.62,.51,1.12,1.77,.36,2.45,.6,.44,.35,.7,.55,1.1,.86-.39,.87-.77,1.71-1.17,2.6-.51,.02-.9,.04-1.41,.06v1.92c.57,.03,1.13,.06,1.68,.09,.77,1.16-.5,2.12-.29,3.26-1.7,.24-1.84,2.08-3.2,3.08,1.14,.07,2.08,.12,3.01,.17,.23,.24,.45,.47,.76,.79-1,.57-1.97,1.07-2.89,1.66-.78,.5-1.49,1.09-2.21,1.62-1.08-.32-2.02-1.29-2.94,.06-.53-.46-.94-.82-1.44-1.26-.92,.48-1.88,.97-3.02,1.55-1.26,.12-2.63,.05-3.87-.96-1.01-.81-2.32-.47-3.75-.54-.18-.28-.46-.69-.77-1.16-.4,.26-.66,.43-.94,.61-.27-.16-.59-.35-.93-.55-.45,.87-.83,1.62-1.23,2.39,.15,.26,.33,.59,.5,.89-.15,.15-.21,.26-.27,.26-1.82,0-3.64,0-5.76,0-.26,.33-.58,.82-.98,1.22-.37,.37-.83,.65-1.59,.74,.11-.32,.18-.66,.33-.96,.32-.61,1.33-.78,1.12-1.83-2.31-.29-4.54-.39-6.09,1.85h-2.25c.04-.17,.05-.38,.09-.39,1.27-.23,2-1.29,2.54-2.18,.75-1.23,1.88-2.02,2.67-3.13-.3-.97-1.25-1.48-1.89-2.37-.27,.19-.53,.37-.79,.56-.09-.08-.2-.18-.32-.28-.61,.11-1.23,.22-2.3,.42,1.04-.95,1.7-1.56,2.22-2.04,.6-2.02-1.11-1.91-1.95-2.69-1.1,.72-2.79,.35-3.14,2.21-.88-.07-1.78-.1-2.66-.23-.52-.08-1.03-.32-1.53-.52-.14-.06-.27-.21-.35-.35-.14-.27-.24-.56-.34-.81-.65-.3-1.28-.58-1.88-.86,.01-.24,.02-.4,.03-.68h4.92c.78-.56,1.35-.97,1.93-1.38-.02-.02-.08-.19-.18-.22-.67-.19-1.35-.44-2.04-.49-1.16-.08-2.33,.04-3.49-.04-1.1-.08-2.2-.27-3.29-.49-.81-.16-1.59-.45-2.73-.79,2.78-.29,5.18-.54,7.65-.8,.52-.28,1.13-.61,1.75-.95,.29,.2,.55,.38,.81,.56,.99-.43,2.16-.64,2.35-2.08,.8,.2,1.55,.46,2.32,.56,.73,.09,1.49,.02,2.42,.02-.11,.24-.19,.39-.25,.55-.09,.21-.17,.43-.3,.74,1.53,.27,2.98,.53,4.49,.79,.05-.41,.08-.64,.13-.96-.49-.08-.95-.15-1.45-.23-.02-.25-.03-.47-.05-.8h1.38c.06-.86,.11-1.65,.17-2.42,.31-.12,.6-.22,1.21-.45-.96-.43-1.66-.75-2.35-1.06Zm-3.1,9.62c-1.03-.34-1.69-.57-2.35-.76-.11-.03-.27,.11-.58,.25,.29,.45,.56,.88,.94,1.46,.64-.3,1.19-.56,1.65-1.14,.69-.49,1.32-.93,2.08-1.47q-1.69,.04-1.73,1.67Zm33.74-1.68q1.4-.75,1.19-2.1-1.1,.59-1.19,2.1Z"/>
      <path class="cls-1" d="M33.59,155.12c.66-.45,1.32-.89,2.15-1.46h4.93c.32,.34,.77,.8,1.07,1.13-.2,1.09-.36,2.02-.63,3.51-.05,.11-1.05,.35-.62,1.75,.76,.65,1.83,1.56,2.92,2.48-.22,.39-.41,.72-.65,1.15,.54,.4,1.06,.78,1.58,1.16-.2,.24-.33,.41-.45,.55,.8,.42,1.56,.81,1.8,.94,1.32,1.02-.06,1.75,.58,2.61-1.25,1.28-2.71,2.32-4.89,2.9-.36,.41-.96,1.1-1.47,1.67-.6,.07-.99,.12-1.39,.16-.46,.81-.14,1.4,.62,1.97,2.57-.02,4.24-1.74,6.12-3.46h2.01v3.26c-.31,.29-.72,1.03-1.25,1.13-2.38,.44-4.17,2.88-7.13,1.84-.66-.97-1.5-2.18-2.44-3.56-.48,.43-.79,.72-1.24,1.13,.43,.09,.66,.14,.89,.18,0,1.32-.85,1.97-2.43,2.43-.65-.07-1.72,.11-2.85-.39-.66-.29-1.71-.36-2.6,.21-.48,.31-1.26,.18-1.9,.2-.91,.03-1.83,0-2.85,0-.02-1.07-.43-1.95-1.74-2.56,.22,.93,.39,1.65,.62,2.64-.75-.28-1.36-.5-1.98-.74v-1.67c.3-.2,.71-.48,.97-.66v-1.31c-1.45-.27-2.92-.55-4.39-.83-.06-.23-.11-.45-.19-.78-.32,.14-.64,.26-.94,.41-.27,.13-.52,.3-.78,.46-.53-.8-.13-1.37,.58-1.97h1.68c.03-.48,.05-.87,.07-1.28,.42-.39,.46,.21,.72,.27,.16-.15,.34-.3,.52-.46,.29,.29,.59,.59,1.01,1.01,.37-.08,.83-.18,1.84-.4-1.09-.59-1.67-.9-2.48-1.34-.28-.48-.85-1.17-1.11-1.95-.71-2.22-1.53-4.3-3.82-5.38-.11-.05-.14-.27-.25-.5,.28-.72,1.82-.48,1.45-1.94-.54,.08-1.11,.16-1.77,.25-.25-.37-.64-.96-1.03-1.54,.63-.41,1.33-.87,2.24-1.46,.1,.89,.18,1.57,.26,2.3q1.62-.84,.88-2.35c.29-.1,.56-.19,.73-.25,.35-.85,.67-1.64,.99-2.42,1.21-.07,1.06-1.43,1.88-1.97,.67-.45,1.03-1.38,1.6-2.22,.59,.83,1.08,1.51,1.66,2.33,.63-.47,1.18-.89,1.98-1.49,.1,.88,.17,1.49,.24,2.05,.33,.4,.68,.75,.94,1.15,1.56,2.45,2.67,2.69,5.26,1.1,.83,0,1.67,0,2.49,0Zm-8.11,22.02c2.16-.14,3.13-.57,4.29-1.84-.86-.75-1.43,.4-2.21,.34-.88-.07-1.78-.02-2.95-.02,.39,.67,.61,1.05,.88,1.51Z"/>
      <path class="cls-1" d="M33.62,189.23c1.05,1.43,2.02,2.75,3.41,4.65,.7,.57,1.98,.35,3.31-.47,.71-.44,1.53-.7,2.71-1.22,.7-.1,1.88-.27,3.26-.47-.46,.76-.9,1.5-1.47,2.43v2.2c-1.4,1.5-.97,3.32-.95,5.07,.91,.82,.21,1.89,.47,2.69-.48,1.69-1.81,2.45-3.16,3.29,.19,.36,.33,.63,.54,1.03-1.12,1.34-2.9,2.36-3.42,4.36v2.68c-.09,.03-.18,.06-.27,.09-.11-.28-.23-.55-.49-1.18-.13,.47-.21,.78-.3,1.08-.11-.09-.22-.17-.33-.26v2.66c1-.72,1.79-1.3,3.01-2.17-.28,1.13-.51,1.75-.58,2.39-.08,.74-.02,1.5-.02,2.32-.26,.09-.55,.19-.83,.29q-.19,2.05-1.25,3.05c-.59-.65-.95-1.35-.92-2.25,.04-1.24-.39-2.31-1.22-3.44-1.12,1.48-2.69,2.1-4.34,2.75-.65-.65-1.22-1.22-1.81-1.81-.53,.19-.96,.34-1.41,.5-1.68-.54-3.25-1.68-5.49-1.39,1.17-2.03,2.24-3.76,2.38-5.84,1.37-.81,1.87-2.18,1.03-3.21-.61-.75-.77-2-2.06-2.14-.08,0-.12-.42-.19-.7-.44-.07-.89-.14-1.53-.23,.23-.47,.39-.8,.56-1.15-.13-.78-.33-1.62-.4-2.47-.07-.83-.02-1.66-.02-1.99-.53-1.37-.89-2.3-1.24-3.21-.23-.05-.46-.09-.79-.16,.21-1.44-.11-2.71-1.09-3.85,.22-.3,.41-.54,.51-.68,.25-1.94,.49-3.77,.74-5.7,.32-.32,.72-.74,1.12-1.14,.35,0,.68,0,1.01,0,.29,.3,.59,.59,.94,.94h1.5c.4-.55,.75-1.04,1.04-1.45,3.06,.82,5.24,2.99,8.04,4.11Zm-7.11,29.3h1.98c.15-.61,.28-1.18,.48-2-1.4,.31-2.71-.46-3.61,.86,.41,.41,.82,.82,1.15,1.15Zm6.02-3c-.35-.6-.59-1.03-.95-1.65-.33,.62-.57,1.06-.88,1.65h1.82Z"/>
      <path class="cls-1" d="M47.15,38.74c.63,.32,1.32,.67,2.07,1.06,.31,.88,.74,1.8,2.28,2.49-1.03,.21-1.46,.29-2.07,.41-.03,.51-.06,1.13-.1,1.99,1.59-.51,2.6,.63,3.87,1,.24,.88,.49,1.78,.8,2.93-1.1-.18-2.07,.42-2.89-.51-.46,.33-.92,.67-1.75,1.27,.9,.15,1.34,.22,1.8,.3,.6,1.32,1.6,2.56,1.05,4.49-.56,.16-1.3,.38-1.93,.56-.73-.68-1.32-1.22-1.92-1.77-.71,.54-.68,1.09-.32,1.56,.69,.9,.23,1.49-.44,2.09-.89,0-1.82-.09-2.71,.03-.76,.1-1.49,.43-2.34,.69-.83,.59-1.79,1.27-2.61,1.85-1.09-.27-1.93-.48-2.9-.72-.49,.61-.96,1.19-1.42,1.76-.07-.1-.13-.2-.2-.3-.83,.4-1.69,.75-2.48,1.2-1.95,1.13-3.87,2.3-5.81,3.46-.1,1.23-1.99,1.04-1.85,2.47h-1.59c-.45,.56-.91,1.14-1.37,1.71-.13-.06-.26-.12-.4-.18,0-.43-.18-1.05,.03-1.26,.91-.87,1.31-1.94,1.56-3.12,.13-.61,.31-1.22,.5-1.99,.23-.26,.6-.67,1.02-1.13-.31-.26-.47-.4-.76-.65-.67,.68-.76,2.25-2.44,1.49,.1-.41,.06-1.06,.37-1.36,.62-.6-.83-1.1,.03-1.59,0-1.36,.8-2.59,.64-3.99-.04-.33,.29-.7,.41-1.06,.64-2.03,1.91-3.73,3.03-5.48,1.9-2.93,4.44-5.19,7.56-6.89,1.58-.86,3.13-1.68,4.88-2.11,.22-.05,.4-.32,.61-.32,2.6-.05,5.14-.99,7.79-.39Z"/>
      <path class="cls-1" d="M61.45,271.08c.55-.04,1.19-.04,1.83-.04,.01-.08,.02-.17,.03-.25-.25-.05-.5-.11-.75-.16-.23-.05-.45-.09-.71-.39,1.04-.21,2.08-.49,3.13-.59,1.06-.1,2.14-.02,3.12-.02,.38-.38,.68-.68,1.02-1.02,1.54,.23,3.2-.4,4.74,.51,.19,.11,.61,.12,.72,0,.89-1,2.06-.21,3.23-.6v-1.84c1.03-.13,1.91,1.19,2.68,.09,1.08,.63,2.14,1.26,3.15,1.85,.2,.66,.38,1.24,.59,1.94-.37,.53-1.26,.7-1.7,1.55-.32,.62-1.24,.92-1.75,1.27-3.23,.54-6.35,1.06-9.64,1.61-1.57-1.11-3.83,.36-5.73-.85-1.31,.58-2.67,1.53-4.14,1.74-1.75,.25-2.19,2.16-3.84,2.09-.05,.84-.08,1.4-.12,2.09-1.48,.22-1.45,2.37-3.19,2.41-3.2,.22-3.89-.16-5.76-3.09,0-.91,.07-1.83-.02-2.74-.08-.76-.35-1.51-.56-2.32,1.38-.42,2.59-.96,2.9-2.28,1.51-.67,2.85-1.26,4.26-1.88,.82,.76,1.92,.5,2.94,.44,.92-.06,1.82-.37,2.52-.17,.4,.15,.8,.31,1.2,.46-.08,.05-.16,.1-.15,.2-2.47,.04-3.63,.49-4.92,2.07,1.59-.66,3.54-.23,4.92-2.07Z"/>
      <path class="cls-1" d="M64.5,267.62c-.82-.65-1.7-1.35-2.69-2.14,.25-.82-.35-1.74,.44-2.51-.55-.79-.52-1.54,.09-2.3,.12-.15,.13-.6,0-.72-1.09-1.03-.1-1.87,.27-2.97,.32,.47,.59,.86,.77,1.12h4.22c.93-1.11,2.29-1.24,3.58-1.61,1.24-.36,2.5-.88,3.57-1.59,1.25-.82,2.83,.43,3.92-.8,1.68,.57,3.36,1.13,5.13,1.73v2.08c-.44,.29-1.06,.71-1.63,1.09,.4,.56,.58,.81,.86,1.21-2.54,2.22-4.03,5.46-7.34,6.86h-2.08c-1.12-.53-.37-2.23-1.56-2.42-1.12,1.12-2.16,2.17-2.95,2.97h-4.59Z"/>
      <path class="cls-1" d="M58.91,284.47c-.28-1.27,.36-2.55-.6-3.73h1.76c.32-.69,.6-1.31,.9-1.96,.77-.23,1.58-.48,2.54-.76,.23,.41,.4,.82,.65,1.16,.24,.33,.58,.6,.87,.89,1.49,.25,3.09-.38,4.36,.56,.29-.38,.52-.68,.74-.96,0,0-.12-.12-.27-.27,.21-.22,.42-.45,.66-.71,.24,.15,.48,.41,.72,.42,.28,0,.56-.22,.85-.35,.64,.25,1.34,.52,2.17,.84,2.01-.53,4.15-1.46,6.47-.25,.17,.37,.39,.85,.61,1.32-1.42,2.39-3.54,4.01-6.01,5.49h-2.73c-1.78,1.57-3.91,.78-5.92,1.01-1.14,.68-2.33,1.39-3.53,2.11-.46-.69,.2-.74,.34-1.03,.13-.27,.3-.52,.7-1.2-.95,.27-1.49,.43-1.83,.53-1.23-1.11-2.39-2.14-3.46-3.1Z"/>
      <path class="cls-1" d="M127.97,286.84c1.91-2.07,4.59-3.24,5.83-6.13,.08-3.05-.88-4.96-3.12-5.65-.48,.47-1.04,1.02-1.28,1.26-1.33,.16-2.27,.27-3.37,.4-.24-.77-.48-1.49-.67-2.22-.2-.76-.33-1.53-.54-2.48,.82-1.57,2.84-.71,3.94-1.61-.17-.35-.33-.69-.63-1.32,2.52,.15,4.78-.32,7.14,.71,.89,.89,1.95,1.95,2.71,2.71,1.09,2.47,2.01,4.59,2.85,6.5-.48,.93-.87,1.68-1.34,2.59h-1.39c-1.57,.85-2.61,1.66-3.77,1.96-1.18,.31-2.12,.95-3.14,1.48-1.09,.57-2.15,1.19-3.23,1.8Z"/>
      <path class="cls-1" d="M24.28,457.14c-.37-.04-.6-.06-.84-.09,.26-.76,.5-1.45,.73-2.11-.1-.4-.45-1-.29-1.24,.86-1.26,.04-2.77,.66-3.98,.65-1.28-.02-2.6,.48-4.06,.36-.29,.9-.74,1.7-1.39v2.18c-.24,.28-.6,.7-.95,1.11q1.05,1.28,2.34,.58c.21,.24,.42,.48,.64,.73-.99,1.24-1.75,2.66-2.41,4.15-.63,1.42-2.29,2.28-2.07,4.13Z"/>
      <path class="cls-1" d="M90.92,97.38c-1.01-1.18-2.05-3.77-2.18-5.13q-.88,1.34-1.04,3.27c-.52-1.63-.48-2.59,.16-3.92,.5-1.04,.95-2.09,1.52-3.09,.24-.42,.73-.69,1.2-1.11,.64,1.21-.44,1.42-.56,1.66-.65,2.96,.46,5.43,.9,8.32Z"/>
      <path class="cls-1" d="M93.61,404.62c1.72,.32,2.87-1.04,4.53-1.55,.16,.26,.38,.59,.67,1.06-.98,.36-2.05,.77-3.31,1.24-.6,1.09-2.11,2.1-3.47,2.19,.13-1.29,.29-1.59,1.59-2.93Z"/>
      <path class="cls-1" d="M123.83,344.89c.85-.66,1.42-.02,2.04,.25,1.27,.55,1.26,.57,2.73-.07,.12,.25,.23,.5,.45,.97,2.01-.25,3.27,1.41,4.8,2.54,.04,.03-.08,.28-.13,.47-1.27-.7-2.51-1.41-3.79-2.07-.34-.18-.94-.44-1.07-.31-1,.99-1.99,.28-2.84-.08-.82-.35-1.46-1.11-2.19-1.69Z"/>
      <path class="cls-1" d="M51.77,228.74c-2.09-1.77,.29-2.43,.26-3.68,.6,.25,1.39,.33,1.64,.74,.29,.5,.56,.83,1.13,1v1.32c-1.06,.22-2.12,.44-3.03,.62Z"/>
      <path class="cls-1" d="M12.35,508.63c.5,1.05,.97,1.57,.96,2.08-.05,1.79,.17,3.53,.53,5.28,.27,1.31,.41,2.64,.24,4.2-.04-.43-.07-.87-.11-1.3-.2,.18-.39,.37-.59,.55-.16-1.09,.03-2.17-.46-3.3-.45-1.03,0-2.31-.49-3.53-.39-.98-.08-2.25-.08-3.97Z"/>
      <path class="cls-1" d="M157.49,377.43c.2-.62,.4-1.2,.68-2.06,.45,2.9,.51,5.62,1.57,8.12-1.02-.19-1.81-1.05-1.87-2.14-.05-.99,.02-1.99-.03-2.98-.02-.36-.25-.7-.35-.95Z"/>
      <path class="cls-1" d="M17.73,471.57c.75-2.98,2.07-4.94,3.51-7.07,.04,.46,.2,.82,.08,1.06-.92,1.95-1.75,3.95-3.6,6.01Z"/>
      <path class="cls-1" d="M12.37,125.87c.21-.22,.42-.45,.65-.68,1.42-.3,2.66,.03,3.93,1.25-.37,.15-.73,.29-1.49,.6-.63-.24-1.85-.7-3.09-1.16Z"/>
      <path class="cls-1" d="M18.35,546.34c-.46-.43-.68-.64-1.01-.94,.37-2.23-1.36-4.26-.84-7.14,.21,.65,.26,.87,.35,1.07,.15,.35,.37,.68,.47,1.05,.08,.31-.02,.66,.04,.98,.05,.3,.23,.57,.31,.86,.08,.3,.15,.61,.17,.92,.03,.41-.06,.84,.03,1.24,.06,.28,.38,.51,.46,.8,.08,.28,.02,.6,.02,1.16Z"/>
      <path class="cls-1" d="M152.86,80.41c.46-.48,.85-.89,1.24-1.3l1.76,1.76v1.15c-.43,.04-.87,.08-.91,.08-.84-.68-1.4-1.13-2.09-1.69Z"/>
      <path class="cls-1" d="M157.54,373.52c-.39-1.59-.78-3.18-1.22-4.98,.19-.23,.48-.57,.8-.95,.68,2,.91,3.96,.42,5.93Z"/>
      <path class="cls-1" d="M77.47,236.49c-.65,.92-1.3,1.84-2.19,3.1-.46-.58-.74-.94-1.05-1.32,.18-.3,.24-.57,.42-.67,.83-.5,1.68-.96,2.52-1.43,.1,.11,.2,.22,.3,.33Z"/>
      <path class="cls-1" d="M153.3,358.52q-1.88,1.06-3.53,.93c.28-.65,.53-1.24,.86-2,.81,.32,1.55,.62,2.67,1.08Z"/>
      <path class="cls-1" d="M13.96,486.21c.15,1.26,.8,2.51-.06,3.75-.31,.45-.05,1.29-.05,1.95v2.66c-.67-.86-.51-1.8-.48-2.69,.04-.94-.19-1.87,.26-2.86,.37-.82,.24-1.87,.33-2.81Z"/>
      <path class="cls-1" d="M21.77,506.7c.29,1.91,.57,3.82,.87,5.82,.08-.05-.05,.08-.19,.11-.14,.03-.3-.05-.45-.08-.44-1.91-.96-3.82-.23-5.84Z"/>
      <path class="cls-1" d="M14.41,485.01v-3.45c.41-.95,.82-1.92,1.23-2.89,.79,1.15-.19,2.17-.38,3.19-.2,1.06-.45,2.14-.85,3.14Z"/>
      <path class="cls-1" d="M16.64,200.99c.4-.37,.7-.65,1.11-1.03,.58,.49,1.11,.95,1.58,1.35v1.21h-1.18c-.39-.4-.84-.86-1.5-1.53Z"/>
      <path class="cls-1" d="M47.63,31.44c-.52-.94-.94-1.6-1.26-2.3-.12-.26-.02-.61-.02-.96,1.09,.3,1.1,.29,2.14,1.42-.23,.48-.48,1.04-.86,1.85Z"/>
      <path class="cls-1" d="M105.96,403.14c-1.78,1.42-3.46,2.4-5.62,1.68,2.04,.28,3.39-1.8,5.62-1.68Z"/>
      <path class="cls-1" d="M116.41,130.71c-.57,.81-1.16,1.29-2.21,.59,.37-.51,.73-1,1.08-1.48-.13-.16-.26-.33-.48-.59,.34-.05,.72-.18,.77-.1,.33,.51,.58,1.07,.84,1.57Z"/>
      <path class="cls-1" d="M123.39,344.34l-.72,.72c-.94-.52-1.9-1.05-3.35-1.85,1.88-.15,2.97,.28,4.08,1.12Z"/>
      <path class="cls-1" d="M18.15,486.77c-.37-.47-.65-.83-1.05-1.34,1.18-.5,2.17-.19,3.26,.05-.73,.43-1.46,.86-2.21,1.3Z"/>
      <path class="cls-1" d="M117.42,248.35c.44,.59,.75,1.01,1.43,1.91-1.09-.32-1.63-.61-2.17-.6-.56,.01-1.11,.32-1.84,.1,.82-.45,1.65-.9,2.58-1.41Z"/>
      <path class="cls-1" d="M135.82,297.84c-.43,.44-.86,.88-1.24,1.27-1.03,.09-1.65-.24-1.79-1.53,.62,.19,1.09,.33,1.64,.49,.35-.14,.81-.32,1.26-.5l.13,.26Z"/>
      <path class="cls-1" d="M51.95,480.79c-.36,.36-.6,.6-.77,.77h-1.31c.03-.31-.03-.59,.08-.75,.36-.51,.77-.98,1.22-1.52,.2,.38,.46,.88,.78,1.5Z"/>
      <path class="cls-1" d="M20.81,545.26c.35-.07,.5-.1,.66-.12q.84,1.91,.73,3.44c-.64-.29-.86-.74-.88-1.44-.02-.59-.3-1.16-.51-1.88Z"/>
      <path class="cls-1" d="M137.58,350.59c.35,.58,1.26,.81,1.31,1.96-.89-.31-1.7-.59-2.98-1.04,.7-.39,1.03-.57,1.68-.92Z"/>
      <path class="cls-1" d="M121.19,210.55c-1.31,1.25-2.13,2.37-3.59,2.57,.38-.76,2.09-2.09,3.59-2.57Z"/>
      <path class="cls-1" d="M40.74,436.08c.06,.39,.09,.54,.13,.8-.91,.44-1.84,.88-3.05,1.47q1.18-1.56,2.93-2.27Z"/>
      <path class="cls-1" d="M49.57,227.61c.02,.34,.01,.69,.06,1.03,.06,.44,.17,.87,.28,1.39h-1.59c.27-.88,.5-1.65,.73-2.43,.17,0,.34,0,.51,0Z"/>
      <path class="cls-1" d="M155.83,186.25c.29,.34,.64,.75,.99,1.16-.24,.24-.47,.47-.72,.72-.23-.24-.45-.47-.69-.72v-2.1c.27-.25,.49-.46,1.15-1.07-.35,.97-.52,1.43-.73,2.01Z"/>
      <path class="cls-1" d="M28.98,542.77c-.44-1.56-.84-3-1.24-4.44,.94,1.03,1.02,1.03,1.08,2.06,.04,.75,1.1,1.35,.16,2.38Z"/>
      <path class="cls-1" d="M94.36,370.66c-.32,.64-.53,1.05-.69,1.36-.56-.72-1.16-1.48-2.13-2.73,1.28,.62,2.01,.98,2.82,1.37Z"/>
      <path class="cls-1" d="M41.59,220.62c.46,.46,.81,.81,1.31,1.31-.36,.15-.72,.3-1.31,.54-.04-.03-.45-.35-1.01-.78,.4-.42,.67-.71,1.01-1.06Z"/>
      <path class="cls-1" d="M24.7,484.48c.34,1.54,.1,2.65-.66,3.75-.46-1.36-.11-2.5,.66-3.75Z"/>
      <path class="cls-1" d="M24.48,533.76c.87,.82,1.29,2.06,1.15,3.35q-.65-.79-1.15-3.35Z"/>
      <path class="cls-1" d="M126.1,340.71c-.73-.37-1.46-.73-2.6-1.29,.61-.27,.96-.42,1.31-.58,.38,.38,.96,.96,1.54,1.54l-.25,.33Z"/>
      <path class="cls-1" d="M79.79,251.62h.81c.21,.41,.42,.82,.68,1.33-.26,.22-.6,.51-1.23,1.04-.11-1.01-.18-1.69-.26-2.37Z"/>
      <path class="cls-1" d="M25.66,485.86c.54-1.51,.94-2.63,1.42-3.97,.2,1.54-.2,2.76-1.42,3.97Z"/>
      <path class="cls-1" d="M37.12,424.66c.36,.36,.53,.53,.71,.71-.58,.93-1.44,.87-2.67,.62,.79-.53,1.38-.93,1.96-1.33Z"/>
      <path class="cls-1" d="M29.64,70.11c.78,.2,1.59,.52,2.32,1.4h-1.06c-.48-.53-.88-.98-1.26-1.4Z"/>
      <path class="cls-1" d="M149.53,103.43c.33,.59,.66,1.18,.86,1.55-1.29,.05-1.43-.07-.86-1.55Z"/>
      <path class="cls-1" d="M44.93,223.31c-1.1,.43-2,.79-2.95,1.16-.02-.05-.1-.26-.19-.5,.94-.58,1.82-1.16,3.14-.66Z"/>
      <path class="cls-1" d="M22.66,495.65c-.59-1.27-.24-2.42,.5-3.61,.62,1.39-.77,2.38-.5,3.61Z"/>
      <path class="cls-1" d="M108.68,402.29c-.48,.63-.75,.99-.98,1.3-.44-.22-.84-.42-1.25-.63-.08-.44,.63-.72,2.23-.67Z"/>
      <path class="cls-1" d="M47.08,32.45c-2,.1-2.14-.03-1.98-1.35,.95-.03,1.11,.9,1.98,1.35Z"/>
      <path class="cls-1" d="M54.07,262.75c-.75-.42-1.5-.85-2.25-1.27,1.09-.25,1.86,.19,2.25,1.27Z"/>
      <path class="cls-1" d="M20.92,123.62h-2.33c-.22-.23-.45-.47-.69-.72,.08-.09,.17-.26,.27-.27,.93-.14,1.54,.47,2.75,.99Z"/>
      <path class="cls-1" d="M90.66,105.08q1.6,.51,1.53,2.22c-.53-.77-.93-1.35-1.53-2.22Z"/>
      <path class="cls-1" d="M135.98,44.54c-.23-.93-.46-1.85-.8-3.21,1.11,1.17,1.35,2.1,.8,3.21Z"/>
      <path class="cls-1" d="M18.19,204.4c-1.54,.42-2.14,.02-2.54-1.37,.95,.51,1.61,.87,2.54,1.37Z"/>
      <path class="cls-1" d="M34.63,224.15c-.25-.25-.48-.48-.8-.8,.41-.29,.81-.56,1.44-1,.04,.73,.07,1.17,.1,1.66-.32,.06-.54,.1-.74,.14Z"/>
      <path class="cls-1" d="M40.31,224.25v.79h-1.93c.44-.95,1.08-1.09,1.93-.79Z"/>
      <path class="cls-1" d="M123.92,209.25c-.52,.43-.94,.78-1.46,1.21-.16-.23-.44-.62-.87-1.21h2.32Z"/>
      <path class="cls-1" d="M96.33,244.21q-.86,.87-2.69,.73c1.02-.4,1.64-1.12,2.69-.73Z"/>
      <path class="cls-1" d="M20.74,544.12c-.43-1.01-.69-1.56-.88-2.12-.07-.2,.02-.46,.27-.92,.1,.36,.21,.72,.31,1.09,.14-.11,.28-.23,.42-.34-.03,.61-.06,1.21-.12,2.29Z"/>
      <path class="cls-1" d="M97.02,157.2l-1.03,1.03c-.37-.27-.75-.55-1.4-1.03h2.43Z"/>
      <path class="cls-1" d="M3.44,135.7h2.83c-.92,.61-1.88,.32-2.83,0Z"/>
      <path class="cls-1" d="M122.22,331.25c.24,.24,.41,.41,.67,.67-.86,.44-1.67,.07-2.5-.05,.58-.2,1.16-.39,1.83-.62Z"/>
      <path class="cls-1" d="M12.93,499.05v-2.83c.62,.91,.31,1.87,0,2.83Z"/>
    </g>
  </g>
</svg>