<svg width="180" height="180" viewBox="0 0 180 180" fill="none" xmlns="http://www.w3.org/2000/svg">
<path d="M33.4979 92V76.241H40.0077C41.1876 76.241 42.2059 76.4539 43.0626 76.8797C43.9244 77.3003 44.5887 77.9057 45.0555 78.6957C45.5223 79.4805 45.7558 80.4116 45.7558 81.4889C45.7558 82.5815 45.5172 83.5101 45.0401 84.2744C44.5631 85.0336 43.8859 85.6133 43.0087 86.0134C42.1315 86.4084 41.0927 86.6059 39.8923 86.6059H35.7756V83.605H39.1844C39.7589 83.605 40.2386 83.5306 40.6233 83.3818C41.0132 83.2279 41.3082 82.9971 41.5082 82.6893C41.7083 82.3763 41.8083 81.9762 41.8083 81.4889C41.8083 81.0015 41.7083 80.5988 41.5082 80.2808C41.3082 79.9576 41.0132 79.7165 40.6233 79.5575C40.2334 79.3933 39.7538 79.3112 39.1844 79.3112H37.3068V92H33.4979ZM42.37 84.7977L46.2944 92H42.1392L38.2918 84.7977H42.37ZM53.137 92.2231C51.9007 92.2231 50.8337 91.9795 49.936 91.4921C49.0434 90.9997 48.356 90.2994 47.8738 89.3915C47.3967 88.4783 47.1581 87.3934 47.1581 86.1365C47.1581 84.9156 47.3992 83.8486 47.8814 82.9355C48.3637 82.0173 49.0434 81.3042 49.9206 80.7963C50.7978 80.2834 51.8315 80.0269 53.0216 80.0269C53.8629 80.0269 54.6324 80.1577 55.33 80.4193C56.0277 80.6809 56.6305 81.0682 57.1383 81.5812C57.6462 82.0942 58.0412 82.7277 58.3233 83.4818C58.6055 84.2308 58.7465 85.0901 58.7465 86.0596V86.9984H48.474V84.813H55.2454C55.2403 84.4129 55.1454 84.0564 54.9607 83.7435C54.776 83.4305 54.5221 83.1869 54.1989 83.0125C53.8808 82.8329 53.5141 82.7431 53.0985 82.7431C52.6779 82.7431 52.3008 82.838 51.9674 83.0278C51.634 83.2125 51.3698 83.4664 51.1748 83.7896C50.9799 84.1077 50.8773 84.4693 50.867 84.8746V87.0984C50.867 87.5806 50.9619 88.0038 51.1517 88.368C51.3416 88.7271 51.6109 89.0067 51.9597 89.2068C52.3085 89.4068 52.7241 89.5069 53.2063 89.5069C53.5397 89.5069 53.8424 89.4607 54.1143 89.3684C54.3861 89.276 54.6195 89.1401 54.8145 88.9605C55.0094 88.781 55.1556 88.5604 55.2531 88.2988L58.7081 88.3988C58.5644 89.1734 58.2489 89.848 57.7616 90.4226C57.2794 90.992 56.6458 91.4357 55.861 91.7538C55.0761 92.0667 54.1681 92.2231 53.137 92.2231ZM64.4311 85.2593V92H60.6683V80.1808H64.2464V82.3507H64.3772C64.6388 81.6274 65.0851 81.0605 65.7161 80.6501C66.3471 80.2346 67.0986 80.0269 67.9707 80.0269C68.8017 80.0269 69.5225 80.2141 70.1329 80.5886C70.7485 80.9579 71.2256 81.4761 71.5642 82.1429C71.9079 82.8047 72.0772 83.5793 72.072 84.4668V92H68.3093V85.2055C68.3144 84.5489 68.1477 84.0359 67.8091 83.6665C67.4757 83.2972 67.0114 83.1125 66.4163 83.1125C66.0213 83.1125 65.6725 83.1997 65.3698 83.3741C65.0723 83.5434 64.8415 83.7871 64.6773 84.1051C64.5183 84.4232 64.4362 84.8079 64.4311 85.2593ZM78.7184 92.1693C77.8464 92.1693 77.0538 91.9436 76.3407 91.4921C75.6277 91.0407 75.0583 90.3636 74.6325 89.4607C74.2067 88.5579 73.9938 87.437 73.9938 86.0981C73.9938 84.7079 74.2144 83.5639 74.6556 82.6662C75.0967 81.7685 75.6738 81.1041 76.3869 80.6732C77.1051 80.2423 77.8771 80.0269 78.703 80.0269C79.3238 80.0269 79.8547 80.1346 80.2959 80.35C80.737 80.5604 81.1013 80.8323 81.3885 81.1657C81.6758 81.4991 81.8938 81.8454 82.0426 82.2045H82.1195V76.241H85.8823V92H82.158V90.084H82.0426C81.8836 90.4482 81.6579 90.7893 81.3654 91.1074C81.073 91.4255 80.7063 91.6819 80.2651 91.8769C79.8291 92.0718 79.3135 92.1693 78.7184 92.1693ZM80.0266 89.2376C80.4831 89.2376 80.873 89.1093 81.1962 88.8528C81.5193 88.5912 81.7681 88.2244 81.9426 87.7525C82.117 87.2805 82.2042 86.7265 82.2042 86.0904C82.2042 85.444 82.117 84.8874 81.9426 84.4206C81.7733 83.9538 81.5245 83.5947 81.1962 83.3433C80.873 83.092 80.4831 82.9663 80.0266 82.9663C79.5597 82.9663 79.1647 83.0945 78.8415 83.351C78.5184 83.6075 78.2721 83.9692 78.1028 84.436C77.9387 84.9028 77.8566 85.4543 77.8566 86.0904C77.8566 86.7265 77.9413 87.2805 78.1105 87.7525C78.2798 88.2244 78.5235 88.5912 78.8415 88.8528C79.1647 89.1093 79.5597 89.2376 80.0266 89.2376ZM93.7868 92.2231C92.5505 92.2231 91.4835 91.9795 90.5858 91.4921C89.6932 90.9997 89.0058 90.2994 88.5236 89.3915C88.0465 88.4783 87.8079 87.3934 87.8079 86.1365C87.8079 84.9156 88.049 83.8486 88.5313 82.9355C89.0135 82.0173 89.6932 81.3042 90.5704 80.7963C91.4476 80.2834 92.4813 80.0269 93.6714 80.0269C94.5127 80.0269 95.2822 80.1577 95.9798 80.4193C96.6775 80.6809 97.2803 81.0682 97.7881 81.5812C98.296 82.0942 98.691 82.7277 98.9731 83.4818C99.2553 84.2308 99.3963 85.0901 99.3963 86.0596V86.9984H89.1238V84.813H95.8952C95.8901 84.4129 95.7952 84.0564 95.6105 83.7435C95.4258 83.4305 95.1719 83.1869 94.8487 83.0125C94.5306 82.8329 94.1639 82.7431 93.7483 82.7431C93.3277 82.7431 92.9506 82.838 92.6172 83.0278C92.2838 83.2125 92.0196 83.4664 91.8246 83.7896C91.6297 84.1077 91.5271 84.4693 91.5168 84.8746V87.0984C91.5168 87.5806 91.6117 88.0038 91.8015 88.368C91.9914 88.7271 92.2607 89.0067 92.6095 89.2068C92.9583 89.4068 93.3739 89.5069 93.8561 89.5069C94.1895 89.5069 94.4922 89.4607 94.7641 89.3684C95.0359 89.276 95.2693 89.1401 95.4643 88.9605C95.6592 88.781 95.8054 88.5604 95.9029 88.2988L99.3579 88.3988C99.2142 89.1734 98.8987 89.848 98.4114 90.4226C97.9292 90.992 97.2957 91.4357 96.5108 91.7538C95.7259 92.0667 94.8179 92.2231 93.7868 92.2231ZM101.318 92V80.1808H104.973V82.3353H105.096C105.312 81.5556 105.663 80.9759 106.15 80.5963C106.638 80.2115 107.205 80.0192 107.851 80.0192C108.025 80.0192 108.205 80.032 108.39 80.0576C108.574 80.0782 108.746 80.1115 108.905 80.1577V83.428C108.726 83.3664 108.49 83.3177 108.197 83.2818C107.91 83.2459 107.654 83.2279 107.428 83.2279C106.982 83.2279 106.579 83.3279 106.22 83.528C105.866 83.7229 105.586 83.9974 105.381 84.3514C105.181 84.7002 105.081 85.1106 105.081 85.5825V92H101.318ZM110.438 92V80.1808H114.201V92H110.438ZM112.324 78.8034C111.795 78.8034 111.341 78.629 110.962 78.2801C110.582 77.9262 110.392 77.5004 110.392 77.0028C110.392 76.5103 110.582 76.0897 110.962 75.7408C111.341 75.3869 111.795 75.2099 112.324 75.2099C112.857 75.2099 113.311 75.3869 113.686 75.7408C114.065 76.0897 114.255 76.5103 114.255 77.0028C114.255 77.5004 114.065 77.9262 113.686 78.2801C113.311 78.629 112.857 78.8034 112.324 78.8034ZM120.359 85.2593V92H116.596V80.1808H120.174V82.3507H120.305C120.567 81.6274 121.013 81.0605 121.644 80.6501C122.275 80.2346 123.026 80.0269 123.899 80.0269C124.73 80.0269 125.45 80.2141 126.061 80.5886C126.676 80.9579 127.153 81.4761 127.492 82.1429C127.836 82.8047 128.005 83.5793 128 84.4668V92H124.237V85.2055C124.242 84.5489 124.076 84.0359 123.737 83.6665C123.404 83.2972 122.939 83.1125 122.344 83.1125C121.949 83.1125 121.6 83.1997 121.298 83.3741C121 83.5434 120.769 83.7871 120.605 84.1051C120.446 84.4232 120.364 84.8079 120.359 85.2593ZM135.839 96.6784C134.716 96.6784 133.754 96.522 132.953 96.2091C132.153 95.8961 131.525 95.4678 131.068 94.924C130.612 94.3803 130.337 93.7647 130.245 93.0773L133.808 92.8772C133.874 93.1183 133.997 93.3286 134.177 93.5082C134.362 93.6877 134.6 93.8262 134.893 93.9237C135.19 94.0212 135.539 94.0699 135.939 94.0699C136.57 94.0699 137.091 93.916 137.501 93.6082C137.917 93.3056 138.124 92.7746 138.124 92.0154V89.9378H137.994C137.845 90.302 137.619 90.6278 137.316 90.915C137.014 91.2023 136.637 91.428 136.185 91.5922C135.739 91.7563 135.226 91.8384 134.646 91.8384C133.784 91.8384 132.994 91.6383 132.276 91.2382C131.563 90.833 130.991 90.2071 130.56 89.3607C130.135 88.5091 129.922 87.4139 129.922 86.075C129.922 84.6951 130.142 83.5588 130.583 82.6662C131.025 81.7685 131.602 81.1041 132.315 80.6732C133.033 80.2423 133.805 80.0269 134.631 80.0269C135.252 80.0269 135.783 80.1346 136.224 80.35C136.67 80.5604 137.037 80.8323 137.324 81.1657C137.611 81.4991 137.829 81.8454 137.978 82.2045H138.086V80.1808H141.833V92.0462C141.833 93.0465 141.582 93.8904 141.079 94.5778C140.576 95.2652 139.874 95.7859 138.971 96.1398C138.068 96.4989 137.024 96.6784 135.839 96.6784ZM135.954 89.0991C136.411 89.0991 136.801 88.9785 137.124 88.7374C137.447 88.4963 137.696 88.15 137.87 87.6986C138.045 87.2472 138.132 86.706 138.132 86.075C138.132 85.4338 138.045 84.8823 137.87 84.4206C137.701 83.9538 137.452 83.5947 137.124 83.3433C136.801 83.092 136.411 82.9663 135.954 82.9663C135.488 82.9663 135.093 83.0945 134.769 83.351C134.446 83.6075 134.2 83.9692 134.031 84.436C133.867 84.8977 133.784 85.444 133.784 86.075C133.784 86.706 133.869 87.2472 134.038 87.6986C134.208 88.15 134.451 88.4963 134.769 88.7374C135.093 88.9785 135.488 89.0991 135.954 89.0991ZM62.1699 104.14H60.5549C60.5088 103.875 60.4239 103.641 60.3001 103.436C60.1763 103.229 60.0223 103.053 59.838 102.91C59.6538 102.766 59.4436 102.658 59.2076 102.586C58.9744 102.511 58.7225 102.473 58.4519 102.473C57.9711 102.473 57.5451 102.594 57.1737 102.836C56.8024 103.075 56.5116 103.426 56.3014 103.89C56.0913 104.35 55.9862 104.913 55.9862 105.578C55.9862 106.255 56.0913 106.825 56.3014 107.288C56.5145 107.749 56.8052 108.097 57.1737 108.333C57.5451 108.566 57.9697 108.683 58.4476 108.683C58.7124 108.683 58.96 108.648 59.1903 108.579C59.4235 108.507 59.6322 108.402 59.8164 108.264C60.0036 108.126 60.1605 107.956 60.2871 107.755C60.4167 107.553 60.5059 107.323 60.5549 107.064L62.1699 107.072C62.1094 107.493 61.9784 107.887 61.7769 108.255C61.5783 108.624 61.3177 108.949 60.9953 109.231C60.6729 109.511 60.2958 109.729 59.8639 109.888C59.4321 110.043 58.9528 110.121 58.426 110.121C57.6487 110.121 56.9549 109.941 56.3446 109.581C55.7343 109.221 55.2536 108.702 54.9024 108.022C54.5511 107.343 54.3755 106.528 54.3755 105.578C54.3755 104.625 54.5526 103.811 54.9067 103.134C55.2608 102.455 55.743 101.935 56.3533 101.575C56.9636 101.215 57.6545 101.035 58.426 101.035C58.9183 101.035 59.376 101.105 59.7992 101.243C60.2224 101.381 60.5995 101.584 60.9305 101.852C61.2616 102.116 61.5336 102.442 61.7467 102.827C61.9626 103.21 62.1036 103.648 62.1699 104.14ZM66.4611 110.13C65.8133 110.13 65.252 109.987 64.777 109.702C64.302 109.417 63.9335 109.018 63.6715 108.506C63.4124 107.993 63.2829 107.395 63.2829 106.71C63.2829 106.024 63.4124 105.424 63.6715 104.909C63.9335 104.394 64.302 103.993 64.777 103.708C65.252 103.423 65.8133 103.281 66.4611 103.281C67.1088 103.281 67.6701 103.423 68.1451 103.708C68.6201 103.993 68.9872 104.394 69.2463 104.909C69.5082 105.424 69.6392 106.024 69.6392 106.71C69.6392 107.395 69.5082 107.993 69.2463 108.506C68.9872 109.018 68.6201 109.417 68.1451 109.702C67.6701 109.987 67.1088 110.13 66.4611 110.13ZM66.4697 108.877C66.8209 108.877 67.1145 108.781 67.3506 108.588C67.5867 108.392 67.7623 108.13 67.8774 107.802C67.9954 107.474 68.0545 107.108 68.0545 106.705C68.0545 106.299 67.9954 105.932 67.8774 105.604C67.7623 105.273 67.5867 105.01 67.3506 104.814C67.1145 104.618 66.8209 104.52 66.4697 104.52C66.1098 104.52 65.8104 104.618 65.5715 104.814C65.3354 105.01 65.1584 105.273 65.0404 105.604C64.9252 105.932 64.8676 106.299 64.8676 106.705C64.8676 107.108 64.9252 107.474 65.0404 107.802C65.1584 108.13 65.3354 108.392 65.5715 108.588C65.8104 108.781 66.1098 108.877 66.4697 108.877ZM70.966 110V103.367H72.4601V104.494H72.5378C72.676 104.114 72.9049 103.818 73.2244 103.605C73.5439 103.389 73.9254 103.281 74.3687 103.281C74.8178 103.281 75.1964 103.39 75.5044 103.609C75.8153 103.825 76.0341 104.12 76.1608 104.494H76.2299C76.3767 104.126 76.6243 103.832 76.9726 103.613C77.3238 103.392 77.7398 103.281 78.2205 103.281C78.8308 103.281 79.3289 103.474 79.7146 103.86C80.1004 104.245 80.2933 104.808 80.2933 105.548V110H78.7258V105.79C78.7258 105.378 78.6164 105.077 78.3976 104.887C78.1788 104.694 77.9111 104.598 77.5944 104.598C77.2173 104.598 76.9222 104.716 76.7092 104.952C76.499 105.185 76.3939 105.489 76.3939 105.863V110H74.861V105.725C74.861 105.382 74.7574 105.109 74.5501 104.905C74.3457 104.7 74.078 104.598 73.7469 104.598C73.5224 104.598 73.318 104.656 73.1337 104.771C72.9495 104.883 72.8027 105.043 72.6933 105.25C72.5839 105.454 72.5292 105.693 72.5292 105.967V110H70.966ZM81.8791 112.487V103.367H83.4164V104.464H83.5071C83.5877 104.303 83.7014 104.132 83.8482 103.95C83.995 103.766 84.1937 103.609 84.4441 103.48C84.6946 103.347 85.0141 103.281 85.4028 103.281C85.9152 103.281 86.3772 103.412 86.7889 103.674C87.2034 103.933 87.5316 104.317 87.7734 104.827C88.0181 105.333 88.1405 105.955 88.1405 106.692C88.1405 107.421 88.021 108.04 87.7821 108.549C87.5431 109.059 87.2178 109.447 86.8062 109.715C86.3945 109.983 85.9281 110.117 85.4071 110.117C85.0271 110.117 84.7118 110.053 84.4614 109.927C84.2109 109.8 84.0094 109.647 83.8568 109.469C83.7071 109.287 83.5906 109.116 83.5071 108.955H83.4423V112.487H81.8791ZM83.4121 106.684C83.4121 107.113 83.4725 107.488 83.5934 107.811C83.7172 108.133 83.8943 108.385 84.1246 108.566C84.3578 108.745 84.6399 108.834 84.9709 108.834C85.3164 108.834 85.6057 108.742 85.8389 108.558C86.0721 108.371 86.2477 108.116 86.3657 107.793C86.4866 107.468 86.5471 107.098 86.5471 106.684C86.5471 106.272 86.4881 105.906 86.37 105.587C86.252 105.267 86.0764 105.017 85.8432 104.835C85.61 104.654 85.3193 104.563 84.9709 104.563C84.637 104.563 84.3534 104.651 84.1203 104.827C83.8871 105.002 83.71 105.249 83.5891 105.565C83.4711 105.882 83.4121 106.255 83.4121 106.684ZM92.4155 110.13C91.7505 110.13 91.1762 109.991 90.6925 109.715C90.2118 109.436 89.8418 109.041 89.5828 108.532C89.3237 108.019 89.1941 107.416 89.1941 106.722C89.1941 106.04 89.3237 105.441 89.5828 104.926C89.8447 104.408 90.2103 104.005 90.6796 103.717C91.1488 103.426 91.7001 103.281 92.3334 103.281C92.7422 103.281 93.128 103.347 93.4907 103.48C93.8563 103.609 94.1787 103.811 94.458 104.084C94.7401 104.358 94.9618 104.706 95.123 105.129C95.2842 105.549 95.3648 106.05 95.3648 106.632V107.111H89.9282V106.057H93.8664C93.8635 105.758 93.7987 105.492 93.6721 105.259C93.5454 105.023 93.3684 104.837 93.1409 104.702C92.9164 104.566 92.6544 104.499 92.355 104.499C92.0355 104.499 91.7548 104.576 91.513 104.732C91.2712 104.884 91.0826 105.086 90.9473 105.336C90.8149 105.584 90.7472 105.856 90.7443 106.152V107.072C90.7443 107.458 90.8149 107.789 90.9559 108.065C91.097 108.339 91.2942 108.549 91.5475 108.696C91.8009 108.84 92.0974 108.912 92.4371 108.912C92.6645 108.912 92.8703 108.88 93.0546 108.817C93.2388 108.751 93.3986 108.654 93.5339 108.527C93.6692 108.401 93.7714 108.244 93.8405 108.057L95.3 108.221C95.2079 108.607 95.0323 108.943 94.7732 109.231C94.517 109.516 94.1888 109.738 93.7887 109.896C93.3885 110.052 92.9308 110.13 92.4155 110.13ZM99.9993 103.367V104.576H96.1863V103.367H99.9993ZM97.1277 101.778H98.6909V108.005C98.6909 108.215 98.7225 108.376 98.7859 108.489C98.8521 108.598 98.9385 108.673 99.045 108.713C99.1515 108.753 99.2695 108.774 99.3991 108.774C99.4969 108.774 99.5862 108.766 99.6668 108.752C99.7503 108.738 99.8136 108.725 99.8568 108.713L100.12 109.935C100.037 109.964 99.9172 109.996 99.7618 110.03C99.6092 110.065 99.4221 110.085 99.2004 110.091C98.8089 110.102 98.4563 110.043 98.1425 109.914C97.8287 109.781 97.5797 109.577 97.3954 109.3C97.2141 109.024 97.1248 108.679 97.1277 108.264V101.778ZM101.307 110V103.367H102.87V110H101.307ZM102.093 102.426C101.845 102.426 101.632 102.344 101.453 102.18C101.275 102.013 101.186 101.813 101.186 101.58C101.186 101.343 101.275 101.143 101.453 100.979C101.632 100.812 101.845 100.729 102.093 100.729C102.343 100.729 102.556 100.812 102.732 100.979C102.91 101.143 102.999 101.343 102.999 101.58C102.999 101.813 102.91 102.013 102.732 102.18C102.556 102.344 102.343 102.426 102.093 102.426ZM107.789 103.367V104.576H103.976V103.367H107.789ZM104.918 101.778H106.481V108.005C106.481 108.215 106.513 108.376 106.576 108.489C106.642 108.598 106.728 108.673 106.835 108.713C106.941 108.753 107.06 108.774 107.189 108.774C107.287 108.774 107.376 108.766 107.457 108.752C107.54 108.738 107.604 108.725 107.647 108.713L107.91 109.935C107.827 109.964 107.707 109.996 107.552 110.03C107.399 110.065 107.212 110.085 106.99 110.091C106.599 110.102 106.246 110.043 105.932 109.914C105.619 109.781 105.37 109.577 105.185 109.3C105.004 109.024 104.915 108.679 104.918 108.264V101.778ZM109.097 110V103.367H110.66V110H109.097ZM109.883 102.426C109.635 102.426 109.422 102.344 109.243 102.18C109.065 102.013 108.976 101.813 108.976 101.58C108.976 101.343 109.065 101.143 109.243 100.979C109.422 100.812 109.635 100.729 109.883 100.729C110.133 100.729 110.346 100.812 110.522 100.979C110.7 101.143 110.789 101.343 110.789 101.58C110.789 101.813 110.7 102.013 110.522 102.18C110.346 102.344 110.133 102.426 109.883 102.426ZM115.16 110.13C114.513 110.13 113.951 109.987 113.476 109.702C113.001 109.417 112.633 109.018 112.371 108.506C112.112 107.993 111.982 107.395 111.982 106.71C111.982 106.024 112.112 105.424 112.371 104.909C112.633 104.394 113.001 103.993 113.476 103.708C113.951 103.423 114.513 103.281 115.16 103.281C115.808 103.281 116.37 103.423 116.845 103.708C117.32 103.993 117.687 104.394 117.946 104.909C118.208 105.424 118.339 106.024 118.339 106.71C118.339 107.395 118.208 107.993 117.946 108.506C117.687 109.018 117.32 109.417 116.845 109.702C116.37 109.987 115.808 110.13 115.16 110.13ZM115.169 108.877C115.52 108.877 115.814 108.781 116.05 108.588C116.286 108.392 116.462 108.13 116.577 107.802C116.695 107.474 116.754 107.108 116.754 106.705C116.754 106.299 116.695 105.932 116.577 105.604C116.462 105.273 116.286 105.01 116.05 104.814C115.814 104.618 115.52 104.52 115.169 104.52C114.809 104.52 114.51 104.618 114.271 104.814C114.035 105.01 113.858 105.273 113.74 105.604C113.625 105.932 113.567 106.299 113.567 106.705C113.567 107.108 113.625 107.474 113.74 107.802C113.858 108.13 114.035 108.392 114.271 108.588C114.51 108.781 114.809 108.877 115.169 108.877ZM121.229 106.114V110H119.665V103.367H121.159V104.494H121.237C121.39 104.123 121.633 103.828 121.967 103.609C122.304 103.39 122.72 103.281 123.215 103.281C123.673 103.281 124.071 103.379 124.411 103.575C124.754 103.77 125.018 104.054 125.206 104.425C125.396 104.797 125.489 105.247 125.486 105.777V110H123.923V106.019C123.923 105.575 123.808 105.228 123.578 104.978C123.35 104.727 123.035 104.602 122.632 104.602C122.358 104.602 122.115 104.663 121.902 104.784C121.692 104.902 121.527 105.073 121.406 105.297C121.288 105.522 121.229 105.794 121.229 106.114Z" fill="white"/>
<path fill-rule="evenodd" clip-rule="evenodd" d="M142.261 113C133.357 133.591 112.861 148 89 148C65.139 148 44.6433 133.591 35.7392 113H34.6511C43.616 134.158 64.5747 149 89 149C113.425 149 134.384 134.158 143.349 113H142.261ZM36.1829 66C45.311 45.9438 65.5271 32 89 32C112.473 32 132.689 45.9438 141.817 66H142.914C133.72 45.3762 113.039 31 89 31C64.9613 31 44.2804 45.3762 35.0859 66H36.1829Z" fill="white"/>
</svg>
