<svg width="104" height="111" viewBox="0 0 104 111" fill="none" xmlns="http://www.w3.org/2000/svg">
<g id="_&#233;&#141;&#165;&#230;&#131;&#167;&#231;&#156;&#176;_1" clip-path="url(#clip0_34_25)">
<path id="Vector" d="M73.7488 100.119C74.3823 101.959 75.3657 103.776 75.5056 105.656C75.5756 106.578 74.083 107.618 73.294 108.606C72.812 107.869 72.3301 107.131 71.8403 106.397C71.7315 106.232 71.6266 106.013 71.4672 105.95C71.3273 105.899 70.9697 106.024 70.9658 106.091C70.9347 106.574 70.9891 107.06 70.9775 107.547C70.9619 108.132 70.9308 109.226 70.8647 109.226C69.31 109.301 67.7475 109.27 66.185 109.226C65.9518 109.219 65.6097 108.944 65.5048 109.03C61.2021 112.487 58.5007 111.373 57.5523 105.734C57.5174 105.538 57.3697 105.357 57.2764 105.169C57.1403 105.353 56.9266 105.518 56.8877 105.722C56.7905 106.201 56.7944 106.695 56.7283 107.182C56.5806 108.281 56.4135 109.375 56.2541 110.47C54.8238 109.207 53.3468 107.99 51.9903 106.648C51.621 106.283 51.6171 105.546 51.4422 104.981C51.2945 105.499 51.2323 106.068 50.9758 106.523C50.6921 107.029 50.1013 107.877 49.8642 107.81C48.667 107.457 46.5526 106.864 46.5487 106.338C46.5293 103.423 47.0229 100.504 47.3455 97.5841C49.1568 97.9294 50.9603 98.4631 52.7871 98.5769C56.2386 98.7927 59.7095 98.828 63.1688 98.8162C64.844 98.8123 66.5154 98.4748 68.1945 98.3924C69.7298 98.3179 71.2729 98.3807 72.812 98.3846L72.781 98.3493C73.1152 98.9457 73.4456 99.5461 73.7799 100.143L73.7527 100.119H73.7488Z" fill="white"/>
<path id="Vector_2" d="M28.3 5.76032C28.9958 4.27315 29.6876 2.78206 30.3834 1.2949C30.9392 1.89526 31.4989 2.48777 32.043 3.09598C32.2452 3.31964 32.4162 3.57077 32.6027 3.81013C32.7232 3.55115 32.8087 3.26078 32.972 3.03319C33.7144 2.02082 34.4762 1.02414 35.2341 0.0235436C36.0815 0.835796 36.9288 1.64805 37.7722 2.4603C37.9316 2.61333 38.091 2.77029 38.2503 2.92725C38.3941 2.68396 38.4796 2.35043 38.6895 2.20917C39.9022 1.40477 41.1965 -0.0353153 42.3626 0.051011C43.7269 0.153033 45.0328 1.55387 46.2689 2.51131C46.607 2.77422 46.6148 3.46875 46.7703 3.96709C46.9257 3.45698 47.0773 2.94294 47.2328 2.43283C47.4777 1.62058 47.7225 0.812253 47.9674 0C49.32 0.926046 50.7232 1.78931 52.0019 2.80953C52.4373 3.15876 52.5694 3.89646 52.8415 4.45758C53.1097 3.85722 53.3507 3.24509 53.6577 2.66435C53.8832 2.23664 54.1863 1.85209 54.4545 1.444C55.5117 2.31119 57.4318 3.13914 57.4668 4.04949C57.5795 6.79231 56.9576 9.56261 56.6234 12.325C55.0764 11.9484 53.545 11.501 51.9825 11.2146C51.0808 11.0498 50.1285 11.1714 49.2034 11.1047C47.2289 10.9634 45.2233 10.4808 43.2876 10.6888C40.322 11.0027 37.4185 11.9837 34.4529 12.2505C33.4268 12.3407 32.2763 11.1714 31.2074 10.5318C30.8342 10.3082 30.5388 9.955 30.2085 9.66463L30.2318 9.69602C29.5749 8.37758 28.9141 7.05914 28.2573 5.7407L28.2922 5.76425L28.3 5.76032Z" fill="white"/>
<path id="Vector_3" d="M86.7463 57.0891C81.433 57.0891 76.1197 57.1912 70.8103 57.0617C65.5514 56.9322 60.2848 56.2612 55.0531 56.5084C53.6305 56.5751 51.345 58.9608 51.1468 60.5069C50.6221 64.5878 50.9292 68.7903 51.0924 72.9379C51.174 74.9626 51.7182 76.9638 51.9242 78.9886C51.9592 79.3378 51.345 79.7498 51.0302 80.1343C50.7076 79.7537 50.1168 79.381 50.1051 78.9925C50.0119 75.4963 50.1285 71.9922 49.9652 68.4999C49.8408 65.8277 49.9885 62.8848 48.908 60.5971C48.0335 58.745 45.5381 56.528 43.7035 56.4731C30.0102 56.0689 16.3052 56.1866 2.60416 56.0571C1.73351 56.0493 0.866744 55.3155 -0.00390625 54.9231C0.77346 54.7819 1.55083 54.515 2.32819 54.515C11.1707 54.4915 20.0172 54.4091 28.8558 54.5543C33.9437 54.6367 39.0588 55.5627 44.0883 55.1546C45.8724 55.0095 48.496 52.2549 48.8691 50.3243C49.6154 46.4867 49.1529 42.3862 49.0091 38.4034C48.9391 36.4728 48.4571 34.558 48.2084 32.6274C48.1773 32.3802 48.4416 32.0937 48.5698 31.8269C48.7137 32.078 48.9624 32.3252 48.9819 32.5881C49.3705 38.839 49.4871 45.129 50.2801 51.3249C50.4744 52.8356 52.8492 55.2096 54.2563 55.2331C70.3828 55.5117 86.517 55.4058 102.647 55.4372C103.098 55.4372 103.545 55.8492 103.996 56.0728C103.491 56.4966 102.993 57.2853 102.484 57.2932C97.2369 57.3834 91.9897 57.3481 86.7424 57.3481C86.7424 57.2657 86.7424 57.1833 86.7424 57.1009L86.7463 57.0891Z" fill="white"/>
<path id="Vector_4" d="M46.3232 98.263C45.9657 100.876 45.678 103.16 45.2893 105.424C45.2544 105.616 44.3371 105.926 44.1505 105.773C43.2021 105.02 41.6085 104.117 41.6202 103.293C41.6707 100.511 42.3004 97.7372 42.7318 94.963C42.7551 94.8099 43.1011 94.5549 43.1322 94.5784C44.2088 95.3475 45.3321 96.0734 46.2805 96.9799C46.5565 97.2428 46.3232 98.0433 46.3232 98.2591V98.263Z" fill="white"/>
<path id="Vector_5" d="M72.8082 98.3886C73.5583 97.125 74.3124 95.8576 75.0625 94.5941C75.836 95.7321 76.6406 96.8464 77.3713 98.0119C78.0087 99.0281 78.6112 100.076 79.1359 101.155C79.5674 102.042 80.3136 103.137 80.0882 103.89C79.8433 104.718 78.6501 105.259 77.8688 105.926C77.3907 105.142 76.9554 104.325 76.419 103.584C75.5639 102.403 74.6389 101.269 73.741 100.119L73.7682 100.143C73.4339 99.5461 73.1036 98.9457 72.7693 98.3493L72.8004 98.3846L72.8082 98.3886Z" fill="white"/>
<path id="Vector_6" d="M30.2201 9.66073C30.5233 10.4534 30.9858 11.2303 31.0908 12.0504C31.1841 12.792 30.8848 13.5847 30.7565 14.3537C29.6099 13.9221 28.0357 13.8201 27.4022 12.9882C26.0068 11.1557 25.0779 8.95834 23.9779 6.90221C23.8263 6.61969 23.6436 6.03894 23.7019 6.00755C24.5765 5.51706 25.4743 5.04619 26.411 4.68911C26.6365 4.60279 27.0329 4.90885 27.3244 5.07758C27.6665 5.28163 27.9813 5.53276 28.3039 5.76427L28.2689 5.74073L30.2435 9.69604L30.2201 9.66465V9.66073Z" fill="white"/>
<path id="Vector_7" d="M57.1053 13.0705C58.1975 9.7352 59.0216 7.21604 59.8456 4.70081C60.965 5.3718 63.1066 6.18013 63.0405 6.69024C62.6596 9.61356 61.7501 12.4623 61.0194 15.3386C59.7562 14.6048 58.4929 13.871 57.1092 13.0705H57.1053Z" fill="white"/>
<path id="Vector_8" d="M25.7852 18.9094C24.075 16.8101 22.8312 15.3896 21.7157 13.8711C20.9267 12.7998 20.3087 11.603 19.6207 10.4573C19.4847 10.2336 19.2631 9.79018 19.2748 9.78234C20.3048 9.1702 22.186 7.97733 22.2754 8.09897C24.0439 10.5514 25.7153 13.0981 27.1145 15.782C27.3866 16.3 26.4266 17.4732 25.7852 18.9094Z" fill="white"/>
<path id="Vector_9" d="M82.5913 102.646C81.4563 100.97 80.4069 99.5382 79.4818 98.0314C78.685 96.7326 77.9932 95.367 77.3246 93.9976C77.1458 93.6248 77.2197 93.1304 77.1769 92.6909C78.1525 92.7812 79.5518 92.4947 80.0338 93.0362C81.7945 95.0139 83.2793 97.2505 84.799 99.4401C85.0361 99.7814 85.1411 100.551 84.9312 100.802C84.4375 101.394 83.7146 101.798 82.5913 102.654V102.646Z" fill="white"/>
<path id="Vector_10" d="M40.9594 93.8171C40.1121 96.9209 39.4902 99.3538 38.7284 101.74C38.6545 101.979 37.5001 102.21 37.2592 101.987C36.509 101.3 35.3002 100.241 35.444 99.601C35.9337 97.4624 36.9288 95.4455 37.7372 93.3816C37.9549 92.8283 38.1881 92.2829 38.4174 91.7374C39.2881 92.4477 40.1548 93.1618 40.9555 93.8171H40.9594Z" fill="white"/>
<path id="Vector_11" d="M63.2038 16.0332C64.0006 12.9137 64.6225 10.3984 65.326 7.89889C65.3649 7.76547 66.2005 7.63991 66.4143 7.81648C67.3122 8.56203 68.9369 9.60579 68.8047 10.2062C68.315 12.4349 67.2966 14.5617 66.3366 16.6571C66.0723 17.23 65.3066 17.5674 64.7702 18.0108C64.1638 17.2457 63.5614 16.4805 63.1999 16.0293L63.2038 16.0332Z" fill="white"/>
<path id="Vector_12" d="M80.2864 89.183C81.7634 88.9672 82.3542 88.7357 82.875 88.8495C83.2598 88.9319 83.563 89.4459 83.8701 89.799C85.2655 91.3961 86.7269 92.946 87.9901 94.6451C88.4138 95.2141 88.3166 96.1793 88.4565 96.9641C87.7802 96.7719 86.8824 96.7954 86.4704 96.352C84.5464 94.2802 82.7546 92.0828 80.2825 89.183H80.2864Z" fill="white"/>
<path id="Vector_13" d="M22.7302 20.7457C22.5514 20.8792 22.0034 21.4952 21.8207 21.401C21.1366 21.044 20.472 20.5339 19.9822 19.9335C18.5441 18.1638 17.1332 16.3627 15.8661 14.4714C15.6057 14.0868 16.0138 13.2432 16.1148 12.6115C16.7134 12.8861 17.483 13.0078 17.8795 13.459C19.5042 15.3111 21.0317 17.2535 22.5475 19.1958C22.7302 19.4312 22.6408 19.8864 22.7302 20.7457Z" fill="white"/>
<path id="Vector_14" d="M35.2264 90.4936C34.1614 92.6831 33.0575 94.9983 31.8681 97.2663C31.7943 97.4036 30.6826 97.2428 30.6593 97.1172C30.4844 96.1009 30.1191 94.9276 30.4572 94.0605C31.0791 92.4752 32.0936 91.0351 33.0614 89.6146C33.3451 89.1948 34.0137 89.0457 34.5073 88.771C34.6977 89.234 34.8921 89.6931 35.2225 90.4936H35.2264Z" fill="white"/>
<path id="Vector_15" d="M74.1919 14.3459C72.9209 16.9278 71.7859 19.239 70.6393 21.5423C70.6043 21.6169 70.3633 21.6797 70.3167 21.6404C69.9008 21.2598 69.0885 20.7065 69.1701 20.475C70.0641 17.8381 71.0902 15.2484 72.1124 12.6586C72.1357 12.5997 72.5983 12.5958 72.7149 12.7135C73.2046 13.1922 73.6438 13.7298 74.1919 14.3459Z" fill="white"/>
<path id="Vector_16" d="M93.0974 91.3216C91.1113 91.3216 90.4855 91.5099 90.1007 91.2823C89.3933 90.8625 88.7947 90.2307 88.2078 89.6304C87.1 88.4846 85.9806 87.3388 84.9739 86.1028C84.5697 85.6083 84.4453 84.8863 84.1927 84.2664C84.6319 84.5018 85.1216 84.6744 85.5025 84.9884C87.6636 86.758 89.7936 88.5631 93.0935 91.3255L93.0974 91.3216Z" fill="white"/>
<path id="Vector_17" d="M12.158 18.5523C12.5623 18.4699 12.9937 18.2384 13.2852 18.3561C13.8915 18.6033 14.494 18.9564 14.976 19.3999C16.5424 20.8478 18.0971 22.3075 19.5391 23.877C19.8384 24.2027 19.6246 25.0071 19.6479 25.5918C19.1349 25.3328 18.5557 25.1562 18.1165 24.8031C16.1964 23.2414 14.3074 21.6443 12.4418 20.0198C12.2552 19.859 12.3096 19.4116 12.158 18.5562V18.5523Z" fill="white"/>
<path id="Vector_18" d="M30.4961 85.8594C29.1202 87.7154 27.6704 89.6695 26.2167 91.6236C25.727 91.0429 24.7164 90.1914 24.8485 89.9285C25.2683 89.0887 26.1584 88.5041 26.7881 87.7546C27.7054 86.6598 28.5527 85.4984 29.4428 84.3761C29.5438 84.2505 29.7226 84.1917 29.8664 84.1014C30.0336 84.5684 30.1968 85.0314 30.4961 85.8594Z" fill="white"/>
<path id="Vector_19" d="M73.5505 24.3166C74.9537 22.2644 76.3374 20.1886 77.8066 18.1796C77.896 18.054 78.6501 18.4229 79.0932 18.5602C78.8949 19.1606 78.825 19.8473 78.4752 20.3417C77.3052 22.0015 76.042 23.5985 74.7904 25.1995C74.6233 25.4114 74.3279 25.5173 74.0908 25.6704C73.9276 25.2584 73.7604 24.8463 73.5505 24.3127V24.3166Z" fill="white"/>
<path id="Vector_20" d="M83.8623 24.0027C83.7846 24.5559 83.7885 25.1367 83.6058 25.6546C83.4775 26.0274 83.1471 26.3649 82.8323 26.6238C81.3631 27.8403 79.8705 29.0253 78.3858 30.2221C78.0826 29.8297 77.7794 29.4373 77.4724 29.0449C77.795 28.8134 78.1681 28.6329 78.4285 28.3425C79.8977 26.7219 81.3359 25.0739 82.7857 23.4376C83.1432 23.626 83.5008 23.8143 83.8623 24.0027Z" fill="white"/>
<path id="Vector_21" d="M18.2098 29.861C17.7278 30.0533 17.3353 30.3711 17.0904 30.2809C16.4841 30.0533 15.8971 29.6962 15.3841 29.292C13.4756 27.7931 11.5905 26.2589 9.72096 24.7128C9.58492 24.599 9.6199 24.2773 9.57715 24.0497C10.0319 24.085 10.5216 24.0301 10.9298 24.187C11.3806 24.3597 11.7577 24.7324 12.1658 25.015C13.9887 26.2667 15.8194 27.5027 17.6268 28.778C17.8328 28.9232 17.9027 29.2724 18.2137 29.8649L18.2098 29.861Z" fill="white"/>
<path id="Vector_22" d="M94.4695 85.5023C93.5327 85.2826 92.6038 85.3179 92.0285 84.8823C90.0307 83.3638 88.1573 81.6804 86.2566 80.0324C86.2177 79.9971 86.5287 79.432 86.5637 79.4438C87.1506 79.6557 87.7686 79.8362 88.2777 80.1815C90.2911 81.5431 92.2695 82.9557 94.244 84.3762C94.3568 84.4586 94.3257 84.7411 94.4695 85.5062V85.5023Z" fill="white"/>
<path id="Vector_23" d="M26.687 80.6092C24.8796 82.3005 23.0411 84.027 21.2026 85.7496C20.95 85.212 20.3825 84.5646 20.5186 84.1643C20.6974 83.6424 21.4397 83.3246 21.9295 82.9087C23.1111 81.9081 24.2849 80.8957 25.4704 79.8951C25.6997 79.7028 25.9524 79.5419 26.1933 79.3654C26.3177 79.6753 26.4382 79.9893 26.687 80.6092Z" fill="white"/>
<path id="Vector_24" d="M16.8533 79.6204C16.4102 79.1966 16.2159 79.0122 16.0215 78.8277C16.935 78.0351 17.8056 77.1836 18.7773 76.4695C19.6713 75.8102 20.6547 75.253 21.6497 74.7586C21.8557 74.6566 22.2988 75.0294 22.6292 75.1863C22.3182 75.4022 21.9995 75.6023 21.7002 75.8338C20.1066 77.0698 18.5208 78.3137 16.8494 79.6243L16.8533 79.6204Z" fill="white"/>
<path id="Vector_25" d="M84.0722 33.4318C84.1266 33.1101 84.08 32.6 84.2588 32.5019C85.3277 31.9211 86.4471 31.4385 87.5509 30.9205C87.617 31.2619 87.7997 31.878 87.7297 31.9094C86.5248 32.4509 85.2849 32.9217 84.0528 33.4122L84.0722 33.4318Z" fill="white"/>
<path id="Vector_26" d="M13.4484 33.2749C12.399 33.0355 11.3496 32.7922 10.2962 32.5529L10.2768 32.5646C11.3262 32.804 12.3757 33.0433 13.429 33.2827L13.4446 33.2749H13.4484Z" fill="white"/>
<path id="Vector_27" d="M84.0528 33.4122C83.3026 34.0479 82.5525 34.6914 81.7829 35.3036C81.7712 35.3153 81.503 34.9936 81.3514 34.8288C82.2571 34.3618 83.1627 33.8988 84.0722 33.4318L84.0528 33.4122Z" fill="white"/>
<path id="Vector_28" d="M94.3063 78.0351H92.6893C92.8642 77.5917 93.0391 77.1523 93.2141 76.7089C93.5133 77.0738 93.8126 77.4387 94.3024 78.0351H94.3063Z" fill="white"/>
<path id="Vector_29" d="M17.3819 69.5359C17.8094 69.7478 18.1981 69.94 18.5829 70.1323C18.1593 70.2775 17.7395 70.5365 17.3158 70.5365C16.9155 70.5365 16.5112 70.2657 16.1109 70.1166C16.5074 69.9361 16.8999 69.7556 17.3819 69.5398V69.5359Z" fill="white"/>
<path id="Vector_30" d="M89.8519 75.3198L91.4999 75.9947C91.0918 76.1242 90.6604 76.391 90.2873 76.3282C90.0968 76.2968 90.0035 75.669 89.8675 75.308L89.8558 75.3198H89.8519Z" fill="white"/>
<path id="Vector_31" d="M95.0992 79.4908C94.8232 79.1612 94.6366 78.9415 94.4501 78.7217C94.6872 78.5452 94.9554 78.192 95.1536 78.2273C95.5462 78.2979 95.896 78.5883 96.2652 78.7845C95.931 78.9886 95.5928 79.1926 95.1031 79.4869L95.0992 79.4908Z" fill="white"/>
<path id="Vector_32" d="M10.3001 32.5529C9.70929 32.3214 9.11849 32.086 8.5238 31.8544C8.95136 31.772 9.40611 31.5719 9.7948 31.6622C10.0163 31.7132 10.1252 32.2468 10.2845 32.5647L10.3001 32.5529Z" fill="white"/>
<path id="Vector_33" d="M13.4329 33.2866C13.9732 33.5535 14.5135 33.8203 15.0537 34.0871C14.6145 34.1734 14.1598 34.3579 13.7478 34.2912C13.5962 34.2676 13.5456 33.6398 13.4485 33.2827L13.4329 33.2906V33.2866Z" fill="white"/>
<path id="Vector_34" d="M91.7332 70.7287C91.3484 70.4776 91.0646 70.2932 90.7809 70.1088C91.0996 69.9832 91.4183 69.7595 91.737 69.7595C92.0091 69.7595 92.2812 70.0067 92.5533 70.1441C92.3045 70.3246 92.0558 70.5011 91.7332 70.7327V70.7287Z" fill="white"/>
<path id="Vector_35" d="M89.8636 75.3079C89.2223 75.2138 88.5848 75.1235 87.9435 75.0293C88.0134 74.8645 88.0795 74.6997 88.1495 74.5349C88.7131 74.7978 89.2728 75.0607 89.8441 75.3197C89.8519 75.3197 89.8636 75.304 89.8636 75.304V75.3079Z" fill="white"/>
<path id="Vector_36" d="M14.2258 71.647C13.9421 71.4469 13.7089 71.2821 13.4756 71.1172C13.705 71.0035 13.9421 70.7916 14.1675 70.7994C14.4279 70.8073 14.6806 71.0113 14.9371 71.129C14.7272 71.2821 14.5173 71.4312 14.2258 71.647Z" fill="white"/>
<path id="Vector_37" d="M88.7286 39.2864C88.441 39.047 88.235 38.8744 88.029 38.7017C88.2544 38.5879 88.4799 38.3721 88.6975 38.3839C88.9968 38.3996 89.2883 38.584 89.5837 38.6978C89.3311 38.8705 89.0784 39.047 88.7286 39.2864Z" fill="white"/>
<path id="Vector_38" d="M10.1913 39.1805C9.95807 39.0196 9.74818 38.8783 9.54218 38.7331C9.76372 38.6154 9.98916 38.3957 10.2029 38.4074C10.4595 38.4231 10.7082 38.635 10.9609 38.7606C10.7277 38.8862 10.4944 39.0156 10.1913 39.1805Z" fill="white"/>
</g>
<defs>
<clipPath id="clip0_34_25">
<rect width="104" height="111" fill="white"/>
</clipPath>
</defs>
</svg>
