<svg width="180" height="180" viewBox="0 0 180 180" fill="none" xmlns="http://www.w3.org/2000/svg">
<g clip-path="url(#clip0_75_132)">
<path d="M109.085 100.96C109.635 102.559 110.489 104.137 110.611 105.769C110.671 106.57 109.375 107.474 108.69 108.332C108.271 107.692 107.852 107.051 107.427 106.414C107.333 106.27 107.241 106.08 107.103 106.025C106.981 105.981 106.671 106.09 106.667 106.148C106.64 106.567 106.688 106.99 106.678 107.412C106.664 107.92 106.637 108.871 106.58 108.871C105.229 108.936 103.872 108.908 102.515 108.871C102.312 108.864 102.015 108.626 101.924 108.701C98.187 111.703 95.8406 110.735 95.0169 105.838C94.9865 105.667 94.8582 105.51 94.7772 105.347C94.659 105.507 94.4734 105.65 94.4396 105.827C94.3552 106.243 94.3586 106.673 94.3012 107.095C94.1729 108.05 94.0277 109 93.8893 109.951C92.647 108.854 91.3641 107.797 90.1859 106.632C89.8651 106.315 89.8618 105.674 89.7098 105.183C89.5816 105.633 89.5275 106.127 89.3047 106.523C89.0583 106.962 88.5451 107.699 88.3392 107.641C87.2994 107.334 85.4628 106.819 85.4595 106.363C85.4426 103.83 85.8713 101.294 86.1515 98.7588C87.7248 99.0587 89.2912 99.5222 90.8779 99.6211C93.8758 99.8085 96.8906 99.8392 99.8952 99.829C101.35 99.8256 102.802 99.5325 104.26 99.4609C105.594 99.3961 106.934 99.4507 108.271 99.4541L108.244 99.4234C108.534 99.9414 108.821 100.463 109.112 100.981L109.088 100.96H109.085Z" fill="white"/>
<path d="M69.6092 19.0033C70.2135 17.7115 70.8144 16.4164 71.4187 15.1247C71.9015 15.6462 72.3876 16.1608 72.8603 16.6891C73.0358 16.8833 73.1844 17.1015 73.3464 17.3094C73.4511 17.0844 73.5253 16.8322 73.6671 16.6345C74.3119 15.7552 74.9736 14.8895 75.632 14.0204C76.3679 14.7259 77.1039 15.4314 77.8365 16.1369C77.9749 16.2699 78.1133 16.4062 78.2517 16.5425C78.3766 16.3312 78.4509 16.0415 78.6332 15.9188C79.6865 15.2201 80.8107 13.9693 81.8235 14.0443C83.0085 14.1329 84.1428 15.3497 85.2164 16.1813C85.5101 16.4096 85.5169 17.0129 85.6519 17.4457C85.7869 17.0026 85.9186 16.5562 86.0536 16.1131C86.2663 15.4076 86.479 14.7055 86.6917 14C87.8666 14.8043 89.0853 15.5541 90.196 16.4403C90.5741 16.7436 90.6889 17.3844 90.9252 17.8717C91.1581 17.3503 91.3675 16.8186 91.6342 16.3142C91.83 15.9427 92.0933 15.6087 92.3262 15.2542C93.2445 16.0074 94.9123 16.7266 94.9426 17.5173C95.0405 19.8996 94.5004 22.3058 94.21 24.7052C92.8664 24.378 91.5363 23.9895 90.1791 23.7407C89.3959 23.5975 88.5688 23.7032 87.7653 23.6452C86.0503 23.5225 84.3083 23.1033 82.627 23.284C80.0511 23.5566 77.5293 24.4087 74.9534 24.6404C74.0621 24.7188 73.0628 23.7032 72.1344 23.1476C71.8103 22.9534 71.5538 22.6466 71.2668 22.3944L71.2871 22.4217C70.7165 21.2765 70.1426 20.1314 69.5721 18.9862L69.6024 19.0067L69.6092 19.0033Z" fill="white"/>
<path d="M120.374 63.5861C115.759 63.5861 111.144 63.6747 106.532 63.5622C101.965 63.4498 97.3902 62.867 92.8461 63.0817C91.6105 63.1396 89.6254 65.2118 89.4533 66.5546C88.9975 70.0992 89.2642 73.7494 89.406 77.3519C89.4769 79.1105 89.9495 80.8487 90.1285 82.6073C90.1588 82.9106 89.6254 83.2685 89.352 83.6025C89.0718 83.2719 88.5586 82.9481 88.5485 82.6107C88.4675 79.574 88.5688 76.5305 88.427 73.4972C88.3189 71.1762 88.4472 68.62 87.5087 66.633C86.7491 65.0244 84.5817 63.0987 82.9882 63.051C71.0946 62.7 59.1909 62.8022 47.2905 62.6897C46.5343 62.6829 45.7814 62.0456 45.0252 61.7048C45.7004 61.5821 46.3756 61.3503 47.0508 61.3503C54.7312 61.3299 62.4149 61.2583 70.0919 61.3844C74.5111 61.456 78.9539 62.2603 83.3225 61.9058C84.872 61.7797 87.1508 59.3872 87.4749 57.7103C88.1231 54.3771 87.7214 50.8155 87.5965 47.3562C87.5357 45.6794 87.1171 44.0162 86.901 42.3393C86.874 42.1246 87.1036 41.8758 87.215 41.644C87.3399 41.8622 87.556 42.0769 87.5728 42.3052C87.9104 47.7345 88.0117 53.1979 88.7004 58.5794C88.8692 59.8916 90.9319 61.9536 92.1541 61.974C106.161 62.216 120.175 62.124 134.185 62.1512C134.577 62.1512 134.965 62.5091 135.357 62.7034C134.918 63.0715 134.486 63.7565 134.043 63.7633C129.486 63.8417 124.928 63.811 120.371 63.811C120.371 63.7395 120.371 63.6679 120.371 63.5963L120.374 63.5861Z" fill="white"/>
<path d="M85.2637 99.3484C84.9531 101.618 84.7033 103.602 84.3657 105.568C84.3353 105.735 83.5386 106.005 83.3765 105.872C82.5528 105.217 81.1686 104.433 81.1787 103.718C81.2226 101.301 81.7695 98.8917 82.1443 96.4821C82.1645 96.3491 82.465 96.1276 82.492 96.1481C83.4271 96.8161 84.4028 97.4466 85.2266 98.2339C85.4662 98.4622 85.2637 99.1575 85.2637 99.345V99.3484Z" fill="white"/>
<path d="M108.268 99.4575C108.919 98.36 109.574 97.2592 110.226 96.1617C110.898 97.1501 111.596 98.1181 112.231 99.1303C112.785 100.013 113.308 100.923 113.764 101.86C114.139 102.631 114.787 103.581 114.591 104.236C114.378 104.955 113.342 105.425 112.663 106.005C112.248 105.323 111.87 104.614 111.404 103.97C110.661 102.944 109.858 101.959 109.078 100.96L109.102 100.981C108.811 100.463 108.524 99.9414 108.234 99.4234L108.261 99.4541L108.268 99.4575Z" fill="white"/>
<path d="M71.2769 22.391C71.5403 23.0794 71.942 23.7542 72.0332 24.4666C72.1142 25.1107 71.8542 25.7992 71.7428 26.4672C70.7469 26.0923 69.3796 26.0037 68.8293 25.2811C67.6174 23.6895 66.8105 21.7809 65.8551 19.995C65.7234 19.7496 65.5648 19.2452 65.6154 19.2179C66.375 18.7919 67.1549 18.3829 67.9685 18.0728C68.1643 17.9978 68.5086 18.2636 68.7618 18.4102C69.0589 18.5874 69.3324 18.8055 69.6126 19.0066L69.5822 18.9862L71.2972 22.4216L71.2769 22.3944V22.391Z" fill="white"/>
<path d="M94.6287 25.3527C95.5773 22.4557 96.293 20.2677 97.0087 18.083C97.981 18.6658 99.8412 19.3679 99.7838 19.811C99.453 22.3501 98.663 24.8244 98.0283 27.3227C96.9311 26.6853 95.8339 26.048 94.632 25.3527H94.6287Z" fill="white"/>
<path d="M67.4249 30.4241C65.9395 28.6007 64.8592 27.3669 63.8903 26.048C63.2049 25.1175 62.6681 24.078 62.0706 23.0828C61.9524 22.8885 61.76 22.5034 61.7701 22.4966C62.6648 21.9649 64.2987 20.9288 64.3764 21.0345C65.9125 23.1646 67.3641 25.3765 68.5795 27.7078C68.8158 28.1576 67.982 29.1767 67.4249 30.4241Z" fill="white"/>
<path d="M116.765 103.155C115.779 101.7 114.868 100.456 114.064 99.1472C113.372 98.0191 112.771 96.8331 112.191 95.6436C112.035 95.3198 112.099 94.8904 112.062 94.5087C112.91 94.5871 114.125 94.3383 114.544 94.8086C116.073 96.5263 117.363 98.469 118.683 100.371C118.889 100.667 118.98 101.335 118.797 101.553C118.369 102.068 117.741 102.419 116.765 103.162V103.155Z" fill="white"/>
<path d="M80.6048 95.4869C79.8688 98.1828 79.3287 100.296 78.667 102.368C78.6028 102.576 77.6002 102.777 77.3908 102.583C76.7393 101.986 75.6893 101.066 75.8143 100.511C76.2396 98.6531 77.1039 96.9013 77.8061 95.1086C77.9951 94.628 78.1977 94.1543 78.3969 93.6805C79.1531 94.2974 79.906 94.9177 80.6014 95.4869H80.6048Z" fill="white"/>
<path d="M99.9256 27.926C100.618 25.2164 101.158 23.0318 101.769 20.8608C101.803 20.7449 102.529 20.6358 102.714 20.7892C103.494 21.4367 104.905 22.3433 104.79 22.8648C104.365 24.8006 103.481 26.6479 102.647 28.4679C102.417 28.9655 101.752 29.2586 101.286 29.6437C100.759 28.9791 100.236 28.3145 99.9222 27.9226L99.9256 27.926Z" fill="white"/>
<path d="M114.763 91.4617C116.046 91.2743 116.559 91.0732 117.011 91.172C117.346 91.2436 117.609 91.6901 117.876 91.9968C119.088 93.384 120.357 94.7302 121.454 96.206C121.822 96.7002 121.738 97.5386 121.859 98.2202C121.272 98.0532 120.492 98.0737 120.134 97.6885C118.463 95.889 116.907 93.9804 114.76 91.4617H114.763Z" fill="white"/>
<path d="M64.7714 32.0192C64.6161 32.1351 64.1401 32.6702 63.9814 32.5884C63.3872 32.2782 62.8099 31.8352 62.3846 31.3137C61.1355 29.7766 59.91 28.2122 58.8094 26.5695C58.5832 26.2355 58.9377 25.5027 59.0255 24.954C59.5454 25.1926 60.2138 25.2982 60.5582 25.6902C61.9693 27.2988 63.2961 28.9859 64.6127 30.673C64.7714 30.8774 64.6938 31.2728 64.7714 32.0192Z" fill="white"/>
<path d="M75.6252 92.6001C74.7002 94.5019 73.7414 96.5127 72.7084 98.4827C72.6442 98.6019 71.6787 98.4622 71.6584 98.3531C71.5065 97.4704 71.1892 96.4514 71.4829 95.6982C72.023 94.3212 72.9042 93.0704 73.7448 91.8366C73.9912 91.472 74.5719 91.3425 75.0007 91.1039C75.1661 91.5061 75.3349 91.9048 75.6219 92.6001H75.6252Z" fill="white"/>
<path d="M109.47 26.4604C108.366 28.703 107.38 30.7104 106.384 32.711C106.353 32.7758 106.144 32.8303 106.104 32.7962C105.742 32.4656 105.037 31.9851 105.108 31.784C105.884 29.4937 106.775 27.2443 107.663 24.9948C107.684 24.9437 108.085 24.9403 108.187 25.0426C108.612 25.4584 108.994 25.9253 109.47 26.4604Z" fill="white"/>
<path d="M125.89 93.3192C124.165 93.3192 123.622 93.4828 123.287 93.2852C122.673 92.9205 122.153 92.3718 121.643 91.8503C120.681 90.8551 119.709 89.8599 118.835 88.7863C118.483 88.3569 118.375 87.7298 118.156 87.1913C118.537 87.3958 118.963 87.5457 119.294 87.8184C121.171 89.3555 123.021 90.9233 125.887 93.3227L125.89 93.3192Z" fill="white"/>
<path d="M55.5887 30.114C55.9398 30.0424 56.3146 29.8413 56.5678 29.9436C57.0944 30.1583 57.6177 30.465 58.0363 30.8502C59.3968 32.1078 60.7472 33.3756 61.9997 34.7389C62.2597 35.0218 62.074 35.7205 62.0943 36.2283C61.6486 36.0034 61.1456 35.85 60.7641 35.5433C59.0964 34.1868 57.4556 32.7997 55.8352 31.3887C55.6731 31.2489 55.7204 30.8604 55.5887 30.1174V30.114Z" fill="white"/>
<path d="M71.5166 88.575C70.3215 90.1871 69.0623 91.8843 67.7997 93.5816C67.3743 93.0772 66.4965 92.3376 66.6113 92.1093C66.9759 91.3799 67.749 90.8721 68.2959 90.2211C69.0927 89.2702 69.8286 88.2614 70.6018 87.2867C70.6895 87.1776 70.8448 87.1265 70.9697 87.0481C71.1149 87.4537 71.2567 87.8558 71.5166 88.575Z" fill="white"/>
<path d="M108.912 35.1207C110.131 33.3382 111.333 31.5352 112.609 29.7902C112.687 29.6812 113.342 30.0015 113.727 30.1208C113.554 30.6423 113.494 31.2387 113.19 31.6682C112.174 33.1098 111.076 34.497 109.989 35.8875C109.844 36.0716 109.588 36.1636 109.382 36.2965C109.24 35.9386 109.095 35.5808 108.912 35.1173V35.1207Z" fill="white"/>
<path d="M117.869 34.848C117.801 35.3285 117.805 35.8329 117.646 36.2828C117.535 36.6066 117.248 36.8997 116.974 37.1246C115.698 38.1812 114.402 39.2105 113.112 40.25C112.849 39.9091 112.586 39.5683 112.319 39.2275C112.599 39.0264 112.923 38.8696 113.149 38.6174C114.425 37.2099 115.675 35.7784 116.934 34.3572C117.244 34.5208 117.555 34.6844 117.869 34.848Z" fill="white"/>
<path d="M60.8451 39.9365C60.4265 40.1035 60.0855 40.3795 59.8728 40.3012C59.3462 40.1035 58.8364 39.7933 58.3908 39.4423C56.7332 38.1403 55.0958 36.8077 53.472 35.4649C53.3538 35.3661 53.3842 35.0866 53.347 34.8889C53.742 34.9196 54.1674 34.8719 54.5219 35.0082C54.9135 35.1582 55.241 35.4819 55.5955 35.7273C57.1788 36.8146 58.7689 37.8881 60.3387 38.9958C60.5177 39.1219 60.5784 39.4252 60.8485 39.9399L60.8451 39.9365Z" fill="white"/>
<path d="M127.082 88.2649C126.268 88.074 125.462 88.1047 124.962 87.7264C123.227 86.4074 121.599 84.9453 119.949 83.5138C119.915 83.4832 120.185 82.9924 120.215 83.0026C120.725 83.1866 121.262 83.3434 121.704 83.6433C123.453 84.826 125.171 86.0529 126.886 87.2867C126.984 87.3583 126.957 87.6037 127.082 88.2683V88.2649Z" fill="white"/>
<path d="M68.2082 84.0149C66.6383 85.4838 65.0415 86.9834 63.4446 88.4796C63.2252 88.0127 62.7323 87.4503 62.8505 87.1027C63.0058 86.6494 63.6506 86.3733 64.0759 86.0121C65.1022 85.143 66.1218 84.2637 67.1515 83.3946C67.3507 83.2276 67.5701 83.0878 67.7794 82.9344C67.8874 83.2037 67.9921 83.4764 68.2082 84.0149Z" fill="white"/>
<path d="M59.6669 83.156C59.282 82.7879 59.1132 82.6277 58.9444 82.4675C59.7378 81.7791 60.494 81.0395 61.338 80.4192C62.1145 79.8466 62.9686 79.3627 63.8329 78.9332C64.0118 78.8446 64.3967 79.1684 64.6836 79.3047C64.4135 79.4922 64.1367 79.666 63.8768 79.8671C62.4926 80.9407 61.1152 82.0211 59.6635 83.1594L59.6669 83.156Z" fill="white"/>
<path d="M118.051 43.0379C118.099 42.7585 118.058 42.3154 118.213 42.2302C119.142 41.7258 120.114 41.3066 121.073 40.8567C121.13 41.1532 121.289 41.6883 121.228 41.7156C120.182 42.1859 119.105 42.5949 118.034 43.0209L118.051 43.0379Z" fill="white"/>
<path d="M56.7095 42.9016C55.798 42.6937 54.8865 42.4824 53.9716 42.2745L53.9547 42.2848C54.8662 42.4927 55.7777 42.7006 56.6926 42.9085L56.7061 42.9016H56.7095Z" fill="white"/>
<path d="M118.034 43.0209C117.383 43.573 116.731 44.132 116.063 44.6636C116.053 44.6739 115.82 44.3944 115.688 44.2512C116.475 43.8457 117.261 43.4435 118.051 43.0379L118.034 43.0209Z" fill="white"/>
<path d="M126.94 81.779H125.536C125.688 81.3939 125.84 81.0122 125.992 80.6271C126.252 80.944 126.512 81.261 126.937 81.779H126.94Z" fill="white"/>
<path d="M60.126 74.3969C60.4974 74.5809 60.835 74.7479 61.1692 74.9149C60.8012 75.041 60.4366 75.2659 60.0687 75.2659C59.7209 75.2659 59.3698 75.0308 59.0221 74.9013C59.3664 74.7445 59.7074 74.5877 60.126 74.4003V74.3969Z" fill="white"/>
<path d="M123.071 79.4206L124.503 80.0068C124.148 80.1193 123.774 80.3511 123.45 80.2965C123.284 80.2693 123.203 79.724 123.085 79.4104L123.075 79.4206H123.071Z" fill="white"/>
<path d="M127.629 83.0436C127.389 82.7573 127.227 82.5664 127.065 82.3755C127.271 82.2222 127.504 81.9154 127.676 81.9461C128.017 82.0075 128.321 82.2597 128.642 82.4301C128.351 82.6073 128.058 82.7845 127.632 83.0401L127.629 83.0436Z" fill="white"/>
<path d="M53.975 42.2745C53.4618 42.0734 52.9487 41.8689 52.4322 41.6678C52.8035 41.5963 53.1985 41.4225 53.5361 41.5008C53.7285 41.5451 53.8231 42.0087 53.9615 42.2847L53.975 42.2745Z" fill="white"/>
<path d="M56.696 42.9119C57.1653 43.1436 57.6345 43.3754 58.1038 43.6071C57.7223 43.6821 57.3273 43.8423 56.9695 43.7844C56.8378 43.7639 56.7939 43.2186 56.7095 42.9084L56.696 42.9153V42.9119Z" fill="white"/>
<path d="M124.705 75.433C124.371 75.2149 124.125 75.0547 123.878 74.8945C124.155 74.7855 124.432 74.5912 124.709 74.5912C124.945 74.5912 125.181 74.8059 125.418 74.9252C125.202 75.082 124.986 75.2353 124.705 75.4364V75.433Z" fill="white"/>
<path d="M123.082 79.4103C122.525 79.3285 121.971 79.2501 121.414 79.1683C121.475 79.0252 121.532 78.882 121.593 78.7389C122.082 78.9672 122.568 79.1956 123.065 79.4205C123.071 79.4205 123.082 79.4069 123.082 79.4069V79.4103Z" fill="white"/>
<path d="M57.3847 76.2305C57.1383 76.0567 56.9357 75.9135 56.7332 75.7704C56.9323 75.6716 57.1383 75.4875 57.3341 75.4943C57.5603 75.5011 57.7797 75.6784 58.0025 75.7806C57.8202 75.9135 57.6379 76.043 57.3847 76.2305Z" fill="white"/>
<path d="M122.096 48.123C121.846 47.9151 121.667 47.7652 121.488 47.6152C121.684 47.5164 121.88 47.3289 122.069 47.3391C122.329 47.3528 122.582 47.513 122.838 47.6118C122.619 47.7618 122.4 47.9151 122.096 48.123Z" fill="white"/>
<path d="M53.8804 48.0309C53.6779 47.8912 53.4956 47.7685 53.3167 47.6424C53.5091 47.5402 53.7049 47.3493 53.8906 47.3595C54.1134 47.3732 54.3294 47.5572 54.5489 47.6663C54.3463 47.7753 54.1438 47.8878 53.8804 48.0309Z" fill="white"/>
</g>
<path d="M33.4979 143.097V127.338H40.0077C41.1876 127.338 42.2059 127.551 43.0626 127.977C43.9244 128.398 44.5887 129.003 45.0555 129.793C45.5223 130.578 45.7558 131.509 45.7558 132.586C45.7558 133.679 45.5172 134.607 45.0401 135.372C44.5631 136.131 43.8859 136.71 43.0087 137.111C42.1315 137.506 41.0927 137.703 39.8923 137.703H35.7756V134.702H39.1844C39.7589 134.702 40.2386 134.628 40.6233 134.479C41.0132 134.325 41.3082 134.094 41.5082 133.786C41.7083 133.474 41.8083 133.073 41.8083 132.586C41.8083 132.099 41.7083 131.696 41.5082 131.378C41.3082 131.055 41.0132 130.814 40.6233 130.655C40.2334 130.49 39.7538 130.408 39.1844 130.408H37.3068V143.097H33.4979ZM42.37 135.895L46.2944 143.097H42.1392L38.2918 135.895H42.37ZM53.137 143.32C51.9007 143.32 50.8337 143.077 49.936 142.589C49.0434 142.097 48.356 141.397 47.8738 140.489C47.3967 139.576 47.1581 138.491 47.1581 137.234C47.1581 136.013 47.3992 134.946 47.8814 134.033C48.3637 133.114 49.0434 132.401 49.9206 131.894C50.7978 131.381 51.8315 131.124 53.0216 131.124C53.8629 131.124 54.6324 131.255 55.33 131.516C56.0277 131.778 56.6305 132.165 57.1383 132.678C57.6462 133.191 58.0412 133.825 58.3233 134.579C58.6055 135.328 58.7465 136.187 58.7465 137.157V138.096H48.474V135.91H55.2454C55.2403 135.51 55.1454 135.154 54.9607 134.841C54.776 134.528 54.5221 134.284 54.1989 134.11C53.8808 133.93 53.5141 133.84 53.0985 133.84C52.6779 133.84 52.3008 133.935 51.9674 134.125C51.634 134.31 51.3698 134.564 51.1748 134.887C50.9799 135.205 50.8773 135.567 50.867 135.972V138.196C50.867 138.678 50.9619 139.101 51.1517 139.465C51.3416 139.824 51.6109 140.104 51.9597 140.304C52.3085 140.504 52.7241 140.604 53.2063 140.604C53.5397 140.604 53.8424 140.558 54.1143 140.466C54.3861 140.373 54.6195 140.237 54.8145 140.058C55.0094 139.878 55.1556 139.658 55.2531 139.396L58.7081 139.496C58.5644 140.271 58.2489 140.945 57.7616 141.52C57.2794 142.089 56.6458 142.533 55.861 142.851C55.0761 143.164 54.1681 143.32 53.137 143.32ZM64.4311 136.357V143.097H60.6683V131.278H64.2464V133.448H64.3772C64.6388 132.725 65.0851 132.158 65.7161 131.747C66.3471 131.332 67.0986 131.124 67.9707 131.124C68.8017 131.124 69.5225 131.311 70.1329 131.686C70.7485 132.055 71.2256 132.573 71.5642 133.24C71.9079 133.902 72.0772 134.676 72.072 135.564V143.097H68.3093V136.303C68.3144 135.646 68.1477 135.133 67.8091 134.764C67.4757 134.394 67.0114 134.21 66.4163 134.21C66.0213 134.21 65.6725 134.297 65.3698 134.471C65.0723 134.641 64.8415 134.884 64.6773 135.202C64.5183 135.52 64.4362 135.905 64.4311 136.357ZM78.7184 143.266C77.8464 143.266 77.0538 143.041 76.3407 142.589C75.6277 142.138 75.0583 141.461 74.6325 140.558C74.2067 139.655 73.9938 138.534 73.9938 137.195C73.9938 135.805 74.2144 134.661 74.6556 133.763C75.0967 132.866 75.6738 132.201 76.3869 131.77C77.1051 131.339 77.8771 131.124 78.703 131.124C79.3238 131.124 79.8547 131.232 80.2959 131.447C80.737 131.658 81.1013 131.929 81.3885 132.263C81.6758 132.596 81.8938 132.943 82.0426 133.302H82.1195V127.338H85.8823V143.097H82.158V141.181H82.0426C81.8836 141.545 81.6579 141.887 81.3654 142.205C81.073 142.523 80.7063 142.779 80.2651 142.974C79.8291 143.169 79.3135 143.266 78.7184 143.266ZM80.0266 140.335C80.4831 140.335 80.873 140.206 81.1962 139.95C81.5193 139.688 81.7681 139.322 81.9426 138.85C82.117 138.378 82.2042 137.824 82.2042 137.188C82.2042 136.541 82.117 135.985 81.9426 135.518C81.7733 135.051 81.5245 134.692 81.1962 134.44C80.873 134.189 80.4831 134.063 80.0266 134.063C79.5597 134.063 79.1647 134.192 78.8415 134.448C78.5184 134.705 78.2721 135.066 78.1028 135.533C77.9387 136 77.8566 136.551 77.8566 137.188C77.8566 137.824 77.9413 138.378 78.1105 138.85C78.2798 139.322 78.5235 139.688 78.8415 139.95C79.1647 140.206 79.5597 140.335 80.0266 140.335ZM93.7868 143.32C92.5505 143.32 91.4835 143.077 90.5858 142.589C89.6932 142.097 89.0058 141.397 88.5236 140.489C88.0465 139.576 87.8079 138.491 87.8079 137.234C87.8079 136.013 88.049 134.946 88.5313 134.033C89.0135 133.114 89.6932 132.401 90.5704 131.894C91.4476 131.381 92.4813 131.124 93.6714 131.124C94.5127 131.124 95.2822 131.255 95.9798 131.516C96.6775 131.778 97.2803 132.165 97.7881 132.678C98.296 133.191 98.691 133.825 98.9731 134.579C99.2553 135.328 99.3963 136.187 99.3963 137.157V138.096H89.1238V135.91H95.8952C95.8901 135.51 95.7952 135.154 95.6105 134.841C95.4258 134.528 95.1719 134.284 94.8487 134.11C94.5306 133.93 94.1639 133.84 93.7483 133.84C93.3277 133.84 92.9506 133.935 92.6172 134.125C92.2838 134.31 92.0196 134.564 91.8246 134.887C91.6297 135.205 91.5271 135.567 91.5168 135.972V138.196C91.5168 138.678 91.6117 139.101 91.8015 139.465C91.9914 139.824 92.2607 140.104 92.6095 140.304C92.9583 140.504 93.3739 140.604 93.8561 140.604C94.1895 140.604 94.4922 140.558 94.7641 140.466C95.0359 140.373 95.2693 140.237 95.4643 140.058C95.6592 139.878 95.8054 139.658 95.9029 139.396L99.3579 139.496C99.2142 140.271 98.8987 140.945 98.4114 141.52C97.9292 142.089 97.2957 142.533 96.5108 142.851C95.7259 143.164 94.8179 143.32 93.7868 143.32ZM101.318 143.097V131.278H104.973V133.432H105.096C105.312 132.653 105.663 132.073 106.15 131.693C106.638 131.309 107.205 131.116 107.851 131.116C108.025 131.116 108.205 131.129 108.39 131.155C108.574 131.175 108.746 131.209 108.905 131.255V134.525C108.726 134.464 108.49 134.415 108.197 134.379C107.91 134.343 107.654 134.325 107.428 134.325C106.982 134.325 106.579 134.425 106.22 134.625C105.866 134.82 105.586 135.095 105.381 135.449C105.181 135.797 105.081 136.208 105.081 136.68V143.097H101.318ZM110.438 143.097V131.278H114.201V143.097H110.438ZM112.324 129.901C111.795 129.901 111.341 129.726 110.962 129.377C110.582 129.023 110.392 128.598 110.392 128.1C110.392 127.607 110.582 127.187 110.962 126.838C111.341 126.484 111.795 126.307 112.324 126.307C112.857 126.307 113.311 126.484 113.686 126.838C114.065 127.187 114.255 127.607 114.255 128.1C114.255 128.598 114.065 129.023 113.686 129.377C113.311 129.726 112.857 129.901 112.324 129.901ZM120.359 136.357V143.097H116.596V131.278H120.174V133.448H120.305C120.567 132.725 121.013 132.158 121.644 131.747C122.275 131.332 123.026 131.124 123.899 131.124C124.73 131.124 125.45 131.311 126.061 131.686C126.676 132.055 127.153 132.573 127.492 133.24C127.836 133.902 128.005 134.676 128 135.564V143.097H124.237V136.303C124.242 135.646 124.076 135.133 123.737 134.764C123.404 134.394 122.939 134.21 122.344 134.21C121.949 134.21 121.6 134.297 121.298 134.471C121 134.641 120.769 134.884 120.605 135.202C120.446 135.52 120.364 135.905 120.359 136.357ZM135.839 147.776C134.716 147.776 133.754 147.619 132.953 147.306C132.153 146.993 131.525 146.565 131.068 146.021C130.612 145.477 130.337 144.862 130.245 144.174L133.808 143.974C133.874 144.215 133.997 144.426 134.177 144.605C134.362 144.785 134.6 144.923 134.893 145.021C135.19 145.118 135.539 145.167 135.939 145.167C136.57 145.167 137.091 145.013 137.501 144.705C137.917 144.403 138.124 143.872 138.124 143.113V141.035H137.994C137.845 141.399 137.619 141.725 137.316 142.012C137.014 142.299 136.637 142.525 136.185 142.689C135.739 142.853 135.226 142.936 134.646 142.936C133.784 142.936 132.994 142.736 132.276 142.335C131.563 141.93 130.991 141.304 130.56 140.458C130.135 139.606 129.922 138.511 129.922 137.172C129.922 135.792 130.142 134.656 130.583 133.763C131.025 132.866 131.602 132.201 132.315 131.77C133.033 131.339 133.805 131.124 134.631 131.124C135.252 131.124 135.783 131.232 136.224 131.447C136.67 131.658 137.037 131.929 137.324 132.263C137.611 132.596 137.829 132.943 137.978 133.302H138.086V131.278H141.833V143.143C141.833 144.144 141.582 144.988 141.079 145.675C140.576 146.362 139.874 146.883 138.971 147.237C138.068 147.596 137.024 147.776 135.839 147.776ZM135.954 140.196C136.411 140.196 136.801 140.076 137.124 139.835C137.447 139.593 137.696 139.247 137.87 138.796C138.045 138.344 138.132 137.803 138.132 137.172C138.132 136.531 138.045 135.979 137.87 135.518C137.701 135.051 137.452 134.692 137.124 134.44C136.801 134.189 136.411 134.063 135.954 134.063C135.488 134.063 135.093 134.192 134.769 134.448C134.446 134.705 134.2 135.066 134.031 135.533C133.867 135.995 133.784 136.541 133.784 137.172C133.784 137.803 133.869 138.344 134.038 138.796C134.208 139.247 134.451 139.593 134.769 139.835C135.093 140.076 135.488 140.196 135.954 140.196ZM62.1699 155.237H60.5549C60.5088 154.973 60.4239 154.738 60.3001 154.534C60.1763 154.326 60.0223 154.151 59.838 154.007C59.6538 153.863 59.4436 153.755 59.2076 153.683C58.9744 153.608 58.7225 153.571 58.4519 153.571C57.9711 153.571 57.5451 153.691 57.1737 153.933C56.8024 154.172 56.5116 154.523 56.3014 154.987C56.0913 155.448 55.9862 156.01 55.9862 156.675C55.9862 157.352 56.0913 157.922 56.3014 158.385C56.5145 158.846 56.8052 159.194 57.1737 159.43C57.5451 159.664 57.9697 159.78 58.4476 159.78C58.7124 159.78 58.96 159.746 59.1903 159.676C59.4235 159.605 59.6322 159.499 59.8164 159.361C60.0036 159.223 60.1605 159.053 60.2871 158.852C60.4167 158.65 60.5059 158.42 60.5549 158.161L62.1699 158.169C62.1094 158.59 61.9784 158.984 61.7769 159.353C61.5783 159.721 61.3177 160.046 60.9953 160.329C60.6729 160.608 60.2958 160.827 59.8639 160.985C59.4321 161.14 58.9528 161.218 58.426 161.218C57.6487 161.218 56.9549 161.038 56.3446 160.678C55.7343 160.318 55.2536 159.799 54.9024 159.119C54.5511 158.44 54.3755 157.625 54.3755 156.675C54.3755 155.722 54.5526 154.908 54.9067 154.231C55.2608 153.552 55.743 153.032 56.3533 152.672C56.9636 152.313 57.6545 152.133 58.426 152.133C58.9183 152.133 59.376 152.202 59.7992 152.34C60.2224 152.478 60.5995 152.681 60.9305 152.949C61.2616 153.214 61.5336 153.539 61.7467 153.925C61.9626 154.308 62.1036 154.745 62.1699 155.237ZM66.4611 161.227C65.8133 161.227 65.252 161.084 64.777 160.799C64.302 160.514 63.9335 160.116 63.6715 159.603C63.4124 159.091 63.2829 158.492 63.2829 157.807C63.2829 157.122 63.4124 156.521 63.6715 156.006C63.9335 155.491 64.302 155.091 64.777 154.806C65.252 154.521 65.8133 154.378 66.4611 154.378C67.1088 154.378 67.6701 154.521 68.1451 154.806C68.6201 155.091 68.9872 155.491 69.2463 156.006C69.5082 156.521 69.6392 157.122 69.6392 157.807C69.6392 158.492 69.5082 159.091 69.2463 159.603C68.9872 160.116 68.6201 160.514 68.1451 160.799C67.6701 161.084 67.1088 161.227 66.4611 161.227ZM66.4697 159.974C66.8209 159.974 67.1145 159.878 67.3506 159.685C67.5867 159.489 67.7623 159.227 67.8774 158.899C67.9954 158.571 68.0545 158.205 68.0545 157.802C68.0545 157.396 67.9954 157.029 67.8774 156.701C67.7623 156.37 67.5867 156.107 67.3506 155.911C67.1145 155.715 66.8209 155.617 66.4697 155.617C66.1098 155.617 65.8104 155.715 65.5715 155.911C65.3354 156.107 65.1584 156.37 65.0404 156.701C64.9252 157.029 64.8676 157.396 64.8676 157.802C64.8676 158.205 64.9252 158.571 65.0404 158.899C65.1584 159.227 65.3354 159.489 65.5715 159.685C65.8104 159.878 66.1098 159.974 66.4697 159.974ZM70.966 161.097V154.464H72.4601V155.591H72.5378C72.676 155.211 72.9049 154.915 73.2244 154.702C73.5439 154.486 73.9254 154.378 74.3687 154.378C74.8178 154.378 75.1964 154.487 75.5044 154.706C75.8153 154.922 76.0341 155.217 76.1608 155.591H76.2299C76.3767 155.223 76.6243 154.929 76.9726 154.711C77.3238 154.489 77.7398 154.378 78.2205 154.378C78.8308 154.378 79.3289 154.571 79.7146 154.957C80.1004 155.342 80.2933 155.905 80.2933 156.645V161.097H78.7258V156.887C78.7258 156.475 78.6164 156.174 78.3976 155.984C78.1788 155.792 77.9111 155.695 77.5944 155.695C77.2173 155.695 76.9222 155.813 76.7092 156.049C76.499 156.282 76.3939 156.586 76.3939 156.96V161.097H74.861V156.822C74.861 156.48 74.7574 156.206 74.5501 156.002C74.3457 155.797 74.078 155.695 73.7469 155.695C73.5224 155.695 73.318 155.753 73.1337 155.868C72.9495 155.98 72.8027 156.14 72.6933 156.347C72.5839 156.552 72.5292 156.791 72.5292 157.064V161.097H70.966ZM81.8791 163.584V154.464H83.4164V155.561H83.5071C83.5877 155.4 83.7014 155.229 83.8482 155.047C83.995 154.863 84.1937 154.706 84.4441 154.577C84.6946 154.444 85.0141 154.378 85.4028 154.378C85.9152 154.378 86.3772 154.509 86.7889 154.771C87.2034 155.03 87.5316 155.414 87.7734 155.924C88.0181 156.431 88.1405 157.052 88.1405 157.789C88.1405 158.518 88.021 159.137 87.7821 159.646C87.5431 160.156 87.2178 160.544 86.8062 160.812C86.3945 161.08 85.9281 161.214 85.4071 161.214C85.0271 161.214 84.7118 161.15 84.4614 161.024C84.2109 160.897 84.0094 160.745 83.8568 160.566C83.7071 160.385 83.5906 160.213 83.5071 160.052H83.4423V163.584H81.8791ZM83.4121 157.781C83.4121 158.21 83.4725 158.585 83.5934 158.908C83.7172 159.23 83.8943 159.482 84.1246 159.664C84.3578 159.842 84.6399 159.931 84.9709 159.931C85.3164 159.931 85.6057 159.839 85.8389 159.655C86.0721 159.468 86.2477 159.213 86.3657 158.891C86.4866 158.565 86.5471 158.195 86.5471 157.781C86.5471 157.369 86.4881 157.004 86.37 156.684C86.252 156.364 86.0764 156.114 85.8432 155.933C85.61 155.751 85.3193 155.661 84.9709 155.661C84.637 155.661 84.3534 155.748 84.1203 155.924C83.8871 156.1 83.71 156.346 83.5891 156.662C83.4711 156.979 83.4121 157.352 83.4121 157.781ZM92.4155 161.227C91.7505 161.227 91.1762 161.089 90.6925 160.812C90.2118 160.533 89.8418 160.139 89.5828 159.629C89.3237 159.117 89.1941 158.513 89.1941 157.82C89.1941 157.137 89.3237 156.539 89.5828 156.023C89.8447 155.505 90.2103 155.102 90.6796 154.814C91.1488 154.523 91.7001 154.378 92.3334 154.378C92.7422 154.378 93.128 154.444 93.4907 154.577C93.8563 154.706 94.1787 154.908 94.458 155.181C94.7401 155.455 94.9618 155.803 95.123 156.226C95.2842 156.647 95.3648 157.147 95.3648 157.729V158.208H89.9282V157.155H93.8664C93.8635 156.855 93.7987 156.589 93.6721 156.356C93.5454 156.12 93.3684 155.934 93.1409 155.799C92.9164 155.663 92.6544 155.596 92.355 155.596C92.0355 155.596 91.7548 155.674 91.513 155.829C91.2712 155.982 91.0826 156.183 90.9473 156.434C90.8149 156.681 90.7472 156.953 90.7443 157.25V158.169C90.7443 158.555 90.8149 158.886 90.9559 159.163C91.097 159.436 91.2942 159.646 91.5475 159.793C91.8009 159.937 92.0974 160.009 92.4371 160.009C92.6645 160.009 92.8703 159.977 93.0546 159.914C93.2388 159.848 93.3986 159.751 93.5339 159.625C93.6692 159.498 93.7714 159.341 93.8405 159.154L95.3 159.318C95.2079 159.704 95.0323 160.041 94.7732 160.329C94.517 160.614 94.1888 160.835 93.7887 160.994C93.3885 161.149 92.9308 161.227 92.4155 161.227ZM99.9993 154.464V155.674H96.1863V154.464H99.9993ZM97.1277 152.875H98.6909V159.102C98.6909 159.312 98.7225 159.474 98.7859 159.586C98.8521 159.695 98.9385 159.77 99.045 159.81C99.1515 159.851 99.2695 159.871 99.3991 159.871C99.4969 159.871 99.5862 159.864 99.6668 159.849C99.7503 159.835 99.8136 159.822 99.8568 159.81L100.12 161.032C100.037 161.061 99.9172 161.093 99.7618 161.127C99.6092 161.162 99.4221 161.182 99.2004 161.188C98.8089 161.199 98.4563 161.14 98.1425 161.011C97.8287 160.878 97.5797 160.674 97.3954 160.398C97.2141 160.121 97.1248 159.776 97.1277 159.361V152.875ZM101.307 161.097V154.464H102.87V161.097H101.307ZM102.093 153.523C101.845 153.523 101.632 153.441 101.453 153.277C101.275 153.11 101.186 152.91 101.186 152.677C101.186 152.441 101.275 152.241 101.453 152.076C101.632 151.91 101.845 151.826 102.093 151.826C102.343 151.826 102.556 151.91 102.732 152.076C102.91 152.241 102.999 152.441 102.999 152.677C102.999 152.91 102.91 153.11 102.732 153.277C102.556 153.441 102.343 153.523 102.093 153.523ZM107.789 154.464V155.674H103.976V154.464H107.789ZM104.918 152.875H106.481V159.102C106.481 159.312 106.513 159.474 106.576 159.586C106.642 159.695 106.728 159.77 106.835 159.81C106.941 159.851 107.06 159.871 107.189 159.871C107.287 159.871 107.376 159.864 107.457 159.849C107.54 159.835 107.604 159.822 107.647 159.81L107.91 161.032C107.827 161.061 107.707 161.093 107.552 161.127C107.399 161.162 107.212 161.182 106.99 161.188C106.599 161.199 106.246 161.14 105.932 161.011C105.619 160.878 105.37 160.674 105.185 160.398C105.004 160.121 104.915 159.776 104.918 159.361V152.875ZM109.097 161.097V154.464H110.66V161.097H109.097ZM109.883 153.523C109.635 153.523 109.422 153.441 109.243 153.277C109.065 153.11 108.976 152.91 108.976 152.677C108.976 152.441 109.065 152.241 109.243 152.076C109.422 151.91 109.635 151.826 109.883 151.826C110.133 151.826 110.346 151.91 110.522 152.076C110.7 152.241 110.789 152.441 110.789 152.677C110.789 152.91 110.7 153.11 110.522 153.277C110.346 153.441 110.133 153.523 109.883 153.523ZM115.16 161.227C114.513 161.227 113.951 161.084 113.476 160.799C113.001 160.514 112.633 160.116 112.371 159.603C112.112 159.091 111.982 158.492 111.982 157.807C111.982 157.122 112.112 156.521 112.371 156.006C112.633 155.491 113.001 155.091 113.476 154.806C113.951 154.521 114.513 154.378 115.16 154.378C115.808 154.378 116.37 154.521 116.845 154.806C117.32 155.091 117.687 155.491 117.946 156.006C118.208 156.521 118.339 157.122 118.339 157.807C118.339 158.492 118.208 159.091 117.946 159.603C117.687 160.116 117.32 160.514 116.845 160.799C116.37 161.084 115.808 161.227 115.16 161.227ZM115.169 159.974C115.52 159.974 115.814 159.878 116.05 159.685C116.286 159.489 116.462 159.227 116.577 158.899C116.695 158.571 116.754 158.205 116.754 157.802C116.754 157.396 116.695 157.029 116.577 156.701C116.462 156.37 116.286 156.107 116.05 155.911C115.814 155.715 115.52 155.617 115.169 155.617C114.809 155.617 114.51 155.715 114.271 155.911C114.035 156.107 113.858 156.37 113.74 156.701C113.625 157.029 113.567 157.396 113.567 157.802C113.567 158.205 113.625 158.571 113.74 158.899C113.858 159.227 114.035 159.489 114.271 159.685C114.51 159.878 114.809 159.974 115.169 159.974ZM121.229 157.211V161.097H119.665V154.464H121.159V155.591H121.237C121.39 155.22 121.633 154.925 121.967 154.706C122.304 154.487 122.72 154.378 123.215 154.378C123.673 154.378 124.071 154.476 124.411 154.672C124.754 154.867 125.018 155.151 125.206 155.522C125.396 155.894 125.489 156.344 125.486 156.874V161.097H123.923V157.116C123.923 156.672 123.808 156.326 123.578 156.075C123.35 155.825 123.035 155.699 122.632 155.699C122.358 155.699 122.115 155.76 121.902 155.881C121.692 155.999 121.527 156.17 121.406 156.395C121.288 156.619 121.229 156.891 121.229 157.211Z" fill="white"/>
<defs>
<clipPath id="clip0_75_132">
<rect width="90.3314" height="96.4114" fill="white" transform="translate(45.0286 14)"/>
</clipPath>
</defs>
</svg>
