<svg width="101" height="46" fill="none" xmlns="http://www.w3.org/2000/svg"><g filter="url(#prefix__filter0_d_43_8319)" fill="#fff" fill-opacity="1"><path d="M18.705 6.323V7.46h-7.504V6.323h7.504zM10.61 15.3l.144 1.04c-2 .56-4.08 1.152-5.616 1.568l-.272-1.136c.64-.16 1.424-.368 2.304-.592v-3.984H5.297v-1.12H7.17v-3.52H5.09V6.451h5.312v1.104h-2.08v3.52h1.824v1.12H8.321v3.696c.752-.192 1.52-.4 2.288-.592zm6.56 3.296h1.104c.336 0 .4-.304.448-2.176.24.224.736.416 1.056.496-.096 2.208-.4 2.8-1.392 2.8H17.01c-1.12 0-1.408-.368-1.408-1.616v-6.032h-1.808c-.192 3.952-.8 6.448-4.304 7.792-.112-.272-.432-.704-.688-.896 3.232-1.168 3.68-3.344 3.84-6.896h-2.144v-1.152h9.056v1.152H16.77v6.016c0 .448.064.512.4.512zm7.44-7.312l-.656.992c-.656-.544-1.92-1.264-2.96-1.728l.64-.864c1.008.4 2.32 1.088 2.976 1.6zm-2.08 8.32l-.992-.8c.848-1.216 2.112-3.312 3.024-5.12l.864.784a58.046 58.046 0 01-2.896 5.136zm-.672-13.36l.64-.864c1.056.432 2.368 1.152 3.04 1.664l-.688.992c-.64-.544-1.936-1.312-2.992-1.792zm13.408 13.024l-1.04.528c-.16-.448-.432-.992-.736-1.584-5.936.736-6.608.848-7.04 1.056a8.611 8.611 0 00-.4-1.184c.304-.08.624-.464 1.024-1.04.352-.48 1.408-2.176 2.208-3.968h-3.568V11.94h4.112V9.091h-3.408V7.955h3.408V5.203h1.184v2.752h3.536v1.136H31.01v2.848h4.192v1.136H30.69c-.832 1.696-1.824 3.392-2.816 4.736l5.056-.56c-.448-.72-.928-1.44-1.424-2.064l.96-.448c1.12 1.392 2.32 3.296 2.8 4.528zM13.681 29.291v8.304H12.59v-6.192l-2.76 6.192h-.768L6.29 31.391v6.204H5.197v-8.304h1.176l3.072 6.864 3.072-6.864h1.164zm7.852 4.764c0 .208-.012.428-.036.66h-5.256c.04.648.26 1.156.66 1.524.408.36.9.54 1.476.54.472 0 .864-.108 1.176-.324.32-.224.544-.52.672-.888h1.176a2.856 2.856 0 01-1.056 1.548c-.528.392-1.184.588-1.968.588-.624 0-1.184-.14-1.68-.42a2.995 2.995 0 01-1.152-1.188c-.28-.52-.42-1.12-.42-1.8 0-.68.136-1.276.408-1.788a2.836 2.836 0 011.14-1.176c.496-.28 1.064-.42 1.704-.42.624 0 1.176.136 1.656.408.48.272.848.648 1.104 1.128.264.472.396 1.008.396 1.608zm-1.128-.228c0-.416-.092-.772-.276-1.068a1.737 1.737 0 00-.756-.684c-.312-.16-.66-.24-1.044-.24-.552 0-1.024.176-1.416.528-.384.352-.604.84-.66 1.464h4.152zm2.162.468c0-.68.136-1.272.408-1.776a2.938 2.938 0 011.128-1.188c.488-.28 1.044-.42 1.668-.42.808 0 1.472.196 1.992.588.528.392.876.936 1.044 1.632H27.63a1.679 1.679 0 00-.66-.948c-.32-.232-.72-.348-1.2-.348-.624 0-1.128.216-1.512.648-.384.424-.576 1.028-.576 1.812 0 .792.192 1.404.576 1.836.384.432.888.648 1.512.648.48 0 .88-.112 1.2-.336.32-.224.54-.544.66-.96h1.176a2.921 2.921 0 01-1.056 1.62c-.528.4-1.188.6-1.98.6-.624 0-1.18-.14-1.668-.42a2.938 2.938 0 01-1.128-1.188c-.272-.512-.408-1.112-.408-1.8zm10.96-3.396c.497 0 .945.108 1.345.324.4.208.712.524.936.948.232.424.348.94.348 1.548v3.876h-1.08v-3.72c0-.656-.164-1.156-.492-1.5-.328-.352-.776-.528-1.344-.528-.576 0-1.036.18-1.38.54-.336.36-.504.884-.504 1.572v3.636h-1.092v-8.88h1.092v3.24a2.16 2.16 0 01.888-.78 2.933 2.933 0 011.284-.276zm4.005 3.384c0-.672.136-1.26.408-1.764a2.964 2.964 0 011.116-1.188 3.11 3.11 0 011.596-.42c.576 0 1.076.124 1.5.372.424.248.74.56.948.936v-1.2h1.104v6.576H43.1v-1.224c-.216.384-.54.704-.972.96-.424.248-.92.372-1.488.372a2.98 2.98 0 01-1.584-.432 3.03 3.03 0 01-1.116-1.212c-.272-.52-.408-1.112-.408-1.776zm5.568.012c0-.496-.1-.928-.3-1.296a2.065 2.065 0 00-.816-.84 2.14 2.14 0 00-1.116-.3c-.408 0-.78.096-1.116.288a2.09 2.09 0 00-.804.84c-.2.368-.3.8-.3 1.296 0 .504.1.944.3 1.32.2.368.468.652.804.852a2.21 2.21 0 001.116.288c.408 0 .78-.096 1.116-.288.344-.2.616-.484.816-.852.2-.376.3-.812.3-1.308zm6.153-3.396c.8 0 1.448.244 1.944.732.496.48.744 1.176.744 2.088v3.876h-1.08v-3.72c0-.656-.164-1.156-.492-1.5-.328-.352-.776-.528-1.344-.528-.576 0-1.036.18-1.38.54-.336.36-.504.884-.504 1.572v3.636h-1.092V31.02h1.092v.936c.216-.336.508-.596.876-.78a2.774 2.774 0 011.236-.276zm5.036-.948a.718.718 0 01-.528-.216.718.718 0 01-.216-.528c0-.208.072-.384.216-.528a.718.718 0 01.528-.216c.2 0 .368.072.504.216.144.144.216.32.216.528a.718.718 0 01-.216.528.666.666 0 01-.504.216zm.528 1.068v6.576h-1.092V31.02h1.092zm1.453 3.276c0-.68.136-1.272.408-1.776a2.938 2.938 0 011.128-1.188c.488-.28 1.044-.42 1.668-.42.808 0 1.472.196 1.992.588.528.392.876.936 1.044 1.632h-1.176a1.679 1.679 0 00-.66-.948c-.32-.232-.72-.348-1.2-.348-.624 0-1.128.216-1.512.648-.384.424-.576 1.028-.576 1.812 0 .792.192 1.404.576 1.836.384.432.888.648 1.512.648.48 0 .88-.112 1.2-.336.32-.224.54-.544.66-.96h1.176a2.921 2.921 0 01-1.056 1.62c-.528.4-1.188.6-1.98.6-.624 0-1.18-.14-1.668-.42a2.938 2.938 0 01-1.128-1.188c-.272-.512-.408-1.112-.408-1.8zm10.025 3.408c-.504 0-.956-.084-1.356-.252a2.356 2.356 0 01-.948-.72 1.946 1.946 0 01-.384-1.068h1.128c.032.328.184.596.456.804.28.208.644.312 1.092.312.416 0 .744-.092.984-.276.24-.184.36-.416.36-.696 0-.288-.128-.5-.384-.636-.256-.144-.652-.284-1.188-.42a9.777 9.777 0 01-1.2-.384 2.279 2.279 0 01-.792-.588c-.216-.264-.324-.608-.324-1.032 0-.336.1-.644.3-.924.2-.28.484-.5.852-.66a3.003 3.003 0 011.26-.252c.728 0 1.316.184 1.764.552.448.368.688.872.72 1.512h-1.092a1.12 1.12 0 00-.42-.828c-.248-.208-.584-.312-1.008-.312-.392 0-.704.084-.936.252a.779.779 0 00-.348.66c0 .216.068.396.204.54.144.136.32.248.528.336.216.08.512.172.888.276.472.128.856.256 1.152.384.296.12.548.304.756.552.216.248.328.572.336.972 0 .36-.1.684-.3.972-.2.288-.484.516-.852.684-.36.16-.776.24-1.248.24z"/></g><defs><filter id="prefix__filter0_d_43_8319" x=".273" y=".595" width="103.805" height="50" filterUnits="userSpaceOnUse" color-interpolation-filters="sRGB"><feFlood flood-opacity="0" result="BackgroundImageFix"/><feColorMatrix in="SourceAlpha" values="0 0 0 0 0 0 0 0 0 0 0 0 0 0 0 0 0 0 127 0" result="hardAlpha"/><feOffset dy="4"/><feGaussianBlur stdDeviation="2"/><feComposite in2="hardAlpha" operator="out"/><feColorMatrix values="0 0 0 0 0 0 0 0 0 0 0 0 0 0 0 0 0 0 0.25 0"/><feBlend in2="BackgroundImageFix" result="effect1_dropShadow_43_8319"/><feBlend in="SourceGraphic" in2="effect1_dropShadow_43_8319" result="shape"/></filter></defs></svg>