<svg xmlns="http://www.w3.org/2000/svg" width="129" height="56" fill="none" viewBox="0 0 129 56"><g fill="#B3B3AD" clip-path="url(#a)"><path d="M50.51 21.278c-.013 2.08-.35 4.03-1.26 5.87-.383.768-.166 1.47.118 2.232 3.03 8.128-.64 16.256-8.792 18.789-.264.08-.541.2-.798.174-1.908-.214-2.878.982-4.04 2.3-5.723 6.463-14.825 6.456-20.456-.288-1.03-1.23-2-1.865-3.65-2.066-3.551-.434-6.337-2.493-8.37-5.42-2.898-4.178-3.445-8.71-1.38-13.43.43-.975.384-1.71-.032-2.66-3.347-7.58.805-16.149 8.673-18.715.053-.02.106-.054.158-.047 2.64.367 3.974-1.47 5.552-3.142 5.366-5.681 14.93-5.36 20.007 1.33.666.876 1.36 1.511 2.52 1.645 5.618.648 9.17 3.943 11.03 9.184.47 1.33.496 2.82.72 4.23zm-35.61-.942c.217.635.607.949 1.313 1.043 2.396.314 4.521 1.303 6.403 2.84.316.261.693.448 1.089.695.112-.32.237-.48.21-.621-.5-2.861-.276-5.635.786-8.355.304-.77-.085-1.083-.977-.916-2.25.414-4.316 1.29-6.085 2.774-.97.815-1.855 1.724-2.78 2.593.126-.3.199-.648.39-.902 1.776-2.3 4.027-3.884 6.838-4.605.839-.214 1.677-.408 2.76-.662-.35-.588-.535-1.036-.832-1.377-2.04-2.28-4.462-3.89-7.512-4.465-2.013-.375-2.495-.127-3.122 1.878-.898 2.88-.924 5.762-.04 8.67.258.842.647 1.383 1.558 1.41m0 15.608c-.608.1-1.162.213-1.4.935-1.135 3.396-1.096 6.751.264 10.074.363.882.957 1.27 1.947 1.082 2.244-.42 4.37-1.116 6.146-2.613 1.049-.883 2.013-1.858 3.016-2.787-.231.48-.37 1.049-.713 1.423-2.099 2.32-4.607 3.91-7.75 4.338-1.332.18-1.524.669-.653 1.698 5.096 6.036 14.1 6.618 19.902-.107.739-.855.528-1.43-.555-1.557-3.597-.428-6.363-2.28-8.568-5.074-.488-.621-.996-.795-1.696-.668-.145-.862-.819-.916-1.479-1.016-2.04-.307-3.887-1.123-5.518-2.366-1.208-.923-2.442-1.872-2.977-3.416.396.381.819.735 1.195 1.136a13.8 13.8 0 0 0 6.106 3.79c.798.248 1.65.314 2.693.508-.43-1.864-.924-3.389-1.096-4.953-.178-1.61-.04-3.255-.04-5.006-.297.134-.58.187-.765.354-1.974 1.825-4.33 2.767-6.931 3.235-.422.074-.752.649-1.129.99m-12.047-8.87c.422-.435.838-.83 1.221-1.264 2.159-2.46 4.799-4.024 8.046-4.478 1.241-.174 1.38-.401.95-1.618-1.18-3.369-1.26-6.737.014-10.113.126-.341.152-.722.225-1.076-2.865-.722-8.027 2.393-10.205 5.989-2.27 3.75-2.825 9.197-.251 12.56m10.541 20.821c-.152-.582-.27-.983-.356-1.39-.277-1.344-.66-2.687-.779-4.044-.178-2.06 0-4.091.865-6.03.462-1.036.21-1.323-.938-1.503-.594-.094-1.188-.188-1.762-.355-2.726-.782-4.918-2.366-6.706-4.578-.799-.996-1.3-.916-1.69.28-.39 1.204-.779 2.46-.865 3.71-.442 6.785 4.64 13.048 11.28 14.017.206.027.417-.04.945-.107zm34.971-18.736c-.396.421-.766.802-1.116 1.203-2.112 2.407-4.68 4.024-7.854 4.552-1.717.288-1.802.441-1.169 2.152 1.129 3.035 1.076 6.076.047 9.138-.159.481-.086 1.036-.12 1.557.47.02.958.127 1.407.04 6.864-1.397 11.498-8.248 10.25-15.206-.21-1.163-.316-2.44-1.452-3.436zM37.784 8.485c.297.895.614 1.65.799 2.433.673 2.867.713 5.701-.423 8.495-.541 1.344-.356 1.705.852 1.885 3.472.515 6.29 2.153 8.502 4.907.25.314.607.534.91.788 2.014-2.286 2.192-8.188-.125-12.138-2.27-3.87-7.023-6.918-10.522-6.377zm-12.376 5.173c.303-.1.37-.1.402-.133 2.608-2.968 5.492-5.421 9.637-5.789.726-.067.812-.688.377-1.25a12.4 12.4 0 0 0-1.241-1.337C28.55-.566 20.299.731 15.71 6.172c-.878 1.043-.667 1.504.673 1.684 3.387.468 6.034 2.22 8.205 4.806.27.328.541.655.819.996m12.416 8.215c.046.374.033.602.112.796 1.485 3.549 1.525 7.098.08 10.681-.404.99.039 1.43 1.174 1.156 3.307-.788 6.1-2.433 8.218-5.186.64-.836.72-1.518.033-2.367-1.558-1.931-3.393-3.522-5.696-4.405-1.169-.447-2.377-1.196-3.928-.675zm-25.506-.227c-.105.013-.217.02-.323.047-3.393.895-6.258 2.607-8.357 5.508-.56.775-.336 1.437.179 2.112 2.145 2.8 5.023 4.405 8.356 5.234.99.247 1.367-.201.997-1.17-1.353-3.516-1.366-7.012.013-10.528.35-.902.073-1.23-.865-1.203m13.915-7.333c4.587.502 8.013 2.5 10.455 5.963.35-.134.535-.16.64-.261.152-.147.284-.34.357-.541 1.208-3.383 1.122-6.745-.158-10.087-.337-.882-.938-1.384-1.915-1.143-1.168.287-2.39.488-3.485.963-2.29.995-4.238 2.48-5.9 5.113zm.264 27.954c.158.287.264.601.462.835 2.165 2.6 4.891 4.238 8.205 4.847 1.557.287 1.887.06 2.488-1.404.983-2.393 1.023-4.886.7-7.373-.145-1.116-.317-2.4-1.274-3.135-1.657 1.404-3.07 2.941-4.78 3.944-1.748 1.023-3.788 1.524-5.801 2.286m.825-17.246c.541-.274.865-.354 1.082-.554 1.875-1.752 4.14-2.64 6.595-3.122.376-.073.943-.327 1.003-.601.072-.321-.225-.816-.495-1.117-2.04-2.266-4.442-3.937-7.492-4.451-.449-.074-.918 0-1.373 0 .02.467-.092.989.073 1.397.944 2.34.99 4.745.613 7.192-.046.307 0 .628 0 1.256zm.165 6.29c-.106.428-.231.649-.198.836.449 2.674.363 5.28-.687 7.834-.415 1.016-.026 1.363 1.149 1.156 3.148-.548 5.703-2.166 7.815-4.538.904-1.016.72-1.424-.607-1.698-2.442-.508-4.733-1.35-6.581-3.149-.178-.173-.456-.233-.884-.447zm-13.28-8.943c-.278.307-.43.408-.49.548-1.306 3.268-1.366 6.584-.217 9.906.37 1.07.937 1.163 1.63.254 1.525-1.985 3.452-3.375 5.776-4.238.323-.12.587-.394 1.082-.735-1.57-.862-3.036-1.477-4.283-2.4s-2.278-2.152-3.499-3.335m22.805.033c-1.261 1.203-2.317 2.427-3.584 3.362-1.222.91-2.654 1.531-3.994 2.273 0 .14 0 .274.007.415 3.056.949 5.412 2.86 7.459 5.56 1.128-1.61 1.557-3.134 1.577-4.819.02-2.36.152-4.745-1.465-6.797zM84.874 11.92c-.501-.073-1.003-.213-1.505-.213-1.815 0-3.63.066-5.439.026-.39-.006-1.043-.32-1.109-.608-.185-.775.489-.862 1.05-.882 3.346-.114 6.7-.22 10.046-.314.766-.02 1.472.193 1.756.969.304.829-.237 1.383-.838 1.818-2.046 1.49-4.12 2.961-6.179 4.438-.422.301-.838.615-1.26.93l.079.4c.435.06.878.174 1.313.174 1.65-.007 3.3-.114 4.945-.073 1.98.053 2.68.742 2.706 2.747q.07 5.507-.02 11.022c-.033 1.865-1.201 2.981-3.03 3.048a11 11 0 0 1-2.297-.154c-.323-.053-.594-.407-.891-.621q.07-.19.132-.381c.403-.06.805-.16 1.215-.187 1.722-.114 2.37-.702 2.422-2.473.06-2.28.02-4.566.02-6.852 0-.835.1-1.691-.046-2.5-.1-.535-.442-1.176-.878-1.464-.977-.641-1.822-.18-1.967.996-.198 1.598-.238 3.222-.489 4.813-.482 3.035-1.597 5.782-3.927 7.887-.198.18-.436.315-.74.528-.66-.989-.383-1.844.159-2.626 2.198-3.182 2.515-6.818 2.528-10.535 0-.668-.158-1.223-.95-1.31-.879-.087-1.334.28-1.4 1.203a115 115 0 0 1-.383 4.492c-.383 3.516-2 6.317-4.858 8.362-.212.147-.462.234-.78.388-.461-1.016-.323-1.825.384-2.5 3.155-2.988 3.063-6.972 3.247-10.855.014-.328-.343-.79-.653-1.003-1.168-.822-1.208-1.53-.04-2.366 2.02-1.444 4.053-2.861 6.06-4.325.607-.441 1.142-.99 1.71-1.49l-.1-.522z"/><path d="M64.662 28.698c-.053-.782-.105-1.277-.105-1.765-.007-4.17-.007-8.348 0-12.52 0-1.924.184-2.072 1.967-1.724 1.663.321 1.92.107 1.954-1.63.006-.335.013-.67 0-1.003-.027-.783.363-1.083 1.109-1.103.825-.027 1.247.314 1.214 1.163v.501q.066 1.805 1.842 1.958c1.604.14 2.192.609 2.225 2.273q.11 5.837-.007 11.684c-.033 1.658-.607 2.079-2.277 2.18-1.611.093-1.763.247-1.79 1.884-.02 1.277-.013 2.56 0 3.837 0 .849-.402 1.19-1.227 1.163-.76-.027-1.102-.374-1.096-1.13.007-1.39.02-2.78-.007-4.17-.026-1.344-.23-1.545-1.531-1.591-.7-.02-1.406 0-2.284 0zm6.179-4.418h-.033c0 .387-.02.782 0 1.17.033.661-.027 1.463.91 1.483.786.02 1.196-.595 1.255-1.303.086-1.05.066-2.112.02-3.162-.033-.682-.555-1.03-1.142-.875-.383.1-.865.508-.97.875-.165.562-.04 1.21-.04 1.818zm-.013-7.293h.02c0 .602-.093 1.23.032 1.805.08.34.476.768.8.842.342.08.884-.1 1.135-.36.501-.516.284-3.958-.264-4.433-.29-.247-.78-.427-1.136-.367-.237.04-.508.535-.568.862-.092.535-.026 1.096-.026 1.644zm-2.364.067c0-.608.113-1.25-.04-1.825-.098-.38-.52-.842-.89-.949-.608-.187-1.103.214-1.129.876-.053 1.216-.086 2.446.026 3.656.033.327.581.762.964.855.634.154 1.03-.274 1.056-.949.027-.555 0-1.11 0-1.664zm-.006 7.226c0-.615.119-1.257-.04-1.825-.105-.368-.6-.85-.937-.862-.35-.014-.997.447-1.023.748a21 21 0 0 0 0 3.824c.026.314.66.795 1.01.788.336 0 .845-.488.95-.855.159-.562.04-1.21.046-1.825zm36.165 10.788c-.35-1.13-.165-1.858.343-2.613 2.047-3.035 2.911-6.45 2.984-10.087.046-2.28-.007-4.565.02-6.845.013-.868-.126-1.51-1.149-1.69-.29-.054-.508-.556-.759-.856.317-.24.621-.642.964-.682.851-.1 1.723-.034 2.495-.034.7-1.29-.488-1.864-.686-2.713 1.993-.515 2.376-.335 2.904 1.316.429 1.344.568 1.438 2 1.397.548-.013 1.122-.127 1.631.02.33.094.554.575.825.876-.31.24-.594.655-.924.689-.924.093-1.868.033-2.799.04-2.126.013-2.185.073-2.185 2.293 0 2.185.072 2.252 2.211 2.245.436 0 .878.04 1.314.087 1.03.107 1.591.642 1.584 1.738-.02 4.118-.013 8.235-.033 12.353 0 1.296-.581 2.286-1.815 2.693-1.142.381-2.33.642-3.439-.534.356-.208.594-.415.871-.502 1.393-.427 1.98-.962 2.013-2.446.08-3.335.073-6.678 0-10.02-.013-.508-.429-1.17-.858-1.477-.898-.648-1.683-.18-1.828.943-.245 1.925-.344 3.883-.759 5.775-.608 2.76-1.948 5.187-3.902 7.239-.251.26-.567.454-1.003.795zm19.268-16.543a748 748 0 0 0-3.056-.047c-.66-.007-1.327.04-1.974-.047-.251-.034-.621-.368-.64-.595-.02-.24.264-.615.508-.735.33-.16.746-.18 1.122-.194 1.697-.074 3.4-.18 5.103-.14.587.013 1.426.28 1.67.708s.066 1.317-.238 1.818c-.6.983-1.465 1.805-2.112 2.768-.31.454-.621 1.19-.456 1.604.146.367.931.555 1.466.668.528.114 1.102-.013 1.644.06.778.107 1.155.562.884 1.638-.865 0-1.782-.027-2.693 0-1.195.04-1.426.26-1.479 1.49-.072 1.665-.006 3.343-.178 5-.244 2.373-2.541 3.737-4.726 2.881-.331-.127-.568-.501-.839-.755.231-.274.284-.408.37-.428 2.238-.561 2.634-1.05 2.687-3.409a79 79 0 0 0 0-3.001c-.027-1.598-.159-1.731-1.684-1.765-.548-.013-1.096 0-1.65-.006-.548-.007-1.076-.168-.924-.83.072-.307.534-.674.865-.728.699-.107 1.425-.033 2.138 0 .614.02.984-.16 1.235-.822.277-.742.732-1.43 1.201-2.072.634-.87 1.499-1.584 1.749-3.048zM100.94 50.99c-.521.067-.944.127-1.373.18-1.432.174-2.462-.334-2.713-1.77-.27-1.552-.337-3.196-.139-4.753.212-1.691 1.162-2.32 2.865-2.4a8 8 0 0 1 1.637.1c1.314.214 1.472.381 1.479 1.711.013 2.333.033 4.666-.04 6.992-.099 3.242-2.185 4.552-5.32 3.088.515-.053 1.023-.12 1.538-.16 1.677-.134 2.343-1.01 2.059-2.988zm.284-4.318h-.033c0-.829.007-1.658 0-2.487-.013-.862-.528-1.15-1.294-1.116-.878.04-1.544.562-1.65 1.364-.185 1.397-.172 2.827-.159 4.244 0 .341.258.822.542.983.521.3 1.162.595 1.729.561.693-.04.878-.715.865-1.383-.013-.722 0-1.437 0-2.16zm4.35 7.533c3.808-.722 4.231-1.076 3.789-3.235-.509.08-1.03.187-1.552.24-1.61.148-2.548-.587-2.633-2.239-.093-1.831-.066-3.67-.014-5.5.007-.348.344-.936.588-.97.706-.093.68.548.68 1.043.006 1.39-.013 2.78 0 4.17.006.495.026 1.017.178 1.478.284.849 1.129 1.277 1.974 1.123.891-.167 1.102-.782 1.096-1.59-.014-1.558-.007-3.116-.007-4.673 0-.334-.073-.695.04-.99.099-.253.435-.634.607-.601.297.053.594.348.805.608.112.14.06.428.053.649-.053 2.667-.026 5.34-.185 8-.165 2.781-2.733 4.005-5.433 2.494zm-33.776-9.211v-5.013c0-.495-.047-1.163.66-1.05.27.047.508.69.647 1.097.099.3.006.662.02.996.052 1.417.184 1.517 1.537 1.27 1.935-.354 2.99.461 3.037 2.406.04 1.778.02 3.563 0 5.348 0 .48.066 1.102-.667 1.11-.733 0-.666-.602-.666-1.097-.007-1.39 0-2.78 0-4.178 0-.448.02-.895-.053-1.33-.165-.922-.878-1.497-1.723-1.477-.904.027-1.413.541-1.446 1.651-.053 1.61.013 3.229-.04 4.846-.02.588.337 1.59-.686 1.55-.997-.04-.58-1.029-.6-1.617-.06-1.504-.02-3.008-.02-4.512"/><path d="M121.508 9.387c.125 2.734.125 2.727 2.905 2.567.818-.047 1.656-.14 2.462-.013.369.06.884.548.944.909.119.702-.528.702-1.023.708-1.651.014-3.301.034-4.945 0-.831-.02-1.432.268-2.013.896-.99 1.07-2.027 2.145-3.479 2.54l-.336-.24c.178-.455.257-.997.561-1.344 1.32-1.498 2.191-3.189 2.416-5.194.066-.595.356-.922.95-.909.528.013 1.063.06 1.565.094zm-1.472 37.165c-.053.748-.066 1.25-.119 1.75-.257 2.32-1.36 3.236-3.65 3.042-1.4-.12-2.126-.668-2.522-1.998-.508-1.698-.488-3.416.013-5.107.41-1.397 1.426-2.059 3.024-2.066 1.518-.006 2.574.722 2.944 2.153.205.802.238 1.644.317 2.232zm-1.313.233c-.172-.895-.232-1.858-.581-2.707-.192-.46-.892-1.002-1.334-.976-.528.034-1.287.509-1.492.996-.732 1.745-.732 3.597-.026 5.348.198.501.957 1.07 1.452 1.063.502 0 1.208-.582 1.439-1.09.35-.775.37-1.704.542-2.64zm-16.925-22.251c2.033-.482 2.37-.274 2.33 1.43-.053 2.513-.363 4.993-1.393 7.32-.831 1.87-1.392 2.098-3.617 1.476 1.644-3.195 2.792-6.517 2.68-10.233zM85.646 50.997c-1.122.12-2.125.247-3.135.34-1.677.154-2.601-.641-2.746-2.332-.139-1.645.7-2.587 2.396-2.7.165-.014.33 0 .495.006.785.047 1.59.16 1.697-.996.105-1.143-.45-2.025-1.512-2.213-.627-.113-1.274-.1-1.921-.314 1.162-.788 2.41-.675 3.637-.247 1.063.368 1.248 1.337 1.267 2.306.04 1.831.034 3.656.014 5.488 0 .254-.145.508-.192.655zm-1.3-2.3c.013-1.257-.31-1.698-1.248-1.691-1.016.013-1.987.936-1.947 1.865.033.876.845 1.597 1.789 1.584 1.036-.013 1.386-.454 1.406-1.764zm43.882-1.945v3.342c0 .702-.192 1.15-1.07 1.057-.686-.067-1.393.106-2.092.173-1.868.18-2.7-.494-2.773-2.38-.066-1.777-.033-3.562-.033-5.34 0-.568 0-1.236.792-1.17.799.067.614.762.614 1.304-.013 1.557-.086 3.121.013 4.672.04.602.311 1.357.74 1.718.369.307 1.221.374 1.67.147.409-.2.766-.916.799-1.43.105-1.498.033-3.002.039-4.506 0-.387-.079-.808.046-1.156.106-.294.449-.501.687-.749.218.274.601.535.62.816.073 1.163.027 2.333.027 3.502zm-39.73-4.151c1.056-.113 1.854-.14 2.633-.294 1.921-.367 3.004.388 3.09 2.366.079 1.832.06 3.663.006 5.495-.006.347-.323.916-.58.969-.667.134-.766-.441-.766-.976 0-1.61.04-3.222-.027-4.826-.026-.575-.145-1.323-.515-1.658-.415-.374-1.175-.554-1.755-.5-.753.066-1.01.768-1.017 1.49-.013 1.557 0 3.108-.007 4.665 0 .388.053.796-.053 1.157-.079.26-.376.454-.574.681-.218-.2-.62-.407-.62-.608.026-2.647.105-5.294.178-7.94 0-.034.08-.068.013-.014zm-19.09.228c-3.28.808-3.498 1.082-3.439 4.365.047 2.546.45 2.974 3.44 3.602-1.473 1.243-3.968.555-4.535-1.33a9.1 9.1 0 0 1 .013-5.42c.574-1.832 2.858-2.42 4.521-1.224zm30.106-25.561c2.601-.542 2.647-.488 3.413 1.51.429 1.123.97 2.193 1.492 3.356-1.142.414-2.086.234-2.707-.816-.746-1.256-1.399-2.566-2.198-4.044zm.363-7.045c2.515-.555 2.641-.455 3.354 1.463.435 1.17 1.009 2.28 1.538 3.45-1.261.44-2.218.12-2.846-.983-.693-1.23-1.307-2.5-2.052-3.93z"/></g><defs><clipPath id="a"><path fill="#fff" d="M.642.885h127.67v54.563H.643z"/></clipPath></defs></svg>