<svg xmlns="http://www.w3.org/2000/svg" width="208" height="55" fill="none" viewBox="0 0 208 55"><g fill="#E8D398" clip-path="url(#a)"><path d="M12.906 27.797c0 5.694-.009 11.388 0 17.082 0 1.559 2.2 4.541 3.592 4.964 1.258.379 4.031-2.441 4.058-4.261.052-3.82.026-7.64.026-11.46 0-5.92-.018-11.84.026-17.758 0-.685.317-1.36.485-2.046.625.334 1.276.613 1.875 1 2.975 1.929 4.075 4.55 3.89 8.28-.334 6.73-.167 13.488-.061 20.227.026 1.91-.528 3.27-1.954 4.45-2.219 1.839-4.279 3.875-6.558 5.632-.608.468-2.069.621-2.588.207-2.826-2.252-5.528-4.676-8.17-7.154-.501-.468-.747-1.45-.756-2.189a3637 3637 0 0 1 .009-33.948c0-.856.44-1.937 1.038-2.514 2.403-2.297 4.965-4.424 7.447-6.65 1.03-.927 1.946-1.098 3.072-.062 2.333 2.162 4.754 4.225 7.13 6.334.274.243.714.495.749.792.158 1.289.194 2.586.281 3.884-.818-.45-1.707-.802-2.429-1.379-1.61-1.288-3.081-2.775-4.727-4.018-.907-.694-2.456-1.775-3.01-1.442-1.611.946-3.469 2-3.442 4.496.061 5.847.017 11.686.017 17.533m157.155-1.307c-.484-.757-.951-1.531-1.452-2.27a214 214 0 0 0-3.037-4.379c-.185-.252-.52-.396-.784-.585-.079.279-.211.558-.22.837-.026 2.172.026 4.343-.07 6.514-.027.55-.511 1.073-.793 1.604-.325-.55-.898-1.081-.942-1.658-.123-1.784-.026-3.594-.07-5.387-.018-.64-.194-1.28-.299-1.92-.405.469-.828.928-1.206 1.415-1.127 1.46-2.175 2.991-3.398 4.36-.414.47-1.259.532-1.902.784.291-.693.458-1.468.889-2.063.995-1.378 2.227-2.594 3.143-4.018 1.127-1.766.783-2.198-1.312-2.433-.854-.099-1.663-.522-2.5-.793.845-.243 1.673-.54 2.536-.702.563-.108 1.17-.072 1.751-.018 1.673.171 2.412-.496 2.368-2.289-.017-.64.555-1.297.863-1.937.308.649.889 1.307.872 1.946-.053 1.802.695 2.424 2.368 2.289a16.7 16.7 0 0 1 3.072.045c.405.045.775.45 1.162.694-.405.243-.783.63-1.224.711-3.697.685-3.847 1.064-1.391 4.127.828 1.045 1.796 1.973 2.615 3.018.229.288.22.829.176 1.234-.018.172-.405.307-.616.45-.194.136-.396.28-.59.415zm12.2-14.28c1.831 0 3.663-.054 5.485.036.519.027 1.021.496 1.532.766-.537.27-1.048.676-1.611.775-.784.135-1.611.099-2.413.036-1.989-.144-2.684.739-2.632 2.784.097 3.667 0 3.586 3.601 3.73 1.223.045 2.429.64 3.644.982-1.197.27-2.394.73-3.6.766-3.557.108-3.557.045-3.618 3.72 0 .451.061.929-.062 1.334-.114.37-.44.676-.678 1.01-.325-.325-.678-.632-.959-.992-.115-.144-.044-.432-.062-.658q-.316-4.305-4.666-4.378c-.369 0-.774.08-1.082-.054-.405-.18-.731-.541-1.092-.82.343-.307.669-.838 1.039-.874 1.303-.126 2.632-.126 3.944-.081 1.294.036 1.91-.505 1.839-1.847-.035-.595-.052-1.208.018-1.793.255-2.154-.66-2.946-2.746-2.874-1.039.036-2.104-.496-3.152-.775 1.03-.261 2.051-.658 3.09-.766 1.382-.135 2.773-.036 4.164-.036zM4.271 32.563c0 3.063.026 6.136-.026 9.199 0 .522-.344 1.045-.529 1.558-.44-.243-1.056-.369-1.276-.738C1.78 41.437.829 40.23.776 39.005c-.194-4.325-.07-8.677-.07-13.01 0-.37-.124-.874.061-1.1.898-1.107 1.884-2.135 2.844-3.198.22 1 .598 2 .634 3.01.088 2.612.026 5.234.026 7.856m25.334-.099c0-2.91-.027-5.82.026-8.73 0-.478.308-.946.476-1.424.44.171.942.27 1.32.532.66.46 1.215 1.08 1.866 1.55 1.409.99 1.831 1.9.361 3.342-.572.558-.722 1.757-.748 2.676-.097 2.829-.026 5.676-.053 8.505 0 .666.106 1.513-.237 1.955-.634.82-1.559 1.405-2.36 2.09-.22-.81-.607-1.622-.634-2.441-.079-2.685-.026-5.37-.026-8.064h.026zm74.048-14.632c-.581.54-.968 1-1.452 1.306-.326.198-.784.18-1.18.253.044-.397-.053-.901.15-1.154.633-.774 1.505-1.441.044-2.225.22-.37.457-1.063.669-1.054 1.575.063 2.297-.586 2.262-2.235 0-.36.493-.72.766-1.09.273.388.722.74.783 1.154.168 1.216.405 2.234 1.928 2.108.071 0 .168.018.203.063.167.207.326.432.484.649-2.315.27.352 2.36-1.083 3.054-.783.378-1.417 1.063-2.113 1.604.652.297 1.295.774 1.972.846 2.016.226 1.559 1.451.986 2.541-.528 1-1.03 1.847.062 2.74-.291.35-.757 1.044-.845 1-1.761-.938-3.213-.028-4.745.639-.414.18-.968.045-1.444-.036-.053-.01-.114-.865 0-.92 2.694-1.242.704-3.125.238-4.297-.546-1.36-.273-1.288.775-1.73.809-.342 1.364-1.378 1.954-2.17.097-.136-.22-.587-.405-1.037zm3.328 5.496c-.916-.343-1.391-.703-1.708-.604-.528.171-.968.649-1.444 1 .335.298.748.883.995.82.607-.153 1.136-.613 2.157-1.225zm38.485 4.847c-1.54 0-3.09.162-4.604-.036-2.342-.306-2.984-1.838-1.338-3.523 1.629-1.667 3.671-2.919 5.52-4.36.51-.397.977-.838 1.47-1.253-.678-.153-1.347-.396-2.025-.432-1.312-.081-2.641.036-3.944-.09-.449-.046-.854-.577-1.285-.883.44-.289.88-.811 1.329-.83 2.782-.09 5.564-.107 8.346-.026.598.018 1.179.55 1.769.838-.396.585-.669 1.351-1.206 1.712-2.007 1.35-4.173 2.486-6.145 3.883-.968.684-1.663 1.774-2.482 2.685 1.171.189 2.324.45 3.504.55 1.162.098 2.341 0 3.512.026 1.84.054 3.653.144 3.697-2.55 0-.207.458-.414.705-.621.299.468.818.91.845 1.396.114 1.856-1.312 3.388-3.266 3.532-1.453.108-2.923.018-4.393.018v-.036zm-78.08-1.495c-3.53 0-5.58-1.289-6.39-3.784-1.066-3.27-.326-6.677 1.83-8.442 1.928-1.577 5.168-1.766 7.21-.388.423.288.95.604 1.118 1.036.264.685.273 1.478.388 2.226-.608-.307-1.409-.45-1.788-.946-1.206-1.595-2.957-1.757-4.366-1.136-1.136.505-2.113 1.937-2.632 3.19-.836 1.982-.475 4.126 1.127 5.586 1.435 1.306 3.354 1.622 5.132.649.625-.343 1.224-1.244 1.285-1.938.044-.432-.906-1.018-1.479-1.441-.466-.343-1.03-.55-1.55-.82.538-.27 1.093-.802 1.612-.766 1.294.09 3.125-.829 3.416 1.604.404 3.324-.388 4.829-2.87 5.207-.793.118-1.611.118-2.051.154zm-13.767-.01c-3.961.027-5.546-1.054-6.664-4.297-.986-2.874-.158-6.064 2.051-7.902 1.91-1.594 5.088-1.784 7.184-.378.475.324 1.03.712 1.25 1.207.237.54.14 1.244.193 1.883-.546-.189-1.32-.216-1.602-.613-1.268-1.801-3.195-2.018-4.692-1.252-1.224.63-2.5 2.36-2.632 3.721-.159 1.649.378 3.955 1.496 4.982 1.013.938 3.205.712 4.868.65.52-.019 1.374-1.181 1.383-1.82 0-.514-1.013-1.073-1.629-1.56-.405-.324-.898-.531-1.347-.792.458-.27.95-.811 1.382-.775 1.347.135 3.284-.964 3.662 1.55.485 3.216-.36 4.784-2.86 5.225-.793.144-1.603.135-2.043.162zm63.018.505c-.237.325-.396.712-.581.73-.308.027-.765-.09-.933-.315-1.329-1.775-2.597-2.145-4.032-.081-.22.315-.986.216-1.505.315.167-.55.167-1.28.528-1.613 1.558-1.477 2.439-3.027 1.03-5.072-.255-.37-.722-.586-1.012-.937-.379-.469-1.013-1.063-.951-1.514.291-1.982.757-3.937 1.241-5.874.106-.432.59-.757.898-1.135.238.378.396.874.722 1.117.652.495 1.356 1.1 2.104 1.216 1.453.216 2.632-.036 1.593 2.298-.933 2.108-1.188 4.595-1.434 6.946-.08.784.748 1.694 1.214 2.514.291.495.696.91 1.092 1.414zm-2.465-9.775c-.528-.523-.924-1.108-1.47-1.37-.202-.099-1.135.685-1.082.892.299 1.154.801 2.253 1.232 3.37.379-.829.766-1.667 1.329-2.892zm-28.766 7.991c-.256.37-.581 1.01-.696.973-.475-.144-1.162-.423-1.267-.801-.59-2.163-2.016-2.541-3.988-2.523-1.726.009-2.694.604-3.346 2.198-.21.514-1.02.775-1.558 1.153-.026-.648-.255-1.36-.052-1.919 1.188-3.351 2.464-6.676 3.74-9.991.59-1.54 1.982-1.811 2.589-.505 1.725 3.676 3.055 7.541 4.569 11.424zm-5.802-2.982c.854-.9 1.867-1.567 1.779-1.955-.326-1.315-1.04-2.532-1.602-3.793-.6 1.288-1.321 2.532-1.726 3.874-.106.334.792.991 1.55 1.865zm13.425 4.234c-3.293-.036-5.089-1.297-5.96-4-.854-2.64.07-6.649 1.875-8.127 2.007-1.648 5.08-1.838 7.192-.405.423.288.924.604 1.118 1.036.29.649.334 1.415.484 2.126-.572-.288-1.259-.46-1.699-.892-1.523-1.504-4.076-1.856-5.599-.666-1.77 1.387-2.306 5-1.074 7.234 1.083 1.964 3.055 2.74 5.053 1.766.784-.387 1.303-1.306 1.999-1.91.334-.288.818-.405 1.232-.603.115.522.475 1.162.29 1.54-1.056 2.172-2.834 3.145-4.912 2.91zm34.092-9.946c1.03 0 2.06-.081 3.073.036.493.054.959.46 1.435.703-.264.486-.458 1.036-.81 1.441-.696.784-1.479 1.478-2.227 2.207 1.109.19 2.227.334 3.318.586.96.225 1.893.568 2.844.856-.951.19-1.911.568-2.852.523-2.272-.108-4.076 0-3.927 3.171.036.667-1.206 1.532-2.016 2.063-.334.216-1.056-.189-1.611-.315.361-.352.845-.649 1.057-1.081.387-.802.898-1.703.818-2.523-.044-.469-1.082-1.1-1.734-1.207-1.294-.198-2.632-.018-3.944-.117-.484-.037-.95-.433-1.417-.667.493-.234.968-.622 1.479-.676 1.012-.117 2.086-.225 3.064-.027 2.2.45 2.711-1.568 3.926-2.568-.326-.333-.625-.9-.986-.955-1.083-.17-2.192-.09-3.284-.207-.273-.027-.519-.414-.774-.64.281-.198.554-.54.845-.558 1.241-.063 2.491-.027 3.732-.027v-.027zm79.612 7.811v2.262c0 1.27-.554 1.576-1.805 1.504-2.905-.17-5.827-.126-8.741-.153-.431 0-1.233.09-1.241.036-.3-1.847-.661-3.703-.669-5.559 0-.55 1.003-1.55 1.593-1.576a92 92 0 0 1 9.226-.081c2.764.126 1.188 2.495 1.646 3.576zm-6.497 1.82c1.022 0 2.122.244 3.029-.08.669-.235 1.496-1.208 1.496-1.857 0-.685-.819-1.9-1.382-1.964a25 25 0 0 0-6.092 0c-.581.072-1.435 1.288-1.417 1.973.009.649.872 1.586 1.558 1.856.828.325 1.866.072 2.808.081zm-2.086-9.613c1.162 0 2.342.08 3.495-.027 1.083-.1 3.195.621 1.84-1.946.458-.235 1.259-.74 1.32-.658a60 60 0 0 1 3.161 4.54c.14.217-.097.884-.353 1.091-.193.153-.889.027-1.029-.198-.925-1.514-2.228-1.252-3.671-1.144-2.835.216-5.687.216-8.531.243-.44 0-1.091-.234-1.259-.559-.149-.288.133-.973.414-1.306 1.241-1.45 2.518-2.883 3.882-4.217.441-.432 1.189-.531 1.805-.784-.158.658-.211 1.37-.502 1.956-.29.576-.862 1.009-1.241 1.55-.282.396-.467.864-.695 1.306.44.17.889.342 1.329.513.017-.117.044-.243.061-.36zM80.757 36.545c.141-.297.308-.658.476-1.018.237.315.572.604.686.964.344 1.135.564 2.307.916 3.433.114.37.51.648.775.973.22-.325.545-.613.65-.973.344-1.136.573-2.307.934-3.433.14-.432.537-.784.81-1.171.37.37.907.666 1.074 1.117.387 1.036.546 2.153.898 3.208.15.459.546.828.827 1.243.23-.388.555-.748.678-1.171.344-1.136.555-2.307.925-3.433.105-.334.545-.559.827-.829.15.27.475.595.414.81a179 179 0 0 1-1.972 6.84c-.106.342-.678.873-.828.81-.405-.171-.853-.559-.994-.964-.388-1.117-.599-2.288-.942-3.424-.15-.477-.458-.9-.705-1.351-.29.486-.677.946-.853 1.477-.388 1.199-.617 2.451-1.013 3.64-.106.316-.58.631-.933.694-.203.036-.634-.378-.722-.667-.669-2.198-1.267-4.423-1.937-6.775z"/><path d="M134.507 15.94s-.202.568-.422 1.171c-.379-.441-.678-1-1.145-1.297-.625-.396-1.373-.802-2.086-.829-2.333-.108-4.675-.072-7.007-.036-1.391.018-3.073-.441-3.363 1.82-.018.117-.652.144-1.004.216-.114-.865-.449-1.775-.273-2.576.106-.487.933-1.037 1.523-1.145.986-.198 2.095.144 3.037-.135 1.092-.315 2.069-1.513 3.082-1.495 1.1.018 2.139 1.135 3.292 1.504.801.252 1.743.1 2.614.054 1.462-.072 1.972.694 1.761 2.757zm62.631 23.65c0-.522-.097-1.072.017-1.567.211-.92.537-1.811.819-2.721.59.766 1.241 1.495 1.76 2.315.353.55.476 1.253.802 1.83.413.72.924 1.387 1.39 2.08.423-.666.916-1.306 1.268-2.009.563-1.126.995-2.324 1.602-3.423.203-.379.793-.793 1.145-.74.308.046.739.713.748 1.118.079 2.09.062 4.19.009 6.289 0 .333-.388.657-.599.99-.176-.306-.466-.594-.493-.91-.088-.963-.026-1.945-.105-2.918-.027-.307-.309-.595-.476-.883-.264.225-.634.387-.766.676-.431.946-.695 1.973-1.188 2.883-.282.522-.88.874-1.329 1.306-.37-.432-.846-.81-1.092-1.306-.458-.928-.731-1.947-1.18-2.875-.158-.324-.633-.477-.968-.711-.114.333-.299.666-.317 1.009-.062.973-.018 1.946-.079 2.919-.018.234-.273.441-.423.667-.167-.208-.466-.415-.475-.622-.044-1.117-.026-2.243-.026-3.37h-.044zM64.507 35.032c.405.829.722 1.306.89 1.829.29.919.449 1.874.73 2.793.159.495.467.937.705 1.405.299-.504.686-.982.862-1.531.344-1.055.502-2.163.88-3.199.141-.378.678-.612 1.03-.91.309.379.74.72.898 1.153.361 1.045.564 2.145.88 3.208.115.396.37.757.555 1.126.309-.387.766-.72.907-1.171.37-1.117.572-2.298.916-3.424.088-.288.457-.477.704-.712.132.379.44.802.352 1.127a127 127 0 0 1-1.813 6.423c-.106.334-.608.757-.925.748-.29 0-.713-.477-.827-.838-.388-1.198-.617-2.441-.995-3.64-.15-.468-.555-.846-.845-1.27-.211.405-.502.793-.634 1.225-.343 1.136-.555 2.307-.942 3.424-.15.432-.58.856-.986 1.063-.158.081-.8-.387-.898-.712a178 178 0 0 1-2.086-7.027c-.053-.19.282-.496.642-1.081zm-17.358 1.441c.158-.27.36-.613.554-.955.203.28.502.522.599.829.334 1.135.554 2.315.924 3.441.141.424.59.73.898 1.09.194-.35.44-.693.555-1.072.325-1.063.528-2.162.906-3.207.176-.487.625-.856.951-1.288.326.342.801.63.942 1.045.379 1.117.555 2.306.933 3.432.141.433.625.74.951 1.1.185-.37.431-.721.537-1.118.343-1.216.581-2.46.968-3.658.097-.297.617-.46.934-.684.096.306.334.648.264.91-.573 2.153-1.171 4.297-1.858 6.414-.15.46-.704.784-1.083 1.18-.317-.45-.757-.855-.933-1.35-.37-1.046-.572-2.145-.898-3.2-.114-.377-.387-.702-.59-1.053-.317.37-.774.684-.915 1.117-.414 1.27-.616 2.604-1.092 3.847-.096.243-1.47.297-1.505.19-.73-2.262-1.356-4.55-2.051-7.001zM153.204 13.85c-.554.216-.977.387-1.408.558-.916.352-1.814.775-2.765 1.01-.519.125-1.276.125-1.655-.18-1.496-1.19-2.834-1.073-4.357-.028-.44.306-1.285.135-1.902 0-.801-.171-1.575-.505-2.35-.81-.379-.154-.713-.406-1.074-.623.326-.225.634-.495.986-.684.889-.46 1.778-.937 2.711-1.289.405-.153 1.136-.216 1.356.027 1.602 1.748 3.134 1.83 4.789.109.22-.226.704-.415.977-.325 1.382.478 2.738 1.036 4.085 1.595.176.072.29.297.607.63zm-43.468 30.417c-2.122.117-3.425-.874-4.261-2.848-.845-2.009-.458-4.036.96-5.117 1.206-.91 3.204-.775 4.868-.982.317-.036.792.396 1.03.739.22.315.22.793.326 1.198-.335-.108-.669-.288-1.022-.324-1.346-.126-3.494-.766-3.882-.19-.818 1.217-1.074 3.127-.898 4.667.194 1.712 1.867 1.947 3.319 1.703.599-.099 1.241-.585 1.593-1.09.124-.18-.528-.955-.862-1.432-.141-.208-.388-.343-.581-.514.229-.144.528-.46.678-.396.783.306 2.218.865 2.174 1.063-.229 1.117-.669 2.288-1.356 3.171-.325.424-1.373.252-2.095.352zm72.736-4.65c0-3.135 1.25-4.486 4.138-4.468 2.843.018 4.366 1.504 4.436 4.351.071 2.784-1.751 4.712-4.454 4.694-2.729-.009-4.12-1.55-4.12-4.568zm1.039.01c.018 2.252 1.276 3.594 3.292 3.531 1.902-.063 2.905-1.333 2.817-3.694-.07-1.892-.651-3.387-2.878-3.405-2.113-.018-3.257 1.234-3.231 3.567m-59.849 4.559c-1.752.28-3.266-.667-3.821-2.396-.598-1.892-.986-4.334.924-5.577 1.295-.838 3.249-.694 4.913-.83.343-.026.801.586 1.1.983.194.261.194.666.273 1.009-.37-.1-.731-.225-1.1-.288-1.339-.226-3.082-1.037-3.918-.469-.907.613-1.347 2.523-1.338 3.865.018 2.28 2.976 3.685 4.798 2.37.387-.28.326-1.406.22-2.1-.044-.288-.74-.477-1.136-.711.458-.144.96-.478 1.365-.379.537.135 1.276.505 1.426.946.775 2.307-.528 3.586-3.724 3.577zm13.741-3.297c-1.136.847-1.893 1.414-2.65 1.982-.352.27-.713.54-1.065.802.026-.478-.062-1 .097-1.433.677-1.883 1.39-3.748 2.174-5.577.229-.531.775-1.306 1.153-1.288.502.018 1.197.603 1.417 1.126.854 2.045 1.567 4.154 2.298 6.244.106.306.009.675.009 1.018-.352-.18-.766-.288-1.056-.54-.74-.668-1.427-1.388-2.377-2.325zm1.382-1.298c-.643-.9-1.092-1.522-1.541-2.153-.387.658-.959 1.28-1.065 1.973-.044.307.792.937 1.321 1.1.272.08.757-.523 1.276-.92zm12.147-4.54c.652.099 1.409.009 1.911.342.519.342.783 1.09 1.162 1.658-.458-.19-.933-.568-1.382-.532-1.347.1-2.941-.036-3.953.658-1.215.838-.845 4.441.308 5.343 1.312 1.036 2.685.964 3.97-.18.291-.253.687-.38 1.03-.568-.088.46-.035 1.036-.29 1.36-1.057 1.352-4.041 1.532-5.423.28-1.849-1.667-1.769-3.794-1.127-5.992.573-1.946 2.016-2.397 3.786-2.37zm21.629.026c.651.1 1.382.027 1.919.334.484.28.748.964 1.118 1.468-.449-.144-.916-.441-1.356-.396-1.347.135-3.653.09-3.829.676-.476 1.594-.581 3.748.149 5.153.749 1.469 2.615 1.225 4.006.036.273-.234.695-.297 1.047-.441-.132.45-.211 1.261-.413 1.297-1.62.252-3.407.838-4.877.396-1.761-.522-2.298-3.432-1.629-5.964.537-2.054 1.981-2.622 3.865-2.559m4.462-20.451c.59 1.414 1.092 2.414 1.4 3.468.079.253-.466.694-.731 1.054-.563-1.054-1.162-2.09-1.646-3.19-.07-.161.414-.585.969-1.333zm11.418 1.351c-.758 1.172-1.409 2.199-2.06 3.217-.273-.379-.863-.92-.775-1.108.484-1.037 1.153-1.983 1.752-2.956.29.235.59.46 1.083.856zm-20.995-4.721c.775.99 1.4 1.685 1.849 2.477.088.154-.511.721-.793 1.09-.537-.72-1.135-1.414-1.575-2.189-.115-.198.246-.684.528-1.378zm-59.022 1.54c-.44.496-.766.874-1.091 1.253-.203-.216-.617-.577-.573-.64a4 4 0 0 1 .916-1.027c.079-.063.422.225.757.414zm-5.493.559c-.308.235-.537.415-.757.586-.211-.324-.51-.63-.581-.982-.035-.198.326-.478.502-.712.246.324.484.649.836 1.108M97.782 43.32c.378-.234.59-.36.8-.495.115.234.3.46.318.703.008.126-.317.423-.405.387-.22-.081-.388-.297-.713-.595m64.286-.018c-.229.261-.352.415-.485.559-.167-.171-.396-.325-.475-.532-.044-.108.238-.468.291-.46.22.082.405.244.669.424z"/></g><defs><clipPath id="a"><path fill="#fff" d="M.67.885H208v53.472H.67z"/></clipPath></defs></svg>