<svg xmlns="http://www.w3.org/2000/svg" width="210" height="43" fill="none" viewBox="0 0 210 43"><g fill="#fff" clip-path="url(#a)"><path d="M81.627 17.366c2.73 1.142 5.14 1.973 7.353 3.178.882.482 1.848 1.787 1.886 2.758.16 4.85.038 9.706-.016 14.562-.015 1.275-.684 1.593-1.756 1.05-.844-.428-1.612-1.158-2.486-1.314-1.088-.194-2.434-.295-3.339.194-2.691 1.477-5.223 3.272-7.983 5.044-3.665-2.347-7.36-4.717-11.056-7.087-.48-.311-.905-.754-1.422-.948-2.89-1.104-3.688-3.28-3.574-6.271.213-5.494.19-11.003.251-16.505.015-1.476.593-2.479 1.894-3.279C65.507 6.199 69.56 3.534 73.62.876c1.148-.753 2.19-.8 3.353-.054 4.068 2.61 8.166 5.183 12.242 7.794 1.102.707 2.197 5.02 1.467 6.03-.16.217-.98.202-1.315-.008-4.114-2.603-8.22-5.222-12.28-7.918-1.278-.847-2.373-.894-3.604.015-1.521 1.127-3.171 2.083-4.646 3.264-.502.404-.913 1.259-.92 1.912-.069 6.278-.038 12.565-.038 18.843 0 .194-.023.404.03.583.654 2.207 2.745 2.689 4.372 3.691 1.597.98 3.171 2.743 5.118.529.197-.226.555-.303.843-.436 2.388-1.119 3.475-2.89 3.278-5.688-.22-3.155-.084-6.34-.076-9.519 0-.746.106-1.492.182-2.548M31.64 15.532c-1.01-.49-1.505-.676-1.938-.948-4.114-2.635-8.228-5.261-12.31-7.934-1.225-.8-2.229-.707-3.453.116C7.712 10.97 8.632 9.27 8.571 16.837c-.03 4.212.046 8.416-.015 12.627-.03 1.974.41 3.505 2.334 4.43 1.285.621 2.418 1.562 3.627 2.346.213.14.456.233.7.288 2.144.513 6.812-3.124 6.843-5.408.06-3.824.03-7.639.053-11.462 0-.505.107-1.01.228-2.106 2.928 1.204 5.657 2.277 8.326 3.474.388.17.723.955.723 1.453 0 5.369-.061 10.746-.114 16.116 0 .116-.1.233-.282.668-1.155-.505-2.364-.94-3.475-1.554-1.43-.785-2.653-.754-4.03.217-2.167 1.523-4.425 2.922-6.714 4.243-.494.288-1.452.249-1.939-.062-4.372-2.758-8.668-5.634-13.032-8.408-.958-.606-1.407-1.313-1.407-2.478.023-6.605-.038-13.21.06-19.815.016-.793.624-1.858 1.278-2.308C5.887 6.246 10.092 3.456 14.38.822c.745-.459 2.22-.474 2.973-.016a275 275 0 0 1 12.88 8.307c2.183 1.5.754 3.917 1.415 6.41zm167.791 1.671c3.163 1.352 5.969 2.47 8.691 3.784.494.241.859 1.282.874 1.958a118 118 0 0 1-.136 8.54c-.038.668-.464 1.554-.989 1.927a527 527 0 0 1-12.995 8.898c-.372.248-1.209.163-1.627-.101-4.395-2.72-8.721-5.533-13.116-8.245-1.217-.754-1.696-1.647-1.681-3.124.061-6.154.084-12.308-.038-18.463-.038-1.841.548-2.976 2.076-3.908A382 382 0 0 0 192.413.916c1.254-.824 2.304-.8 3.505-.024 3.977 2.572 7.976 5.098 11.953 7.662 1.658 1.065 2.555 4.002 1.726 5.828-.106.241-1.057.38-1.384.179-4.189-2.596-8.295-5.339-12.538-7.833-.829-.49-2.16-.14-3.247-.054-.395.03-.783.388-1.148.637-4.806 3.248-4.775 3.248-4.714 9.27a481 481 0 0 1-.023 13.21c-.031 1.616.57 2.704 1.855 3.536 1.49.956 2.95 1.966 4.441 2.93a2.4 2.4 0 0 0 1.064.38c1.901.187 5.346-2.992 5.361-4.973.023-3.955 0-7.903.015-11.858 0-.7.076-1.391.152-2.603m-70.228 22.224c-2.129-1.368-4.296-2.681-6.364-4.135-.532-.373-1.072-1.18-1.087-1.802-.114-7.312-.137-14.617-.167-21.929 0-1.235.479-2.152 1.581-2.844a598 598 0 0 0 12.25-7.84c1.247-.816 2.304-.746 3.505.046 4.106 2.72 8.296 5.323 12.325 8.152.822.575 1.552 1.958 1.567 2.976a538 538 0 0 1-.015 20.398c-.016.963-.715 2.183-1.468 2.812-1.688 1.391-3.596 2.503-5.452 3.668-.327.202-.836.109-1.513.179v-2.409c.008-8.097-.023-16.194.061-24.29.015-1.633-.487-2.69-1.901-3.373-.563-.272-1.08-.653-1.62-.972-1.437-.839-2.76-2.673-4.509-1.849-2.243 1.057-4.28 2.634-6.25 4.188-.471.373-.456 1.554-.456 2.355 0 8.097.046 16.194.076 24.29v1.904c-.19.156-.388.311-.578.467z"/></g><defs><clipPath id="a"><path fill="#fff" d="M.397.286h209.512v42.56H.397z"/></clipPath></defs></svg>