<svg xmlns="http://www.w3.org/2000/svg" width="194" height="44" fill="none" viewBox="0 0 194 44"><ellipse cx="22.2647" cy="23.2581" fill="#fff" rx="19.6417" ry="19.6429"/><path fill="#fff" d="M94.164 37.722c-8.511.011-15.43-6.885-15.407-15.376.021-8.479 6.983-15.42 15.451-15.376 8.326.033 15.222 6.93 15.266 15.278.055 8.512-6.82 15.464-15.31 15.474m.044-2.902c6.885-.033 12.429-5.708 12.342-12.615-.088-6.864-5.533-12.245-12.386-12.245-6.972 0-12.592 5.577-12.538 12.43.055 6.886 5.696 12.462 12.582 12.43m92.589-11.622c1.615 2.913 3.11 5.609 4.605 8.293.393.71.96 1.397 1.135 2.161.185.862.371 2.292-.066 2.608-1.255.895-1.909-.37-2.433-1.31-1.67-2.913-3.285-5.86-4.922-8.784-1.986-3.547-2.106-3.601-6.951-2.761 0 2.957.011 6.013 0 9.068 0 .993.044 2.02-.185 2.969-.12.48-.797 1.124-1.233 1.135-.458 0-1.059-.59-1.331-1.07-.251-.425-.197-1.058-.197-1.593 0-5.991-.109-11.993.033-17.984.142-6.22 5.38-10.15 11.414-8.763 3.274.753 5.838 3.317 6.274 6.417.491 3.47-.731 6.242-3.666 8.195-.666.447-1.397.797-2.444 1.386zm-4.441-2.849c1.506-.218 3.066-.25 4.506-.676 2.019-.6 3.23-2.434 3.23-4.529 0-2.052-.851-3.677-2.739-4.627-4.135-2.084-8.751.491-9.166 5.096-.403 4.54-.382 4.562 4.169 4.747zm-23.93.065h8.315c.731 0 1.539-.174 2.161.088.709.305 1.255 1.004 1.877 1.527-.6.448-1.157 1.223-1.79 1.288-1.8.197-3.623.11-5.445.131-.906 0-1.823.055-2.728 0-1.703-.11-2.587.513-2.423 2.335.087.993 0 1.997.076 3.001.23 3.023 1.954 4.835 4.998 5.108 1.899.163 3.809.076 5.719.13 1.025.022 2.193.088 2.193 1.441 0 1.419-1.222 1.364-2.215 1.364-2.085 0-4.191.055-6.264-.11-3.885-.305-6.995-3.087-7.192-6.929-.261-5.161-.24-10.356-.021-15.528.152-3.514 2.586-6.21 6.045-6.81 2.565-.447 5.238-.404 7.857-.382.611 0 1.212.819 1.812 1.266-.622.524-1.19 1.419-1.855 1.506-1.79.24-3.623.076-5.446.185-3.83.219-5.543 1.998-5.674 5.85-.044 1.342 0 2.684 0 4.55zm-42.285-.643c3.296 0 6.373-.044 9.44.022 1.277.033 3.197-.404 3.263 1.484.054 1.986-1.899 1.528-3.154 1.55-3.077.065-6.155.021-9.701.021v7.498c0 1.55.12 3.11-.088 4.626-.076.623-.862 1.146-1.331 1.714-.469-.568-1.004-1.102-1.386-1.724-.164-.262-.054-.71-.054-1.07 0-5.816-.055-11.633.032-17.45.088-6.23 3.198-9.275 9.472-9.46a64 64 0 0 1 4.093 0c1.091.032 2.488.032 2.346 1.516-.055.546-1.386 1.2-2.226 1.386-1.135.24-2.346.055-3.536.077-5.62.098-7.344 1.844-7.301 7.398 0 .622.077 1.255.153 2.423zm28.721-9.832v23.309c0 .731.098 1.506-.131 2.16-.175.503-.884 1.256-1.179 1.18-.556-.142-1.2-.71-1.418-1.256-.262-.633-.131-1.43-.131-2.16V13.256c0-.971-.077-1.943-.142-3.328-1.91 0-3.601.032-5.303-.011-.808-.022-1.659-.055-2.401-.317-.404-.142-.862-.775-.862-1.19 0-.403.458-.96.873-1.189.436-.25 1.048-.273 1.582-.273 5.096-.021 10.181-.01 15.277 0 .36 0 .797-.076 1.07.088.567.338 1.058.818 1.582 1.233-.513.524-.928 1.299-1.55 1.506-.818.284-1.789.142-2.695.153-1.353.01-2.695 0-4.539 0zm-78.185 9.537c0 3.176-.131 6.352.033 9.516.185 3.46 1.844 5.031 5.325 5.315 1.8.152 3.645-.055 5.435.185.818.11 1.55.884 2.313 1.353-.742.502-1.451 1.375-2.226 1.43-2.248.142-4.562.175-6.777-.164-4.005-.61-6.777-3.23-6.973-7.224-.328-6.788-.208-13.597-.142-20.396 0-.633.96-1.244 1.473-1.877.448.688 1.244 1.353 1.277 2.063.142 3.263.066 6.526.066 9.788h.196z"/><path fill="#469793" d="M44.087 22.212c.135 11.521-9.264 21.787-21.834 21.78C10.247 43.99.466 34.465.44 22.165.415 9.83 10.498.262 22.442.342c11.915.08 21.801 9.87 21.645 21.87m-30.818-5.264h.022c0 2.667-.047 5.334.015 8 .047 1.972.852 3.642 2.414 4.893 1.34 1.073 2.92 1.444 4.592 1.462 2.396.026 4.792 0 7.188.018 1.384.008 2.571.48 3.354 1.667.652.986.35 1.528-.845 1.55a79 79 0 0 1-3.82-.008c-1.169-.033-2.236-.33-3.222-1.059-.514-.378-1.282-.454-1.952-.541-.295-.037-.783.17-.9.407-.116.24.03.71.212.978.91 1.368 2.162 2.423 3.797 2.58 2.375.225 4.782.313 7.163.192 1.952-.098 3.044-1.917 2.571-3.805-.379-1.51-1.26-2.67-2.549-3.525-1.31-.87-2.793-1.138-4.33-1.153-2.396-.022-4.792.018-7.188-.029-2.108-.04-3.474-1.277-3.776-3.34a13 13 0 0 1-.135-1.808c-.01-4.485-.007-8.967-.007-13.452 0-.211-.01-.426.01-.637.096-.83.59-1.102 1.341-.702.907.48 1.5 1.24 1.697 2.245.127.647.186 1.32.19 1.982.017 3.423.014 6.847.01 10.273 0 .84.099 1.685.754 2.256.4.353 1.027.753 1.475.677.648-.106.473-.88.473-1.401.011-3.907.018-7.818 0-11.725a12.4 12.4 0 0 0-.2-2.259c-.397-2.062-1.515-3.678-3.449-4.51-2.523-1.088-4.996-.084-4.92 3.051.066 2.576.015 5.152.015 7.727z"/></svg>