<svg xmlns="http://www.w3.org/2000/svg" width="180" height="180" fill="none" viewBox="0 0 180 180"><g fill="#fff" clip-path="url(#a)"><path d="M109.085 100.96c.55 1.599 1.404 3.177 1.526 4.809.06.801-1.236 1.705-1.921 2.563q-.627-.961-1.263-1.918c-.094-.144-.186-.334-.324-.389-.122-.044-.432.065-.436.123-.027.419.021.842.011 1.264-.014.508-.041 1.459-.098 1.459-1.351.065-2.708.037-4.065 0-.203-.007-.5-.245-.591-.17-3.737 3.002-6.083 2.034-6.907-2.863-.03-.171-.159-.328-.24-.491-.118.16-.304.303-.337.48-.085.416-.081.846-.139 1.268-.128.955-.273 1.905-.412 2.856-1.242-1.097-2.525-2.154-3.703-3.319-.32-.317-.324-.958-.476-1.449-.128.45-.182.944-.405 1.34-.247.439-.76 1.176-.966 1.118-1.04-.307-2.876-.822-2.88-1.278-.016-2.533.412-5.069.692-7.604 1.574.3 3.14.763 4.727.862 2.998.188 6.013.218 9.017.208 1.455-.003 2.907-.296 4.365-.368 1.334-.065 2.674-.01 4.011-.007l-.027-.03c.29.517.577 1.039.868 1.557l-.024-.021zM69.61 19.003c.603-1.291 1.204-2.587 1.809-3.878.483.521.969 1.036 1.441 1.564.176.194.324.413.486.62.105-.225.18-.477.321-.675.645-.879 1.307-1.745 1.965-2.614q1.105 1.059 2.204 2.117.208.2.416.406c.125-.212.199-.502.381-.624 1.053-.699 2.178-1.95 3.19-1.875 1.186.089 2.32 1.306 3.393 2.137.294.229.3.832.436 1.265l.402-1.333.638-2.113c1.175.804 2.393 1.554 3.504 2.44.378.304.493.944.73 1.432.232-.522.442-1.053.708-1.558.196-.371.46-.705.692-1.06.919.753 2.586 1.473 2.617 2.263.097 2.383-.443 4.789-.733 7.188-1.344-.327-2.674-.715-4.03-.964-.784-.143-1.611-.038-2.415-.096-1.715-.122-3.457-.542-5.138-.361-2.576.273-5.098 1.125-7.674 1.356-.89.079-1.89-.937-2.819-1.492-.324-.195-.58-.501-.867-.754l.02.028-1.715-3.436.03.02zm50.764 44.583c-4.615 0-9.23.089-13.842-.024-4.567-.112-9.142-.695-13.686-.48-1.236.058-3.22 2.13-3.393 3.473-.456 3.544-.189 7.194-.047 10.797.07 1.758.543 3.497.722 5.255.03.304-.503.662-.776.996-.28-.331-.793-.655-.803-.992-.082-3.037.02-6.08-.122-9.114-.108-2.32.02-4.877-.918-6.864-.76-1.609-2.927-3.534-4.52-3.582-11.894-.351-23.798-.249-35.698-.361-.757-.007-1.51-.644-2.266-.985.675-.123 1.35-.355 2.026-.355 7.68-.02 15.364-.092 23.04.034 4.42.072 8.863.876 13.232.522 1.549-.126 3.828-2.519 4.152-4.196.648-3.333.246-6.895.122-10.354-.061-1.677-.48-3.34-.696-5.017-.027-.214.203-.463.314-.695.125.218.341.433.358.661.337 5.43.439 10.893 1.127 16.274.17 1.313 2.232 3.375 3.454 3.395 14.007.242 28.021.15 42.031.177.392 0 .78.358 1.172.552-.439.368-.871 1.053-1.314 1.06-4.557.079-9.115.048-13.672.048v-.215zm-35.11 35.762c-.31 2.27-.56 4.254-.898 6.22-.03.167-.827.437-.99.304-.823-.655-2.207-1.439-2.197-2.154.044-2.417.59-4.826.965-7.236.02-.133.321-.354.348-.334.935.668 1.91 1.299 2.735 2.086.24.228.037.924.037 1.111z"/><path d="M108.268 99.458q.978-1.649 1.958-3.296c.672.988 1.37 1.956 2.005 2.968a29 29 0 0 1 1.533 2.73c.375.771 1.023 1.721.827 2.376-.213.719-1.249 1.189-1.928 1.769-.415-.682-.793-1.391-1.259-2.035-.743-1.026-1.546-2.011-2.326-3.01l.024.021c-.291-.518-.578-1.04-.868-1.558l.027.031zM71.277 22.391c.263.688.665 1.363.756 2.076.081.644-.179 1.332-.29 2-.996-.375-2.363-.463-2.914-1.186-1.212-1.591-2.018-3.5-2.974-5.286-.132-.245-.29-.75-.24-.777.76-.426 1.54-.835 2.354-1.145.195-.075.54.19.793.337.297.177.57.395.85.597l-.03-.02 1.715 3.435-.02-.028zm23.352 2.962 2.38-7.27c.972.583 2.832 1.285 2.775 1.728-.331 2.54-1.121 5.013-1.756 7.512-1.097-.638-2.194-1.275-3.396-1.97zm-27.204 5.071c-1.486-1.823-2.566-3.057-3.535-4.376-.685-.93-1.222-1.97-1.82-2.965-.118-.194-.31-.58-.3-.586.895-.532 2.529-1.568 2.606-1.462 1.536 2.13 2.988 4.342 4.203 6.673.237.45-.597 1.469-1.154 2.716m49.34 72.731c-.986-1.455-1.897-2.699-2.701-4.008-.692-1.128-1.293-2.314-1.873-3.503-.156-.324-.092-.754-.129-1.135.848.078 2.063-.17 2.482.3 1.529 1.717 2.819 3.66 4.139 5.562.206.296.297.964.114 1.182-.428.515-1.056.866-2.032 1.609zm-36.16-7.668c-.736 2.696-1.276 4.809-1.938 6.881-.064.208-1.067.409-1.276.215-.652-.597-1.702-1.517-1.577-2.072.426-1.858 1.29-3.61 1.992-5.402.19-.481.392-.955.59-1.428.757.616 1.51 1.237 2.205 1.806zm19.321-67.561c.692-2.71 1.232-4.894 1.843-7.065.034-.116.76-.225.945-.072.78.648 2.191 1.554 2.076 2.076-.425 1.936-1.309 3.783-2.143 5.603-.23.497-.895.79-1.361 1.176-.527-.665-1.05-1.33-1.364-1.721zm14.837 63.536c1.283-.188 1.796-.389 2.248-.29.335.072.598.518.865.825 1.212 1.387 2.481 2.733 3.578 4.209.368.494.284 1.333.405 2.014-.587-.167-1.367-.146-1.725-.531-1.671-1.8-3.227-3.709-5.374-6.227zM64.771 32.02c-.155.115-.63.65-.79.568a5.2 5.2 0 0 1-1.596-1.274c-1.25-1.537-2.475-3.102-3.576-4.744-.226-.335.129-1.067.217-1.616.52.239 1.188.344 1.532.736 1.411 1.609 2.738 3.296 4.055 4.983.158.204.08.6.158 1.346M75.625 92.6c-.925 1.902-1.884 3.913-2.917 5.883-.064.119-1.03-.02-1.05-.13-.151-.883-.469-1.902-.175-2.655.54-1.377 1.421-2.628 2.262-3.861.246-.365.827-.495 1.256-.733.165.402.334.8.62 1.496zm33.845-66.14c-1.104 2.243-2.09 4.25-3.086 6.251-.031.065-.24.12-.28.085-.362-.33-1.067-.81-.996-1.012.776-2.29 1.667-4.54 2.555-6.79.021-.05.422-.054.524.049.425.415.807.882 1.283 1.417m16.42 66.86c-1.725 0-2.268.163-2.603-.035-.614-.364-1.134-.913-1.644-1.435-.962-.995-1.934-1.99-2.808-3.064-.352-.43-.46-1.056-.679-1.595.381.205.807.355 1.138.627 1.877 1.538 3.727 3.105 6.593 5.505zM55.589 30.114c.35-.072.726-.273.979-.17.526.214 1.05.521 1.468.906 1.36 1.258 2.711 2.526 3.964 3.889.26.283.074.982.094 1.49-.445-.226-.948-.379-1.33-.686a192 192 0 0 1-4.929-4.154c-.162-.14-.115-.529-.246-1.272zm15.928 58.461c-1.195 1.612-2.455 3.31-3.717 5.007-.426-.505-1.303-1.244-1.189-1.473.365-.73 1.138-1.237 1.685-1.888.797-.95 1.533-1.96 2.306-2.934.087-.11.243-.16.368-.239.145.406.287.808.547 1.527m37.395-53.455c1.219-1.782 2.421-3.585 3.697-5.33.078-.109.733.212 1.118.33-.173.522-.233 1.119-.537 1.548-1.016 1.442-2.114 2.829-3.201 4.22-.145.184-.401.276-.607.409-.142-.358-.287-.716-.47-1.18zm8.957-.272c-.068.48-.064.985-.223 1.435-.111.324-.398.617-.672.842-1.276 1.056-2.572 2.086-3.862 3.125q-.394-.51-.793-1.023c.28-.2.604-.357.83-.61 1.276-1.407 2.526-2.839 3.785-4.26q.464.245.935.491m-57.024 5.089c-.419.166-.76.443-.972.364a5.7 5.7 0 0 1-1.482-.859 252 252 0 0 1-4.919-3.977c-.118-.099-.088-.378-.125-.576.395.03.82-.017 1.175.12.392.15.719.473 1.074.718 1.583 1.088 3.173 2.161 4.743 3.269.179.126.24.43.51.944zm66.237 48.328c-.814-.191-1.62-.16-2.12-.539-1.735-1.319-3.363-2.78-5.013-4.212-.034-.03.236-.522.266-.511.51.184 1.047.34 1.489.64a218 218 0 0 1 5.182 3.644c.098.071.071.317.196.981zm-58.874-4.25c-1.57 1.469-3.166 2.968-4.763 4.465-.22-.467-.713-1.03-.595-1.377.156-.454.8-.73 1.226-1.09 1.026-.87 2.046-1.75 3.076-2.618.199-.167.418-.307.627-.46.108.269.213.541.43 1.08m-8.542-.859-.723-.689c.794-.688 1.55-1.427 2.394-2.048.776-.572 1.63-1.056 2.495-1.486.179-.088.564.235.85.372-.27.187-.546.361-.806.562a1112 1112 0 0 0-4.214 3.292zm58.384-40.118c.048-.28.007-.723.162-.808.929-.504 1.901-.923 2.86-1.373.057.296.216.831.155.859-1.046.47-2.123.879-3.194 1.305zm-61.341-.136c-.912-.208-1.824-.42-2.738-.627l-.017.01 2.738.624.013-.007z"/><path d="M118.034 43.02c-.651.553-1.303 1.112-1.971 1.644-.01.01-.243-.27-.375-.413l2.363-1.213zm8.906 38.759h-1.404l.456-1.152.945 1.152zm-66.814-7.382c.371.184.709.35 1.043.518-.368.126-.732.35-1.1.35-.348 0-.7-.234-1.047-.364.344-.156.685-.313 1.104-.5zm62.945 5.023 1.432.587c-.355.112-.729.344-1.053.29-.166-.028-.247-.573-.365-.887l-.01.01zm4.558 3.624c-.24-.287-.402-.478-.564-.668.206-.154.439-.46.611-.43.341.061.645.314.966.484-.291.177-.584.354-1.01.61zM53.975 42.275q-.768-.304-1.543-.607c.371-.072.767-.245 1.104-.167.192.044.287.508.425.784zm2.721.637 1.408.695c-.382.075-.777.235-1.135.177-.131-.02-.175-.565-.26-.876l-.013.007zm68.009 32.521-.827-.539c.277-.109.554-.303.831-.303.236 0 .472.215.709.334-.216.157-.432.31-.713.511zm-1.623 3.977-1.668-.242c.061-.143.118-.286.179-.43.489.23.975.458 1.472.683.006 0 .017-.014.017-.014zm-65.697-3.18c-.247-.173-.45-.317-.652-.46.2-.098.405-.282.601-.276.226.007.446.184.668.287-.182.132-.364.262-.617.45m64.711-28.108-.608-.508c.196-.099.392-.286.581-.276.26.014.513.174.769.273-.219.15-.438.303-.742.511M53.88 48.03c-.202-.139-.384-.261-.563-.388.192-.102.388-.293.574-.283.222.014.438.198.658.307z"/></g><path fill="#fff" d="M33.498 143.097v-15.759h6.51q1.77 0 3.055.639 1.292.631 1.992 1.816.7 1.178.7 2.793 0 1.639-.715 2.786-.715 1.138-2.031 1.739-1.316.592-3.117.592h-4.116v-3.001h3.408q.863 0 1.44-.223.584-.231.884-.693.3-.469.3-1.2 0-.73-.3-1.208a1.8 1.8 0 0 0-.885-.723q-.585-.247-1.439-.247h-1.877v12.689zm8.872-7.202 3.924 7.202H42.14l-3.847-7.202zm10.767 7.425q-1.854 0-3.201-.731a5.05 5.05 0 0 1-2.062-2.1q-.716-1.37-.716-3.255 0-1.832.723-3.201a5.2 5.2 0 0 1 2.04-2.139q1.315-.77 3.1-.77 1.262 0 2.309.392 1.046.393 1.808 1.162.762.77 1.185 1.901.423 1.123.423 2.578v.939H48.475v-2.186h6.771q-.008-.6-.284-1.069a1.93 1.93 0 0 0-.762-.731 2.2 2.2 0 0 0-1.1-.27q-.631 0-1.132.285a2.1 2.1 0 0 0-.792.762q-.293.477-.308 1.085v2.224q0 .723.285 1.269.285.539.808.839t1.246.3q.5 0 .908-.138.409-.14.7-.408.293-.27.44-.662l3.454.1a4.3 4.3 0 0 1-.946 2.024q-.724.854-1.901 1.331-1.177.47-2.724.469m11.294-6.963v6.74h-3.763v-11.819h3.578v2.17h.131a3.32 3.32 0 0 1 1.34-1.701q.946-.623 2.254-.623 1.245 0 2.162.562a3.74 3.74 0 0 1 1.431 1.554q.516.993.508 2.324v7.533H68.31v-6.794q.008-.986-.5-1.539-.5-.555-1.393-.554-.592 0-1.046.261a1.74 1.74 0 0 0-.693.731q-.238.477-.246 1.155m14.287 6.909a4.35 4.35 0 0 1-2.377-.677q-1.07-.676-1.709-2.031-.638-1.354-.638-3.363 0-2.085.662-3.432.661-1.346 1.73-1.993a4.4 4.4 0 0 1 2.317-.646q.93 0 1.593.323.662.316 1.092.816.432.5.655 1.039h.076v-5.964h3.763v15.759h-3.724v-1.916h-.115a3.7 3.7 0 0 1-.678 1.024 3.3 3.3 0 0 1-1.1.769q-.653.292-1.547.292m1.309-2.931q.684 0 1.17-.385.483-.392.746-1.1.261-.708.261-1.662 0-.97-.261-1.67-.254-.7-.747-1.078-.484-.377-1.17-.377-.7 0-1.184.385-.485.385-.74 1.085-.245.7-.245 1.655 0 .954.254 1.662.253.708.73 1.1.486.385 1.186.385m13.76 2.985q-1.855 0-3.201-.731a5.05 5.05 0 0 1-2.062-2.1q-.716-1.37-.716-3.255 0-1.832.723-3.201a5.2 5.2 0 0 1 2.04-2.139q1.315-.77 3.1-.77 1.263 0 2.309.392 1.046.393 1.808 1.162.762.77 1.185 1.901.423 1.123.423 2.578v.939H89.124v-2.186h6.771q-.008-.6-.284-1.069a1.93 1.93 0 0 0-.762-.731 2.2 2.2 0 0 0-1.1-.27q-.631 0-1.132.285a2.1 2.1 0 0 0-.792.762q-.293.477-.308 1.085v2.224q0 .723.285 1.269.285.539.807.839.524.3 1.247.3.5 0 .908-.138.408-.14.7-.408.292-.27.439-.662l3.455.1a4.3 4.3 0 0 1-.947 2.024q-.723.854-1.9 1.331-1.177.47-2.724.469m7.531-.223v-11.819h3.655v2.154h.123q.324-1.169 1.054-1.739a2.67 2.67 0 0 1 1.701-.577q.261 0 .539.039.276.03.515.1v3.27a3.6 3.6 0 0 0-.708-.146 6 6 0 0 0-.769-.054q-.67 0-1.208.3-.531.293-.839.824-.3.523-.3 1.231v6.417zm9.12 0v-11.819h3.763v11.819zm1.886-13.196q-.794 0-1.362-.524-.57-.53-.57-1.277 0-.739.57-1.262a1.93 1.93 0 0 1 1.362-.531q.8 0 1.362.531.569.523.569 1.262 0 .746-.569 1.277a1.93 1.93 0 0 1-1.362.524m8.035 6.456v6.74h-3.763v-11.819h3.578v2.17h.131a3.33 3.33 0 0 1 1.339-1.701q.946-.623 2.255-.623 1.246 0 2.162.562a3.75 3.75 0 0 1 1.431 1.554q.516.993.508 2.324v7.533h-3.763v-6.794q.008-.986-.5-1.539-.5-.555-1.393-.554-.593 0-1.046.261-.447.255-.693.731-.239.477-.246 1.155m15.48 11.419q-1.685 0-2.886-.47-1.2-.47-1.885-1.285a3.56 3.56 0 0 1-.823-1.847l3.563-.2q.099.362.369.631.277.27.716.416.446.146 1.046.146.947 0 1.562-.462.623-.453.623-1.592v-2.078h-.13q-.224.546-.678.977a3.2 3.2 0 0 1-1.131.677q-.669.246-1.539.247-1.293 0-2.37-.601-1.07-.608-1.716-1.877-.638-1.278-.638-3.286 0-2.07.661-3.409.663-1.346 1.732-1.993a4.4 4.4 0 0 1 2.316-.646q.931 0 1.593.323.67.316 1.1.816t.654 1.039h.108v-2.024h3.747v11.865q0 1.501-.754 2.532-.754 1.03-2.108 1.562-1.354.539-3.132.539m.115-7.58q.685 0 1.17-.361.485-.363.746-1.039.262-.678.262-1.624 0-.962-.262-1.654-.254-.7-.746-1.078-.484-.377-1.17-.377-.699 0-1.185.385-.485.385-.738 1.085-.246.693-.247 1.639 0 .946.254 1.624.255.676.731 1.039.486.361 1.185.361M62.17 155.237h-1.615a2 2 0 0 0-.255-.703 1.88 1.88 0 0 0-1.092-.851 2.5 2.5 0 0 0-.756-.112q-.72 0-1.278.362-.557.358-.873 1.054-.315.691-.315 1.688 0 1.016.315 1.71.32.691.873 1.045.557.35 1.274.35.397 0 .742-.104.35-.107.626-.315.281-.207.471-.509.195-.303.268-.691l1.615.008q-.09.631-.393 1.184-.299.552-.782.976a3.6 3.6 0 0 1-1.131.656 4.2 4.2 0 0 1-1.438.233q-1.166 0-2.081-.54t-1.443-1.559-.526-2.444q0-1.429.53-2.444.532-1.019 1.447-1.559.915-.539 2.073-.539.738 0 1.373.207.634.207 1.132.609.496.397.816.976.324.574.423 1.312m4.291 5.99q-.972 0-1.684-.428a2.9 2.9 0 0 1-1.105-1.196q-.39-.768-.39-1.796t.39-1.801q.393-.772 1.105-1.2t1.684-.428 1.684.428a2.87 2.87 0 0 1 1.101 1.2q.393.773.393 1.801t-.393 1.796a2.87 2.87 0 0 1-1.1 1.196q-.714.428-1.685.428m.009-1.253q.526 0 .88-.289.355-.294.527-.786.177-.492.178-1.097 0-.609-.178-1.101a1.74 1.74 0 0 0-.526-.79q-.354-.294-.881-.294-.54 0-.898.294a1.77 1.77 0 0 0-.532.79 3.3 3.3 0 0 0-.172 1.101q0 .605.172 1.097.177.492.531.786.36.29.899.289m4.496 1.123v-6.633h1.494v1.127h.078q.207-.57.686-.889.48-.324 1.145-.324.673 0 1.135.328.466.324.657.885h.069a1.8 1.8 0 0 1 .743-.88q.526-.333 1.248-.333.915 0 1.494.579.578.578.578 1.688v4.452h-1.567v-4.21q0-.618-.328-.903a1.18 1.18 0 0 0-.804-.289q-.566 0-.885.354-.315.35-.315.911v4.137H74.86v-4.275q0-.514-.31-.82-.307-.307-.804-.307-.337 0-.613.173a1.2 1.2 0 0 0-.44.479 1.5 1.5 0 0 0-.165.717v4.033zm10.913 2.487v-9.12h1.537v1.097h.091q.12-.241.341-.514.22-.276.596-.47.375-.2.959-.199.768 0 1.386.393.622.388.984 1.153.368.76.368 1.865 0 1.094-.359 1.857-.358.764-.976 1.166a2.5 2.5 0 0 1-1.399.402q-.57 0-.946-.19a1.9 1.9 0 0 1-.604-.458 3 3 0 0 1-.35-.514h-.065v3.532zm1.533-5.803q0 .643.181 1.127.186.483.532.756.35.267.846.267.518 0 .868-.276.35-.28.527-.764.18-.489.181-1.11 0-.618-.177-1.097a1.64 1.64 0 0 0-.527-.751q-.35-.272-.872-.272-.501 0-.85.263-.35.264-.532.738-.177.475-.177 1.119m9.003 3.446q-.997 0-1.723-.415a2.8 2.8 0 0 1-1.11-1.183q-.387-.769-.388-1.809 0-1.024.389-1.797a2.94 2.94 0 0 1 1.097-1.209q.703-.436 1.653-.436.614 0 1.158.199.548.194.967.604.423.41.665 1.045.242.63.242 1.503v.479h-5.437v-1.053h3.938a1.7 1.7 0 0 0-.194-.799 1.4 1.4 0 0 0-.531-.557 1.5 1.5 0 0 0-.786-.203q-.48 0-.842.233-.363.229-.566.605-.198.37-.203.816v.919q0 .579.212.994.212.41.591.63.38.216.89.216a1.9 1.9 0 0 0 .618-.095q.276-.1.479-.289a1.2 1.2 0 0 0 .306-.471l1.46.164a2.3 2.3 0 0 1-.527 1.011 2.6 2.6 0 0 1-.984.665q-.6.233-1.374.233m7.584-6.763v1.21h-3.813v-1.21zm-2.871-1.589h1.563v6.227q0 .316.095.484a.5.5 0 0 0 .259.224 1 1 0 0 0 .354.061q.147 0 .268-.022.125-.021.19-.039l.263 1.222a3 3 0 0 1-.358.095q-.23.052-.562.061a2.6 2.6 0 0 1-1.058-.177 1.65 1.65 0 0 1-.747-.613q-.27-.415-.267-1.037zm4.179 8.222v-6.633h1.563v6.633zm.786-7.574a.9.9 0 0 1-.64-.246.8.8 0 0 1-.267-.6q0-.354.267-.601a.9.9 0 0 1 .64-.25q.375 0 .639.25a.8.8 0 0 1 .267.601.8.8 0 0 1-.267.6.9.9 0 0 1-.639.246m5.696.941v1.21h-3.813v-1.21zm-2.871-1.589h1.563v6.227q0 .316.095.484a.5.5 0 0 0 .259.224 1 1 0 0 0 .354.061q.147 0 .268-.022.125-.021.19-.039l.263 1.222a3 3 0 0 1-.358.095q-.23.052-.562.061a2.6 2.6 0 0 1-1.058-.177 1.66 1.66 0 0 1-.747-.613q-.272-.415-.267-1.037zm4.179 8.222v-6.633h1.563v6.633zm.786-7.574a.9.9 0 0 1-.64-.246.8.8 0 0 1-.267-.6q0-.354.267-.601a.9.9 0 0 1 .64-.25q.375 0 .639.25a.8.8 0 0 1 .267.601.8.8 0 0 1-.267.6.9.9 0 0 1-.639.246m5.277 7.704q-.971 0-1.684-.428a2.9 2.9 0 0 1-1.105-1.196q-.389-.768-.389-1.796t.389-1.801q.393-.772 1.105-1.2.713-.428 1.684-.428.972 0 1.685.428.712.428 1.101 1.2.393.773.393 1.801t-.393 1.796a2.87 2.87 0 0 1-1.101 1.196q-.713.428-1.685.428m.009-1.253q.527 0 .881-.289.354-.294.527-.786.177-.492.177-1.097 0-.609-.177-1.101a1.74 1.74 0 0 0-.527-.79q-.354-.294-.881-.294-.54 0-.898.294a1.8 1.8 0 0 0-.531.79 3.3 3.3 0 0 0-.173 1.101q0 .605.173 1.097.177.492.531.786.358.29.898.289m6.06-2.763v3.886h-1.564v-6.633h1.494v1.127h.078a1.9 1.9 0 0 1 .73-.885q.505-.328 1.248-.328.686 0 1.196.294.514.293.795.85.285.558.28 1.352v4.223h-1.563v-3.981q0-.665-.345-1.041-.342-.375-.946-.376-.41 0-.73.182-.315.177-.496.514-.177.336-.177.816"/><defs><clipPath id="a"><path fill="#fff" d="M45.029 14h90.331v96.411H45.029z"/></clipPath></defs></svg>