<svg xmlns="http://www.w3.org/2000/svg" width="180" height="101" fill="none" viewBox="0 0 180 101"><g fill="#fff" clip-path="url(#a)"><path d="M60.944 73.64c-.573-.498-1.192-.959-1.715-1.507-3.92-4.112-6.911-8.813-9.112-14.059-1.146-2.733-1.815-5.56-2.434-8.44-1.018-4.725-1.096-9.485-.403-14.22.752-5.162 2.147-10.154 4.714-14.785 1.761-3.173 3.692-6.217 6.246-8.776a63 63 0 0 1 6.824-5.922c1.96-1.462 4.195-2.559 6.317-3.796.993-.582 1.587-.258 1.595.864.017 2.213-.02 4.431.025 6.645.016.801-.349 1.167-1.03 1.44-2.62 1.052-5.03 2.485-7.235 4.241-3.285 2.613-6.23 5.595-8.497 9.12-1.566 2.439-2.795 5.118-3.996 7.767-1.428 3.148-1.985 6.52-2.172 9.964-.054.996-.274 1.98-.311 2.978-.146 4.228.672 8.335 1.997 12.301 1.529 4.586 3.842 8.793 6.882 12.576.69.856 1.404 1.695 2.085 2.554.195.25.32.557.474.835-.088.075-.17.154-.258.229zm59.075-.776c.328-.49.657-.985.989-1.475 1.923-2.844 3.954-5.623 5.723-8.56.93-1.544 1.441-3.351 2.081-5.062 1.092-2.916 1.723-5.956 1.977-9.042.17-2.084-.054-4.203-.112-6.308-.013-.378-.088-.756-.108-1.134-.204-3.65-1.263-7.081-2.605-10.458-1.715-4.332-4.373-8.045-7.496-11.417-2.725-2.945-5.81-5.499-9.474-7.252-.826-.394-1.711-.693-2.5-1.15-.32-.183-.639-.677-.648-1.034a206 206 0 0 1-.012-7.16c.008-.868.515-1.147 1.308-.756 6.022 2.957 11.239 6.902 15.421 12.214 2.189 2.779 3.912 5.794 5.378 8.988 1.583 3.451 2.754 7.01 3.14 10.815.212 2.077.627 4.136.814 6.217.254 2.833-.095 5.632-.751 8.398-.2.835-.254 1.703-.449 2.542-1.263 5.424-3.314 10.528-6.566 15.06-1.599 2.23-3.526 4.227-5.316 6.32-.154.183-.399.291-.598.432l-.191-.174zM90.278 41.868c-.237-2.247-.502-4.493-.706-6.744-.183-2.027-.116-4.096-.498-6.077-.665-3.463-.752-6.96-1.014-10.453-.22-2.912-.614-5.81-1.013-8.701-.041-.29-.644-.69-1.005-.715-1.69-.107-3.39-.128-5.084-.116-.701.004-.996-.178-.984-.926.037-2.18.004-4.36.025-6.541 0-.407.058-.843.22-1.209.083-.187.52-.407.69-.34a25.8 25.8 0 0 0 12.094 1.79c1.063-.096 2.093-.557 3.148-.81.868-.208 1.752-.353 2.625-.532.2-.041.41-.087.585-.183.889-.502 1.155-.44 1.188.553.083 2.525.079 5.05.038 7.575 0 .208-.52.573-.81.586a96 96 0 0 1-4.876.091c-.856 0-1.205.328-1.28 1.217-.307 3.713-.693 7.418-1.042 11.122-.336 3.564-.635 7.136-.992 10.699-.316 3.152-.682 6.3-1.03 9.453-.009.095-.071.182-.113.274-.058 0-.12-.008-.178-.008zm-7.023 55.579c-.158-1.01-.15-1.026.727-1.026 1.055 0 2.114.016 3.169-.009.453-.008.627.167.598.607-.058.913.174 1.856-.37 2.712-.274.432-.64.689-1.146.689-2.783.004-5.565.009-8.348-.008-.73-.004-1.516-.797-1.528-1.537a117 117 0 0 1 0-4.012c.008-.594.698-1.329 1.3-1.408a14 14 0 0 1 1.736-.14c2.072-.017 4.14-.022 6.213.008.748.012 1.55.029 1.927.872.116.253.145.548.228.872-.61.033-1.125.24-1.474-.374-.07-.125-.39-.145-.594-.145-2.371-.005-4.747 0-7.118.008-.702 0-1.064.37-1.076 1.076-.017.839-.02 1.682 0 2.525.017.772.399 1.146 1.163 1.146q3.363.006 6.728 0c.768 0 1.171-.353 1.2-1.117.017-.386-.095-.764-.652-.748-.88.025-1.76.009-2.679.009zm86.445 2.94h-1.171v-1.18c0-1.748.017-3.492-.008-5.24-.005-.474.157-.603.623-.665 1.017-.133 1.702.457 2.437.963 1.566 1.08 3.128 2.16 4.681 3.252.59.411 1.155.856 1.745 1.271.141.1.328.141.494.208.083-.208.228-.411.232-.62.025-1.183.013-2.37.013-3.558 0-.303.008-.603 0-.906-.013-.453.228-.594.648-.598.436-.004.61.162.606.615a340 340 0 0 0 0 5.885c0 .432-.125.556-.577.627-1.155.17-1.965-.399-2.82-1.026-1.649-1.217-3.344-2.375-5.017-3.559-.573-.407-1.151-.81-1.886-1.325zm-119.508-.012c-.893.12-1.69.207-2.222-.706-.133-.229-.561-.39-.856-.395a214 214 0 0 0-6.529 0c-.307.004-.756.137-.889.361-.519.856-1.258.897-2.2.735.377-.54.701-1.071 1.091-1.544 1.001-1.21 2.035-2.389 3.045-3.589.42-.498.822-1.013 1.233-1.516.453-.552 1.404-.577 1.92.008.734.831 1.42 1.703 2.121 2.559 1.072 1.308 2.143 2.612 3.21 3.925.026.029.034.07.08.17zm-3.718-2.314c-.037-.2-.02-.378-.1-.469-.726-.847-1.486-1.67-2.205-2.525-.29-.349-.477-.324-.743.016-.403.52-.847 1.005-1.263 1.512-.353.432-.685.877-1.03 1.313.042.054.084.103.125.157h5.216zm101.849 2.293c.723-.835 1.384-1.574 2.015-2.334.756-.914 1.482-1.857 2.23-2.779.424-.527.86-1.046 1.296-1.561.411-.486 1.375-.503 1.782-.017 1.279 1.537 2.541 3.086 3.812 4.627.548.664 1.101 1.32 1.724 2.064-.976.12-1.774.241-2.28-.719-.108-.203-.482-.37-.735-.374a286 286 0 0 0-6.795 0c-.241 0-.602.133-.702.32-.511.943-1.321.926-2.347.773m9.138-2.284c-.092-.254-.108-.457-.216-.582-.702-.822-1.437-1.62-2.127-2.45-.299-.362-.486-.291-.747.02-.532.636-1.101 1.246-1.629 1.886-.261.316-.469.677-.772 1.126h5.495zM11.509 99.345v1.08h-.765c-2.392 0-4.8-.146-7.176.054-1.89.158-3.693-1.736-3.56-3.614.108-1.565.735-2.65 2.11-3.268.523-.237 1.171-.266 1.765-.27 2.351-.025 4.702 0 7.052 0 .428 0 .603.129.61.594.01.494-.165.631-.634.627-1.749-.017-3.493-.008-5.242 0-.797 0-1.599.054-2.392.017-1.246-.063-2.58 2.051-1.873 3.24.648 1.096 1.404 1.544 2.616 1.523 2.285-.037 4.573-.012 6.857-.008.191 0 .382.017.636.03zm47.221-4.727v5.757h-1.02c-.02-.196-.054-.382-.054-.57 0-1.939.012-3.883-.013-5.822-.008-.52.191-.632.673-.686 1.076-.124 1.765.59 2.53 1.093 1.511.997 2.973 2.072 4.452 3.119.59.42 1.163.856 1.752 1.27.503.354.74.237.777-.402.037-.602.017-1.209.02-1.81 0-.865.017-1.729-.003-2.588-.013-.466.153-.665.635-.665.474 0 .57.212.57.636-.017 1.985-.01 3.966-.01 5.951 0 .146-.024.291-.032.424-1.367.432-2.376-.195-3.398-.951-1.653-1.221-3.36-2.368-5.038-3.547-.407-.287-.801-.598-1.208-.885-.145-.104-.316-.17-.619-.328zm-34.467 1.799c1.23 0 2.463-.03 3.688.012.61.02.814-.233.797-.793-.012-.582.009-1.167 0-1.749-.008-.473.279-.569.673-.573.424-.004.561.195.561.598-.008 1.985-.012 3.97 0 5.956 0 .411-.133.581-.565.569-.39-.013-.677-.038-.664-.544.016-.623-.013-1.25-.025-1.877-.009-.378-.137-.578-.578-.578-2.612.017-5.22.017-7.832 0-.47 0-.603.204-.599.62.009.601-.016 1.208.005 1.81.016.415-.125.577-.557.565-.378-.013-.602-.067-.598-.528.017-2.006.012-4.012 0-6.022 0-.432.195-.56.59-.569.42-.008.577.17.565.582-.021.627.008 1.25-.005 1.877-.008.465.18.656.657.652 1.296-.017 2.587-.004 3.883-.004v-.009zm110.866 4.007c-1.317 0-2.633.009-3.95 0-.947-.008-1.611-.656-1.615-1.59-.013-1.64 0-3.281-.009-4.922 0-.353.067-.577.486-.581.428-.004.561.187.557.59a220 220 0 0 0 0 4.144c.008.906.357 1.25 1.254 1.25h6.541c.955 0 1.346-.394 1.354-1.378.009-1.296.013-2.592 0-3.883-.004-.457.083-.736.631-.736.549 0 .565.303.561.71-.012 1.533.025 3.066-.025 4.598-.025.727-.378 1.346-1.075 1.666-.221.103-.495.128-.744.132-1.316.013-2.633.005-3.95.009zm-24.496-7.018c1.009-.1 1.74-.208 2.455.477.88.847 1.91 1.541 2.899 2.268.128.095.452.091.585-.008 1.001-.744 2.031-1.462 2.945-2.305.702-.644 1.433-.495 2.193-.482l.12.187c-.415.357-.818.726-1.246 1.067-1.092.872-2.218 1.707-3.285 2.608-.233.2-.365.607-.399.93-.062.599-.033 1.205-.016 1.807.012.428-.229.482-.578.482-.344 0-.593-.042-.581-.478.017-.494-.054-1 .017-1.487.095-.693-.229-1.133-.719-1.52-1.271-.996-2.546-1.985-3.817-2.982-.162-.124-.295-.286-.573-.569zm-7.584 4.041h-5.39c-.69 0-1.38.029-2.065-.025-.15-.013-.382-.312-.382-.474 0-.174.237-.494.37-.494 2.471-.03 4.938-.02 7.463-.02v1.017z"/></g><defs><clipPath id="a"><path fill="#fff" d="M0 0h180v100.487H0z"/></clipPath></defs></svg>