<svg xmlns="http://www.w3.org/2000/svg" width="183" height="33" fill="none" viewBox="0 0 183 33"><g fill="#E8D398" clip-path="url(#a)"><path d="m74.292 14.766-2.278 4.292c.744.034 1.284.04 1.818.074.872.055 1.352.496 1.379 1.352.047 1.759.345 2.839-2.42 2.703-1.683-.082-3.379 0-5.069-.02-1.203-.014-1.514-.422-1.622-1.63-.101-1.135.27-2.099.818-3.03.554-.95 1.156-1.88 1.723-2.825.298-.489.197-.815-.35-1.039-.771-.319-1.562-.563-2.333-.876-.554-.23-.669-.556-.385-1.045 1.014-1.78 1.703-3.715 2.541-5.576.52-1.155.967-2.35 1.48-3.511.23-.523.71-.686 1.318-.482 1.048.353 2.102.7 3.136 1.107.676.265.784.747.447 1.46-.71 1.521-1.427 3.035-2.13 4.557-.29.638-.25.658.48 1.052.663.36 1.413 1.107 2.028.72.554-.346.737-1.317 1.04-2.03.913-2.14 1.799-4.292 2.704-6.438.25-.584.67-.673 1.264-.354q1.329.724 2.677 1.386c.919.448.899.577.601 1.582-.094.313-.277.598-.466.998.399.02.723.055 1.047.055 1.339 0 1.325 0 .818-1.331-.115-.306-.162-.645-.216-.971-.068-.442.074-.74.554-.883.953-.279 1.886-.625 2.846-.89.534-.142.831.21 1.007.68.33.882.736 1.745.946 2.661.128.578.351.72.879.747 1.919.102 1.912.116 1.899 2.004v.51q-.034.827-.859.875c-1.92.102-2.02.217-1.872 2.037.034.38.122.66.581.639.284-.014.568-.027.845 0 .683.068.9.278.947.93.027.34 0 .68 0 1.019 0 1.67 0 1.705-1.622 1.772-.622.028-.791.272-.75.822.02.279-.014.564.006.85.047.794.21.95 1.007 1.038q1.38.15 1.365 1.562c-.013 1.447-.175 1.657-1.743 1.827-.697.075-.636.489-.622.944.013.733.25 1.1.757 1.087.263 0 .527-.163.797-.211.723-.136 1.122.115 1.142.822.02.78-.06 1.562-.094 2.343-.75.156-1.5.4-2.258.448-1.29.081-2.588 0-3.886.061a48 48 0 0 0-3.818.346c-.291.041-.534.435-.839.496-.54.116-1.101.122-1.656.143-.79.02-1.574.027-2.365 0-.676-.027-.912-.258-.96-.91-.033-.448-.006-.904-.006-1.358 0-3.28-.055-6.568.033-9.848.034-1.202-.365-1.928-1.446-2.343-.264-.102-.507-.237-.865-.407zm8.773-1.433q1.358.007 1.318-1.4v-.332c-.068-.686-.25-.924-.913-.937-1.629-.027-1.48-.15-1.493 1.385v.17q.012 1.107 1.094 1.114zm-1.095 5.032c0 1.474 0 1.48 1.324 1.406.872-.048 1.041-.218 1.089-1.12.013-.28-.007-.564 0-.843.02-.462-.115-.76-.65-.74q-.587.03-1.175 0c-.44-.02-.588.224-.595.611v.672zm1.156 4.822q-1.177-.015-1.156 1.222c0 .224.013.455.027.68.02.352.223.481.554.475.284-.007.56-.02.845-.007.446.02.858-.156.926-.57.08-.537-.02-1.1-.068-1.658 0-.054-.176-.129-.27-.136-.277-.02-.561 0-.845 0zM59.7 20.342v7.64c0 1.487.013 1.365-1.413 1.324-1.17-.034-2.325-.04-3.5-.245-1.312-.23-2.698-.054-4.05-.081-.83-.014-.837-.04-.878-.863-.02-.393 0-.794 0-1.188q0-1.61 1.561-1.684c.98-.048 1.15-.19 1.156-1.216.014-2.6.02-5.202 0-7.81-.007-.978-.19-1.14-1.21-1.154-1.014-.014-2.027.027-3.041 0-.805-.02-1.264.387-1.467 1.114a124 124 0 0 0-1.007 3.864c-.696 2.852-1.365 5.718-2.082 8.57-.074.299-.324.639-.594.774-.23.116-.595-.006-.886-.067a316 316 0 0 1-5.035-1.033c-.831-.176-.96-.448-.757-1.304.534-2.261 1.027-4.536 1.595-6.79.473-1.882 1.048-3.736 1.548-5.61.514-1.929.987-3.871 1.46-5.807.142-.59-.061-.849-.656-.855-1.129-.02-2.25.013-3.38-.014-.79-.02-.966-.224-1.033-1.012q-.23-2.73 2.555-2.73h21.959c1.831 0 1.831 0 1.831 1.908 0 .34.02.68-.013 1.019-.048.523-.331.815-.879.822h-1.183c-3.325 0-6.644-.007-9.969 0-1.331 0-1.602.265-1.804 1.636l-.244 1.596c.602.061 1.203.163 1.805.163 2.534.007 5.069-.027 7.603-.027 2.352 0 1.98-.305 2.001 1.915.02 2.377 0 4.754 0 7.131zm73.149-7.328c1.575 0 3.157-.014 4.732 0 1 .013 1.155.183 1.189 1.188.02.564.014 1.134 0 1.698-.013.543-.331.822-.858.828-.791.014-1.575 0-2.366 0-1.189.014-1.514.224-1.804 1.304-.278 1.019-.467 2.058-.724 3.084-.189.753-.466 1.48-.648 2.234-.142.584.074.835.662.855.223.007.453 0 .676-.013.791-.068 1.047-.272 1.014-1.019a6.8 6.8 0 0 0-.372-1.786c-.338-.978-.081-1.494.872-1.596.385-.04.777-.075 1.155-.163.994-.23 1.102-.183 1.508.74.047.102.162.204.155.3-.189 1.663.838 3.13.757 4.774-.027.488-.142 1.066.439 1.35.291.143.514-.46.561-1.37.102-1.964.122-3.933.379-5.875.304-2.33.514-4.666.737-6.995.067-.7-.251-.856-.595-1.155-.075-.06-.21-.054-.325-.068-.486-.047-1.203.19-1.345-.394-.196-.794-.162-1.663-.115-2.492.014-.19.474-.441.764-.516.636-.156 1.474.292 1.899-.312.311-.449.115-1.223.352-1.76.311-.712.25-1.425.284-2.152.04-.87.047-.896.824-.903 1.129-.014 2.258-.027 3.38.047.48.027.966.218 1.419.421.297.136.48.394.358.822-.223.795-.372 1.616-.527 2.431-.189.965.128 1.359 1.122 1.386.96.02 1.913-.02 2.872.013.791.027.974.238 1.028 1.012.013.17 0 .34 0 .51V27.77c0 .224.007.455 0 .679-.027.543-.338.822-.859.849a19.6 19.6 0 0 1-4.832-.367c-.149-.027-.338-.278-.365-.455-.061-.387-.034-.788-.027-1.182.02-1.113.027-1.113 1.162-1.405.73-.184.838-.3.845-1.189.014-3.171 0-6.336 0-9.507 0-.734.014-1.474 0-2.208-.007-.332-.027-.685-.155-.978-.115-.264-.169-.767-.629-.617-.216.068-.459.366-.513.604-.163.76-.332 1.535-.338 2.309-.014 2.132-.277 4.23-.676 6.323-.054.271-.027.563-.021.848.048 1.576-.202 3.104-.581 4.632-.189.747-.061 1.576-.094 2.363-.034.809-.048.863-.899.822-1.447-.068-2.893-.197-4.333-.326-.202-.02-.452-.115-.588-.258-.371-.414-.696-.38-1.182-.163-.44.197-.974.19-1.467.244-.135.014-.352 0-.419-.088-.913-1.168-2.102-.747-3.251-.604-1.487.183-2.967.394-4.461.523-.858.074-1.169-.258-1.304-1.128-.122-.767-.223-1.541-.331-2.309-.014-.108-.041-.258.013-.332.568-.815.548-1.8.811-2.703.23-.802.554-1.576.521-2.445-.007-.312.216-.625.31-.944.122-.428.244-.856.318-1.29.081-.469-.088-.74-.622-.754-.432-.007-1.027.04-1.25-.21-.237-.266-.149-.85-.155-1.291-.028-2.207-.156-2.248 2.21-2.214 1.236.02 2.48 0 3.717 0zM1.142 20.165c.311.455.696.876.926 1.365.683 1.48 1.764 2.547 3.075 3.477 1.764 1.243 3.69 2.092 5.772 2.513 1.143.23 2.36.06 3.535.108 3.616.136 6.8-1.181 9.645-3.232 2.264-1.637 3.602-3.946 3.494-6.893-.02-.625.027-1.25-.013-1.868-.17-2.804-1.325-5.107-3.623-6.75-.44-.313-1.014-.435-1.514-.672-.926-.435-1.717-.924-2.034-2.065-.27-.958-.825-1.84-1.312-2.723-.425-.781-1.027-.842-1.595-.13-.621.788-1.21 1.61-1.703 2.486-.595 1.046-1.433 1.44-2.602 1.508a26 26 0 0 0-3.947.543c-.615.13-1.007-.02-1.298-.462-.27-.414-.453-.882-.642-1.344-.101-.252-.08-.564-.203-.802-.669-1.29-1.094-1.358-2.081-.292-.379.408-.737.87-.953 1.365-1.041 2.384-2.041 4.795-3.001 7.077-.284-1.107-.23-1.365.108-2.615.385-1.44.825-2.866 1.446-4.224.42-.91.852-1.854 1.48-2.621.94-1.148 2.204-1.63 3.745-1.359 1.852.326 3.636 1.026 5.556.944.317-.013.635-.067.932-.101.014-.163.034-.231.014-.279q-.296-.66-.602-1.31c.561-.333 1.109-.924 1.676-.945 1.832-.067 3.69-.34 5.509.238 1.156.367 2.365.537 3.494 1.032 2.893 1.27 5.09 3.24 6.576 6.085 1.656 3.158 1.839 6.533 1.602 9.943-.135 1.928-.54 3.857-1.04 5.725-.514 1.921-1.602 3.592-3.231 4.78-.65.476-1.494.714-2.285.951-.52.157-.932-.081-1.156-.686-.385-1.018-.446-1.1-1.426-.957-1.804.258-3.622.489-5.299 1.304-1.02.495-1.75 1.181-1.723 2.404.014.672-.426.794-.879.659-.892-.259-1.79-.557-2.622-.972-1.048-.516-2.028-1.168-3.041-1.745-.386-.224-.778-.468-1.197-.604-.682-.224-1.081.034-1.385.774-.399.964-.609 1.039-1.447.496-.23-.15-.452-.34-.635-.544-1.413-1.535-2.548-3.26-3.291-5.215a27 27 0 0 1-.866-2.696C.946 21.326.94 20.783.88 20.26c.088-.027.182-.061.27-.088zM105.99 7.227c-1.115.686-1.372 1.474-1.358 2.547.054 5.888.027 11.77.027 17.657v.68c-.014 1.201-.021 1.249-1.19 1.201-1.784-.074-3.568-.217-5.346-.319-.426-.027-.595-.23-.588-.638 0-.85.007-1.698 0-2.547 0-.441.237-.57.629-.59.547-.028 1.297.094 1.581-.204.291-.313.142-1.06.162-1.61.02-.448 0-.896 0-1.487-.216.095-.351.122-.439.203-.98.856-1.135.87-2.061.089-.257-.218-.487-.469-.724-.713-.919-.985-.905-1.046-.02-2.01.906-.992 1.818-1.99 2.663-3.036.298-.374.46-.89.568-1.365.067-.292.007-.822-.17-.917-.459-.244-.62.23-.844.557-.622.89-.885.903-1.69.15a24 24 0 0 1-1.318-1.318c-.52-.57-.513-.842.028-1.44.858-.944 1.69-1.915 2.615-2.784.446-.421.42-.734.115-1.128-.48-.618-.96-1.236-1.487-1.813-.44-.482-.243-.815.169-1.107a31 31 0 0 1 1.67-1.107c.513-.326 1.061-.903 1.554-.869.487.034.973.659 1.385 1.1.325.34.602.238.994.224.378-.013.811.313 1.156.577.399.306.723.714 1.095 1.06.317.299.574.903 1.068.068.128-.218.844-.068 1.29-.13.974-.135 1.116-.305 1.143-1.29V4.24c.027-1.012.033-1.018 1.034-1.032 1.014-.013 2.027-.027 3.041 0 .784.027.967.245 1.021 1.019.013.17.027.346 0 .51-.304 1.547.838 1.704 2.048 1.317.385-.123.628-.326.655-.829.115-2.037.142-2.037 2.204-2.03q1.777 0 1.838 1.724c.034.972.068 1.128 1.156 1.243.77.082.953.374.899 1.046-.034.394 0 .795-.007 1.189-.034 1.005-.115 1.147-1.163 1.208-.621.034-.953.177-.899.863.021.271-.033.563-.128.815-.155.434-.378.78-.966.713-.616-.068-1.237 0-1.859-.02-.825-.028-.973-.177-1.082-.958-.033-.224.007-.455-.027-.68-.067-.447-.351-.692-.804-.712a7 7 0 0 0-.845 0c-.77.04-.899.183-1.02 1.018-.142.999-.379 1.284-1.298 1.332-.953.047-1.913.013-2.872.013-.528 0-.845-.265-.913-.794-.034-.279 0-.571-.034-.85-.06-.448-.344-.692-.797-.712-.284-.014-.568.013-.845-.014-.797-.068-.953-.217-1.014-1.026-.027-.387 0-.78 0-1.358z"/><path d="M105.99 20.817c0-2.431-.007-4.863 0-7.294 0-.849.027-.883.838-.883q7.26-.009 14.519 0c.811 0 .845.048.845.883.007 4.639.013 9.27 0 13.909 0 1.045-.473 1.5-1.555 1.507-2.926.027-5.853.014-8.78.048-1.392.013-2.778-.02-4.17.258-1.42.278-1.69-.055-1.697-1.474-.007-2.316 0-4.638 0-6.954m5.083 3.219c0 .387-.04.788.014 1.168.06.441.378.665.817.672.447 0 .778-.23.805-.672a14 14 0 0 0 0-2.003c-.034-.435-.345-.68-.805-.68-.446 0-.736.245-.811.68-.047.271-.006.556-.006.835zm7.428.02v-.842c-.04-.597-.257-.76-.838-.7-.52.055-.818.327-.838.85-.02.502.014 1.005-.013 1.507-.027.496.182.693.675.713.866.034.981-.047 1.021-.862.007-.224 0-.448 0-.673zm-7.448-6.43v.671c0 .401-.034.802.541.836.662.04 1.047-.17 1.101-.734a8.3 8.3 0 0 0-.006-1.677c-.061-.523-.521-.734-1.156-.666-.473.055-.48.374-.487.72v.842zm7.448.074c0-.34-.013-.673 0-1.012.021-.543-.29-.645-.743-.639-.521.014-.879.245-.919.768a8.2 8.2 0 0 0 .013 1.684c.061.476.602.706 1.203.618.48-.068.44-.414.446-.747zm38.524 1.97c0-2.717-.006-5.434 0-8.15 0-.87.027-.89.818-.904a89 89 0 0 1 3.548 0c.784.02.994.218 1.008 1.02.027 1.643.006 3.28.006 4.923 0 2.716-.006 5.433 0 8.15 0 .848.034.875.838.875 2.251 0 4.529.183 6.752-.088 2.129-.258 4.245-.19 6.36-.272 1.055-.04 1.021-.068 1.298-1.1.237-.883.291-1.752.291-2.655-.014-3.056 0-6.112 0-9.168 0-.394-.007-.795.013-1.189.027-.455.297-.754.737-.78a16 16 0 0 1 2.196 0c.575.04 1.014.522 1.102 1.093.02.108.007.224.007.34 0 5.147-.007 10.301.013 15.449 0 .7-.317 1.053-.926 1.202a5.7 5.7 0 0 1-1.311.19c-1.913.027-3.846-.122-5.738.068-4.035.408-8.07.231-12.105.333-1.223.034-2.44.238-3.663.272-1.081.034-1.237-.157-1.244-1.29-.013-2.772 0-5.55 0-8.32"/><path d="M163.074 17.027c0-2.2.034-4.4-.013-6.608-.02-1.127-.088-1.16.906-1.168q6.234-.02 12.47 0c.818 0 .838.041.838.877.007 4.067.014 8.128 0 12.196 0 1.06-.466 1.488-1.534 1.535-2.846.122-5.691.224-8.53.367-.94.047-1.866.251-2.805.278-1.183.027-1.311-.142-1.318-1.385-.014-2.03 0-4.068 0-6.099h-.007zm10.856-3.66v-.503c-.041-.821-.068-.855-.859-.855-.831 0-.838.006-.865 1.018-.007.34.013.673 0 1.012-.02.503.203.686.696.693.94.02 1.007-.02 1.034-1.026v-.34zm-1.724 5.772v.51c.034.815.061.842.865.835.791 0 .831-.04.859-.856.013-.34.027-.679 0-1.012-.061-.645-.433-.876-1.19-.828-.602.034-.514.468-.527.849v.51zm-4.704.109c0 .278-.081.59.02.822.115.271.378.631.601.652.21.02.609-.333.649-.57a4.7 4.7 0 0 0 .007-1.658c-.04-.251-.372-.625-.595-.638-.216-.014-.534.312-.669.563-.115.218-.02.544-.02.822zm1.311-6.234c-.007-.041-.007-.408-.169-.659-.122-.183-.473-.333-.696-.306-.169.02-.406.326-.44.537-.067.434-.033.89-.027 1.338.007.319-.06.7.406.78.46.082.845-.21.919-.726.034-.217 0-.448 0-.957zm.527-5.454h-10.28c-.392 0-.784.014-1.183-.006-.52-.027-.838-.299-.852-.842a53 53 0 0 1 0-2.03c.014-.544.345-.802.865-.83.338-.013.676 0 1.014 0h21.236c.338 0 .676-.006 1.014 0 .534.021.831.313.838.843.014.679.02 1.358 0 2.03-.013.537-.318.815-.858.829-.392.007-.784 0-1.183 0h-10.618zm-36.646 1.719c-1.514 0-3.028.013-4.542 0-.993-.014-1.162-.197-1.196-1.182a23 23 0 0 1 0-1.691c.02-.523.317-.822.845-.862.115-.007.223 0 .338 0 3.028 0 6.063-.007 9.091 0 .831 0 .865.034.865.848 0 .897-.048 1.793-.075 2.69-.878.068-1.75.163-2.629.197-.899.034-1.798.006-2.69.006zm-57.82 17.46c0 .285.013.563 0 .849-.054.794-.237.91-1 1.052-1.995.367-4.009.32-6.016.354-.332 0-.683.02-.994.115-.568.183-.69-.177-.764-.577-.121-.713.163-1.46-.243-2.167-.068-.122.257-.624.5-.74.44-.204.953-.326 1.44-.353 2.007-.115 4.022.007 6.029-.34.764-.135.987.19 1.04.958.021.278 0 .564 0 .849zM16.41 17.061c-1.068-.122-2.413.15-3.67.85-.162.087-.392.047-.595.067.068-.238.061-.564.217-.693 1.696-1.392 3.562-2.024 5.725-1.202.196.075.378.224.54.367.075.061.142.217.108.292-.054.129-.182.306-.29.312-.561.034-1.122.014-2.035.014zm-6.549 1.121c-.02.095-.013.224-.067.278-.237.231-.467.476-.75.646-1.204.72-2.11.292-2.373-1.114-.027-.156.196-.516.257-.51.953.163 1.892.367 2.838.571.041.007.068.081.102.129zm-6.914-3.98c.71-.428 1.318-.129 1.764.245.399.326.608.89.865 1.372.054.108-.013.353-.108.448-.081.075-.351.081-.433 0-.703-.672-1.385-1.365-2.088-2.065"/></g><defs><clipPath id="a"><path fill="#fff" d="M.872.742h181.14V32.39H.873z"/></clipPath></defs></svg>