<svg xmlns="http://www.w3.org/2000/svg" width="168" height="56" fill="none" viewBox="0 0 168 56"><path fill="#DB331E" d="M65.053 7.422c-.324.136-.574.23-.816.347-2.108 1.006-4.345 1.485-6.65 1.704-1.768.166-3.532.23-5.303.041-.918-.098-1.407-.527-1.332-1.217.075-.686.66-1.052 1.533-.996 2.965.193 5.896.03 8.768-.814 2.275-.667 4.296-1.802 6.102-3.34.783-.667 1.558-1.346 2.35-2.01.156-.131.342-.222.618-.399-.015.268.011.422-.037.554-.742 2.1-1.388 4.234-2.484 6.19-1.98 3.544-4.964 5.621-8.902 6.337-2.962.54-5.938.392-8.917.245-3.566-.173-7.135-.414-10.708-.045-5.337.558-10.13 2.454-14.247 5.96-1.674 1.429-3.11 3.073-3.953 5.172a5.3 5.3 0 0 0-.38 2.21c.07 1.71 1.413 2.736 3.017 2.156.828-.298 1.6-.834 2.301-1.388 1.47-1.157 2.86-2.416 4.307-3.6a27.2 27.2 0 0 1 7.392-4.324c.261-.101.526-.203.765-.346.444-.272.623-.668.466-1.015-.183-.407-.556-.497-.94-.437a11 11 0 0 0-1.361.317c-3.282.957-6.15 2.688-8.738 4.9-.97.83-1.831 1.784-2.741 2.68-.09.088-.165.19-.261.268-.489.389-1.138.381-1.537-.01-.436-.43-.485-.992-.041-1.524.582-.694 1.178-1.383 1.835-2.002 2.338-2.194 4.904-4.067 7.854-5.334 1.253-.539 2.57-.935 3.879-1.32.522-.154 1.108-.165 1.66-.15 1.163.034 2.014.622 2.472 1.7.47 1.109.269 2.157-.48 3.088-.53.652-1.24 1.032-2.007 1.323-2.525.957-4.819 2.33-6.926 4.022-1.313 1.056-2.544 2.217-3.867 3.253-.903.705-1.869 1.365-2.884 1.885-1.323.679-2.707.592-4.035-.105-1.484-.78-2.23-2.055-2.353-3.706-.15-2.002.563-3.762 1.6-5.413 1.619-2.575 3.849-4.517 6.362-6.13 3.018-1.938 6.277-3.325 9.816-3.936 1.466-.252 2.958-.346 4.438-.508 2.828-.31 5.65.037 8.474.064 2.42.022 4.845.162 7.265.101 1.936-.045 3.808-.493 5.542-1.458 1.197-.668 2.133-1.614 3.002-2.647.049-.056.045-.158.09-.34z"/><path fill="#DB331E" d="M63.826 13.476c-.026.275 0 .433-.056.562-.925 2.228-1.704 4.516-2.935 6.612-2.368 4.037-5.583 7.11-9.823 9.059-.254.117-.511.24-.783.301-.6.132-1.108-.136-1.298-.644-.217-.573-.015-1.12.56-1.425.88-.468 1.8-.86 2.65-1.373 2.474-1.481 4.461-3.48 6.076-5.975-.138 0-.224-.026-.276.004-3.834 2.416-8.078 3.68-12.475 4.512-1.958.37-3.871.886-5.714 1.686-2.055.89-3.837 2.186-5.527 3.63-1.853 1.583-3.73 3.132-5.833 4.369-1.514.89-3.091 1.583-4.844 1.874-2.208.365-4.188-.2-6.053-1.335-2.327-1.414-3.506-3.57-3.871-6.231-.508-3.698.67-6.948 2.67-9.949 2.33-3.498 5.572-5.952 9.193-7.935 4.151-2.273 8.556-3.751 13.28-4.037 2.914-.178 5.837-.121 8.754-.166.123 0 .25.003.373.026.66.12 1.044.55 1.026 1.139-.015.584-.426 1.036-1.09 1.066-.742.038-1.491 0-2.237-.034-6.038-.275-11.897.426-17.417 3.148-2.983 1.474-5.78 3.2-8.097 5.625-1.973 2.066-3.46 4.433-4.087 7.283a9.9 9.9 0 0 0 .149 4.93c.899 3.107 4.58 4.717 7.004 4.264a12.2 12.2 0 0 0 3.826-1.429 29 29 0 0 0 5.266-3.875c3.719-3.43 8.071-5.455 13.002-6.318 2.327-.407 4.617-.976 6.836-1.828 2.875-1.105 5.456-2.715 7.899-4.573 1.093-.833 2.148-1.708 3.226-2.556.16-.128.343-.222.623-.407z"/><path fill="#fff" d="M92.133 38.779c.101-.611.187-1.116.28-1.682 3.308-.279 5.867-1.87 7.925-4.342 1.074-1.29 1.712-2.571 1.824-3.582h-2.678c-1.551 2.522-3.431 4.61-6.594 5.38l.243-1.753c3.23-1.44 4.692-4.177 5.337-7.558-.224-.095-.396-.163-.56-.234-1.063-.46-1.447-1.127-1.26-2.319.186-1.21.421-2.412.641-3.615.075-.4.135-.807.258-1.195.365-1.157 1.376-1.99 2.558-1.998 3.666-.026 7.332-.011 11.002-.007.119 0 .235.045.414.083.116.584-.022 1.108-.283 1.696-.351.023-.713.064-1.078.064-2.984.004-5.967 0-8.951.008-.395 0-.787.052-1.272.09-.108.592-.209 1.123-.335 1.802h11.389l-.309 1.742H99.499c-.444.599-.5 1.153-.343 1.82.29.027.56.076.832.076 3.636.004 7.272.007 10.908 0 1 0 1.078-.072 1.268-1.086.232-1.233.448-2.47.679-3.706.313-1.685 1.354-2.582 3.029-2.6.455-.008.91.03 1.499.048-.101.615-.187 1.12-.276 1.674-.574.087-1.085.162-1.686.249-.153.72-.317 1.417-.451 2.115-.157.833-.284 1.67-.429 2.507-.291 1.707-1.373 2.646-3.096 2.654-3.14.01-6.276.003-9.417.003h-1.048a605 605 0 0 1-.63 2.168c.429.019.754.049 1.078.049h11.002c.28 0 .559-.011.839.015.981.09 1.664.807 1.697 1.79a5.4 5.4 0 0 1-.074 1.034c-.344 1.979-.702 3.954-1.052 5.933-.328 1.844-1.373 2.748-3.196 2.763q-1.072.012-2.145 0c-.268 0-.537-.045-.917-.083l.294-1.726 3.376-.087c.533-2.578.984-5.085 1.327-7.671-.913-.306-1.704-.155-2.562-.155-.127.343-.261.652-.358.973-.735 2.416-1.988 4.531-3.7 6.36-.529.565-1.171 1.029-1.767 1.526-1.153.961-2.492.984-3.991.784 1.134-.904 2.23-1.692 3.226-2.593 1-.901 1.779-2.01 2.484-3.167.716-1.18 1.212-2.443 1.6-3.864h-2.685c-.142.302-.291.607-.433.916-2.186 4.84-5.826 7.792-11.043 8.686-.347.06-.716.007-1.205.007zm35.964-15.519c.697 0 1.219-.012 1.738 0 .462.01.936.003 1.391.09 1.089.203 1.697.957 1.604 2.065-.079.905-.265 1.799-.426 2.696-.458 2.593-.928 5.187-1.383 7.784-.052.302-.049.611-.075.947.239.067.41.158.586.162.996.015 1.988.022 2.983 0 .619-.012.798-.155.907-.732.41-2.254.801-4.508 1.193-6.766.015-.083-.022-.178-.048-.359a841 841 0 0 1-3.103-.082c-.179-.649 0-1.139.223-1.72h3.286c.634-1.323 1.242-2.582 1.895-3.946-1.291-.645-2.596-.087-3.857-.419-.029-.554.015-1.086.377-1.67h2.566c.53 0 1.055-.015 1.585.004 1.38.049 2.07 1.108 1.54 2.405-.358.87-.787 1.708-1.178 2.563-.127.28-.246.558-.396.909 1.071.302 2.104 0 3.122.219.228.558.011 1.044-.183 1.65-1.081.03-2.181.061-3.345.091-.231 1.293-.455 2.522-.671 3.751-.194 1.082-.377 2.164-.578 3.242-.344 1.832-1.388 2.707-3.23 2.718a212 212 0 0 1-3.823 0c-1.716-.023-2.514-.969-2.219-2.68.559-3.246 1.152-6.488 1.723-9.73.063-.362.071-.731.108-1.161-.85-.317-1.648-.124-2.502-.173-.097.29-.213.542-.261.806-.578 3.242-1.209 6.48-1.694 9.738-.402 2.695-1.943 3.4-4.251 3.181-.112-.011-.22-.09-.403-.17l.283-1.575c.552-.06 1.037-.11 1.585-.17.105-.305.247-.584.303-.878a7261 7261 0 0 0 2.756-15.57c.052-.297.052-.602.082-.99-.388-.027-.69-.061-.989-.061-1.335-.007-2.67.004-4.009-.007a3.8 3.8 0 0 1-1.01-.117c-.661-.185-1.112-.81-1.041-1.493.063-.615.227-1.222.354-1.878h1.63c.026.528.049.984.067 1.418.686.26 4.192.32 5.367.098q.184-.705.403-1.52h2.237l-.13 1.569c1.425.177 2.868-.015 4.322.113.168.648.004 1.165-.264 1.78h-4.424c-.231 1.274-.447 2.461-.704 3.863zM89.799 36.83l.824.32c.175.54-.06 1.03-.205 1.614-.802.181-1.585.215-2.298-.286-.794-.558-.91-1.372-.746-2.27.325-1.76.65-3.517.963-5.281q1.064-5.978 2.107-11.961c.06-.332.045-.679.07-1.124-.32-.045-.585-.117-.846-.117q-8.111-.01-16.223 0c-.272 0-.548.05-.88.083-.105.32-.24.607-.291.905-.776 4.388-1.54 8.78-2.309 13.171l-1.137 6.492c-.023.12-.082.23-.135.385-.73.192-1.454.158-2.226.022 0-.252-.03-.467.004-.67q1.426-8.069 2.86-16.132c.209-1.176.38-2.356.612-3.524.35-1.75 1.368-2.583 3.14-2.586a8988 8988 0 0 1 17.532 0c.37 0 .75.037 1.1.139.735.211 1.142.75 1.213 1.508a4.7 4.7 0 0 1-.052 1.221c-.687 3.928-1.384 7.853-2.082 11.777-.328 1.855-.667 3.706-.992 5.56-.04.238-.007.49-.007.762zm73.225-13.755h2.084c-.014.935-1.115 3.378-2.327 5.296-1.022 1.621-2.178 3.13-3.606 4.49 1.011 2.775 3.245 3.51 5.844 3.634.25.833-.138 1.516-.201 2.315-1.656.083-3.137-.211-4.558-.92-1.436-.712-2.316-1.945-3.08-3.359-.232.094-.437.143-.612.249-1.734 1.067-3.629 1.632-5.635 1.79-1.212.095-2.398-.056-3.61-.75.302-.312.522-.554.757-.788.22-.218.447-.43.693-.66 2.95.966 5.393-.158 7.799-1.9-.578-3.663-.105-7.301.369-11.026-1.003-.041-1.88-.079-2.861-.124l.325-1.67 2.804-.083c.243-1.214.478-2.398.705-3.544.843-.226 1.526-.222 2.32.02l-.559 3.505c.358.023.652.057.947.057 1.924.003 3.852 0 5.777.003.332 0 .664.027 1.018.046.164.614.06 1.112-.22 1.715-2.54.041-5.106-.008-7.638.026-.619 1.109-1.19 6.842-.873 8.773.187-.163.355-.268.466-.419 1.343-1.742 2.428-3.642 3.316-5.658.112-.257.228-.517.351-.77.041-.079.115-.143.201-.244z"/><path fill="#DB331E" d="M42.352 29c3.103.071 5.486 2.944 4.99 6.024-.358 2.228-1.492 4.037-2.931 5.68-2.186 2.5-4.812 4.434-7.698 6.025a36.5 36.5 0 0 1-5.874 2.62c-.205.072-.41.15-.623.196-.53.11-1.03-.143-1.238-.607a1.085 1.085 0 0 1 .44-1.391c.261-.162.567-.253.858-.362 3.464-1.278 6.724-2.937 9.626-5.266 1.588-1.274 3.062-2.677 4.11-4.449.44-.746.794-1.572 1.025-2.405.313-1.123.093-2.201-.824-3.008-.936-.822-1.995-.924-3.137-.464-1.286.517-2.372 1.354-3.468 2.183-2.062 1.56-4.091 3.174-6.22 4.63-2.451 1.673-5.166 2.729-8.142 3.008-.153.015-.31.056-.463.049-.638-.038-1.085-.457-1.134-1.037s.336-1.056.978-1.172c.641-.117 1.29-.178 1.928-.31 2.51-.52 4.744-1.681 6.795-3.189 2.085-1.53 4.106-3.144 6.165-4.712 1-.762 2.088-1.369 3.285-1.738.5-.154 1.026-.211 1.54-.313zM16.925 14.683q-.277.402-.56.799c-1.029 1.417-2.151 2.774-3.065 4.26-1.73 2.808-2.633 5.895-2.428 9.232.179 2.925 1.197 5.503 3.334 7.558 1.033.992 2.257 1.655 3.603 2.096.414.136.84.241 1.23.426.516.241.706.728.568 1.255-.123.475-.608.83-1.13.81-.153-.007-.306-.056-.455-.093-3.991-1.01-6.777-3.454-8.336-7.284-1.649-4.052-1.362-8.1.179-12.12.186-.486.384-.972.455-1.583-.243.155-.5.29-.727.464a17.5 17.5 0 0 0-5.013 5.994c-.116.222-.22.456-.37.652-.335.43-.898.55-1.338.324-.508-.256-.724-.78-.545-1.353.067-.207.175-.403.272-.6 2.197-4.444 5.718-7.445 10.149-9.428 1.108-.493 2.253-.9 3.383-1.342.22-.086.455-.128.682-.192z"/><path fill="#DB331E" d="M52.414 33.731c-.034 2.111-.623 4.08-1.607 5.93-2.287 4.29-5.706 7.475-9.72 10.054-4.117 2.646-8.615 4.301-13.41 5.134-1.13.197-2.276.287-3.417.419-.183.023-.377-.008-.56.019-.749.11-1.338-.513-1.327-1.124.011-.652.451-1.07 1.223-1.138.62-.053 1.238-.09 1.854-.158 6.657-.732 12.613-3.193 17.782-7.502 2.19-1.825 4.095-3.94 5.464-6.492.958-1.79 1.589-3.68 1.514-5.752a2.5 2.5 0 0 1 .011-.472c.093-.595.507-.969 1.074-.98s1.026.343 1.108.931c.052.37.011.75.011 1.127z"/><path fill="#DB331E" d="M21.586 48.743c1.119-.113 2.383-.245 3.648-.374.216-.022.432-.052.648-.037.59.041.996.445 1.045 1.002.048.57-.269 1.041-.84 1.192-.328.086-.67.124-1.01.166-5.408.67-10.607-.034-15.448-2.635-4.512-2.424-7.447-6.16-8.57-11.26-.462-2.104-.638-4.215-.104-6.341.179-.717.596-1.086 1.22-1.037.685.053 1.07.614.999 1.421-.079.875-.194 1.75-.19 2.624.026 5.568 2.625 9.624 7.29 12.383 2.663 1.576 5.587 2.398 8.657 2.677.831.075 1.667.14 2.655.219"/><path fill="#fff" d="M141.706 36.558c.108-.64.197-1.15.291-1.708 1.163-.252 2.297-.486 3.099-1.394-1.41-4.456-.224-8.735.478-11.984.708-.208 1.242-.215 2.178 0-.023.339-.023.704-.075 1.063-.257 1.738-.556 3.468-.787 5.21-.086.648-.056 1.315-.037 1.975.011.37.108.739.197 1.316.239-.389.392-.6.508-.834 1.13-2.265 1.764-4.69 2.211-7.17.202-1.104.381-2.213.59-3.442-.407-.064-.72-.154-1.041-.162-1.149-.018-2.297 0-3.45-.01-.332 0-.664-.042-1.122-.076.089-.6.167-1.105.253-1.663.302-.045.537-.11.772-.11 1.585-.007 3.17-.018 4.756 0 1.667.02 2.402.955 2.122 2.643-.437 2.632-.873 5.267-1.776 7.789-.701 1.964-1.611 3.815-2.953 5.417-1.571 1.877-3.514 3.038-6.214 3.133z"/><path fill="#DB331E" d="M20.654 46.315c-1.287-.211-2.764-.404-4.218-.701-1.033-.211-1.395-1.082-.847-1.802.332-.434.783-.468 1.264-.381.672.117 1.34.26 2.014.366 2.853.456 5.624.03 8.366-.773 4.926-1.448 9.07-4.162 12.609-7.875.302-.317.593-.645.917-.935.556-.494 1.1-.483 1.57 0 .47.479.485 1.014-.01 1.59-4.517 5.218-9.985 8.822-16.836 10.01-1.525.263-3.08.327-4.83.505z"/><path fill="#fff" d="M81.318 23.673c.451-.742.88-1.447 1.313-2.156l.212.034c.254.909.508 1.813.825 2.952 1.059-1.75 1.991-3.291 2.92-4.833h2c-.161.335-.254.592-.392.822-1.168 1.964-2.331 3.932-3.529 5.88-.302.494-.38.943-.231 1.509.503 1.91.955 3.837 1.425 5.756.06.237.09.482.141.754-.675.271-1.301.162-1.972.09-.534-1.511-.724-3.106-1.32-4.802l-2.91 4.825h-2.018c.16-.332.254-.577.388-.8 1.171-1.963 2.331-3.931 3.532-5.876.32-.52.425-.995.243-1.591-.247-.807-.407-1.64-.63-2.556zm-2.808 6.79c-.463.757-.892 1.47-1.324 2.178a4 4 0 0 1-.217-.026l-.727-2.725a4 4 0 0 1-.201-.027c-.94 1.535-1.876 3.073-2.82 4.614h-2.018c1.403-2.62 2.984-4.976 4.35-7.456l-1.787-7.336h2.066l1.25 4.825c1.062-1.745 1.999-3.283 2.946-4.844h1.988c-.123.279-.198.501-.314.694-1.167 1.964-2.32 3.939-3.528 5.88-.365.589-.447 1.131-.26 1.78.227.784.394 1.583.603 2.439zm41.371-3.057h2.301c-.089.63-.156 1.18-.25 1.723-.406 2.318-.831 4.633-1.223 6.955-.302 1.775-1.417 2.77-3.189 2.786-.768.007-1.54 0-2.316 0-.261-.675-.022-1.192.127-1.817.604-.012 1.186-.027 1.764-.038.947-.019 1.029-.08 1.208-1.044.478-2.624.944-5.252 1.414-7.875.037-.212.097-.419.164-.686z"/><path fill="#DB331E" d="M5.08 34.12c.01-.724.406-1.207.977-1.274.619-.072 1.122.282 1.242.995.238 1.387.772 2.646 1.503 3.83.95 1.542 2.2 2.793 3.674 3.83.253.18.533.328.768.535.447.396.53.995.231 1.444-.32.483-.85.671-1.387.38a12 12 0 0 1-1.787-1.187c-2.585-2.08-4.382-4.686-5.106-7.992-.048-.214-.086-.43-.115-.561"/><path fill="#D4D4D4" d="m137.428 49.889-1.189-1.176c-.791.452-1.414 1.259-2.567 1.444.422-.78 1.134-.898 1.571-1.35.447-.464 1.007-.837 1.227-1.56l-1.414-.136c.418-.78 1.138-.245 1.679-.619.033-.09.1-.279.201-.543h-2.025l-.485 1.04c-.343-.538-.287-1.217.153-1.394.444-.177.955-.18 1.492-.268v-.92c.593.072.499.634.816.936h1.149c-.045-.453-.078-.815-.115-1.23-.843-.154-1.768.264-2.708-.324.272-.09.429-.192.582-.184 2.025.094 4.046-.242 6.079-.076-1.104.675-2.368.313-3.577.585.157.425.295.799.437 1.19.585.26.992.065 1.369-.418.205-.264.302-.712.928-.693-.179.388-.321.7-.496 1.085l1.522.34c-.026.976-.075 1.07-.746 1.35.078-.31.142-.562.216-.868-.123-.064-.25-.184-.38-.184-1.179-.016-2.357-.008-3.577-.008-.067.226-.119.415-.186.648 1.167.087 2.263.17 3.356.264.019 0 .03.11.071.268-1.253.294-2.588-.117-3.815.373.533.411 1.119.245 1.674.275.578.034 1.16.027 1.835.042-.033 1.187-1.04 1.425-1.622 2.084.753.52 1.678.366 2.462.72-.482.464-.966.408-3.342-.354-1.104.219-2.201.679-3.488.641.314-.679.907-.445 1.324-.603.452-.17.944-.226 1.6-.377zm-.637-1.444 1.297 1.135c.698-.28 1.198-.603 1.612-1.116-.728-.234-1.776-.256-2.909-.019m19.098-.079c.668-.585 1.477-.623 2.145-.97.679-.35 1.38-.663 2.047-1.062-1.148-.287-2.334.056-3.446-.419 1.089-.43 2.238-.113 3.439-.32l.179-.83c-.865-.026-1.619-.049-2.536-.079.391-.626.854-.464 1.234-.482.429-.027.862-.008 1.268-.008.179-.294.321-.528.53-.867.16.324.272.547.429.867.503 0 1.063.06 1.604-.019.481-.071.943-.297 1.562-.505-.425.924-1.208 1.256-1.835 1.893.787.245 1.574-.064 2.302.24-.191.42-.493.374-.754.382-.526.015-1.063.064-1.581-.004-.989-.128-1.694.418-2.555.93 1.149.216 2.223-.112 3.196.254.265.667-.011 1.21-.104 1.745-.317 1.843-.336 1.84-2.189 1.843-.776 0-1.552.008-2.328-.003-.302-.004-.6-.05-.902-.08-.418-.95.231-1.771.123-2.672-.601-.178-1.123.52-1.832.165zm6.315 1.975c.085-.4.29-.705.096-1.018h-4.177l-.13 1.018zm-3.868-1.666h4.188c.045-.294.086-.547.146-.931-1.455-.004-2.794-.087-4.181.067-.052.29-.094.52-.153.864m3.972-3.876h-1.451v.81c.716.136 1.059-.339 1.451-.81"/><path fill="#fff" d="M135.645 15.923h2.208v1.568c1.835.189 3.596-.015 5.364.125.119.644.052 1.176-.284 1.737-.25.023-.518.064-.79.068q-2.513.012-5.024 0a2.9 2.9 0 0 1-.825-.102 1.41 1.41 0 0 1-1.025-1.406c.007-.403.1-.806.171-1.206.045-.241.123-.479.202-.78z"/><path fill="#D4D4D4" d="M90.94 48.901c-.75.679-1.365 1.512-2.499 1.923.224-.777.835-.935 1.179-1.342.34-.4.72-.762 1.066-1.124-.302-.739-.57-1.39-.831-2.047-.008-.019.082-.079.164-.162.652.272.608 1.12 1.19 1.512.67-.701.854-1.617 1.152-2.54-.787-.427-1.641.022-2.477-.363.415-.554.94-.335 1.377-.358.455-.026.913.03 1.346.053.183.324.314.561.44.788h1.127c.417-.585.123-1.399.697-1.957.485.618-.164 1.26.216 1.95.743.03 1.582.06 2.421.093l.008.25c-.821.403-1.776-.031-2.686.282v2.488c.925-.494 1.052-1.565 1.884-2.089.171.74-.351 1.094-.623 1.531-.295.475-.664.901-.989 1.33.108.6.299 1.068.877 1.294.675-.347.31-1.255.869-1.678.276.675-.037 1.885-.537 2.194-.332.204-.761.128-1.082-.249-.257-.305-.466-.655-.716-1.021-.88.283-1.5 1.097-2.477 1.135.56-.845 1.698-.97 2.16-1.73v-3.22l-1.346-.192c-.422.878-.84 1.749-1.265 2.63-.044.653.638 1.132.504 1.886-.757-.098-.582-.935-1.149-1.267"/><path fill="#fff" d="M118.549 21.65h1.742c-.026.52-.048.942-.074 1.42.842.427 1.794-.018 2.704.351-.101.554-.191 1.06-.295 1.659-1.13.06-2.204.124-3.271-.026-.683-.098-1.115-.698-1.082-1.433.03-.645.176-1.282.276-1.968z"/><path fill="#D4D4D4" d="M114.365 49.074c.145-.264.261-.55.444-.791.373-.494.783-.962 1.085-1.327.112-.683-.574-1.056-.227-1.72.264.216.484.393.794.645.112-.361.209-.667.321-1.032-.47-.087-.847-.159-1.324-.245.35-.596.902-.287 1.316-.49.131-.257.276-.547.519-1.022.149.456.238.724.328.991.496.117.992.234 1.544.362-.142 1.07-.261 2.028-.392 2.978-.044.336-.141.671.25 1.033.22-.596.418-1.123.612-1.651.503.701.116 1.26-.153 1.802-.198.396-.548.6-1.078.298-.462-1.316.09-2.666.119-4.094h-1.156c-.194.562-.466 1.108-.548 1.681-.056.396.149.837.254 1.252.078.305.38.592.037.957-.556-.166-.463-.799-.85-1.112-.388.05-.534.449-.802.675-.347.294-.571.769-1.108.788l.019.015z"/><path fill="#fff" d="M163.807 18.494c.097-1.515.369-2.914.764-4.312.284.022.467-.02.575.056.716.49 1.428.98 2.107 1.52.183.146.235.463.328.66-.652.813-2.797 2.02-3.77 2.076z"/><path fill="#D4D4D4" d="M73.053 44.863c-.16.204-.35.441-.57.724.73.294 1.559-.158 2.174.456-.134.784-.97.882-1.298 1.486.034 1.089 1.179.309 1.623.983l-1.209.294c-.07.86-.06 1.806-1.115 2.13-.582.181-1.04.016-1.507-.542.254 0 .451-.034.63.007.937.219 1.358-.083 1.384-1.037.004-.177-.052-.358-.093-.591-.526-.06-1.026-.121-1.604-.185.287-.63.847-.287 1.216-.562l.13-.72c.351-.32.665-.607.993-.912-.72-.181-1.347-.343-2.07-.524.544-.886 1.022-1.659 1.503-2.435.06.015.115.033.175.049.034.245.067.49.112.788l1.779.113v.21c-.656.378-1.417.035-2.249.272z"/><path fill="#D4D4D4" d="M71.353 44.249c.28.068.54.128.928.218-.581.54-1.249.095-1.809.472-.022.166-.055.395-.085.603.451.166.832.305 1.279.471-.246 1.3-.421 2.51-.709 3.687-.246 1.003-1.1 1.278-2.04.72.287-.449.784-.038 1.156-.268.743-1.12.638-2.477 1.022-3.788-.31-.053-.533-.087-.839-.136-.108.377-.209.697-.298 1.021-.261.943-.563 1.866-1.156 2.654-.273.362-.523.78-1.168.894.108-.234.15-.403.246-.517 1.186-1.35 1.642-3 1.88-4.73.045-.325-.127-.68-.22-1.128l.906-.2v-.69c.571-.064.56.487.903.713zm42.743-.792c.049.264.094.532.142.795l.832.227q-.332.37-.981.482l-.242.453c.328.018.578.033.854.052-.015.102 0 .227-.049.264-.272.204-.559.385-.917.622-.108.558-.209 1.173-.355 1.776-.212.904-.977 1.07-1.838.286.436-.053.779-.094 1.223-.15q.153-.696.328-1.505c-.574-.184-.981.464-1.525.102.414-.565 1.115-.573 1.656-1.006.048-.223.108-.513.179-.852-.452-.095-.825-.17-1.28-.264.388-.6.955-.219 1.324-.479l.426-.856q.108.03.216.057z"/><path fill="#D4D4D4" d="M68.764 47.457c-.253 1.27-1.447 2.89-2.305 3.196.109-.735.735-1.07 1.063-1.59.329-.517.493-1.192 1.239-1.607zm-1.044-3.781c.81.105 1.108.599 1.447 1.021.056.072-.033.26-.067.475-.664-.313-1.115-.693-1.38-1.5zm50.318 5.444c.672.463.974 1.172.765 1.797-.615-.4-.944-1.165-.765-1.798m-49.494-1.963c-.693-.343-1.186-.686-1.477-1.316.735-.124 1.384.415 1.477 1.316m45.806 1.904c.048.433.123.866.142 1.303.011.264.007.57-.455.72-.067-.569-.127-1.104-.198-1.715q.264-.142.53-.29l-.019-.015zm1.842-.008c.534.69.642 1.383.355 1.968-.504-.506-.631-1.12-.355-1.968m-3.464.301c-.407.709-.989 1.252-1.746 1.817-.093-.69.396-.848.642-1.146.265-.32.582-.6.876-.897.079.075.153.15.231.226zm-15.642-4.177c-.537-.565-1.03-.961-1.216-1.636.757.045 1.294.705 1.216 1.636"/></svg>