<svg xmlns="http://www.w3.org/2000/svg" width="63" height="118" fill="none" viewBox="0 0 63 118"><g fill="#fff"><path d="M52.626 56.96c2.364-3.57 5.005-6.414 9.43-7.284-.803 7.054-2.373 12.295-9.109 14.197-.526.15-1.168.728-1.31 1.235a59 59 0 0 0-1.642 7.347c3.434-3.794 7.342-6.335 12.73-6.192-3.14 6.725-5.692 13.015-13.944 12.713-.678-.027-1.623.71-2.034 1.35-1.463 2.293-2.747 4.7-3.996 6.886 2.23-.986 4.487-2.133 6.851-2.994 2.498-.915 5.05-1.004 7.538.293-3.372 6.299-10.116 9.622-16.709 8.369-.597-.115-1.507-.169-1.846.169-2.266 2.283-4.407 4.673-6.62 7.063 5.674-2.355 11.223-2.674 16.772 1.377-3.346 1.706-6.174 3.287-9.126 4.611-4.175 1.865-8.118.844-11.9-1.315-.491-.284-1.277-.64-1.66-.444a128 128 0 0 0-8.546 4.779c6.182-.719 11.561.551 15.558 5.713-5.12.151-9.769 3.909-14.996 1.573-1.802-.809-3.506-1.884-5.103-3.048-.5-.364-.509-1.403-.723-2.079-3.595.738-7.61 1.573-11.624 2.399-.143-.364-.285-.737-.428-1.102 15.166-2.967 28.235-9.39 37.887-21.828-2.9-2.523-4.095-5.633-3.907-9.16.152-2.967 1.267-5.58 4.13-7.827 1.294 4.371 3.979 8.12 2.409 12.909 2.257-2.426 3.979-5.082 4.737-8.218.116-.48-.607-1.368-1.16-1.786-4.309-3.26-5.879-8.156-4.023-12.989.267-.693.785-1.297 1.4-2.283 2.712 4.016 6.352 7.054 5.451 12.305l.66-.053c.651-2.293 1.374-4.576 1.927-6.895.482-2.043.036-3.438-2.221-4.54-4.737-2.292-6.664-7.471-4.639-12.002 3.327 2.718 7.378 4.62 7.904 9.701 0-2.798.009-5.597 0-8.395 0-.587-.098-1.173-.17-1.75-.41-3.261-.83-6.513-1.24-9.773-.303-2.443-1.703-3.19-4.13-3.234-4.371-.08-7.6-3.305-7.957-7.756 3.006.186 5.78.72 8.216 2.585.776.595 1.704.995 2.997 1.733-.223-3.91-.098-7.161 2.034-9.906.687-.889 1.535-1.644 2.614-2.328.259 3.74 2.364 7.25.589 10.901-.66 1.36-1.73 2.523-2.605 3.776-.402.577-1.187 1.217-1.124 1.75.25 2.106.758 4.185 1.213 6.255.045.186.446.284.874.541 1.017-4.628 3.105-8.315 7.583-10.287 1.704 5.188-.713 12.473-5.103 15.032-1.918 1.12-2.578 2.416-2.167 4.513.214 1.11.187 2.265.267 3.403z"/><path d="M25.81 101.027c-3.372-5.695-1.32-13.628 4.21-16.48.429-.222 1.794.31 1.794.47-.063 3.501.053 7.055-.544 10.484-.473 2.719-2.677 4.478-5.46 5.526m-4.585-7.169c-.607 2.914-.928 5.721-1.794 8.351-1.088 3.296-3.657 5.313-7.003 6.219-.383.106-1.257-.382-1.391-.773-1.73-5.117 3.122-13.051 8.501-13.957.464-.08.973.08 1.687.15zm19.162-54.364c.25-.168 1.097-.995 1.338-.844 2.792 1.724 6.2 2.71 7.708 6.05.178.4.508.81.508 1.209 0 1.146-.152 2.292-.232 3.438-.981-.115-2.016-.071-2.935-.382-3.568-1.217-6.44-5.268-6.387-9.47M45.606 11.9c2.961 5.499 4.094 10.599-.99 15.05-2.231-3.234-2.374-10.972-.036-14.197.205-.276.544-.462 1.034-.853zM31.448 9.501C29.824 7.2 29.164 4.535 30.244 1.55c2.658 1.297 4.62 4.788 3.907 7.356-.624 2.256-2.525 3.731-4.71 3.891-1.588.124-3.47-.649-4.835-1.572-1.062-.72-.054-1.635.945-1.688 1.936-.116 3.89-.036 5.897-.036m8.162 8.759c-3.023-4.21-5.69-8.288-2.203-14.001 1.276 2.603 2.89 4.682 3.23 6.948.33 2.247-.625 4.69-1.026 7.054m1.382 8.982c-3.452-.39-5.986-1.457-7.547-4.113-.294-.507-.428-1.253-.294-1.804.053-.222 1.035-.4 1.552-.32 2.534.382 5.317.142 7.182 2.4.615.745 1.4 1.891 1.204 2.602-.179.649-1.588.969-2.097 1.244zm-7.172-7.676c-1.722-.995-3.515-1.892-5.147-3.03-.821-.568-1.053-1.563.33-1.936 2.596-.702 5.156-.791 7.36 1.066.561.47.874 1.244 1.293 1.874-.651.436-1.276.942-1.98 1.28-.447.213-1.009.16-1.526.222-.107.178-.223.346-.33.524"/><path d="M26.89 7.795c-1.9-.07-5.014-3.074-5.077-5.774-.009-.391.946-1.235 1.196-1.147 2.533.889 5.04 1.92 5.977 4.79.374 1.145.5 2.291-2.088 2.131z"/></g></svg>