<svg xmlns="http://www.w3.org/2000/svg" width="63" height="118" fill="none" viewBox="0 0 63 118"><g fill="#fff"><path d="M12.89 49.783c-.196 2.398-.481 4.788-.561 7.196-.054 1.546.187 3.092.455 4.744-.768-5.953 3.443-8.547 7.654-11.674.91 2.496.856 4.69.062 6.84-.936 2.533-2.631 4.514-5.183 5.5-1.81.702-2.382 1.848-1.971 3.598.597 2.56 1.24 5.118 2.239 7.72-.464-5.232 3.06-8.35 5.834-12.25 2.213 2.665 2.534 5.383 1.936 8.289-.607 2.967-2.409 5.152-4.639 7.125-.562.497-1.08 1.759-.83 2.327 1.178 2.648 2.632 5.171 4.38 7.65-1.676-4.86 1.357-8.582 2.329-12.794 4.773 1.92 6.182 11.95.642 16.596 2.088 3.723 5.21 6.486 8.654 8.938l-.036-.036c5.442 4.46 11.276 8.174 18.225 9.951 3.47.888 6.852 2.123 10.206 3.527-4.05.222-7.824-1.155-11.196-1.893-.428.907-.615 1.911-1.222 2.452-4.14 3.767-8.912 4.274-14.122 2.63-1.864-.586-3.836-.862-5.772-1.279 1.561-4.105 7.378-6.148 16.424-5.588-2.052-1.102-3.667-1.964-5.273-2.834-1.623-.88-3.238-1.786-4.808-2.648-4.683 3.776-10.08 4.113-15.183 1.119-1.597-.932-3.319-1.661-4.942-2.54-.527-.285-.928-.782-1.383-1.182.482-.4.91-.933 1.463-1.191 4.54-2.123 9.144-2.38 13.783-.284.455.204.945.32 1.418.471l-.589.506c-2.07-2.532-4.077-5.108-6.253-7.533-.384-.427-1.526-.41-2.248-.25-4.978 1.067-9.073-.319-12.41-4.13-1.248-1.422-2.631-2.737-4.13-4.283 5.21-2.31 9.51-.097 14.167 2.035-1.5-2.479-2.953-4.975-4.541-7.392-.205-.31-1.08-.266-1.641-.266-4.506-.027-7.789-2.097-10.028-5.909-1.213-2.07-2.382-4.175-3.8-6.672 5.825-.408 9.608 2.302 12.802 6.282.205-.08.401-.16.606-.24-.776-2.746-1.534-5.5-2.382-8.218-.071-.24-.75-.302-1.15-.427-4.345-1.386-7.003-4.229-7.878-8.76-.312-1.643-.91-3.225-1.382-4.842 2.988-.755 6.976 2.301 10.053 7.117 0-1.6-.151-3.225.036-4.807.259-2.105-1.186-2.736-2.57-3.651-2.907-1.92-4.477-4.647-4.63-8.174-.088-2.114-.285-4.229-.463-6.823 4.862 2.195 7.03 5.846 7.966 10.448.197.045.393.08.58.125.571-2.417 1.187-4.825 1.677-7.259.063-.32-.392-.87-.749-1.137-3.274-2.408-4.434-5.65-3.533-9.515.402-1.706.527-3.474.848-5.65 2.498 1.456 3.845 3.464 4.38 5.81s.518 4.815.919 7.276c.08-.533.152-1.075.205-1.43.732-.17 1.356-.222 1.91-.453 2.354-.987 4.647-2.133 7.038-3.021 1.516-.56 1.784.258 1.41 1.643-.928 3.412-4.149 6.273-7.842 6.077-2.766-.142-3.792 1.11-4.202 3.359-.473 2.594-.82 5.215-1.115 7.836-.072.612.268 1.261.42 1.9l-.045-.044z"/><path d="M20.036 24.125c2.32-2.399 5.29-2.87 8.333-3.136.544-.045 1.115.15 1.668.23-.098.614-.036 1.324-.33 1.83-1.419 2.515-3.73 3.865-6.53 4.017-1.303.07-2.65-.65-4.104-1.04-.205.4-.705 1.35-1.088 2.088-.545-1.262-1.178-2.408-1.544-3.625-.562-1.866-1.436-3.82-1.284-5.66.196-2.327 1.284-4.575 2.043-7.027 2.23 1.928 3.666 3.26 2.828 12.332zM52.5 105.292c-.107 1.013.026 1.812-.304 2.301-.33.488-1.275 1.093-1.677.933-3.987-1.511-6.842-4.025-7.315-8.591-.16-1.537-.598-3.048-.99-4.55-.464-1.75.33-1.972 1.757-1.563 4.818 1.377 8.76 6.85 8.529 11.461zm-18.591-5.695c-.01-.071 0-.169-.036-.213-3.542-4.034-2.783-8.911-2.712-13.664.027-1.582.713-1.768 1.962-1.19 5.362 2.478 7.655 11.433 4.122 16.417-1.106-.453-2.24-.915-3.372-1.386zm-20.974-49.77c.018-5.73 3.016-9.782 8.413-11.239 1.632-.444 1.427.818 1.392 1.76-.224 4.895-4.514 9.008-9.85 9.443l.045.045zM31.803 9.5c1.9 0 3.783-.061 5.656.045.455.027 1.053.524 1.249.96.116.249-.357.897-.705 1.2-2.025 1.767-4.924 1.376-7.02-.223-1.553-1.181-2.418-2.257-2.168-4.22.32-2.523 1.89-4.158 3.622-5.837 1.436 2.23 1.222 4.282-.634 8.076"/><path d="M25.898 16.005q-.884.747-1.767 1.51c-3.925-3.42-1.927-8.662 1.856-12.545 1.436 2.168 1.864 4.416 1.133 6.877-.42 1.403-.848 2.798-1.267 4.202z"/><path d="M25.862 16.049c2.32-1.777 4.942-2.177 7.761-1.741 1.606.248 1.918.88.865 2.176-1.65 2.035-4.888 3.048-7.43 2.284-1.517-.454-2.142-1.27-1.16-2.764l-.045.045zM34.88 7.92c-.222-.436-.891-1.137-.855-1.795C34.14 4.037 38.182.715 40.26.92c.384.035.982.684 1.008 1.084.16 2.38-3.247 5.819-6.387 5.917"/></g></svg>