<svg xmlns="http://www.w3.org/2000/svg" width="454" height="100" fill="none" viewBox="0 0 454 100"><path fill="#fff" d="M27.201 16v16.064c0 3.072-1.216 5.888-3.2 7.936 1.984 2.048 3.2 4.864 3.2 8v16h-6.848V48c0-2.496-2.048-4.544-4.544-4.544h-4.544V64H4.417V16h6.848v20.544h4.544c2.496 0 4.544-1.984 4.544-4.48V16zm20.921-.192c4.928 1.216 8.576 5.696 8.576 11.008v26.496c0 6.336-5.12 11.392-11.392 11.392h-.384A11.336 11.336 0 0 1 33.53 53.312V26.816c0-6.272 5.056-11.392 11.392-11.392h.384c.96 0 1.92.128 2.816.384m1.664 37.504V26.624c-.064-1.92-1.408-3.52-3.136-4.096a5 5 0 0 0-1.344-.192h-.384c-2.496 0-4.544 1.984-4.544 4.48v26.496c0 2.496 2.048 4.544 4.544 4.544h.384c2.496 0 4.48-2.048 4.48-4.544M86.46 64h-6.912V45.568l-9.408-11.52V64h-6.848V16.064h6.848v7.04l9.408 11.584V16.064h6.912zm29.738-31.68h-6.912v-5.504a4.45 4.45 0 0 0-4.48-4.48h-.384c-2.496 0-4.544 1.984-4.544 4.48v26.496c0 2.496 2.048 4.544 4.544 4.544h.384c2.496 0 4.48-2.048 4.48-4.544v-7.744h-5.696V38.72h12.608v14.592c0 6.336-5.12 11.392-11.392 11.392h-.384A11.336 11.336 0 0 1 93.03 53.312V26.816c0-6.272 5.056-11.392 11.392-11.392h.384c6.272 0 11.392 5.12 11.392 11.392zm37.535-16.256h6.848l-4.416 22.272L151.109 64h-6.784l-.064-.192-5.056-25.472-4.352-22.272h6.848l4.224 22.272 1.664 8.64 1.728-8.64zM164.917 16h6.848v48h-6.848zm35.954 16.32h-6.912v-5.504a4.45 4.45 0 0 0-4.48-4.48h-.384c-2.496 0-4.544 1.984-4.544 4.48v2.048c0 2.048.896 4.032 2.496 5.376l4.48 3.968 4.544 3.904c1.856 1.6 3.136 3.456 3.904 5.568.64 1.664.896 3.456.896 5.632 0 3.84-1.92 7.232-4.8 9.344-3.392 2.368-6.784 2.048-6.976 2.048a11.336 11.336 0 0 1-11.392-11.392v-5.12h6.848v5.12c0 2.496 2.048 4.544 4.544 4.544h.384q.672 0 1.344-.192c1.728-.576 3.072-2.176 3.136-4.096v-.256c0-2.368-.384-4.224-2.432-5.952l-4.544-3.968-4.48-3.968c-3.072-2.624-4.8-6.528-4.8-10.56v-2.048c0-6.272 5.056-11.392 11.392-11.392h.384c6.272 0 11.392 5.12 11.392 11.392zm21.859-16.192h6.912V53.12c0 6.336-5.12 11.392-11.392 11.392h-.384a11.336 11.336 0 0 1-11.392-11.392V16.128h6.848V53.12c0 2.496 2.048 4.544 4.544 4.544h.384c2.496 0 4.48-2.048 4.48-4.544zm36.662 22.144V64h-6.912V27.392a4.45 4.45 0 0 0-4.48-4.48h-.384c-2.496 0-4.544 1.984-4.544 4.48v10.88h9.408v6.912h-9.408V64h-6.848V27.392c0-6.272 5.056-11.392 11.392-11.392H248c6.272 0 11.392 5.12 11.392 11.392zm13.686 18.816h11.84V64H266.23V16.064h6.848zm52.418-24.768h-6.912v-5.504a4.45 4.45 0 0 0-4.48-4.48h-.384c-2.496 0-4.544 1.984-4.544 4.48v2.048c0 2.048.896 4.032 2.496 5.376l4.48 3.968 4.544 3.904c1.856 1.6 3.136 3.456 3.904 5.568.64 1.664.896 3.456.896 5.632 0 3.84-1.92 7.232-4.8 9.344-3.392 2.368-6.784 2.048-6.976 2.048a11.336 11.336 0 0 1-11.392-11.392v-5.12h6.848v5.12c0 2.496 2.048 4.544 4.544 4.544h.384q.672 0 1.344-.192c1.728-.576 3.072-2.176 3.136-4.096v-.256c0-2.368-.384-4.224-2.432-5.952l-4.544-3.968-4.48-3.968c-3.072-2.624-4.8-6.528-4.8-10.56v-2.048c0-6.272 5.056-11.392 11.392-11.392h.384c6.272 0 11.392 5.12 11.392 11.392zm17.251-9.408h-14.656V16h14.656zm7.808 0h-7.808V16h7.808zM342.747 64h-6.912V22.912h6.912zm27.67-47.872h6.912V53.12c0 6.336-5.12 11.392-11.392 11.392h-.384a11.336 11.336 0 0 1-11.392-11.392V16.128h6.848V53.12c0 2.496 2.048 4.544 4.544 4.544h.384c2.496 0 4.48-2.048 4.48-4.544zm36.406 22.848h-6.912V27.392a4.45 4.45 0 0 0-4.48-4.48h-4.416v34.24h4.416c2.496 0 4.48-2.048 4.48-4.544V39.04h6.912v13.568c0 6.336-5.12 11.392-11.392 11.392h-11.264V16h11.264c6.272 0 11.392 5.12 11.392 11.392zM413.355 16h6.848v48h-6.848zm28.017-.192c4.928 1.216 8.576 5.696 8.576 11.008v26.496c0 6.336-5.12 11.392-11.392 11.392h-.384a11.336 11.336 0 0 1-11.392-11.392V26.816c0-6.272 5.056-11.392 11.392-11.392h.384c.96 0 1.92.128 2.816.384m1.664 37.504V26.624c-.064-1.92-1.408-3.52-3.136-4.096a5 5 0 0 0-1.344-.192h-.384c-2.496 0-4.544 1.984-4.544 4.48v26.496c0 2.496 2.048 4.544 4.544 4.544h.384c2.496 0 4.48-2.048 4.48-4.544M156.134 96V81.28h4.56c3.02 0 5.2.96 5.2 3.62 0 1.4-.78 2.74-2.1 3.18v.1c1.68.36 2.9 1.5 2.9 3.5 0 2.92-2.38 4.32-5.64 4.32zm2.32-8.58h1.98c2.24 0 3.18-.84 3.18-2.22 0-1.54-1.04-2.12-3.12-2.12h-2.04zm0 6.76h2.34c2.3 0 3.62-.82 3.62-2.62 0-1.66-1.28-2.38-3.62-2.38h-2.34zm10.82 1.82V85h1.88l.18 1.98h.06c.78-1.42 1.94-2.26 3.12-2.26.54 0 .9.08 1.24.24l-.42 2c-.38-.12-.66-.18-1.1-.18-.9 0-1.98.62-2.68 2.36V96zm12.369.26c-2.72 0-5.18-2.1-5.18-5.74 0-3.68 2.46-5.8 5.18-5.8s5.18 2.12 5.18 5.8c0 3.64-2.46 5.74-5.18 5.74m0-1.88c1.74 0 2.82-1.54 2.82-3.86 0-2.34-1.08-3.9-2.82-3.9-1.72 0-2.8 1.56-2.8 3.9 0 2.32 1.08 3.86 2.8 3.86m10.192 1.88c-1.9 0-3.24-1.24-3.24-3.18 0-2.36 2-3.58 6.58-4.08-.02-1.28-.48-2.4-2.1-2.4-1.16 0-2.24.52-3.18 1.12l-.86-1.56c1.14-.72 2.68-1.44 4.44-1.44 2.74 0 4 1.74 4 4.66V96h-1.88l-.2-1.26h-.06c-1 .86-2.18 1.52-3.5 1.52m.7-1.82c.96 0 1.74-.46 2.64-1.28v-2.7c-3.26.4-4.36 1.22-4.36 2.46 0 1.08.74 1.52 1.72 1.52m12.004 1.82c-2.76 0-4.54-2.1-4.54-5.74 0-3.58 2.26-5.8 4.72-5.8 1.26 0 2.06.48 2.96 1.24l-.1-1.82v-4.08h2.3V96h-1.88l-.2-1.24h-.06c-.82.84-1.96 1.5-3.2 1.5m.54-1.9c.92 0 1.7-.42 2.5-1.34v-5.38c-.82-.74-1.6-1-2.42-1-1.54 0-2.78 1.46-2.78 3.84 0 2.5.98 3.88 2.7 3.88m12.837 1.9c-2.98 0-5.36-2.12-5.36-5.74 0-3.58 2.44-5.8 5.02-5.8 2.92 0 4.48 2.1 4.48 5.22 0 .44-.04.9-.1 1.16h-7.14c.18 2.1 1.5 3.36 3.4 3.36.98 0 1.82-.3 2.62-.82l.8 1.46c-1.02.68-2.28 1.16-3.72 1.16m-3.12-6.74h5.28c0-1.9-.86-3-2.46-3-1.38 0-2.6 1.06-2.82 3m9.849 6.48V85h1.88l.18 1.52h.06c1.02-.98 2.14-1.8 3.64-1.8 2.34 0 3.38 1.56 3.38 4.36V96h-2.3v-6.64c0-1.9-.56-2.66-1.86-2.66-1.02 0-1.72.52-2.7 1.5V96zm16.973 0V80.06h2.28v4.22l-.08 2.18c.96-.92 2.06-1.74 3.56-1.74 2.34 0 3.38 1.56 3.38 4.36V96h-2.3v-6.64c0-1.9-.56-2.66-1.86-2.66-1.02 0-1.72.52-2.7 1.5V96zm16.822.26c-2.72 0-5.18-2.1-5.18-5.74 0-3.68 2.46-5.8 5.18-5.8s5.18 2.12 5.18 5.8c0 3.64-2.46 5.74-5.18 5.74m0-1.88c1.74 0 2.82-1.54 2.82-3.86 0-2.34-1.08-3.9-2.82-3.9-1.72 0-2.8 1.56-2.8 3.9 0 2.32 1.08 3.86 2.8 3.86m7.885 1.62V85h1.88l.18 1.98h.06c.78-1.42 1.94-2.26 3.12-2.26.54 0 .9.08 1.24.24l-.42 2c-.38-.12-.66-.18-1.1-.18-.9 0-1.98.62-2.68 2.36V96zm8.183 0V85h2.28v11zm1.14-13.06c-.84 0-1.46-.56-1.46-1.36 0-.82.62-1.36 1.46-1.36s1.48.54 1.48 1.36c0 .8-.64 1.36-1.48 1.36M279.251 96v-1.24l5.42-7.92h-4.82V85h7.72v1.22l-5.42 7.94h5.6V96zm14.989.26c-2.72 0-5.18-2.1-5.18-5.74 0-3.68 2.46-5.8 5.18-5.8s5.18 2.12 5.18 5.8c0 3.64-2.46 5.74-5.18 5.74m0-1.88c1.74 0 2.82-1.54 2.82-3.86 0-2.34-1.08-3.9-2.82-3.9-1.72 0-2.8 1.56-2.8 3.9 0 2.32 1.08 3.86 2.8 3.86m7.886 1.62V85h1.88l.18 1.52h.06c1.02-.98 2.14-1.8 3.64-1.8 2.34 0 3.38 1.56 3.38 4.36V96h-2.3v-6.64c0-1.9-.56-2.66-1.86-2.66-1.02 0-1.72.52-2.7 1.5V96zm15.46.26c-1.52 0-3.08-.64-4.14-1.52l1.08-1.48c.98.78 1.94 1.26 3.12 1.26 1.32 0 1.94-.64 1.94-1.48 0-1-1.24-1.44-2.44-1.9-1.46-.56-3.14-1.34-3.14-3.2 0-1.84 1.48-3.22 3.9-3.22 1.48 0 2.68.6 3.58 1.3l-1.08 1.42c-.76-.56-1.54-.96-2.46-.96-1.2 0-1.76.6-1.76 1.36 0 .94 1.14 1.3 2.34 1.74 1.54.58 3.24 1.26 3.24 3.34 0 1.84-1.46 3.34-4.18 3.34m12.262-4.24c0 1.46 1.16 2.44 2.68 2.44.88 0 1.76-.38 2.54-1-1.36-1.16-2.66-2.54-3.64-3.98-.9.76-1.58 1.54-1.58 2.54m1.62-7.44c0 .72.24 1.52.62 2.32 1.28-.82 2.32-1.62 2.32-2.84 0-.8-.38-1.46-1.28-1.46-.98 0-1.66.82-1.66 1.98m9.24 9.8-.58 1.88c-1.08-.26-2.3-.82-3.5-1.62-1.16 1-2.6 1.62-4.38 1.62-2.82 0-4.6-1.78-4.6-4.1 0-2.02 1.34-3.24 2.84-4.24-.6-1.16-.96-2.3-.96-3.32 0-2 1.42-3.6 3.58-3.6 1.94 0 3.12 1.24 3.12 3.04 0 1.94-1.64 3.16-3.26 4.32.94 1.32 2.2 2.62 3.5 3.66.86-1.12 1.54-2.5 1.98-4.08h2.12c-.56 1.9-1.4 3.66-2.56 5.18.98.62 1.92 1.06 2.7 1.26m8.873 1.88c-1.66 0-2.28-1.06-2.28-2.84V80.06h2.28v13.48c0 .62.28.84.56.84.1 0 .18 0 .38-.04l.3 1.74c-.28.1-.68.18-1.24.18m8.257 0c-2.98 0-5.36-2.12-5.36-5.74 0-3.58 2.44-5.8 5.02-5.8 2.92 0 4.48 2.1 4.48 5.22 0 .44-.04.9-.1 1.16h-7.14c.18 2.1 1.5 3.36 3.4 3.36.98 0 1.82-.3 2.62-.82l.8 1.46c-1.02.68-2.28 1.16-3.72 1.16m-3.12-6.74h5.28c0-1.9-.86-3-2.46-3-1.38 0-2.6 1.06-2.82 3m12.156 6.74c-1.9 0-3.24-1.24-3.24-3.18 0-2.36 2-3.58 6.58-4.08-.02-1.28-.48-2.4-2.1-2.4-1.16 0-2.24.52-3.18 1.12l-.86-1.56c1.14-.72 2.68-1.44 4.44-1.44 2.74 0 4 1.74 4 4.66V96h-1.88l-.2-1.26h-.06c-1 .86-2.18 1.52-3.5 1.52m.7-1.82c.96 0 1.74-.46 2.64-1.28v-2.7c-3.26.4-4.36 1.22-4.36 2.46 0 1.08.74 1.52 1.72 1.52m12.004 1.82c-2.76 0-4.54-2.1-4.54-5.74 0-3.58 2.26-5.8 4.72-5.8 1.26 0 2.06.48 2.96 1.24l-.1-1.82v-4.08h2.3V96h-1.88l-.2-1.24h-.06c-.82.84-1.96 1.5-3.2 1.5m.54-1.9c.92 0 1.7-.42 2.5-1.34v-5.38c-.82-.74-1.6-1-2.42-1-1.54 0-2.78 1.46-2.78 3.84 0 2.5.98 3.88 2.7 3.88m16.45 1.9c-2.48 0-3.34-1.54-3.34-3.86v-5.56h-1.6v-1.72l1.7-.12.26-3.04h1.94V85h2.86v1.84h-2.86v5.58c0 1.32.46 2 1.6 2 .38 0 .86-.12 1.18-.26l.42 1.7c-.62.2-1.36.4-2.16.4m4.229-.26V85h1.88l.18 1.98h.06c.78-1.42 1.94-2.26 3.12-2.26.54 0 .9.08 1.24.24l-.42 2c-.38-.12-.66-.18-1.1-.18-.9 0-1.98.62-2.68 2.36V96zm12.549.26c-2.98 0-5.36-2.12-5.36-5.74 0-3.58 2.44-5.8 5.02-5.8 2.92 0 4.48 2.1 4.48 5.22 0 .44-.04.9-.1 1.16h-7.14c.18 2.1 1.5 3.36 3.4 3.36.98 0 1.82-.3 2.62-.82l.8 1.46c-1.02.68-2.28 1.16-3.72 1.16m-3.12-6.74h5.28c0-1.9-.86-3-2.46-3-1.38 0-2.6 1.06-2.82 3m9.849 6.48V85h1.88l.18 1.52h.06c1.02-.98 2.14-1.8 3.64-1.8 2.34 0 3.38 1.56 3.38 4.36V96h-2.3v-6.64c0-1.9-.56-2.66-1.86-2.66-1.02 0-1.72.52-2.7 1.5V96zm16.28.26c-2.76 0-4.54-2.1-4.54-5.74 0-3.58 2.26-5.8 4.72-5.8 1.26 0 2.06.48 2.96 1.24l-.1-1.82v-4.08h2.3V96h-1.88l-.2-1.24h-.06c-.82.84-1.96 1.5-3.2 1.5m.54-1.9c.92 0 1.7-.42 2.5-1.34v-5.38c-.82-.74-1.6-1-2.42-1-1.54 0-2.78 1.46-2.78 3.84 0 2.5.98 3.88 2.7 3.88m11.238 1.9c-1.52 0-3.08-.64-4.14-1.52l1.08-1.48c.98.78 1.94 1.26 3.12 1.26 1.32 0 1.94-.64 1.94-1.48 0-1-1.24-1.44-2.44-1.9-1.46-.56-3.14-1.34-3.14-3.2 0-1.84 1.48-3.22 3.9-3.22 1.48 0 2.68.6 3.58 1.3l-1.08 1.42c-.76-.56-1.54-.96-2.46-.96-1.2 0-1.76.6-1.76 1.36 0 .94 1.14 1.3 2.34 1.74 1.54.58 3.24 1.26 3.24 3.34 0 1.84-1.46 3.34-4.18 3.34"/></svg>