<svg width="129" height="56" viewBox="0 0 129 56" fill="none" xmlns="http://www.w3.org/2000/svg">
<g id="_&#233;&#141;&#165;&#230;&#131;&#167;&#231;&#156;&#176;_1" clip-path="url(#clip0_83_79)">
<path id="Vector" d="M50.5102 21.2783C50.497 23.3571 50.1604 25.3089 49.2495 27.1471C48.8667 27.9158 49.0845 28.6176 49.3683 29.3796C52.3981 37.5077 48.7281 45.6357 40.5761 48.169C40.3121 48.2492 40.0349 48.3696 39.7775 48.3428C37.8699 48.1289 36.8995 49.3254 35.7378 50.6422C30.015 57.1059 20.9126 57.0992 15.2821 50.3548C14.2524 49.1249 13.2821 48.4899 11.6319 48.2893C8.08075 47.8549 5.29524 45.7961 3.26222 42.8684C0.364499 38.6908 -0.183362 34.1589 1.88267 29.4398C2.31171 28.4639 2.26551 27.7286 1.84966 26.7794C-1.49691 19.1995 2.65495 10.6303 10.523 8.06356C10.5758 8.0435 10.6286 8.01008 10.6814 8.01677C13.3217 8.3844 14.6551 6.54623 16.2327 4.87517C21.599 -0.806438 31.1635 -0.485595 36.2395 6.20534C36.9061 7.08097 37.5992 7.71597 38.7609 7.84966C44.3782 8.49803 47.9294 11.7934 49.7908 17.0338C50.2594 18.364 50.2858 19.8546 50.5102 21.2649V21.2783ZM14.8993 20.3358C15.1171 20.9708 15.5066 21.285 16.2129 21.3786C18.6089 21.6927 20.7344 22.682 22.6156 24.2194C22.9324 24.4801 23.3086 24.6672 23.7047 24.9145C23.8169 24.5937 23.9423 24.4333 23.9159 24.2929C23.4142 21.432 23.6387 18.6581 24.7014 15.9376C25.005 15.1689 24.6156 14.8547 23.7245 15.0219C21.4736 15.4363 19.4076 16.3119 17.6386 17.7958C16.6683 18.6113 15.7838 19.5204 14.8597 20.3893C14.9851 20.0885 15.0577 19.7409 15.2491 19.4869C17.0247 17.1875 19.2756 15.6034 22.0875 14.8815C22.9258 14.6676 23.7641 14.4737 24.8466 14.2197C24.4968 13.6315 24.3119 13.1837 24.0149 12.8428C21.9753 10.5635 19.5528 8.95256 16.5033 8.37772C14.4901 8.0034 14.0082 8.25071 13.3811 10.256C12.4834 13.1369 12.457 16.0178 13.3415 18.9255C13.599 19.7677 13.9884 20.3091 14.8993 20.3358ZM14.8993 35.9435C14.292 36.0438 13.7376 36.1574 13.5 36.8793C12.3646 40.2749 12.4042 43.6304 13.764 46.9525C14.127 47.8348 14.7211 48.2225 15.7112 48.0353C17.9554 47.6142 20.0809 46.9191 21.8565 45.4218C22.906 44.5395 23.8697 43.5636 24.873 42.6345C24.642 43.1157 24.5034 43.6839 24.1601 44.0582C22.0611 46.3776 19.5528 47.9685 16.4109 48.3963C15.0775 48.5768 14.8861 49.0647 15.7574 50.0941C20.8532 56.13 29.8566 56.7115 35.6586 49.9871C36.3979 49.1316 36.1867 48.5567 35.1041 48.4297C31.5067 48.0019 28.741 46.1504 26.5364 43.3564C26.0479 42.7347 25.5397 42.5609 24.84 42.688C24.6948 41.8257 24.0215 41.7722 23.3614 41.6719C21.3218 41.3645 19.4736 40.549 17.8432 39.3057C16.6353 38.3833 15.401 37.4341 14.8663 35.8901C15.2623 36.2711 15.6848 36.6253 16.061 37.0264C17.764 38.8378 19.8169 40.0945 22.1667 40.8164C22.9654 41.0637 23.8169 41.1305 24.8598 41.3244C24.4308 39.4595 23.9357 37.9354 23.7641 36.3713C23.5859 34.7604 23.7245 33.1161 23.7245 31.3648C23.4275 31.4985 23.1436 31.552 22.9588 31.7191C20.9852 33.5439 18.6287 34.4864 16.028 34.9543C15.6056 35.0278 15.2755 35.6026 14.8993 35.9435ZM2.85297 27.0736C3.27542 26.6391 3.69127 26.2447 4.07411 25.8102C6.23255 23.3504 8.87284 21.7863 12.1204 21.3318C13.3613 21.158 13.5 20.9307 13.0709 19.7142C11.8894 16.3453 11.8102 12.9765 13.0841 9.60093C13.2095 9.26004 13.2359 8.87903 13.3085 8.52477C10.4438 7.80287 5.28204 10.9177 3.1038 14.5139C0.833151 18.2637 0.278689 23.7114 2.85297 27.0736ZM13.3943 47.895C13.2425 47.3134 13.1237 46.9124 13.0379 46.5047C12.7607 45.1611 12.3778 43.8176 12.259 42.4607C12.0808 40.4019 12.259 38.3699 13.1237 36.4315C13.5858 35.3954 13.3349 35.108 12.1864 34.9275C11.5923 34.834 10.9983 34.7404 10.424 34.5733C7.69791 33.7912 5.50647 32.2071 3.71767 29.9946C2.91898 28.9986 2.41733 29.0788 2.02788 30.2753C1.63844 31.4785 1.249 32.7351 1.16319 33.9851C0.720938 40.7696 5.8035 47.0327 12.4438 48.0019C12.6485 48.0287 12.8597 47.9618 13.3877 47.895H13.3943ZM48.365 29.159C47.969 29.5801 47.5993 29.9611 47.2495 30.3622C45.1373 32.7685 42.5696 34.3861 39.3946 34.9142C37.6784 35.2016 37.5926 35.3553 38.2263 37.0665C39.355 40.1011 39.3022 43.1425 38.2725 46.2039C38.1141 46.6851 38.1867 47.2399 38.1537 47.7613C38.6223 47.7813 39.1108 47.8883 39.5596 47.8014C46.4244 46.4044 51.0581 39.553 49.8106 32.5947C49.5993 31.4317 49.4937 30.155 48.3584 29.159H48.365ZM37.784 8.48466C38.0811 9.38035 38.3979 10.1357 38.5827 10.9177C39.256 13.7853 39.2956 16.6194 38.1603 19.4134C37.619 20.7569 37.8038 21.1179 39.0118 21.2984C42.4838 21.813 45.3023 23.4507 47.5135 26.2046C47.7643 26.5188 48.1208 26.7393 48.4244 26.9933C50.4376 24.7073 50.6159 18.8051 48.299 14.8547C46.0283 10.9846 41.2758 7.93655 37.7774 8.47798L37.784 8.48466ZM25.4077 13.6583C25.7113 13.558 25.7773 13.558 25.8103 13.5246C28.4176 10.5568 31.3021 8.10366 35.4474 7.73603C36.1735 7.66919 36.2593 7.04755 35.8236 6.48607C35.4474 6.01149 35.0249 5.56365 34.5827 5.14922C28.5496 -0.565805 20.2987 0.730938 15.7112 6.17191C14.8333 7.21466 15.0445 7.67587 16.3845 7.85634C19.7706 8.32424 22.4175 10.0755 24.5892 12.6623C24.8598 12.9898 25.1304 13.3174 25.4077 13.6583ZM37.8236 21.8732C37.8699 22.2475 37.8566 22.4748 37.9359 22.6686C39.421 26.218 39.4606 29.7673 38.0151 33.3501C37.6124 34.3393 38.0547 34.7805 39.19 34.5064C42.497 33.7177 45.2891 32.0734 47.4079 29.3195C48.0482 28.4839 48.1274 27.8021 47.4409 26.9532C45.8831 25.0215 44.0481 23.4306 41.7445 22.5483C40.5761 22.1005 39.3682 21.3518 37.817 21.8732H37.8236ZM12.3184 21.6459C12.2128 21.6593 12.1006 21.666 11.995 21.6927C8.60221 22.5884 5.73749 24.2996 3.63846 27.2006C3.0774 27.9759 3.30182 28.6377 3.81668 29.3128C5.96192 32.1135 8.83984 33.7177 12.1732 34.5465C13.1633 34.7939 13.5396 34.346 13.1699 33.3768C11.8168 29.8609 11.8036 26.365 13.1831 22.8491C13.533 21.9467 13.2557 21.6192 12.3184 21.6459ZM26.2328 14.3133C30.8203 14.8146 34.246 16.8132 36.6883 20.2757C37.0382 20.142 37.223 20.1152 37.3286 20.015C37.4804 19.8679 37.6124 19.6741 37.685 19.4736C38.893 16.0913 38.8072 12.7292 37.5266 9.38704C37.19 8.50472 36.5893 8.0034 35.6124 8.24403C34.4441 8.53145 33.2229 8.73198 32.1272 9.20656C29.8368 10.2025 27.8895 11.6864 26.2262 14.32L26.2328 14.3133ZM26.4968 42.2668C26.6552 42.5543 26.7608 42.8684 26.9588 43.1024C29.1239 45.7025 31.85 47.3402 35.1636 47.9485C36.7213 48.2359 37.0514 48.0086 37.652 46.5448C38.6355 44.1518 38.6751 41.6586 38.3517 39.172C38.2065 38.0558 38.0349 36.7724 37.0778 36.0371C35.421 37.4408 34.0084 38.9782 32.2988 39.9808C30.5496 41.0035 28.51 41.5048 26.4968 42.2668ZM27.3219 25.0215C27.8631 24.7474 28.1866 24.6672 28.4044 24.4667C30.279 22.7154 32.5431 21.8264 34.9985 21.3452C35.3748 21.2716 35.9424 21.0176 36.0018 20.7436C36.0745 20.4227 35.7774 19.9281 35.5068 19.6273C33.4672 17.3613 31.0645 15.6903 28.015 15.1756C27.5661 15.1021 27.0975 15.1756 26.642 15.1756C26.6618 15.6435 26.5496 16.1649 26.7146 16.5726C27.6585 18.9121 27.7047 21.3184 27.3285 23.7648C27.2823 24.0723 27.3285 24.3932 27.3285 25.0215H27.3219ZM27.4869 31.3114C27.3813 31.7392 27.2559 31.9597 27.2889 32.1469C27.7377 34.8206 27.6519 37.4274 26.6024 39.9808C26.1866 40.9968 26.576 41.3444 27.7509 41.1372C30.8995 40.5891 33.454 38.9715 35.5662 36.5986C36.4705 35.5826 36.2857 35.1749 34.9589 34.9008C32.5167 34.3928 30.2262 33.5506 28.378 31.7525C28.1998 31.5787 27.9225 31.5186 27.4935 31.3047L27.4869 31.3114ZM14.2062 22.3678C13.929 22.6753 13.7772 22.7756 13.7178 22.9159C12.4108 26.1845 12.3514 29.4999 13.5 32.822C13.8696 33.8915 14.4373 33.9851 15.1303 33.076C16.6551 31.0908 18.5825 29.7005 20.906 28.8382C21.2294 28.7179 21.4934 28.4438 21.9885 28.1029C20.4175 27.2407 18.9522 26.6257 17.7046 25.7033C16.4571 24.7809 15.4274 23.551 14.2062 22.3678ZM37.0118 22.4013C35.751 23.6044 34.6949 24.8276 33.4276 25.7634C32.2064 26.6725 30.7741 27.2941 29.4341 28.0361C29.4341 28.1765 29.4341 28.3101 29.4407 28.4505C32.4969 29.3997 34.8533 31.3114 36.8995 34.0118C38.0283 32.4009 38.4573 30.8769 38.4771 29.1925C38.4969 26.8329 38.6289 24.4466 37.0118 22.3946V22.4013Z" fill="#B3B3AD"/>
<path id="Vector_2" d="M84.8743 11.9204C84.3727 11.8469 83.871 11.7065 83.3693 11.7065C81.554 11.7065 79.7387 11.7734 77.93 11.7333C77.5405 11.7266 76.887 11.4124 76.821 11.125C76.6362 10.3496 77.3095 10.2627 77.8706 10.2427C81.2173 10.129 84.5707 10.0221 87.9174 9.92851C88.6832 9.90846 89.3895 10.1224 89.6733 10.8977C89.977 11.7266 89.4357 12.2814 88.835 12.7158C86.7887 14.2064 84.7159 15.677 82.6564 17.1542C82.2339 17.455 81.818 17.7691 81.3956 18.0833C81.422 18.217 81.4484 18.3507 81.4748 18.4843C81.9104 18.5445 82.3527 18.6581 82.7884 18.6581C84.4387 18.6515 86.0889 18.5445 87.7326 18.5846C89.713 18.6381 90.4127 19.3266 90.4391 21.3318C90.4853 25.0015 90.4787 28.6778 90.4193 32.3542C90.3863 34.2191 89.2179 35.3353 87.3894 35.4022C86.6236 35.4289 85.8447 35.3821 85.0922 35.2484C84.7687 35.195 84.4981 34.8407 84.201 34.6268C84.2472 34.4998 84.2934 34.3728 84.333 34.2458C84.7357 34.1856 85.1384 34.0854 85.5477 34.0586C87.2705 33.945 87.9175 33.3568 87.9703 31.5855C88.0297 29.3061 87.9901 27.0201 87.9901 24.7341C87.9901 23.8986 88.0891 23.043 87.9439 22.2342C87.8448 21.6995 87.5016 21.0578 87.0659 20.7704C86.0889 20.1287 85.244 20.5899 85.0988 21.7663C84.9007 23.3638 84.8611 24.9881 84.6103 26.579C84.1284 29.6136 83.0128 32.3608 80.6826 34.4664C80.4846 34.6469 80.247 34.7805 79.9433 34.9944C79.2832 34.0052 79.5604 33.1496 80.1017 32.3675C82.2999 29.1858 82.6168 25.5496 82.63 21.8332C82.63 21.1647 82.4715 20.6099 81.6794 20.523C80.8015 20.4361 80.346 20.8038 80.28 21.7262C80.181 23.2235 80.0555 24.7207 79.8971 26.218C79.5142 29.7339 77.897 32.5346 75.0387 34.58C74.8275 34.7271 74.5766 34.814 74.2598 34.9677C73.7977 33.9517 73.9363 33.1429 74.6426 32.4678C77.798 29.4799 77.7055 25.4961 77.8904 21.6126C77.9036 21.285 77.5471 20.8238 77.2369 20.6099C76.0685 19.7878 76.0289 19.0792 77.1973 18.2437C79.2172 16.7999 81.2503 15.3829 83.2571 13.919C83.8644 13.4778 84.3991 12.9297 84.9668 12.4284C84.9338 12.2546 84.9007 12.0808 84.8677 11.907L84.8743 11.9204Z" fill="#B3B3AD"/>
<path id="Vector_3" d="M64.6623 28.6979C64.6095 27.9158 64.5566 27.4212 64.5566 26.9332C64.55 22.7623 64.55 18.5846 64.5566 14.4137C64.5566 12.4886 64.7415 12.3415 66.5238 12.6891C68.1873 13.01 68.4447 12.7961 68.4777 11.0582C68.4843 10.7239 68.4909 10.3897 68.4777 10.0555C68.4513 9.27347 68.8408 8.97268 69.5867 8.95262C70.4118 8.92589 70.8343 9.26678 70.8013 10.1157C70.8013 10.2828 70.8013 10.4499 70.8013 10.617C70.8453 11.8202 71.4592 12.473 72.643 12.5755C74.2471 12.7159 74.8346 13.1838 74.8676 14.8481C74.9402 18.7384 74.9402 22.6353 74.861 26.5322C74.828 28.1899 74.2537 28.611 72.5836 28.7113C70.9729 28.8048 70.8211 28.9586 70.7947 30.5962C70.7749 31.8729 70.7815 33.1563 70.7947 34.433C70.7947 35.2819 70.392 35.6228 69.5669 35.596C68.8078 35.5693 68.4645 35.2217 68.4711 34.4664C68.4777 33.0761 68.4909 31.6857 68.4645 30.2954C68.4381 28.9519 68.2335 28.7514 66.933 28.7046C66.2333 28.6845 65.527 28.7046 64.6491 28.7046L64.6623 28.6979ZM70.8409 24.2796C70.8409 24.2796 70.8145 24.2796 70.8079 24.2796C70.8079 24.6673 70.7881 25.0617 70.8079 25.4493C70.8409 26.1111 70.7815 26.9132 71.7188 26.9332C72.5044 26.9533 72.9136 26.3383 72.9731 25.6298C73.0589 24.5804 73.0391 23.5176 72.9929 22.4682C72.9599 21.7864 72.4384 21.4388 71.8509 21.5925C71.468 21.6928 70.9861 22.1005 70.8805 22.4682C70.7155 23.0296 70.8409 23.678 70.8409 24.2863V24.2796ZM70.8277 16.9871C70.8277 16.9871 70.8409 16.9871 70.8475 16.9871C70.8475 17.5887 70.7551 18.217 70.8805 18.7918C70.9597 19.1327 71.3558 19.5605 71.6792 19.634C72.0225 19.7143 72.5638 19.5338 72.8146 19.2731C73.3163 18.7584 73.0985 15.316 72.5506 14.8414C72.2601 14.5941 71.7717 14.4137 71.4152 14.4738C71.1776 14.5139 70.9069 15.0086 70.8475 15.3361C70.7551 15.8708 70.8211 16.4323 70.8211 16.9804L70.8277 16.9871ZM68.4645 17.0539C68.4645 16.4457 68.5767 15.804 68.4249 15.2291C68.3259 14.8481 67.9034 14.3869 67.5337 14.28C66.9264 14.0928 66.4314 14.4939 66.405 15.1556C66.3521 16.3721 66.3191 17.602 66.4314 18.8119C66.4644 19.1394 67.0123 19.5739 67.3951 19.6675C68.0288 19.8212 68.4249 19.3934 68.4513 18.7183C68.4777 18.1635 68.4513 17.6087 68.4513 17.0539H68.4645ZM68.4579 24.2796C68.4579 23.6646 68.5767 23.023 68.4183 22.4548C68.3127 22.0872 67.8176 21.6059 67.4809 21.5925C67.1311 21.5792 66.4842 22.0404 66.4578 22.3412C66.3455 23.6112 66.3389 24.9012 66.4578 26.1646C66.4842 26.4787 67.1179 26.96 67.4677 26.9533C67.8044 26.9533 68.3127 26.4653 68.4183 26.0977C68.5767 25.5362 68.4579 24.8879 68.4645 24.2729L68.4579 24.2796Z" fill="#B3B3AD"/>
<path id="Vector_4" d="M104.623 35.0681C104.273 33.9385 104.458 33.2099 104.966 32.4546C107.013 29.42 107.877 26.0043 107.95 22.3681C107.996 20.0887 107.943 17.8027 107.97 15.5234C107.983 14.6545 107.844 14.0128 106.821 13.8323C106.531 13.7788 106.313 13.2775 106.062 12.9767C106.379 12.7361 106.683 12.335 107.026 12.2949C107.877 12.1947 108.749 12.2615 109.521 12.2615C110.221 10.9714 109.033 10.3966 108.835 9.54769C110.828 9.03301 111.211 9.21348 111.739 10.8645C112.168 12.208 112.307 12.3016 113.739 12.2615C114.287 12.2481 114.861 12.1345 115.37 12.2815C115.7 12.3751 115.924 12.8564 116.195 13.1572C115.885 13.3978 115.601 13.8122 115.271 13.8457C114.347 13.9392 113.403 13.8791 112.472 13.8858C110.346 13.8991 110.287 13.9593 110.287 16.1785C110.287 18.3642 110.359 18.4311 112.498 18.4244C112.934 18.4244 113.376 18.4645 113.812 18.5113C114.842 18.6182 115.403 19.153 115.396 20.2492C115.376 24.3667 115.383 28.4842 115.363 32.6017C115.363 33.8984 114.782 34.8877 113.548 35.2954C112.406 35.6764 111.218 35.9371 110.109 34.7607C110.465 34.5535 110.703 34.3462 110.98 34.2593C112.373 33.8316 112.96 33.2968 112.993 31.8129C113.073 28.4775 113.066 25.1354 112.993 21.7932C112.98 21.2852 112.564 20.6235 112.135 20.316C111.237 19.6676 110.452 20.1355 110.307 21.2585C110.062 23.1836 109.963 25.142 109.548 27.0337C108.94 29.7943 107.6 32.2207 105.646 34.2727C105.395 34.5334 105.079 34.7272 104.643 35.0681H104.623Z" fill="#B3B3AD"/>
<path id="Vector_5" d="M123.891 18.5245C122.749 18.5044 121.792 18.4911 120.835 18.4777C120.175 18.471 119.508 18.5178 118.861 18.4309C118.61 18.3975 118.24 18.0633 118.221 17.836C118.201 17.5954 118.485 17.2211 118.729 17.1008C119.059 16.9403 119.475 16.9203 119.851 16.9069C121.548 16.8334 123.251 16.7264 124.954 16.7665C125.541 16.7799 126.38 17.0473 126.624 17.4751C126.868 17.9029 126.69 18.7919 126.386 19.2932C125.786 20.2758 124.921 21.0979 124.274 22.0605C123.964 22.515 123.653 23.2503 123.818 23.6647C123.964 24.0323 124.749 24.2195 125.284 24.3331C125.812 24.4467 126.386 24.3197 126.928 24.3933C127.706 24.5002 128.083 24.9547 127.812 26.0309C126.947 26.0309 126.03 26.0042 125.119 26.0309C123.924 26.071 123.693 26.2916 123.64 27.5215C123.568 29.1859 123.634 30.8636 123.462 32.5213C123.218 34.8942 120.921 36.2578 118.736 35.4022C118.405 35.2752 118.168 34.9009 117.897 34.6469C118.128 34.3728 118.181 34.2392 118.267 34.2191C120.505 33.6576 120.901 33.1697 120.954 30.8101C120.973 29.8075 120.973 28.8049 120.954 27.8089C120.927 26.2114 120.795 26.0777 119.27 26.0443C118.722 26.0309 118.174 26.0443 117.62 26.0376C117.072 26.0309 116.544 25.8705 116.696 25.2087C116.768 24.9013 117.23 24.5336 117.561 24.4802C118.26 24.3732 118.986 24.4467 119.699 24.4802C120.313 24.5002 120.683 24.3197 120.934 23.658C121.211 22.916 121.666 22.2276 122.135 21.5859C122.769 20.7169 123.634 20.0017 123.884 18.5379L123.891 18.5245Z" fill="#B3B3AD"/>
<path id="Vector_6" d="M100.94 50.99C100.419 51.0568 99.9961 51.117 99.5671 51.1704C98.1346 51.3442 97.1049 50.8362 96.854 49.3991C96.5834 47.8484 96.5174 46.204 96.7154 44.6466C96.9266 42.9555 97.8772 42.3272 99.5803 42.247C100.122 42.2202 100.676 42.2603 101.217 42.3472C102.531 42.5611 102.689 42.7282 102.696 44.0584C102.709 46.3912 102.729 48.724 102.656 51.0501C102.557 54.292 100.471 55.6021 97.3359 54.1382C97.8508 54.0848 98.3591 54.0179 98.874 53.9778C100.551 53.8441 101.217 52.9685 100.933 50.99H100.94ZM101.224 46.6719C101.224 46.6719 101.204 46.6719 101.191 46.6719C101.191 45.8431 101.198 45.0142 101.191 44.1854C101.178 43.3231 100.663 43.0357 99.8971 43.0691C99.0192 43.1092 98.3525 43.6306 98.2468 44.4327C98.062 45.8297 98.0752 47.2601 98.0884 48.6772C98.0884 49.0181 98.3459 49.4994 98.6297 49.6598C99.1512 49.9606 99.7915 50.2547 100.359 50.2213C101.052 50.1812 101.237 49.506 101.224 48.8376C101.211 48.1157 101.224 47.4005 101.224 46.6786V46.6719Z" fill="#B3B3AD"/>
<path id="Vector_7" d="M105.574 54.2053C109.382 53.4834 109.805 53.1291 109.363 50.9701C108.854 51.0503 108.333 51.1572 107.811 51.2107C106.201 51.3578 105.263 50.6225 105.178 48.9715C105.085 47.14 105.112 45.3018 105.164 43.4704C105.171 43.1228 105.508 42.5346 105.752 42.5011C106.458 42.4076 106.432 43.0493 106.432 43.5439C106.438 44.9342 106.419 46.3245 106.432 47.7149C106.438 48.2095 106.458 48.7309 106.61 49.1921C106.894 50.041 107.739 50.4688 108.584 50.315C109.475 50.1479 109.686 49.533 109.68 48.7242C109.666 47.1668 109.673 45.6093 109.673 44.0519C109.673 43.7177 109.6 43.3567 109.713 43.0626C109.812 42.8086 110.148 42.4276 110.32 42.461C110.617 42.5145 110.914 42.8086 111.125 43.0693C111.237 43.2097 111.185 43.4971 111.178 43.7177C111.125 46.3847 111.152 49.0584 110.993 51.7187C110.828 54.4994 108.26 55.7226 105.56 54.2119L105.574 54.2053Z" fill="#B3B3AD"/>
<path id="Vector_8" d="M71.7976 44.9943C71.7976 43.3233 71.7976 41.6522 71.7976 39.9812C71.7976 39.4865 71.7514 38.8181 72.4577 38.9317C72.7283 38.9785 72.966 39.6202 73.1046 40.0279C73.2036 40.3287 73.1112 40.6897 73.1244 41.0239C73.1772 42.441 73.3092 42.5412 74.6625 42.2939C76.5966 41.9396 77.6528 42.7551 77.699 44.7002C77.7386 46.4782 77.7188 48.2629 77.699 50.0476C77.699 50.5289 77.765 51.1505 77.0323 51.1572C76.2995 51.1572 76.3655 50.5556 76.3655 50.061C76.3589 48.6707 76.3655 47.2803 76.3655 45.8833C76.3655 45.4355 76.3853 44.9877 76.3127 44.5532C76.1477 43.6307 75.4348 43.0559 74.5898 43.076C73.6855 43.1027 73.1772 43.6174 73.1442 44.727C73.0914 46.3379 73.1574 47.9555 73.1046 49.573C73.0848 50.1613 73.4413 51.1639 72.4181 51.1238C71.4213 51.0837 71.8372 50.0944 71.8174 49.5062C71.758 48.0022 71.7976 46.4983 71.7976 44.9943Z" fill="#B3B3AD"/>
<path id="Vector_9" d="M121.508 9.38725C121.633 12.1211 121.633 12.1144 124.413 11.954C125.231 11.9072 126.069 11.8136 126.875 11.9406C127.244 12.0008 127.759 12.4887 127.819 12.8497C127.938 13.5515 127.291 13.5515 126.796 13.5582C125.145 13.5716 123.495 13.5916 121.851 13.5582C121.02 13.5382 120.419 13.8256 119.838 14.4539C118.848 15.5234 117.811 16.5995 116.359 16.9939C116.247 16.9137 116.135 16.8335 116.023 16.7533C116.201 16.2988 116.28 15.7573 116.584 15.4097C117.904 13.9125 118.775 12.2214 119 10.2161C119.066 9.62119 119.356 9.29367 119.95 9.30703C120.478 9.3204 121.013 9.36719 121.515 9.40061L121.508 9.38725Z" fill="#B3B3AD"/>
<path id="Vector_10" d="M120.036 46.5516C119.983 47.3002 119.97 47.8015 119.917 48.3028C119.66 50.6223 118.557 51.538 116.267 51.3442C114.867 51.2239 114.141 50.6757 113.745 49.3456C113.237 47.6478 113.257 45.9299 113.758 44.2388C114.168 42.8418 115.184 42.1801 116.782 42.1734C118.3 42.1667 119.356 42.8953 119.726 44.3257C119.931 45.1278 119.964 45.97 120.043 46.5583L120.036 46.5516ZM118.723 46.7855C118.551 45.8898 118.491 44.9273 118.142 44.0784C117.95 43.6172 117.25 43.0758 116.808 43.1025C116.28 43.1359 115.521 43.6105 115.316 44.0984C114.584 45.843 114.584 47.6946 115.29 49.4458C115.488 49.9472 116.247 50.5153 116.742 50.5086C117.244 50.5086 117.95 49.9271 118.181 49.4191C118.531 48.6437 118.551 47.7146 118.723 46.7788V46.7855Z" fill="#B3B3AD"/>
<path id="Vector_11" d="M101.798 24.5335C103.831 24.0523 104.168 24.2595 104.128 25.964C104.075 28.4772 103.765 30.9571 102.735 33.2832C101.904 35.1548 101.343 35.3821 99.118 34.7604C100.762 31.5654 101.91 28.2433 101.798 24.5268V24.5335Z" fill="#B3B3AD"/>
<path id="Vector_12" d="M85.6463 50.9965C84.5241 51.1168 83.5208 51.2439 82.5108 51.3374C80.8341 51.4912 79.91 50.6957 79.7647 49.0046C79.6261 47.3603 80.4644 46.4178 82.1609 46.3042C82.326 46.2908 82.491 46.3042 82.656 46.3109C83.4415 46.3577 84.2469 46.4713 84.3525 45.3149C84.4581 44.1719 83.9036 43.2896 82.8408 43.1024C82.2137 42.9888 81.5668 43.0022 80.9199 42.7883C82.0817 41.9995 83.3293 42.1132 84.5571 42.541C85.6199 42.9086 85.8047 43.8778 85.8245 44.847C85.8642 46.6785 85.8576 48.5033 85.8378 50.3348C85.8378 50.5888 85.6925 50.8428 85.6463 50.9898V50.9965ZM84.3459 48.6972C84.3591 47.4405 84.0356 46.9994 83.0983 47.006C82.0817 47.0194 81.1114 47.9418 81.151 48.8709C81.184 49.7466 81.9959 50.4685 82.9399 50.4551C83.9762 50.4417 84.3261 50.0006 84.3459 48.6905V48.6972Z" fill="#B3B3AD"/>
<path id="Vector_13" d="M128.228 46.7524C128.228 47.8686 128.228 48.9782 128.228 50.0945C128.228 50.7963 128.036 51.2442 127.158 51.1506C126.472 51.0837 125.765 51.2575 125.066 51.3244C123.198 51.5048 122.366 50.8297 122.293 48.9448C122.227 47.1668 122.26 45.3821 122.26 43.6041C122.26 43.0359 122.26 42.3675 123.052 42.4343C123.851 42.5012 123.666 43.1963 123.666 43.7378C123.653 45.2952 123.58 46.8593 123.679 48.41C123.719 49.0116 123.99 49.7669 124.419 50.1279C124.788 50.4354 125.64 50.5022 126.089 50.2749C126.498 50.0744 126.855 49.3592 126.888 48.8445C126.993 47.3472 126.921 45.8433 126.927 44.3393C126.927 43.9517 126.848 43.5305 126.973 43.183C127.079 42.8889 127.422 42.6816 127.66 42.4343C127.878 42.7084 128.261 42.9691 128.28 43.2498C128.353 44.4129 128.307 45.5826 128.307 46.7524C128.28 46.7524 128.261 46.7524 128.234 46.7524H128.228Z" fill="#B3B3AD"/>
<path id="Vector_14" d="M88.4975 42.6012C89.5537 42.4876 90.3524 42.4609 91.1313 42.3071C93.0523 41.9395 94.1349 42.6948 94.2207 44.6733C94.2999 46.5048 94.2801 48.3363 94.2273 50.1678C94.2207 50.5154 93.9038 51.0835 93.6464 51.137C92.9797 51.2707 92.8806 50.6958 92.8806 50.1611C92.8806 48.5502 92.9202 46.9393 92.8542 45.3351C92.8278 44.7602 92.709 44.0116 92.3394 43.6774C91.9235 43.3031 91.1644 43.1226 90.5835 43.1761C89.8309 43.2429 89.5735 43.9448 89.5669 44.6667C89.5537 46.2241 89.5669 47.7748 89.5603 49.3323C89.5603 49.7199 89.6131 50.1277 89.5075 50.4886C89.4283 50.7493 89.1312 50.9432 88.9332 51.1704C88.7153 50.9699 88.3127 50.7627 88.3127 50.5622C88.3391 47.9152 88.4183 45.2682 88.4909 42.6213C88.4909 42.5879 88.5701 42.5544 88.5041 42.6079L88.4975 42.6012Z" fill="#B3B3AD"/>
<path id="Vector_15" d="M69.4084 42.8287C66.1277 43.6374 65.9098 43.9115 65.9693 47.1935C66.0155 49.7402 66.4181 50.168 69.4084 50.7963C67.9364 52.0395 65.4412 51.3511 64.8735 49.4661C64.3322 47.6747 64.3256 45.8366 64.8867 44.0452C65.461 42.2137 67.745 41.6255 69.4084 42.822V42.8287Z" fill="#B3B3AD"/>
<path id="Vector_16" d="M99.5141 17.2677C102.115 16.7263 102.161 16.7798 102.927 18.7784C103.356 19.9013 103.897 20.9708 104.419 22.1339C103.277 22.5483 102.333 22.3678 101.712 21.3184C100.966 20.0618 100.313 18.7516 99.5141 17.2744V17.2677Z" fill="#B3B3AD"/>
<path id="Vector_17" d="M99.8771 10.2227C102.392 9.66786 102.518 9.76812 103.231 11.6865C103.666 12.8562 104.24 13.9658 104.769 15.1356C103.508 15.5767 102.551 15.2559 101.923 14.153C101.23 12.9231 100.616 11.6531 99.8705 10.2227H99.8771Z" fill="#B3B3AD"/>
</g>
<defs>
<clipPath id="clip0_83_79">
<rect width="127.671" height="54.5635" fill="white" transform="translate(0.641724 0.884766)"/>
</clipPath>
</defs>
</svg>
