<svg width="106" height="51" viewBox="0 0 106 51" fill="none" xmlns="http://www.w3.org/2000/svg">
<g id="_&#233;&#141;&#165;&#230;&#131;&#167;&#231;&#156;&#176;_1" clip-path="url(#clip0_83_111)">
<path id="Vector" d="M66.0077 27.25C65.9919 26.9985 65.9777 26.8712 65.9762 26.7438C65.9541 23.5336 65.9226 20.325 65.9147 17.1148C65.9037 12.5306 65.9084 7.94477 65.9147 3.36055C65.9147 2.60123 65.9541 1.84191 65.962 1.08259C65.9651 0.820055 66.0628 0.692716 66.3338 0.703721C66.5434 0.711581 66.753 0.702148 66.9625 0.702148C72.1623 0.702148 77.362 0.702148 82.5617 0.702148C83.2172 0.702148 83.2251 0.702148 83.2251 1.35299C83.2282 10.3941 83.2282 19.4352 83.2298 28.4747C83.2298 33.7679 83.233 39.0612 83.233 44.3544C83.233 44.5383 83.2676 44.7333 83.2125 44.8999C83.1699 45.0288 83.0265 45.1923 82.9068 45.2127C82.5475 45.2741 82.1757 45.2945 81.8101 45.2945C78.1861 45.2976 74.562 45.2992 70.938 45.2882C69.4679 45.2835 67.9978 45.2505 66.5292 45.2269C65.9825 45.2175 65.9588 45.1923 65.9588 44.6342C65.9588 42.721 65.9636 40.8077 65.9683 38.8961C65.9699 38.3034 65.9746 38.305 66.5592 38.305C70.8009 38.305 75.041 38.2987 79.2827 38.3144C79.7381 38.316 80.0012 38.1588 80.225 37.7752C82.2324 34.337 81.6793 29.921 78.851 27.1211C76.3709 24.6655 73.407 23.9298 70.0524 24.7991C68.6595 25.1592 67.4447 25.8918 66.4048 26.8963C66.3039 26.9938 66.1968 27.0802 66.0045 27.2485L66.0077 27.25Z" fill="#E17268"/>
<path id="Vector_2" d="M17.8383 28.1226C17.8383 35.068 17.8383 42.012 17.8383 48.9575C17.8383 49.7105 17.8383 49.7152 17.093 49.7734C16.8314 49.7938 16.5683 49.7891 16.3052 49.7891C11.4726 49.7891 6.64154 49.7907 1.80894 49.7875C1.4686 49.7875 1.12352 49.7765 0.791057 49.7168C0.674457 49.6948 0.521617 49.5218 0.497982 49.3961C0.442833 49.1021 0.442833 48.7971 0.442833 48.4953C0.439682 41.8516 0.438106 35.208 0.442833 28.5659C0.442833 27.7012 0.480649 26.8382 0.497982 25.9735C0.509012 25.384 0.510587 25.3855 1.07153 25.5145C4.44662 26.2911 7.38211 25.461 9.78816 22.9912C11.2819 21.4585 12.1123 19.5751 12.18 17.4088C12.3045 13.499 10.5681 10.6488 7.10951 8.89117C5.18246 7.91176 3.11203 7.76713 1.0085 8.32522C0.532647 8.45099 0.50586 8.44155 0.499558 7.96835C0.49483 7.61463 0.50586 7.26091 0.499558 6.90719C0.49483 6.63679 0.624036 6.52518 0.884022 6.53618C0.989592 6.5409 1.09359 6.53618 1.19916 6.53461C6.49027 6.53304 11.783 6.52989 17.0741 6.52832C17.8162 6.52832 17.8257 6.52832 17.8257 7.28921C17.8288 14.2347 17.8257 21.1786 17.8257 28.1241H17.8336L17.8383 28.1226Z" fill="#E17268"/>
<path id="Vector_3" d="M39.5656 27.5784C35.3648 23.6418 29.6042 24.6495 26.6435 27.9431C23.8545 31.0464 23.5047 35.9639 26.2653 39.3989C27.9087 41.4442 30.0532 42.6107 32.6893 42.7742C35.3128 42.9361 37.5755 42.0432 39.5577 40.1959C39.5892 40.9364 39.6286 41.57 39.6396 42.2051C39.6538 43.0304 39.6475 43.8558 39.6444 44.6811C39.6428 45.1653 39.5877 45.2219 39.096 45.2266C38.1632 45.2376 37.232 45.2298 36.2992 45.2392C34.5156 45.2549 32.7303 45.2864 30.9466 45.2942C28.5453 45.3052 26.1456 45.3005 23.7442 45.2958C23.4165 45.2958 23.0903 45.2392 22.7626 45.2376C22.4443 45.2376 22.3151 45.104 22.3198 44.7865C22.3309 44.013 22.3246 43.2411 22.3246 42.4676C22.3246 29.1567 22.3214 15.8443 22.3214 2.53338C22.3214 2.04917 22.3356 1.5634 22.334 1.07919C22.334 0.816655 22.449 0.695604 22.7153 0.701893C22.9769 0.709753 23.24 0.701893 23.5032 0.701893C28.6493 0.701893 33.797 0.701893 38.9432 0.701893C39.5877 0.701893 39.5908 0.703465 39.6349 1.34173C39.6523 1.59012 39.6523 1.83851 39.6523 2.08848C39.6523 10.081 39.6507 18.0735 39.6444 26.0644C39.6444 26.5439 39.5955 27.0218 39.5656 27.5784Z" fill="#E17268"/>
<path id="Vector_4" d="M87.7964 26.7043C87.7964 19.905 87.7933 13.1057 87.7996 6.30641C87.7996 5.30971 87.7208 5.42604 88.6977 5.42604C93.9621 5.4229 99.2264 5.42604 104.492 5.42604C105.143 5.42604 105.151 5.42761 105.153 6.0706C105.171 13.9436 105.187 21.8167 105.2 29.6897C105.2 30.2918 105.148 30.8939 105.143 31.496C105.141 31.8199 105.004 31.9268 104.691 31.9299C102.053 31.9566 99.5746 32.6279 97.2584 33.8652C93.5744 35.8334 90.9557 38.7622 89.4115 42.6437C88.7718 44.2535 88.3968 45.9168 88.3227 47.6492C88.3164 47.7876 88.1651 48.0187 88.0596 48.0328C87.7634 48.0706 87.8059 47.8017 87.8043 47.6147C87.798 44.6544 87.7949 41.6926 87.7933 38.7323C87.7933 34.7235 87.7933 30.7147 87.7933 26.7059H87.798L87.7964 26.7043Z" fill="#E17268"/>
<path id="Vector_5" d="M44.1921 13.3544C44.1701 13.1705 44.1464 13.0714 44.1464 12.9724C44.1417 11.6361 44.1496 10.2998 44.1322 8.96511C44.1275 8.60353 44.263 8.48877 44.6175 8.48877C50.0788 8.49663 55.5417 8.49663 61.003 8.48877C61.3969 8.48877 61.4915 8.65541 61.4899 9.00913C61.4836 11.4978 61.493 13.9879 61.493 16.4766C61.4915 27.5739 61.4883 38.6713 61.4851 49.7687C61.4851 49.9778 61.4678 50.19 61.4867 50.3975C61.523 50.7827 61.3433 50.8975 60.9809 50.8959C59.1563 50.888 57.3301 50.899 55.5055 50.899C51.9476 50.899 48.3897 50.899 44.8303 50.8928C44.1385 50.8928 44.137 50.8833 44.137 50.19C44.1338 44.7789 44.1307 39.3678 44.1291 33.9566C44.1291 31.9003 44.1354 29.844 44.1417 27.7893C44.1417 27.6243 44.1606 27.4608 44.1764 27.1919C47.1434 29.5894 50.3577 30.2559 53.892 28.9668C55.7497 28.2892 57.2151 27.0819 58.307 25.4422C60.6406 21.938 60.3507 17.3066 57.6326 14.197C55.9041 12.2193 53.7234 11.1299 51.1172 10.9522C48.511 10.7746 46.2153 11.6141 44.1921 13.3544Z" fill="#E17268"/>
</g>
<defs>
<clipPath id="clip0_83_111">
<rect width="104.756" height="50.1984" fill="white" transform="translate(0.441254 0.702148)"/>
</clipPath>
</defs>
</svg>
