<svg width="210" height="43" viewBox="0 0 210 43" fill="none" xmlns="http://www.w3.org/2000/svg">
<g id="_&#233;&#141;&#165;&#230;&#131;&#167;&#231;&#156;&#176;_1" clip-path="url(#clip0_83_73)">
<path id="Vector" d="M81.6272 17.3656C84.3569 18.5078 86.7672 19.3393 88.9799 20.5437C89.8619 21.0255 90.8276 22.331 90.8656 23.3023C91.0253 28.1511 90.9036 33.0078 90.8504 37.8644C90.8352 39.1387 90.1661 39.4573 89.094 38.9134C88.25 38.486 87.482 37.7556 86.6076 37.6002C85.5202 37.4059 84.1744 37.3049 83.2695 37.7944C80.5778 39.2708 78.0458 41.0659 75.2857 42.8375C71.6207 40.4908 67.9253 38.1208 64.2299 35.7508C63.7509 35.4399 63.3251 34.997 62.808 34.8028C59.9186 33.6993 59.1202 31.5236 59.2343 28.5319C59.4472 23.0381 59.4244 17.5287 59.4852 12.0272C59.5004 10.5507 60.0783 9.54834 61.3785 8.74797C65.5073 6.19922 69.5601 3.53391 73.6205 0.876364C74.7686 0.122617 75.8103 0.0759931 76.9737 0.82197C81.0417 3.43289 85.1401 6.00495 89.2156 8.61587C90.3182 9.323 91.4131 13.6357 90.6831 14.6458C90.5235 14.8634 89.7023 14.8479 89.3677 14.6381C85.2541 12.0349 81.1481 9.41624 77.0878 6.71985C75.8103 5.87285 74.7154 5.82623 73.4836 6.73539C71.9629 7.86212 70.3129 8.81791 68.8378 9.99904C68.3359 10.4031 67.9253 11.2579 67.9177 11.9106C67.8493 18.1892 67.8797 24.4756 67.8797 30.7543C67.8797 30.9485 67.8569 31.1584 67.9101 31.3371C68.564 33.5439 70.655 34.0257 72.2822 35.0281C73.879 36.0072 75.453 37.7711 77.3995 35.5565C77.5972 35.3312 77.9546 35.2535 78.2435 35.1214C80.6311 34.0024 81.7184 32.2307 81.5207 29.4333C81.3002 26.2784 81.4371 23.0925 81.4447 19.9143C81.4447 19.1683 81.5511 18.4224 81.6272 17.3656Z" fill="white"/>
<path id="Vector_2" d="M31.6405 15.5317C30.6293 15.0421 30.135 14.8556 29.7016 14.5836C25.588 11.9494 21.4744 9.32296 17.3912 6.64988C16.167 5.8495 15.1634 5.94275 13.9392 6.76643C7.71175 10.9703 8.63179 9.26856 8.57096 16.8371C8.54055 21.0488 8.61659 25.2527 8.55576 29.4643C8.52534 31.4381 8.96636 32.9689 10.8901 33.8936C12.1751 34.5152 13.3081 35.4555 14.517 36.2403C14.7299 36.3802 14.9733 36.4734 15.2166 36.5278C17.3608 37.0407 22.0295 33.404 22.0599 31.1195C22.1207 27.2963 22.0903 23.481 22.1131 19.6578C22.1131 19.1528 22.2196 18.6477 22.3412 17.552C25.2687 18.7565 27.9984 19.8288 30.6673 21.0255C31.0551 21.1964 31.3896 21.9813 31.3896 22.4786C31.3896 27.848 31.3288 33.2253 31.2756 38.5948C31.2756 38.7113 31.1767 38.8279 30.9942 39.263C29.8385 38.758 28.6295 38.3228 27.5193 37.7089C26.0898 36.9241 24.8657 36.9552 23.4894 37.9265C21.3223 39.4495 19.064 40.8482 16.7753 42.1692C16.2811 42.4568 15.323 42.4179 14.8364 42.1071C10.4643 39.3485 6.1682 36.4734 1.80368 33.6993C0.845621 33.0932 0.397003 32.3861 0.397003 31.2205C0.419814 24.6155 0.358985 18.0105 0.457833 11.4055C0.47304 10.6129 1.08133 9.54831 1.73525 9.09761C5.88686 6.2458 10.0917 3.45616 14.3802 0.821933C15.1253 0.363468 16.6005 0.347927 17.3532 0.806392C21.7177 3.45616 26.0214 6.22249 30.2339 9.11315C32.4161 10.6129 30.9866 13.0295 31.6481 15.5239L31.6405 15.5317Z" fill="white"/>
<path id="Vector_3" d="M199.431 17.2028C202.594 18.5549 205.4 19.6738 208.122 20.9871C208.616 21.228 208.981 22.2692 208.996 22.9453C209.05 25.7893 209.012 28.6411 208.86 31.4851C208.822 32.1534 208.396 33.0393 207.871 33.4123C203.583 36.4506 199.249 39.4034 194.876 42.3096C194.504 42.5582 193.667 42.4728 193.249 42.2086C188.854 39.4889 184.528 36.6759 180.133 33.964C178.916 33.2102 178.437 32.3166 178.452 30.8402C178.513 24.6859 178.536 18.5316 178.414 12.3773C178.376 10.5356 178.962 9.40113 180.49 8.46866C184.513 6.02869 188.482 3.50325 192.413 0.915645C193.667 0.0919624 194.717 0.115274 195.918 0.892333C199.895 3.4644 203.894 5.98984 207.871 8.55414C209.529 9.61871 210.426 12.556 209.597 14.3821C209.491 14.623 208.54 14.7628 208.213 14.5608C204.024 11.9654 199.918 9.22241 195.675 6.72805C194.846 6.2385 193.515 6.58818 192.428 6.67365C192.033 6.70473 191.645 7.06218 191.28 7.31084C186.474 10.5589 186.505 10.5589 186.566 16.5812C186.611 20.9871 186.619 25.393 186.543 29.7912C186.512 31.4074 187.113 32.4953 188.398 33.3268C189.888 34.2826 191.348 35.2927 192.839 36.2563C193.15 36.4583 193.538 36.606 193.903 36.637C195.804 36.8235 199.249 33.6454 199.264 31.6639C199.287 27.7086 199.264 23.7612 199.279 19.806C199.279 19.1066 199.355 18.415 199.431 17.2028Z" fill="white"/>
<path id="Vector_4" d="M129.203 39.4265C127.074 38.0588 124.907 36.7456 122.839 35.2925C122.307 34.9195 121.767 34.1114 121.752 33.4897C121.638 26.1776 121.615 18.8733 121.585 11.5611C121.585 10.3256 122.064 9.40868 123.166 8.7171C127.28 6.1528 131.363 3.54188 135.416 0.87657C136.663 0.0606576 137.72 0.130593 138.921 0.923193C143.027 3.6429 147.217 6.24605 151.246 9.07454C152.068 9.64957 152.798 11.0327 152.813 12.0507C152.942 18.8499 152.927 25.6492 152.798 32.4485C152.782 33.412 152.083 34.632 151.33 35.2614C149.642 36.6524 147.734 37.7636 145.878 38.9291C145.551 39.1312 145.042 39.0379 144.365 39.1079C144.365 38.2065 144.365 37.4527 144.365 36.699C144.373 28.602 144.342 20.5051 144.426 12.4081C144.441 10.7763 143.939 9.7195 142.525 9.03569C141.962 8.76372 141.445 8.38296 140.905 8.06437C139.468 7.22514 138.145 5.39128 136.396 6.21497C134.153 7.27177 132.116 8.8492 130.146 10.4033C129.675 10.7763 129.69 11.9574 129.69 12.7578C129.69 20.8548 129.736 28.9517 129.766 37.0487C129.766 37.6859 129.766 38.3153 129.766 38.9525C129.576 39.1079 129.378 39.2633 129.188 39.4187L129.203 39.4265Z" fill="white"/>
</g>
<defs>
<clipPath id="clip0_83_73">
<rect width="209.512" height="42.5595" fill="white" transform="translate(0.396973 0.286133)"/>
</clipPath>
</defs>
</svg>
