<svg width="208" height="55" viewBox="0 0 208 55" fill="none" xmlns="http://www.w3.org/2000/svg">
<g id="_&#233;&#141;&#165;&#230;&#131;&#167;&#231;&#156;&#176;_1" clip-path="url(#clip0_83_118)">
<path id="Vector" d="M12.9062 27.7968C12.9062 33.4909 12.8974 39.185 12.9062 44.8791C12.9062 46.4378 15.1069 49.42 16.4977 49.8434C17.7565 50.2218 20.5293 47.4018 20.5557 45.5818C20.6085 41.7618 20.5821 37.9417 20.5821 34.1216C20.5821 28.2022 20.5645 22.2829 20.6085 16.3636C20.6085 15.6788 20.9254 15.0031 21.0927 14.3184C21.7177 14.6517 22.3691 14.931 22.9676 15.3185C25.943 17.2465 27.0433 19.8683 26.8584 23.5983C26.5239 30.3285 26.6912 37.0858 26.7968 43.825C26.8232 45.735 26.2687 47.0955 24.8426 48.2757C22.6243 50.1137 20.5645 52.1499 18.2846 53.9068C17.6772 54.3753 16.216 54.5284 15.6966 54.114C12.871 51.8616 10.1685 49.438 7.52775 46.9603C7.02599 46.4918 6.77952 45.5098 6.77071 44.771C6.7267 33.4549 6.7179 22.1388 6.77952 10.8226C6.77952 9.96673 7.21965 8.88557 7.81823 8.30895C10.2214 6.0115 12.7829 3.88522 15.2653 1.65984C16.2952 0.731846 17.2107 0.560663 18.3374 1.59677C20.6701 3.75909 23.0909 5.82229 25.4676 7.93055C25.7405 8.17381 26.1806 8.42608 26.2158 8.7234C26.3743 10.0118 26.4095 11.3092 26.4975 12.6066C25.6789 12.1561 24.7898 11.8047 24.068 11.2281C22.4571 9.9397 20.987 8.45311 19.3409 7.20978C18.4343 6.51604 16.885 5.43488 16.3304 5.76824C14.7195 6.71425 12.8622 7.76838 12.8886 10.264C12.9502 16.1113 12.9062 21.9496 12.9062 27.7968Z" fill="#E8D398"/>
<path id="Vector_2" d="M170.061 26.4902C169.577 25.7334 169.11 24.9586 168.609 24.2198C167.614 22.7512 166.602 21.2827 165.572 19.8411C165.387 19.5888 165.052 19.4447 164.788 19.2555C164.709 19.5348 164.577 19.8141 164.568 20.0934C164.542 22.2647 164.594 24.436 164.498 26.6074C164.471 27.1569 163.987 27.6795 163.705 28.2111C163.38 27.6615 162.807 27.1299 162.763 26.5533C162.64 24.7694 162.737 22.9585 162.693 21.1655C162.675 20.5258 162.499 19.8862 162.394 19.2465C161.989 19.715 161.566 20.1745 161.188 20.661C160.061 22.1206 159.013 23.6522 157.79 25.0217C157.376 25.4902 156.531 25.5532 155.888 25.8055C156.179 25.1118 156.346 24.3369 156.777 23.7423C157.772 22.3638 159.004 21.1475 159.92 19.724C161.047 17.9581 160.703 17.5256 158.608 17.2914C157.754 17.1923 156.945 16.7688 156.108 16.4985C156.953 16.2553 157.781 15.958 158.644 15.7958C159.207 15.6877 159.814 15.7237 160.395 15.7778C162.068 15.949 162.807 15.2822 162.763 13.4893C162.746 12.8496 163.318 12.1919 163.626 11.5522C163.934 12.2009 164.515 12.8586 164.498 13.4983C164.445 15.3003 165.193 15.9219 166.866 15.7868C167.887 15.7057 168.926 15.7237 169.938 15.8318C170.343 15.8769 170.713 16.2823 171.1 16.5256C170.695 16.7688 170.317 17.1562 169.876 17.2373C166.179 17.9221 166.029 18.3005 168.485 21.3637C169.313 22.4089 170.281 23.3369 171.1 24.382C171.329 24.6703 171.32 25.2109 171.276 25.6163C171.258 25.7875 170.871 25.9226 170.66 26.0668C170.466 26.2019 170.264 26.3461 170.07 26.4812L170.061 26.4902Z" fill="#E8D398"/>
<path id="Vector_3" d="M182.261 12.2101C184.092 12.2101 185.924 12.156 187.746 12.2461C188.265 12.2731 188.767 12.7416 189.278 13.0119C188.741 13.2822 188.23 13.6876 187.667 13.7868C186.883 13.9219 186.056 13.8859 185.254 13.8228C183.265 13.6786 182.57 14.5616 182.622 16.6068C182.719 20.2737 182.622 20.1926 186.223 20.3368C187.446 20.3818 188.652 20.9764 189.867 21.3188C188.67 21.5891 187.473 22.0486 186.267 22.0846C182.71 22.1927 182.71 22.1297 182.649 25.8056C182.649 26.2561 182.71 26.7336 182.587 27.139C182.473 27.5084 182.147 27.8148 181.909 28.1481C181.584 27.8238 181.231 27.5174 180.95 27.1571C180.835 27.0129 180.906 26.7246 180.888 26.4994C180.677 23.6283 179.122 22.1687 176.222 22.1207C175.853 22.1207 175.448 22.2018 175.14 22.0666C174.735 21.8864 174.409 21.526 174.048 21.2467C174.391 20.9404 174.717 20.4088 175.087 20.3728C176.39 20.2467 177.719 20.2467 179.031 20.2917C180.325 20.3278 180.941 19.7872 180.87 18.4447C180.835 17.8501 180.818 17.2374 180.888 16.6518C181.143 14.4985 180.228 13.7057 178.142 13.7777C177.103 13.8138 176.038 13.2822 174.99 13.0029C176.02 12.7416 177.041 12.3452 178.08 12.2371C179.462 12.1019 180.853 12.2011 182.244 12.2011L182.261 12.2101Z" fill="#E8D398"/>
<path id="Vector_4" d="M4.27097 32.5629C4.27097 35.6262 4.29738 38.6985 4.24456 41.7617C4.24456 42.2843 3.90123 42.8069 3.71637 43.3204C3.27621 43.0771 2.65998 42.951 2.4399 42.5816C1.77967 41.4374 0.828923 40.2301 0.776104 39.0048C0.582434 34.6802 0.705679 30.3285 0.705679 25.9949C0.705679 25.6255 0.582434 25.1209 0.767301 24.8957C1.66523 23.7875 2.65118 22.7604 3.61073 21.6973C3.83081 22.6973 4.20934 23.6974 4.24456 24.7065C4.33259 27.3193 4.27097 29.9411 4.27097 32.5629Z" fill="#E8D398"/>
<path id="Vector_5" d="M29.6049 32.4639C29.6049 29.5538 29.5785 26.6437 29.6313 23.7336C29.6313 23.2561 29.9394 22.7876 30.1067 22.3101C30.5468 22.4812 31.0486 22.5803 31.4271 22.8416C32.0874 23.3011 32.642 23.9228 33.2934 24.3913C34.7019 25.3823 35.1245 26.2923 33.6543 27.7339C33.0821 28.2925 32.9325 29.4907 32.9061 30.4097C32.8092 33.2388 32.8797 36.0858 32.8533 38.9148C32.8533 39.5815 32.9589 40.4284 32.6156 40.8699C31.9817 41.6898 31.0574 42.2754 30.2563 42.9602C30.0362 42.1493 29.6489 41.3384 29.6225 40.5185C29.5433 37.8337 29.5961 35.1488 29.5961 32.4549H29.6225L29.6049 32.4639Z" fill="#E8D398"/>
<path id="Vector_6" d="M103.653 17.8319C103.072 18.3725 102.685 18.832 102.201 19.1383C101.875 19.3365 101.417 19.3185 101.021 19.3906C101.065 18.9942 100.968 18.4896 101.171 18.2374C101.804 17.4625 102.676 16.7958 101.215 16.012C101.435 15.6426 101.672 14.9488 101.884 14.9579C103.459 15.0209 104.181 14.3722 104.146 12.7235C104.146 12.3631 104.639 12.0027 104.912 11.6333C105.185 12.0207 105.634 12.3721 105.695 12.7865C105.863 14.0028 106.1 15.0209 107.623 14.8948C107.694 14.8948 107.791 14.9128 107.826 14.9579C107.993 15.1651 108.152 15.3903 108.31 15.6066C105.995 15.8768 108.662 17.9671 107.227 18.6608C106.444 19.0392 105.81 19.724 105.114 20.2645C105.766 20.5619 106.409 21.0394 107.086 21.1114C109.102 21.3367 108.645 22.562 108.072 23.6522C107.544 24.6522 107.042 25.4991 108.134 26.3911C107.843 26.7425 107.377 27.4362 107.289 27.3912C105.528 26.4542 104.076 27.3641 102.544 28.0308C102.13 28.211 101.576 28.0759 101.1 27.9948C101.047 27.9858 100.986 27.1299 101.1 27.0758C103.794 25.8325 101.804 23.9495 101.338 22.7782C100.792 21.4178 101.065 21.4898 102.113 21.0484C102.922 20.706 103.477 19.6699 104.067 18.8771C104.164 18.7419 103.847 18.2914 103.662 17.8409L103.653 17.8319ZM106.981 23.3278C106.065 22.9854 105.59 22.6251 105.273 22.7242C104.745 22.8954 104.305 23.3729 103.829 23.7242C104.164 24.0216 104.577 24.6072 104.824 24.5441C105.431 24.391 105.96 23.9315 106.981 23.3188V23.3278Z" fill="#E8D398"/>
<path id="Vector_7" d="M145.466 28.175C143.926 28.175 142.376 28.3371 140.862 28.1389C138.52 27.8326 137.878 26.301 139.524 24.6162C141.153 22.9494 143.195 21.697 145.044 20.2555C145.554 19.8591 146.021 19.4176 146.514 19.0031C145.836 18.85 145.167 18.6067 144.489 18.5707C143.177 18.4896 141.848 18.6067 140.545 18.4806C140.096 18.4355 139.691 17.904 139.26 17.5976C139.7 17.3093 140.14 16.7868 140.589 16.7688C143.371 16.6787 146.153 16.6606 148.935 16.7417C149.533 16.7597 150.114 17.2913 150.704 17.5796C150.308 18.1652 150.035 18.9311 149.498 19.2915C147.491 20.6429 145.325 21.7781 143.353 23.1746C142.385 23.8593 141.69 24.9495 140.871 25.8595C142.042 26.0487 143.195 26.31 144.375 26.4091C145.537 26.5082 146.716 26.4091 147.887 26.4361C149.727 26.4902 151.54 26.5803 151.584 23.8864C151.584 23.6791 152.042 23.4719 152.289 23.2647C152.588 23.7332 153.107 24.1747 153.134 24.6612C153.248 26.5172 151.822 28.0488 149.868 28.193C148.415 28.3011 146.945 28.211 145.475 28.211C145.475 28.202 145.475 28.184 145.475 28.175H145.466Z" fill="#E8D398"/>
<path id="Vector_8" d="M67.3864 26.6796C63.8563 26.6796 61.8052 25.3912 60.9953 22.8956C59.9301 19.6251 60.6696 16.2194 62.8263 14.4535C64.7542 12.8768 67.9938 12.6876 70.0361 14.0661C70.4587 14.3544 70.9869 14.6698 71.1541 15.1022C71.4182 15.787 71.427 16.5798 71.5415 17.3276C70.9341 17.0213 70.133 16.8771 69.7544 16.3816C68.5484 14.7869 66.7966 14.6247 65.3881 15.2464C64.2524 15.7509 63.2753 17.1835 62.7559 18.4358C61.9196 20.4179 62.2805 22.5622 63.8827 24.0218C65.3176 25.3282 67.2367 25.6435 69.015 24.6705C69.64 24.3281 70.2386 23.4271 70.3002 22.7334C70.3443 22.3009 69.3935 21.7153 68.8213 21.2919C68.3547 20.9495 67.7913 20.7423 67.2719 20.472C67.8089 20.2017 68.3635 19.6701 68.8829 19.7062C70.177 19.7963 72.0081 18.8773 72.2986 21.3099C72.7035 24.6344 71.9112 26.139 69.4287 26.5174C68.6364 26.6346 67.8177 26.6346 67.3776 26.6706L67.3864 26.6796Z" fill="#E8D398"/>
<path id="Vector_9" d="M53.619 26.6704C49.6576 26.6974 48.073 25.6162 46.955 22.3728C45.969 19.4987 46.7965 16.3093 49.0061 14.4713C50.9164 12.8766 54.0944 12.6874 56.1895 14.0929C56.6649 14.4172 57.2195 14.8047 57.4396 15.3002C57.6772 15.8408 57.5804 16.5435 57.6332 17.1832C57.0874 16.994 56.3128 16.967 56.0311 16.5705C54.7634 14.7686 52.8355 14.5524 51.339 15.3182C50.1153 15.9489 48.8389 17.6787 48.7068 19.0392C48.5484 20.688 49.0853 22.9944 50.2034 24.0215C51.2157 24.9585 53.4077 24.7333 55.0715 24.6702C55.5909 24.6522 56.4448 23.49 56.4536 22.8503C56.4536 22.3367 55.4412 21.7781 54.825 21.2916C54.4201 20.9673 53.9271 20.76 53.4781 20.4988C53.9359 20.2285 54.4289 19.6879 54.8602 19.7239C56.2071 19.8591 58.1438 18.7599 58.5224 21.2736C59.0065 24.49 58.1614 26.0577 55.6613 26.4992C54.869 26.6433 54.0591 26.6343 53.619 26.6613V26.6704Z" fill="#E8D398"/>
<path id="Vector_10" d="M116.637 27.1753C116.4 27.4996 116.241 27.8871 116.056 27.9051C115.748 27.9321 115.291 27.815 115.123 27.5897C113.794 25.8148 112.526 25.4454 111.091 27.5087C110.871 27.824 110.105 27.7249 109.586 27.824C109.753 27.2744 109.753 26.5446 110.114 26.2113C111.672 24.7337 112.553 23.184 111.144 21.1388C110.889 20.7694 110.422 20.5532 110.132 20.2018C109.753 19.7333 109.119 19.1387 109.181 18.6882C109.472 16.7061 109.938 14.751 110.422 12.8139C110.528 12.3815 111.012 12.0571 111.32 11.6787C111.558 12.0571 111.716 12.5526 112.042 12.7959C112.694 13.2914 113.398 13.8951 114.146 14.0122C115.599 14.2284 116.778 13.9762 115.739 16.3097C114.806 18.4179 114.551 20.9046 114.305 23.2561C114.225 24.0399 115.053 24.9499 115.519 25.7698C115.81 26.2653 116.215 26.6798 116.611 27.1843L116.637 27.1753ZM114.172 17.3998C113.644 16.8773 113.248 16.2916 112.702 16.0304C112.5 15.9313 111.567 16.7151 111.62 16.9223C111.919 18.0756 112.421 19.1747 112.852 20.2919C113.231 19.463 113.618 18.6251 114.181 17.3998H114.172Z" fill="#E8D398"/>
<path id="Vector_11" d="M85.4057 25.3914C85.1504 25.7608 84.8247 26.4005 84.7102 26.3644C84.2349 26.2203 83.5482 25.941 83.4426 25.5626C82.8528 23.4002 81.4267 23.0218 79.4547 23.0399C77.7293 23.0489 76.761 23.6435 76.1095 25.2382C75.8983 25.7518 75.0884 26.013 74.5514 26.3914C74.525 25.7428 74.2961 25.031 74.4986 24.4724C75.687 21.1208 76.9634 17.7962 78.2399 14.4807C78.8297 12.9401 80.2206 12.6698 80.828 13.9762C82.5535 17.6521 83.8827 21.5172 85.3969 25.4004L85.4057 25.3914ZM79.6044 22.4092C80.4583 21.5082 81.4707 20.8415 81.3826 20.4541C81.0569 19.1387 80.3439 17.9224 79.7805 16.661C79.1818 17.9494 78.46 19.1927 78.055 20.5352C77.9494 20.8685 78.8473 21.5262 79.6044 22.4002V22.4092Z" fill="#E8D398"/>
<path id="Vector_12" d="M93.0285 26.6434C89.7361 26.6073 87.9403 25.346 87.0688 22.6431C86.2148 20.0033 87.1392 15.994 88.9438 14.5164C90.9509 12.8676 94.0233 12.6784 96.136 14.111C96.5586 14.3993 97.0604 14.7146 97.254 15.1471C97.5445 15.7958 97.5885 16.5616 97.7382 17.2734C97.166 16.985 96.4793 16.8139 96.0392 16.3814C94.5162 14.8768 91.9633 14.5254 90.4404 15.7147C88.6709 17.1022 88.1339 20.715 89.3664 22.9494C90.4492 24.9135 92.4211 25.6884 94.4194 24.7153C95.2029 24.3279 95.7223 23.4089 96.4177 22.8053C96.7522 22.517 97.2364 22.3998 97.6502 22.2016C97.7646 22.7242 98.1255 23.3639 97.9407 23.7423C96.8843 25.9136 95.106 26.8866 93.0285 26.6524V26.6434Z" fill="#E8D398"/>
<path id="Vector_13" d="M127.121 16.6968C128.151 16.6968 129.181 16.6157 130.194 16.7328C130.687 16.7869 131.153 17.1923 131.629 17.4356C131.365 17.9221 131.171 18.4717 130.819 18.8771C130.123 19.6609 129.34 20.3547 128.592 21.0845C129.701 21.2737 130.819 21.4178 131.91 21.6701C132.87 21.8953 133.803 22.2377 134.754 22.526C133.803 22.7152 132.843 23.0936 131.902 23.0486C129.63 22.9405 127.826 23.0486 127.975 26.22C128.011 26.8867 126.769 27.7516 125.959 28.2832C125.625 28.4994 124.903 28.094 124.348 27.9678C124.709 27.6165 125.193 27.3191 125.405 26.8867C125.792 26.0848 126.303 25.1839 126.223 24.364C126.179 23.8955 125.141 23.2648 124.489 23.1567C123.195 22.9585 121.857 23.1387 120.545 23.0396C120.061 23.0035 119.595 22.6071 119.128 22.3728C119.621 22.1386 120.096 21.7512 120.607 21.6971C121.619 21.58 122.693 21.4719 123.671 21.6701C125.871 22.1206 126.382 20.1024 127.597 19.1023C127.271 18.769 126.972 18.2014 126.611 18.1473C125.528 17.9761 124.419 18.0572 123.327 17.9401C123.054 17.9131 122.808 17.5257 122.553 17.3004C122.834 17.1022 123.107 16.7598 123.398 16.7418C124.639 16.6788 125.889 16.7148 127.13 16.7148V16.6878L127.121 16.6968Z" fill="#E8D398"/>
<path id="Vector_14" d="M206.733 24.5083C206.733 25.4183 206.733 26.094 206.733 26.7697C206.733 28.0401 206.179 28.3464 204.928 28.2743C202.023 28.1031 199.101 28.1482 196.187 28.1212C195.756 28.1212 194.954 28.2113 194.946 28.1572C194.646 26.3102 194.285 24.4542 194.277 22.5982C194.277 22.0487 195.28 21.0486 195.87 21.0216C198.933 20.8504 202.023 20.8053 205.096 20.9405C207.86 21.0666 206.284 23.4361 206.742 24.5173L206.733 24.5083ZM200.236 26.3282C201.258 26.3282 202.358 26.5715 203.265 26.2471C203.934 26.0129 204.761 25.0399 204.761 24.3912C204.761 23.7064 203.942 22.4901 203.379 22.4271C201.372 22.1838 199.294 22.1748 197.287 22.4271C196.706 22.4991 195.852 23.7154 195.87 24.4002C195.879 25.0489 196.742 25.9859 197.428 26.2562C198.256 26.5805 199.294 26.3282 200.236 26.3372V26.3282Z" fill="#E8D398"/>
<path id="Vector_15" d="M198.15 16.7148C199.312 16.7148 200.492 16.7959 201.645 16.6878C202.728 16.5887 204.84 17.3094 203.485 14.7417C203.943 14.5074 204.744 14.0029 204.805 14.084C205.923 15.5435 206.98 17.0572 207.966 18.6248C208.106 18.8411 207.869 19.5078 207.613 19.715C207.42 19.8682 206.724 19.742 206.584 19.5168C205.659 18.0032 204.356 18.2645 202.913 18.3726C200.078 18.5888 197.226 18.5888 194.382 18.6158C193.942 18.6158 193.291 18.3816 193.123 18.0572C192.974 17.7689 193.256 17.0842 193.537 16.7508C194.778 15.3003 196.055 13.8678 197.419 12.5343C197.86 12.1019 198.608 12.0028 199.224 11.7505C199.066 12.4082 199.013 13.12 198.722 13.7056C198.432 14.2822 197.86 14.7147 197.481 15.2552C197.199 15.6517 197.014 16.1202 196.786 16.5616C197.226 16.7328 197.675 16.904 198.115 17.0752C198.132 16.9581 198.159 16.8319 198.176 16.7148H198.15Z" fill="#E8D398"/>
<path id="Vector_16" d="M80.7572 36.5451C80.8981 36.2478 81.0654 35.8874 81.2326 35.527C81.4703 35.8424 81.8048 36.1307 81.9193 36.4911C82.2626 37.6263 82.4827 38.7975 82.8348 39.9238C82.9492 40.2931 83.3454 40.5724 83.6095 40.8968C83.8296 40.5724 84.1553 40.2841 84.2609 39.9238C84.6042 38.7885 84.8331 37.6173 85.194 36.4911C85.3349 36.0586 85.731 35.7072 86.0039 35.3198C86.3737 35.6892 86.9107 35.9865 87.0779 36.437C87.4653 37.4731 87.6237 38.5903 87.9759 39.6445C88.1255 40.1039 88.5217 40.4733 88.8034 40.8878C89.0322 40.5004 89.358 40.14 89.4812 39.7165C89.8245 38.5813 90.0358 37.4101 90.4055 36.2839C90.5112 35.9505 90.9513 35.7253 91.233 35.455C91.3827 35.7253 91.7084 36.0496 91.6468 36.2658C91.0306 38.5633 90.3791 40.8427 89.6749 43.1042C89.5692 43.4465 88.997 43.9781 88.8474 43.915C88.4424 43.7438 87.9935 43.3564 87.8526 42.951C87.4653 41.8338 87.254 40.6625 86.9107 39.5273C86.761 39.0498 86.4529 38.6264 86.2064 38.1759C85.9159 38.6624 85.5286 39.1219 85.3525 39.6535C84.9652 40.8517 84.7363 42.1041 84.3401 43.2934C84.2345 43.6087 83.7591 43.924 83.407 43.9871C83.2045 44.0231 82.7732 43.6087 82.6851 43.3204C82.0161 41.122 81.4175 38.8967 80.7484 36.5451H80.7572Z" fill="#E8D398"/>
<path id="Vector_17" d="M134.507 15.9401C134.507 15.9401 134.305 16.5077 134.085 17.1114C133.706 16.6699 133.407 16.1113 132.94 15.814C132.315 15.4176 131.567 15.0121 130.854 14.9851C128.521 14.877 126.179 14.913 123.847 14.949C122.456 14.9671 120.774 14.5076 120.484 16.769C120.466 16.8861 119.832 16.9132 119.48 16.9852C119.366 16.1203 119.031 15.2103 119.207 14.4085C119.313 13.922 120.14 13.3724 120.73 13.2642C121.716 13.066 122.825 13.4084 123.767 13.1291C124.859 12.8138 125.836 11.6155 126.849 11.6335C127.949 11.6515 128.988 12.7687 130.141 13.1381C130.942 13.3904 131.884 13.2372 132.755 13.1922C134.217 13.1201 134.727 13.8859 134.516 15.9491L134.507 15.9401Z" fill="#E8D398"/>
<path id="Vector_18" d="M197.138 39.5903C197.138 39.0678 197.041 38.5182 197.155 38.0227C197.366 37.1037 197.692 36.2117 197.974 35.3018C198.564 36.0676 199.215 36.7974 199.734 37.6172C200.087 38.1668 200.21 38.8696 200.536 39.4462C200.949 40.167 201.46 40.8337 201.926 41.5274C202.349 40.8607 202.842 40.221 203.194 39.5183C203.757 38.3921 204.189 37.1938 204.796 36.0946C204.999 35.7162 205.589 35.3018 205.941 35.3558C206.249 35.4009 206.68 36.0676 206.689 36.473C206.768 38.5632 206.751 40.6625 206.698 42.7617C206.698 43.0951 206.31 43.4194 206.099 43.7528C205.923 43.4465 205.633 43.1582 205.606 42.8428C205.518 41.8788 205.58 40.8967 205.501 39.9237C205.474 39.6174 205.192 39.3291 205.025 39.0408C204.761 39.266 204.391 39.4282 204.259 39.7165C203.828 40.6625 203.564 41.6896 203.071 42.5996C202.789 43.1221 202.191 43.4735 201.742 43.906C201.372 43.4735 200.896 43.0951 200.65 42.5996C200.192 41.6716 199.919 40.6535 199.47 39.7255C199.312 39.4011 198.837 39.248 198.502 39.0137C198.388 39.3471 198.203 39.6804 198.185 40.0228C198.123 40.9959 198.167 41.9689 198.106 42.9419C198.088 43.1762 197.833 43.3834 197.683 43.6086C197.516 43.4014 197.217 43.1942 197.208 42.987C197.164 41.8698 197.182 40.7436 197.182 39.6174C197.164 39.6174 197.146 39.6174 197.138 39.6174V39.5903Z" fill="#E8D398"/>
<path id="Vector_19" d="M64.5075 35.0317C64.9125 35.8606 65.2294 36.3381 65.3966 36.8607C65.6872 37.7797 65.8456 38.7347 66.1273 39.6537C66.2858 40.1492 66.5939 40.5907 66.8316 41.0592C67.1309 40.5546 67.5182 40.0771 67.6943 39.5275C68.0376 38.4734 68.1961 37.3652 68.5746 36.3291C68.7154 35.9507 69.2524 35.7165 69.6046 35.4192C69.9127 35.7976 70.344 36.1399 70.5025 36.5724C70.8634 37.6175 71.0659 38.7167 71.3828 39.7798C71.4973 40.1762 71.7525 40.5366 71.9374 40.906C72.2455 40.5186 72.7033 40.1853 72.8441 39.7348C73.2139 38.6176 73.4163 37.4373 73.7597 36.3111C73.8477 36.0228 74.2174 35.8336 74.4639 35.5993C74.596 35.9777 74.9041 36.4012 74.8161 36.7255C74.2703 38.8789 73.6628 41.0231 73.0026 43.1494C72.897 43.4828 72.3952 43.9062 72.0783 43.8972C71.7878 43.8972 71.3652 43.4197 71.2508 43.0593C70.8634 41.861 70.6345 40.6177 70.256 39.4194C70.1064 38.9509 69.7014 38.5725 69.4109 38.1491C69.1996 38.5545 68.9091 38.9419 68.7771 39.3744C68.4337 40.5096 68.2225 41.6809 67.8351 42.798C67.6855 43.2305 67.2541 43.654 66.8492 43.8612C66.6907 43.9423 66.0481 43.4738 65.9513 43.1494C65.203 40.8249 64.5163 38.4734 63.8649 36.1219C63.8121 35.9327 64.1466 35.6264 64.5075 35.0407V35.0317Z" fill="#E8D398"/>
<path id="Vector_20" d="M47.1486 36.4728C47.3071 36.2025 47.5095 35.8601 47.7032 35.5178C47.9057 35.7971 48.205 36.0403 48.3018 36.3467C48.6363 37.4819 48.8564 38.6621 49.2262 39.7883C49.367 40.2118 49.816 40.5181 50.1241 40.8785C50.3177 40.5271 50.5642 40.1848 50.6787 39.8064C51.0044 38.7432 51.2069 37.644 51.5854 36.5989C51.7615 36.1124 52.2104 35.743 52.5361 35.3105C52.8619 35.6529 53.3372 35.9412 53.4781 36.3557C53.8566 37.4729 54.0327 38.6621 54.4112 39.7883C54.5521 40.2208 55.0363 40.5271 55.362 40.8875C55.5468 40.5181 55.7933 40.1667 55.899 39.7703C56.2423 38.554 56.48 37.3107 56.8673 36.1124C56.9641 35.8151 57.4835 35.6529 57.8005 35.4277C57.8973 35.734 58.135 36.0764 58.0645 36.3376C57.4923 38.4909 56.8937 40.6352 56.2071 42.7525C56.0574 43.212 55.5028 43.5363 55.1243 43.9328C54.8074 43.4823 54.3672 43.0769 54.1911 42.5813C53.8214 41.5362 53.6189 40.437 53.2932 39.3829C53.1788 39.0045 52.9059 38.6802 52.7034 38.3288C52.3865 38.6982 51.9287 39.0135 51.7879 39.446C51.3741 40.7163 51.1717 42.0498 50.6963 43.2931C50.5995 43.5364 49.2262 43.5904 49.1909 43.4823C48.4603 41.2209 47.8353 38.9324 47.1398 36.4818L47.1486 36.4728Z" fill="#E8D398"/>
<path id="Vector_21" d="M153.204 13.8496C152.65 14.0659 152.227 14.237 151.796 14.4082C150.88 14.7596 149.982 15.183 149.031 15.4173C148.512 15.5434 147.755 15.5434 147.376 15.2371C145.88 14.0478 144.542 14.165 143.019 15.2101C142.579 15.5164 141.734 15.3452 141.117 15.2101C140.316 15.0389 139.542 14.7055 138.767 14.3992C138.388 14.246 138.054 13.9938 137.693 13.7775C138.019 13.5523 138.327 13.282 138.679 13.0928C139.568 12.6333 140.457 12.1558 141.39 11.8044C141.795 11.6513 142.526 11.5882 142.746 11.8315C144.348 13.5793 145.88 13.6604 147.535 11.9396C147.755 11.7143 148.239 11.5251 148.512 11.6152C149.894 12.0927 151.25 12.6513 152.597 13.2099C152.773 13.282 152.887 13.5073 153.204 13.8406V13.8496Z" fill="#E8D398"/>
<path id="Vector_22" d="M109.736 44.2666C107.614 44.3837 106.311 43.3926 105.475 41.4195C104.63 39.4104 105.017 37.3832 106.435 36.302C107.641 35.3921 109.639 35.5272 111.303 35.32C111.62 35.2839 112.095 35.7164 112.333 36.0588C112.553 36.3741 112.553 36.8516 112.659 37.2571C112.324 37.1489 111.99 36.9687 111.637 36.9327C110.291 36.8066 108.143 36.1669 107.755 36.7435C106.937 37.9598 106.681 39.8699 106.857 41.4105C107.051 43.1223 108.724 43.3566 110.176 43.1133C110.775 43.0142 111.417 42.5277 111.769 42.0232C111.893 41.843 111.241 41.0681 110.907 40.5906C110.766 40.3834 110.519 40.2483 110.326 40.0771C110.555 39.9329 110.854 39.6176 111.004 39.6806C111.787 39.987 113.222 40.5456 113.178 40.7438C112.949 41.861 112.509 43.0322 111.822 43.9152C111.497 44.3386 110.449 44.1675 109.727 44.2666H109.736Z" fill="#E8D398"/>
<path id="Vector_23" d="M182.472 39.6174C182.472 36.482 183.722 35.1306 186.61 35.1486C189.453 35.1666 190.976 36.6532 191.046 39.5003C191.117 42.2843 189.295 44.2123 186.592 44.1943C183.863 44.1853 182.472 42.6446 182.472 39.6264V39.6174ZM183.511 39.6264C183.529 41.8788 184.787 43.2213 186.803 43.1582C188.705 43.0951 189.708 41.8248 189.62 39.4642C189.55 37.5722 188.969 36.0766 186.742 36.0586C184.629 36.0406 183.485 37.2929 183.511 39.6264Z" fill="#E8D398"/>
<path id="Vector_24" d="M123.662 44.1851C121.91 44.4644 120.396 43.5184 119.841 41.7886C119.243 39.8965 118.855 37.4549 120.765 36.2116C122.06 35.3737 124.014 35.5178 125.678 35.3827C126.021 35.3557 126.479 35.9683 126.778 36.3648C126.972 36.626 126.972 37.0315 127.051 37.3738C126.681 37.2747 126.32 37.1486 125.951 37.0855C124.612 36.8603 122.869 36.0494 122.033 36.617C121.126 37.2297 120.686 39.1397 120.695 40.4822C120.713 42.7616 123.671 44.1671 125.493 42.8517C125.88 42.5724 125.819 41.4462 125.713 40.7524C125.669 40.4641 124.973 40.2749 124.577 40.0407C125.035 39.8965 125.537 39.5632 125.942 39.6623C126.479 39.7974 127.218 40.1668 127.368 40.6083C128.143 42.9148 126.84 44.1941 123.644 44.1851H123.662Z" fill="#E8D398"/>
<path id="Vector_25" d="M137.403 40.8877C136.267 41.7347 135.51 42.3023 134.753 42.8699C134.401 43.1402 134.04 43.4104 133.688 43.6717C133.714 43.1942 133.626 42.6717 133.785 42.2392C134.462 40.3562 135.175 38.4912 135.959 36.6622C136.188 36.1307 136.734 35.3558 137.112 35.3738C137.614 35.3919 138.309 35.9775 138.529 36.5C139.383 38.5452 140.096 40.6535 140.827 42.7437C140.933 43.0501 140.836 43.4195 140.836 43.7618C140.484 43.5816 140.07 43.4735 139.78 43.2212C139.04 42.5545 138.353 41.8338 137.403 40.8968V40.8877ZM138.785 39.5904C138.142 38.6894 137.693 38.0677 137.244 37.4371C136.857 38.0948 136.285 38.7164 136.179 39.4102C136.135 39.7165 136.971 40.3472 137.5 40.5093C137.772 40.5904 138.257 39.9868 138.776 39.5904H138.785Z" fill="#E8D398"/>
<path id="Vector_26" d="M150.932 35.0495C151.584 35.1486 152.341 35.0585 152.843 35.3918C153.362 35.7342 153.626 36.482 154.005 37.0496C153.547 36.8604 153.072 36.482 152.623 36.518C151.276 36.6171 149.682 36.482 148.67 37.1757C147.455 38.0136 147.825 41.6175 148.978 42.5185C150.29 43.5546 151.663 43.4825 152.948 42.3383C153.239 42.086 153.635 41.9599 153.978 41.7707C153.89 42.2302 153.943 42.8068 153.688 43.1311C152.631 44.4826 149.647 44.6628 148.265 43.4104C146.416 41.7436 146.496 39.6174 147.138 37.419C147.711 35.4729 149.154 35.0224 150.924 35.0495H150.932Z" fill="#E8D398"/>
<path id="Vector_27" d="M172.561 35.0764C173.212 35.1755 173.943 35.1034 174.48 35.4098C174.964 35.6891 175.228 36.3738 175.598 36.8783C175.149 36.7342 174.682 36.4369 174.242 36.4819C172.895 36.6171 170.589 36.572 170.413 37.1576C169.937 38.7523 169.832 40.9056 170.562 42.3111C171.311 43.7797 173.177 43.5365 174.568 42.3472C174.841 42.1129 175.263 42.0499 175.615 41.9057C175.483 42.3562 175.404 43.1671 175.202 43.2031C173.582 43.4554 171.795 44.041 170.325 43.5995C168.564 43.077 168.027 40.1669 168.696 37.6351C169.233 35.5809 170.677 35.0133 172.561 35.0764Z" fill="#E8D398"/>
<path id="Vector_28" d="M177.023 14.6245C177.613 16.039 178.115 17.0391 178.423 18.0932C178.502 18.3455 177.957 18.787 177.692 19.1474C177.129 18.0932 176.53 17.0571 176.046 15.9579C175.976 15.7958 176.46 15.3723 177.015 14.6245H177.023Z" fill="#E8D398"/>
<path id="Vector_29" d="M188.441 15.9763C187.683 17.1476 187.032 18.1747 186.381 19.1927C186.108 18.8143 185.518 18.2738 185.606 18.0846C186.09 17.0484 186.759 16.1024 187.358 15.1294C187.648 15.3636 187.948 15.5889 188.441 15.9853V15.9763Z" fill="#E8D398"/>
<path id="Vector_30" d="M167.446 11.2549C168.221 12.2459 168.846 12.9397 169.295 13.7325C169.383 13.8857 168.784 14.4533 168.502 14.8227C167.965 14.1019 167.367 13.4082 166.927 12.6334C166.812 12.4351 167.173 11.9486 167.455 11.2549H167.446Z" fill="#E8D398"/>
<path id="Vector_31" d="M108.424 12.7954C107.984 13.2909 107.658 13.6693 107.333 14.0477C107.13 13.8315 106.716 13.4711 106.76 13.408C107.007 13.0206 107.315 12.6602 107.676 12.3809C107.755 12.3179 108.098 12.6062 108.433 12.7954H108.424Z" fill="#E8D398"/>
<path id="Vector_32" d="M102.931 13.3543C102.623 13.5885 102.394 13.7687 102.174 13.9399C101.963 13.6156 101.664 13.3092 101.593 12.9579C101.558 12.7596 101.919 12.4803 102.095 12.2461C102.341 12.5704 102.579 12.8948 102.931 13.3543Z" fill="#E8D398"/>
<path id="Vector_33" d="M97.7816 43.3202C98.1602 43.086 98.3715 42.9599 98.5827 42.8247C98.6972 43.059 98.882 43.2842 98.8996 43.5275C98.9085 43.6536 98.5827 43.9509 98.4947 43.9149C98.2746 43.8338 98.1074 43.6176 97.7816 43.3202Z" fill="#E8D398"/>
<path id="Vector_34" d="M162.068 43.3023C161.839 43.5635 161.716 43.7167 161.583 43.8609C161.416 43.6897 161.187 43.5365 161.108 43.3293C161.064 43.2212 161.346 42.8608 161.399 42.8698C161.619 42.9509 161.804 43.1131 162.068 43.2932V43.3023Z" fill="#E8D398"/>
</g>
<defs>
<clipPath id="clip0_83_118">
<rect width="207.329" height="53.4722" fill="white" transform="translate(0.67041 0.884766)"/>
</clipPath>
</defs>
</svg>
