<svg width="194" height="44" viewBox="0 0 194 44" fill="none" xmlns="http://www.w3.org/2000/svg">
<g id="Group 88">
<g id="Group 83">
<ellipse id="Ellipse 4" cx="22.2647" cy="23.2581" rx="19.6417" ry="19.6429" fill="white"/>
<g id="Group 82">
<g id="Group 81">
<path id="Vector" d="M94.1643 37.7224C85.6529 37.7333 78.7346 30.8365 78.7565 22.3464C78.7783 13.8672 85.7402 6.92677 94.208 6.97042C102.534 7.00316 109.43 13.9 109.474 22.2482C109.529 30.7601 102.654 37.7115 94.1643 37.7224ZM94.208 34.8196C101.093 34.7869 106.637 29.1123 106.55 22.2045C106.462 15.3405 101.017 9.96049 94.1643 9.96049C87.1915 9.96049 81.5718 15.5369 81.6263 22.3901C81.6809 29.276 87.3224 34.8524 94.208 34.8196Z" fill="white"/>
<path id="Vector_2" d="M186.797 23.1976C188.412 26.1113 189.907 28.8067 191.402 31.4913C191.795 32.2006 192.362 32.8881 192.537 33.652C192.722 34.5141 192.908 35.9436 192.471 36.2601C191.216 37.1549 190.562 35.8891 190.038 34.9506C188.368 32.0369 186.753 29.0905 185.116 26.1659C183.13 22.6192 183.01 22.5647 178.165 23.4049C178.165 26.3623 178.176 29.4178 178.165 32.4734C178.165 33.4664 178.209 34.4922 177.98 35.4416C177.86 35.9218 177.183 36.5656 176.747 36.5766C176.289 36.5766 175.688 35.9873 175.416 35.5071C175.165 35.0815 175.219 34.4486 175.219 33.9139C175.219 27.9228 175.11 21.9208 175.252 15.9297C175.394 9.7095 180.632 5.78093 186.666 7.16684C189.94 7.91982 192.504 10.4843 192.94 13.5835C193.431 17.0538 192.209 19.8256 189.274 21.7789C188.608 22.2264 187.877 22.5756 186.83 23.1649L186.797 23.1976ZM182.356 20.3494C183.862 20.1311 185.422 20.0984 186.862 19.6728C188.881 19.0726 190.092 17.2393 190.092 15.144C190.092 13.0924 189.241 11.4665 187.353 10.517C183.218 8.43272 178.602 11.0081 178.187 15.6133C177.784 20.153 177.805 20.1748 182.356 20.3603V20.3494Z" fill="white"/>
<path id="Vector_3" d="M158.426 20.4143C161.503 20.4143 164.122 20.4143 166.741 20.4143C167.472 20.4143 168.28 20.2397 168.902 20.5016C169.611 20.8072 170.157 21.5056 170.779 22.0294C170.179 22.4768 169.622 23.2516 168.989 23.3171C167.189 23.5136 165.366 23.4262 163.544 23.4481C162.638 23.4481 161.721 23.5026 160.816 23.4481C159.113 23.3389 158.229 23.961 158.393 25.7834C158.48 26.7764 158.393 27.7804 158.469 28.7844C158.699 31.8072 160.423 33.6187 163.467 33.8915C165.366 34.0552 167.276 33.9679 169.186 34.0225C170.211 34.0443 171.379 34.1098 171.379 35.463C171.379 36.8816 170.157 36.827 169.164 36.827C167.079 36.827 164.973 36.8816 162.9 36.7179C159.015 36.4124 155.905 33.6296 155.708 29.7883C155.447 24.6266 155.468 19.4322 155.687 14.2596C155.839 10.7457 158.273 8.05025 161.732 7.45005C164.297 7.00263 166.97 7.04629 169.589 7.06812C170.2 7.06812 170.801 7.88657 171.401 8.33399C170.779 8.8578 170.211 9.75263 169.546 9.83993C167.756 10.08 165.923 9.91632 164.1 10.0254C160.27 10.2437 158.557 12.0225 158.426 15.8747C158.382 17.2169 158.426 18.5592 158.426 20.4253V20.4143Z" fill="white"/>
<path id="Vector_4" d="M116.141 19.7712C119.437 19.7712 122.514 19.7275 125.581 19.793C126.858 19.8257 128.778 19.3892 128.844 21.2771C128.898 23.2632 126.945 22.8049 125.69 22.8267C122.613 22.8922 119.535 22.8485 115.989 22.8485C115.989 25.5221 115.989 27.9339 115.989 30.3456C115.989 31.8952 116.109 33.4557 115.901 34.9725C115.825 35.5946 115.039 36.1184 114.57 36.6858C114.101 36.1184 113.566 35.5837 113.184 34.9616C113.02 34.6997 113.13 34.2523 113.13 33.8922C113.13 28.0757 113.075 22.2592 113.162 16.4428C113.25 10.2116 116.36 7.16698 122.634 6.98147C123.999 6.93782 125.363 6.93782 126.727 6.98147C127.818 7.01421 129.215 7.01421 129.073 8.49833C129.018 9.04397 127.687 9.69873 126.847 9.88425C125.712 10.1243 124.501 9.93881 123.311 9.96063C117.691 10.0588 115.967 11.8049 116.01 17.3594C116.01 17.9815 116.087 18.6144 116.163 19.7821L116.141 19.7712Z" fill="white"/>
<path id="Vector_5" d="M144.862 9.93855C144.862 12.2848 144.862 14.1727 144.862 16.0606C144.862 21.7897 144.862 27.5189 144.862 33.2481C144.862 33.9792 144.96 34.754 144.731 35.4088C144.556 35.9108 143.847 36.6637 143.552 36.5874C142.996 36.4455 142.352 35.878 142.134 35.3324C141.872 34.6995 142.003 33.9028 142.003 33.1717C142.003 26.5368 142.003 19.9018 142.003 13.256C142.003 12.2848 141.926 11.3135 141.861 9.92763C139.951 9.92763 138.26 9.96037 136.558 9.91672C135.75 9.8949 134.899 9.86215 134.157 9.60024C133.753 9.45838 133.295 8.82545 133.295 8.41076C133.295 8.00699 133.753 7.45045 134.168 7.22128C134.604 6.97029 135.216 6.94847 135.75 6.94847C140.846 6.92664 145.931 6.93755 151.027 6.94847C151.387 6.94847 151.824 6.87208 152.097 7.03577C152.664 7.37406 153.155 7.85421 153.679 8.26889C153.166 8.7927 152.751 9.56751 152.129 9.77485C151.311 10.0586 150.34 9.91672 149.434 9.92763C148.081 9.93854 146.739 9.92763 144.895 9.92763L144.862 9.93855Z" fill="white"/>
<path id="Vector_6" d="M66.6769 19.4764C66.6769 22.652 66.546 25.8275 66.7096 28.9922C66.8952 32.4516 68.5539 34.023 72.035 34.3067C73.8356 34.4595 75.6799 34.2522 77.4696 34.4922C78.288 34.6014 79.0192 35.3762 79.7831 35.8454C79.041 36.3474 78.3317 37.2204 77.5569 37.275C75.3089 37.4168 72.9954 37.4496 70.7801 37.1113C66.7751 36.5002 64.0033 33.8811 63.8069 29.8871C63.4795 23.0994 63.5995 16.2899 63.665 9.49124C63.665 8.85831 64.6253 8.24719 65.1382 7.61426C65.5856 8.30176 66.3823 8.96743 66.415 9.67676C66.5569 12.9397 66.4805 16.2026 66.4805 19.4654C66.546 19.4654 66.6114 19.4654 66.6769 19.4654V19.4764Z" fill="white"/>
</g>
<path id="Vector_7" d="M44.0869 22.2124C44.2217 33.7334 34.8231 43.9994 22.2528 43.9921C10.2469 43.9885 0.465999 34.4646 0.440508 22.1651C0.415018 9.82926 10.4982 0.261775 22.4422 0.341807C34.357 0.421839 44.2435 10.2112 44.0869 22.2124ZM13.2693 16.9485C13.2693 16.9485 13.2839 16.9485 13.2912 16.9485C13.2912 19.615 13.2439 22.2815 13.3058 24.9481C13.3531 26.9198 14.1579 28.5895 15.72 29.8409C17.0601 30.9141 18.6405 31.2852 20.3119 31.3034C22.708 31.3288 25.1041 31.3034 27.5001 31.3215C28.8839 31.3288 30.071 31.8017 30.8539 32.9877C31.5057 33.9735 31.2035 34.5156 30.0091 34.5374C28.7346 34.5629 27.4601 34.5665 26.1892 34.5301C25.0203 34.4974 23.9534 34.1991 22.9665 33.4715C22.4531 33.0932 21.6847 33.0168 21.0147 32.9295C20.7197 32.8931 20.2318 33.1004 20.1153 33.3369C19.9987 33.577 20.1444 34.0463 20.3265 34.3155C21.2368 35.6833 22.4895 36.7383 24.1245 36.8947C26.4987 37.1202 28.9057 37.2076 31.2872 37.0875C33.2391 36.9893 34.3315 35.1704 33.8581 33.2823C33.4794 31.7726 32.5982 30.6122 31.3091 29.7573C29.9982 28.8878 28.5161 28.6186 26.9794 28.6041C24.5833 28.5823 22.1873 28.6223 19.7912 28.575C17.6828 28.535 16.3172 27.2981 16.015 25.2355C15.9276 24.6389 15.8839 24.0313 15.8803 23.4275C15.8693 18.942 15.873 14.4602 15.873 9.97477C15.873 9.76378 15.8621 9.54915 15.8839 9.33815C15.9786 8.50873 16.4738 8.23589 17.224 8.63605C18.1307 9.11625 18.7242 9.87655 18.9209 10.8806C19.0483 11.5281 19.1066 12.2011 19.1102 12.8632C19.1284 16.2864 19.1248 19.7096 19.1212 23.1364C19.1212 23.9768 19.2195 24.8207 19.8749 25.3919C20.2755 25.7448 20.9018 26.1449 21.3497 26.0685C21.9979 25.963 21.8231 25.1882 21.8231 24.668C21.834 20.7609 21.8413 16.8503 21.8231 12.9432C21.8195 12.1902 21.7648 11.4226 21.6228 10.6841C21.2259 8.6215 20.108 7.00631 18.1744 6.17324C15.6509 5.08553 13.1783 6.08957 13.2548 9.22538C13.3203 11.801 13.2693 14.3765 13.2693 16.9521V16.9485Z" fill="#469793"/>
</g>
</g>
</g>
</svg>
