<svg width="183" height="33" viewBox="0 0 183 33" fill="none" xmlns="http://www.w3.org/2000/svg">
<g id="_&#233;&#141;&#165;&#230;&#131;&#167;&#231;&#156;&#176;_1" clip-path="url(#clip0_83_58)">
<path id="Vector" d="M74.2918 14.7656C73.5281 16.2054 72.8252 17.5296 72.0141 19.0577C72.7576 19.0916 73.2983 19.0984 73.8322 19.1324C74.7041 19.1867 75.184 19.6281 75.211 20.4838C75.2583 22.2427 75.5557 23.3225 72.7914 23.1867C71.1084 23.1052 69.412 23.1867 67.7223 23.1663C66.5193 23.1527 66.2084 22.7453 66.1002 21.5364C65.9989 20.4023 66.3706 19.438 66.918 18.5076C67.4723 17.5568 68.0738 16.6264 68.6415 15.6824C68.9389 15.1935 68.8375 14.8675 68.2901 14.6434C67.5196 14.3242 66.7288 14.0797 65.9583 13.7673C65.4041 13.5364 65.2892 13.2105 65.5731 12.7215C66.5869 10.9422 67.2762 9.00673 68.1143 7.14595C68.6348 5.99145 69.0808 4.79621 69.5945 3.63492C69.8243 3.112 70.3042 2.94901 70.9124 3.15275C71.96 3.50589 73.0144 3.85224 74.0485 4.25971C74.7244 4.52456 74.8325 5.00674 74.4946 5.71981C73.7849 7.24103 73.0685 8.75546 72.3656 10.2767C72.0749 10.915 72.1155 10.9354 72.8454 11.3293C73.5078 11.6892 74.258 12.4363 74.8731 12.0492C75.4273 11.7028 75.6098 10.7317 75.9139 10.0186C76.8263 7.8794 77.7117 5.7266 78.6174 3.58059C78.8675 2.99655 79.2865 2.90827 79.8813 3.22745C80.7667 3.70962 81.6588 4.17142 82.5577 4.61285C83.4769 5.06106 83.4566 5.1901 83.1592 6.19519C83.0646 6.50758 82.8821 6.79281 82.6929 7.19349C83.0917 7.21386 83.4161 7.24782 83.7405 7.24782C85.0787 7.24782 85.0652 7.24782 84.5583 5.91675C84.4434 5.61115 84.3961 5.27159 84.342 4.94561C84.2744 4.50419 84.4164 4.20538 84.8962 4.06276C85.8492 3.78433 86.7819 3.43798 87.7417 3.17312C88.2756 3.03051 88.573 3.38365 88.7487 3.85224C89.0799 4.73509 89.4854 5.59757 89.6949 6.51437C89.8233 7.09162 90.0464 7.23424 90.5736 7.2614C92.493 7.36327 92.4863 7.37685 92.4728 9.2648C92.4728 9.43458 92.4728 9.60435 92.4728 9.77413C92.4502 10.3265 92.1641 10.6185 91.6144 10.6502C89.6949 10.7521 89.5936 10.8675 89.7422 12.6875C89.776 13.0678 89.8639 13.3463 90.3235 13.3259C90.6074 13.3123 90.8912 13.2987 91.1683 13.3259C91.851 13.3938 92.0672 13.6043 92.1146 14.2563C92.1416 14.5959 92.1146 14.9354 92.1146 15.275C92.1146 16.9456 92.1146 16.9796 90.4925 17.0475C89.8707 17.0746 89.7017 17.3191 89.7422 17.8692C89.7625 18.1476 89.7287 18.4329 89.749 18.7181C89.7963 19.5127 89.9585 19.6689 90.7561 19.7571C91.6752 19.8567 92.1303 20.3774 92.1213 21.3191C92.1078 22.7656 91.9456 22.9762 90.3776 23.1459C89.6814 23.2206 89.7422 23.6349 89.7558 24.0899C89.7693 24.8234 90.0058 25.1901 90.5127 25.1765C90.7763 25.1765 91.0399 25.0135 91.3103 24.966C92.0334 24.8301 92.4322 25.0814 92.4525 25.7877C92.4728 26.5687 92.3917 27.3497 92.3579 28.1307C91.6077 28.2868 90.8574 28.5313 90.1005 28.5789C88.8095 28.6604 87.5119 28.5789 86.2142 28.64C84.9368 28.7011 83.6662 28.8234 82.3955 28.9863C82.1049 29.0271 81.8616 29.421 81.5574 29.4821C81.0167 29.5975 80.4558 29.6043 79.9015 29.6247C79.1108 29.6451 78.3268 29.6519 77.536 29.6247C76.8601 29.5975 76.6236 29.3666 76.5763 28.7147C76.5425 28.2665 76.5695 27.8115 76.5695 27.3565C76.5695 24.0763 76.5154 20.7894 76.6033 17.5093C76.6371 16.3072 76.2383 15.5806 75.1569 15.1663C74.8933 15.0644 74.65 14.9286 74.2918 14.7588V14.7656ZM83.0646 13.3327C83.9703 13.3372 84.4096 12.8709 84.3826 11.9337C84.3826 11.8251 84.3826 11.7096 84.3826 11.601C84.315 10.915 84.1325 10.6774 83.4701 10.6638C81.8413 10.6366 81.99 10.5144 81.9765 12.0492C81.9765 12.1035 81.9765 12.1646 81.9765 12.219C81.9855 12.9569 82.3505 13.3282 83.0714 13.3327H83.0646ZM81.9697 18.365C81.9697 19.8386 81.9697 19.8454 83.2944 19.7707C84.1663 19.7232 84.3353 19.5534 84.3826 18.6502C84.3961 18.3717 84.3758 18.0865 84.3826 17.8081C84.4029 17.3463 84.2677 17.0475 83.7337 17.0678C83.3417 17.0882 82.9497 17.0882 82.5577 17.0678C82.1184 17.0475 81.9697 17.292 81.963 17.679C81.963 17.9032 81.963 18.1273 81.963 18.3514L81.9697 18.365ZM83.1255 23.1867C82.3414 23.1776 81.9562 23.5851 81.9697 24.4091C81.9697 24.6332 81.9832 24.8641 81.9967 25.0882C82.017 25.4413 82.2198 25.5704 82.551 25.5636C82.8348 25.5568 83.1119 25.5432 83.3958 25.5568C83.8419 25.5772 84.2542 25.4006 84.3217 24.9863C84.4029 24.4498 84.3015 23.8862 84.2542 23.3293C84.2542 23.275 84.0784 23.2003 83.9838 23.1935C83.7067 23.1731 83.4228 23.1935 83.139 23.1935L83.1255 23.1867Z" fill="#E8D398"/>
<path id="Vector_2" d="M59.6997 20.3416C59.6997 22.8883 59.6997 25.435 59.6997 27.9817C59.6997 29.4689 59.7132 29.3467 58.2872 29.3059C57.1179 29.272 55.9622 29.2652 54.7861 29.0614C53.4749 28.8305 52.0894 29.0071 50.7377 28.98C49.9063 28.9664 49.8996 28.9392 49.859 28.1175C49.8388 27.7236 49.859 27.3229 49.859 26.929C49.859 25.856 50.3795 25.2946 51.4203 25.2448C52.4003 25.1973 52.5693 25.0547 52.576 24.0292C52.5896 21.4282 52.5963 18.8272 52.576 16.2194C52.5693 15.2414 52.3868 15.0784 51.3662 15.0649C50.3524 15.0513 49.3386 15.092 48.3248 15.0649C47.5205 15.0445 47.0609 15.452 46.8582 16.1786C46.5067 17.4621 46.162 18.7457 45.8511 20.0428C45.155 22.8951 44.4858 25.7609 43.7694 28.6132C43.6951 28.912 43.445 29.2516 43.1747 29.3874C42.9449 29.5029 42.5799 29.3806 42.2893 29.3195C40.6063 28.9867 38.9302 28.6472 37.254 28.2873C36.4227 28.1107 36.2943 27.839 36.497 26.9834C37.031 24.7219 37.5244 22.4469 38.0921 20.1922C38.5652 18.311 39.1397 16.457 39.6398 14.5827C40.1535 12.654 40.6266 10.7117 41.0997 8.77624C41.2417 8.18541 41.0389 7.92734 40.4441 7.92055C39.3154 7.90018 38.1935 7.93414 37.0648 7.90697C36.274 7.8866 36.0983 7.68286 36.0307 6.89509C35.8775 5.07506 36.7291 4.16504 38.5855 4.16504C45.9052 4.16504 53.2249 4.16504 60.5446 4.16504C62.3762 4.16504 62.3762 4.16504 62.3762 6.07336C62.3762 6.41291 62.3965 6.75247 62.3627 7.09203C62.3154 7.61495 62.0315 7.90697 61.484 7.91376C61.092 7.91376 60.6933 7.91376 60.3013 7.91376C56.976 7.91376 53.6574 7.90697 50.3321 7.91376C49.0007 7.91376 48.7303 8.17862 48.5276 9.55043C48.4465 10.0801 48.3654 10.6166 48.2843 11.1464C48.8858 11.2075 49.4873 11.3093 50.0888 11.3093C52.6234 11.3161 55.1579 11.2822 57.6924 11.2822C60.0444 11.2822 59.6727 10.9766 59.693 13.1973C59.7133 15.5742 59.693 17.9511 59.693 20.328L59.6997 20.3416Z" fill="#E8D398"/>
<path id="Vector_3" d="M132.849 13.0136C134.424 13.0136 136.006 13 137.581 13.0136C138.581 13.0272 138.736 13.197 138.77 14.2021C138.79 14.7657 138.784 15.3362 138.77 15.8999C138.757 16.4432 138.439 16.7216 137.912 16.7284C137.121 16.742 136.337 16.7284 135.546 16.7284C134.357 16.742 134.032 16.9525 133.742 18.0323C133.464 19.051 133.275 20.09 133.018 21.1155C132.829 21.8693 132.552 22.596 132.37 23.3498C132.228 23.9338 132.444 24.1851 133.032 24.2055C133.255 24.2123 133.485 24.2055 133.708 24.1919C134.499 24.124 134.755 23.9202 134.722 23.1732C134.688 22.5756 134.546 21.9576 134.35 21.3871C134.012 20.4092 134.269 19.8931 135.222 19.7912C135.607 19.7505 135.999 19.7165 136.377 19.6282C137.371 19.3973 137.479 19.4449 137.885 20.3685C137.932 20.4703 138.047 20.5722 138.04 20.6673C137.851 22.3311 138.878 23.798 138.797 25.4415C138.77 25.9304 138.655 26.5077 139.236 26.7929C139.527 26.9355 139.75 26.3311 139.797 25.4211C139.899 23.4584 139.919 21.489 140.176 19.5467C140.48 17.2174 140.69 14.8812 140.913 12.5518C140.98 11.8523 140.662 11.6961 140.318 11.3973C140.243 11.3362 140.108 11.343 139.993 11.3294C139.507 11.2819 138.79 11.5196 138.648 10.9355C138.452 10.141 138.486 9.2717 138.533 8.44318C138.547 8.25302 139.007 8.00175 139.297 7.92705C139.933 7.77085 140.771 8.21907 141.196 7.61465C141.507 7.16644 141.311 6.39224 141.548 5.85574C141.859 5.14267 141.798 4.4296 141.832 3.70294C141.872 2.83367 141.879 2.80651 142.656 2.79972C143.785 2.78614 144.914 2.77255 146.036 2.84726C146.516 2.87442 147.002 3.06457 147.455 3.26831C147.752 3.40413 147.935 3.6622 147.813 4.09004C147.59 4.8846 147.441 5.70634 147.286 6.52128C147.097 7.48562 147.414 7.87951 148.408 7.90667C149.368 7.92705 150.321 7.8863 151.28 7.92026C152.071 7.94742 152.254 8.15795 152.308 8.93214C152.321 9.10192 152.308 9.2717 152.308 9.44148C152.308 15.5535 152.308 21.6656 152.308 27.7708C152.308 27.9949 152.315 28.2258 152.308 28.4499C152.281 28.9932 151.97 29.2717 151.449 29.2988C149.821 29.3803 148.212 29.2513 146.617 28.9321C146.468 28.905 146.279 28.6537 146.252 28.4771C146.191 28.09 146.218 27.6893 146.225 27.2954C146.245 26.1817 146.252 26.1817 147.387 25.8897C148.117 25.7063 148.225 25.5909 148.232 24.7012C148.246 21.5298 148.232 18.3651 148.232 15.1936C148.232 14.4601 148.246 13.7199 148.232 12.9865C148.225 12.6537 148.205 12.3006 148.077 12.0085C147.962 11.7437 147.908 11.2411 147.448 11.3905C147.232 11.4585 146.989 11.7573 146.935 11.995C146.772 12.7556 146.603 13.5298 146.597 14.304C146.583 16.4364 146.32 18.5348 145.921 20.6265C145.867 20.8982 145.894 21.1902 145.9 21.4754C145.948 23.051 145.698 24.579 145.319 26.107C145.13 26.854 145.258 27.6825 145.225 28.4703C145.191 29.2785 145.177 29.3328 144.326 29.2921C142.879 29.2241 141.433 29.0951 139.993 28.9661C139.791 28.9457 139.541 28.8506 139.405 28.708C139.034 28.2938 138.709 28.3277 138.223 28.545C137.783 28.742 137.249 28.7352 136.756 28.7895C136.621 28.8031 136.404 28.7895 136.337 28.7012C135.424 27.5331 134.235 27.9542 133.086 28.0968C131.599 28.2802 130.119 28.4907 128.625 28.6197C127.767 28.6944 127.456 28.3617 127.321 27.4924C127.199 26.725 127.098 25.9508 126.99 25.1834C126.976 25.0747 126.949 24.9253 127.003 24.8506C127.571 24.0357 127.551 23.051 127.814 22.1477C128.044 21.3464 128.368 20.5722 128.335 19.7029C128.328 19.3905 128.551 19.0781 128.645 18.759C128.767 18.3311 128.889 17.9033 128.963 17.4686C129.044 17 128.875 16.7284 128.341 16.7148C127.909 16.708 127.314 16.7556 127.091 16.5043C126.854 16.2394 126.942 15.6554 126.936 15.214C126.908 13.0068 126.78 12.9661 129.146 13C130.382 13.0204 131.626 13 132.863 13L132.849 13.0136Z" fill="#E8D398"/>
<path id="Vector_4" d="M1.14226 20.165C1.45316 20.62 1.83841 21.041 2.0682 21.53C2.75084 23.0105 3.83223 24.0767 5.14342 25.0071C6.90745 26.2498 8.83369 27.0987 10.9154 27.5198C12.0576 27.7507 13.2742 27.5809 14.4502 27.6284C18.0661 27.7643 21.2495 26.4468 24.0949 24.3959C26.3591 22.7592 27.6973 20.4502 27.5891 17.5028C27.5689 16.878 27.6162 16.2532 27.5756 15.6353C27.4067 12.8305 26.2509 10.5283 23.953 8.88483C23.5136 8.57244 22.9391 8.4502 22.439 8.21251C21.5131 7.77787 20.7223 7.28891 20.4046 6.14799C20.1343 5.19044 19.5801 4.30759 19.0934 3.42474C18.6676 2.64375 18.0661 2.58263 17.4984 3.2957C16.8766 4.08348 16.2886 4.90521 15.7952 5.78127C15.2004 6.82711 14.3623 7.221 13.1931 7.28891C11.8684 7.36361 10.5436 7.55376 9.24597 7.8322C8.63092 7.96123 8.23892 7.81183 7.94829 7.3704C7.67794 6.95614 7.49546 6.48755 7.30622 6.02575C7.20483 5.77448 7.22511 5.46208 7.10345 5.22439C6.43434 3.93407 6.00854 3.86616 5.02177 4.93237C4.64328 5.33984 4.28507 5.80164 4.06879 6.2974C3.02794 8.6811 2.02765 11.092 1.06791 13.3738C0.784048 12.2668 0.838117 12.0088 1.17605 10.7592C1.5613 9.31947 2.00062 7.89332 2.62242 6.53509C3.04146 5.62507 3.47402 4.6811 4.10258 3.9137C5.04204 2.76599 6.30592 2.28382 7.84691 2.55547C9.6988 2.88144 11.4831 3.58093 13.4026 3.49944C13.7202 3.48586 14.0379 3.43153 14.3353 3.39757C14.3488 3.23458 14.3691 3.16667 14.3488 3.11913C14.1528 2.67771 13.95 2.24307 13.7473 1.80844C14.3083 1.47567 14.8557 0.88484 15.4234 0.864466C17.2551 0.796554 19.1137 0.524908 20.9318 1.10216C22.0875 1.46888 23.2974 1.63866 24.4261 2.13441C27.3188 3.40436 29.5154 5.3738 31.0023 8.2193C32.6582 11.3772 32.8407 14.7524 32.6041 18.1616C32.4689 20.0903 32.0634 22.0189 31.5633 23.8865C31.0496 25.8084 29.9615 27.479 28.3326 28.6675C27.6838 29.1429 26.8389 29.3806 26.0482 29.6183C25.5277 29.7745 25.1155 29.5368 24.8924 28.9323C24.5072 27.9137 24.4463 27.8322 23.4663 27.9748C21.6617 28.2329 19.8436 28.4638 18.1675 29.2787C17.1469 29.7745 16.417 30.4604 16.444 31.6828C16.4575 32.3551 16.0182 32.4773 15.5654 32.3415C14.6732 32.0834 13.7743 31.7846 12.943 31.3704C11.8954 30.8542 10.9154 30.2023 9.90156 29.625C9.51632 29.4009 9.12431 29.1565 8.70527 29.0206C8.02264 28.7965 7.62387 29.0546 7.31973 29.7948C6.92097 30.7592 6.71145 30.8339 5.87337 30.2906C5.64357 30.1412 5.42053 29.951 5.23805 29.7473C3.82547 28.2125 2.69001 26.4875 1.94655 24.5317C1.60861 23.6488 1.32475 22.7456 1.08143 21.8356C0.946257 21.3262 0.939498 20.783 0.87867 20.26C0.966533 20.2329 1.06116 20.1989 1.14902 20.1717L1.14226 20.165Z" fill="#E8D398"/>
<path id="Vector_5" d="M105.99 7.22746C104.875 7.91337 104.618 8.70114 104.632 9.77415C104.686 15.6621 104.659 21.5432 104.659 27.4312C104.659 27.6553 104.659 27.8862 104.659 28.1103C104.645 29.3123 104.638 29.3599 103.469 29.3123C101.685 29.2376 99.9006 29.095 98.1231 28.9931C97.6973 28.966 97.5283 28.7622 97.5351 28.3548C97.5351 27.5059 97.5418 26.657 97.5351 25.8081C97.5351 25.3667 97.7716 25.2376 98.1636 25.2173C98.7111 25.1901 99.4613 25.3123 99.7452 25.0135C100.036 24.7011 99.8871 23.9541 99.9074 23.404C99.9276 22.9558 99.9074 22.5076 99.9074 21.9167C99.6911 22.0118 99.5559 22.039 99.4681 22.1205C98.488 22.9762 98.3326 22.9898 97.4066 22.2088C97.1498 21.9915 96.92 21.7402 96.6835 21.4957C95.7643 20.511 95.7778 20.4499 96.6632 19.4855C97.5689 18.494 98.4813 17.4957 99.3261 16.4499C99.6235 16.0763 99.7857 15.5602 99.8939 15.0848C99.9614 14.7928 99.9006 14.2631 99.7249 14.168C99.2653 13.9235 99.1031 14.3989 98.88 14.7249C98.2582 15.6145 97.9947 15.6281 97.1904 14.8743C96.7375 14.4465 96.2915 14.0186 95.8724 13.5568C95.352 12.9864 95.3588 12.7147 95.8995 12.1171C96.7578 11.1731 97.5891 10.202 98.5151 9.33272C98.9612 8.91167 98.9341 8.59927 98.63 8.20539C98.1501 7.58739 97.6702 6.96939 97.1431 6.39215C96.7037 5.90997 96.8997 5.57721 97.312 5.28519C97.8527 4.89809 98.4137 4.53137 98.9814 4.17823C99.4951 3.85225 100.043 3.275 100.536 3.30896C101.023 3.34291 101.509 3.9677 101.921 4.40913C102.246 4.74868 102.523 4.64682 102.915 4.63323C103.293 4.61965 103.726 4.94563 104.071 5.21048C104.47 5.51609 104.794 5.92356 105.166 6.26991C105.483 6.56872 105.74 7.17313 106.234 6.33782C106.362 6.1205 107.078 6.26991 107.524 6.20878C108.498 6.07296 108.64 5.90318 108.667 4.91846C108.667 4.69435 108.667 4.46346 108.667 4.23935C108.694 3.22746 108.7 3.22067 109.701 3.20709C110.715 3.19351 111.728 3.17993 112.742 3.20709C113.526 3.23425 113.709 3.45157 113.763 4.22576C113.776 4.39554 113.79 4.57211 113.763 4.7351C113.459 6.28349 114.601 6.43968 115.811 6.05259C116.196 5.93035 116.439 5.72661 116.466 5.22407C116.581 3.18672 116.608 3.18672 118.67 3.19351C119.855 3.19351 120.467 3.76849 120.508 4.91846C120.542 5.8896 120.576 6.0458 121.664 6.16125C122.434 6.24274 122.617 6.53476 122.563 7.20709C122.529 7.60097 122.563 8.00165 122.556 8.39554C122.522 9.40063 122.441 9.54325 121.393 9.60437C120.772 9.63832 120.44 9.78094 120.494 10.4668C120.515 10.7385 120.461 11.0305 120.366 11.2818C120.211 11.7164 119.988 12.0628 119.4 11.9949C118.784 11.9269 118.163 11.9949 117.541 11.9745C116.716 11.9473 116.568 11.7979 116.459 11.0169C116.426 10.7928 116.466 10.5619 116.432 10.3378C116.365 9.8896 116.081 9.64511 115.628 9.62474C115.344 9.61116 115.067 9.60437 114.783 9.62474C114.013 9.66549 113.884 9.8081 113.763 10.6434C113.621 11.6417 113.384 11.9269 112.465 11.9745C111.512 12.022 110.552 11.9881 109.593 11.9881C109.065 11.9881 108.748 11.7232 108.68 11.1935C108.646 10.9151 108.68 10.623 108.646 10.3446C108.586 9.89639 108.302 9.65191 107.849 9.63153C107.565 9.61795 107.281 9.64511 107.004 9.61795C106.207 9.55004 106.051 9.40063 105.99 8.59248C105.963 8.20539 105.99 7.8115 105.99 7.23425V7.22746Z" fill="#E8D398"/>
<path id="Vector_6" d="M105.99 20.8169C105.99 18.3857 105.983 15.9544 105.99 13.5232C105.99 12.6743 106.017 12.6403 106.828 12.6403C111.668 12.6336 116.507 12.6336 121.347 12.6403C122.158 12.6403 122.192 12.6879 122.192 13.5232C122.199 18.1616 122.205 22.7931 122.192 27.4315C122.192 28.4773 121.719 28.9324 120.637 28.9391C117.711 28.9663 114.784 28.9527 111.857 28.9867C110.465 29.0003 109.079 28.9663 107.687 29.2447C106.267 29.5232 105.997 29.1904 105.99 27.7711C105.983 25.4553 105.99 23.1327 105.99 20.8169ZM111.073 24.0359C111.073 24.423 111.033 24.8237 111.087 25.204C111.147 25.6454 111.465 25.8695 111.904 25.8763C112.351 25.8763 112.682 25.6454 112.709 25.204C112.756 24.5385 112.756 23.8661 112.709 23.2006C112.675 22.766 112.364 22.5215 111.904 22.5215C111.458 22.5215 111.168 22.766 111.093 23.2006C111.046 23.4723 111.087 23.7575 111.087 24.0359H111.073ZM118.501 24.0563C118.501 23.8322 118.501 23.6081 118.501 23.384C118.501 23.3296 118.501 23.2753 118.501 23.2142C118.461 22.6166 118.244 22.4536 117.663 22.5147C117.143 22.569 116.845 22.8407 116.825 23.3636C116.805 23.8661 116.839 24.3687 116.812 24.8712C116.785 25.367 116.994 25.5639 117.487 25.5843C118.353 25.6183 118.468 25.5368 118.508 24.7218C118.515 24.4977 118.508 24.2736 118.508 24.0495L118.501 24.0563ZM111.053 17.6251C111.053 17.8492 111.053 18.0733 111.053 18.2974C111.053 18.6981 111.019 19.0987 111.594 19.1327C112.256 19.1734 112.641 18.9629 112.695 18.3993C112.749 17.8424 112.749 17.2719 112.689 16.7218C112.628 16.1989 112.168 15.9884 111.533 16.0563C111.06 16.1106 111.053 16.4298 111.046 16.7762C111.046 17.0546 111.046 17.3398 111.046 17.6183L111.053 17.6251ZM118.501 17.6998C118.501 17.3602 118.488 17.0274 118.501 16.6879C118.522 16.1446 118.211 16.0427 117.758 16.0495C117.237 16.0631 116.879 16.294 116.839 16.8169C116.791 17.3738 116.785 17.9442 116.852 18.5011C116.913 18.9765 117.454 19.2074 118.055 19.1191C118.535 19.0512 118.495 18.7049 118.501 18.3721C118.501 18.148 118.501 17.9239 118.501 17.6998Z" fill="#E8D398"/>
<path id="Vector_7" d="M157.025 19.6691C157.025 16.9526 157.019 14.2361 157.025 11.5197C157.025 10.6504 157.052 10.63 157.843 10.6164C159.026 10.5961 160.209 10.5893 161.391 10.6164C162.175 10.6368 162.385 10.8338 162.399 11.6351C162.426 13.2786 162.405 14.9152 162.405 16.5587C162.405 19.2752 162.399 21.9916 162.405 24.7081C162.405 25.557 162.439 25.5842 163.243 25.5842C165.494 25.5842 167.772 25.7675 169.995 25.4959C172.124 25.2378 174.24 25.3057 176.355 25.2242C177.41 25.1835 177.376 25.1563 177.653 24.1241C177.89 23.2412 177.944 22.3719 177.944 21.4687C177.93 18.4127 177.944 15.3567 177.944 12.3006C177.944 11.9068 177.937 11.5061 177.957 11.1122C177.984 10.6572 178.254 10.3584 178.694 10.3312C179.424 10.2837 180.16 10.2769 180.89 10.3312C181.465 10.372 181.904 10.8541 181.992 11.4246C182.012 11.5332 181.999 11.6487 181.999 11.7641C181.999 16.9118 181.992 22.0663 182.012 27.214C182.012 27.9135 181.695 28.2667 181.086 28.4161C180.661 28.5247 180.215 28.5994 179.775 28.6062C177.862 28.6334 175.929 28.484 174.037 28.6741C170.002 29.0816 165.967 28.905 161.932 29.0069C160.709 29.0409 159.492 29.2446 158.269 29.2786C157.188 29.3125 157.032 29.1224 157.025 27.9882C157.012 25.2174 157.025 22.4399 157.025 19.6691Z" fill="#E8D398"/>
<path id="Vector_8" d="M163.074 17.0273C163.074 14.8269 163.108 12.6266 163.061 10.4195C163.041 9.29214 162.973 9.25819 163.967 9.2514C168.123 9.23782 172.28 9.23782 176.437 9.2514C177.255 9.2514 177.275 9.29214 177.275 10.1275C177.282 14.1954 177.289 18.2565 177.275 22.3244C177.275 23.3838 176.809 23.8117 175.741 23.8592C172.895 23.9814 170.05 24.0833 167.211 24.2259C166.271 24.2735 165.345 24.4772 164.406 24.5044C163.223 24.5315 163.095 24.3617 163.088 23.119C163.074 21.0884 163.088 19.051 163.088 17.0205C163.088 17.0205 163.088 17.0205 163.081 17.0205L163.074 17.0273ZM173.93 13.3668C173.93 13.1971 173.93 13.0273 173.93 12.8643C173.889 12.0426 173.862 12.0086 173.071 12.0086C172.24 12.0086 172.233 12.0154 172.206 13.0273C172.199 13.3668 172.219 13.6996 172.206 14.0392C172.186 14.5417 172.409 14.7251 172.902 14.7319C173.842 14.7522 173.909 14.7115 173.936 13.7064C173.936 13.591 173.936 13.4823 173.936 13.3668H173.93ZM172.206 19.1393C172.206 19.3091 172.206 19.4789 172.206 19.6487C172.24 20.4636 172.267 20.4908 173.071 20.484C173.862 20.484 173.902 20.4432 173.93 19.6283C173.943 19.2887 173.957 18.9492 173.93 18.6164C173.869 17.9713 173.497 17.7404 172.74 17.7879C172.138 17.8218 172.226 18.2565 172.213 18.6368C172.213 18.8066 172.213 18.9763 172.213 19.1461L172.206 19.1393ZM167.502 19.248C167.502 19.5264 167.421 19.8388 167.522 20.0697C167.637 20.3414 167.9 20.7013 168.123 20.7217C168.333 20.742 168.732 20.3889 168.772 20.1512C168.874 19.6147 168.874 19.0375 168.779 18.4942C168.739 18.2429 168.407 17.8694 168.184 17.8558C167.968 17.8422 167.65 18.1682 167.515 18.4195C167.4 18.6368 167.495 18.9628 167.495 19.2412L167.502 19.248ZM168.813 13.0137C168.806 12.973 168.806 12.6062 168.644 12.355C168.522 12.1716 168.171 12.0222 167.948 12.0494C167.779 12.0697 167.542 12.3753 167.508 12.5859C167.441 13.0205 167.475 13.4755 167.481 13.9237C167.488 14.2429 167.421 14.6232 167.887 14.7047C168.347 14.7862 168.732 14.4942 168.806 13.978C168.84 13.7607 168.806 13.5298 168.806 13.0205L168.813 13.0137Z" fill="#E8D398"/>
<path id="Vector_9" d="M169.34 7.56069C165.913 7.56069 162.486 7.56069 159.06 7.56069C158.668 7.56069 158.276 7.57427 157.877 7.5539C157.357 7.52674 157.039 7.25509 157.025 6.7118C157.012 6.03268 157.012 5.35356 157.025 4.68124C157.039 4.13795 157.37 3.87988 157.89 3.85272C158.228 3.83913 158.566 3.85272 158.904 3.85272C165.981 3.85272 173.064 3.85272 180.14 3.85272C180.478 3.85272 180.816 3.84593 181.154 3.85272C181.688 3.87309 181.985 4.16511 181.992 4.69482C182.006 5.37394 182.012 6.05305 181.992 6.72538C181.979 7.26188 181.674 7.54032 181.134 7.5539C180.742 7.56069 180.35 7.5539 179.951 7.5539C176.409 7.5539 172.875 7.5539 169.333 7.5539L169.34 7.56069Z" fill="#E8D398"/>
<path id="Vector_10" d="M132.694 9.27869C131.18 9.27869 129.666 9.29227 128.152 9.27869C127.159 9.2651 126.99 9.08174 126.956 8.09702C126.935 7.53336 126.935 6.96969 126.956 6.40602C126.976 5.8831 127.273 5.58429 127.801 5.54355C127.916 5.53675 128.024 5.54355 128.139 5.54355C131.167 5.54355 134.202 5.53675 137.23 5.54355C138.061 5.54355 138.095 5.5775 138.095 6.39244C138.095 7.28887 138.047 8.18531 138.02 9.08174C137.142 9.14965 136.27 9.24473 135.391 9.27869C134.492 9.31264 133.593 9.28548 132.701 9.28548L132.694 9.27869Z" fill="#E8D398"/>
<path id="Vector_11" d="M74.8736 26.7388C74.8736 27.024 74.8871 27.3025 74.8736 27.5877C74.8195 28.3823 74.637 28.4977 73.8732 28.6403C71.8793 29.0071 69.8651 28.9595 67.8576 28.9935C67.5264 28.9935 67.1749 29.0139 66.864 29.1089C66.2963 29.2923 66.1746 28.9324 66.1003 28.5317C65.9786 27.8186 66.2625 27.0716 65.8569 26.3653C65.7893 26.2431 66.1138 25.7405 66.3571 25.6251C66.7964 25.4213 67.3101 25.2991 67.7968 25.2719C69.8042 25.1565 71.8185 25.2787 73.8259 24.9324C74.5897 24.7965 74.8127 25.1225 74.8668 25.8899C74.8871 26.1684 74.8668 26.4536 74.8668 26.7388H74.8736Z" fill="#E8D398"/>
<path id="Vector_12" d="M16.4104 17.0612C15.3424 16.9389 13.9973 17.2106 12.7402 17.9101C12.5779 17.9983 12.3481 17.9576 12.1454 17.978C12.2129 17.7403 12.2062 17.4143 12.3616 17.2853C14.0582 15.8931 15.9237 15.2615 18.0866 16.0832C18.2826 16.1579 18.4651 16.3073 18.6273 16.45C18.7017 16.5111 18.7693 16.6673 18.7355 16.742C18.6814 16.871 18.553 17.0476 18.4448 17.0544C17.8838 17.0883 17.3228 17.068 16.4104 17.068V17.0612Z" fill="#E8D398"/>
<path id="Vector_13" d="M9.8611 18.182C9.84082 18.2771 9.84758 18.4061 9.79351 18.4604C9.55694 18.6913 9.32713 18.9358 9.04325 19.1056C7.84013 19.8255 6.93441 19.3976 6.6708 17.9919C6.64377 17.8357 6.86682 17.4757 6.92765 17.4825C7.88068 17.6455 8.8202 17.8492 9.76647 18.053C9.80703 18.0598 9.83406 18.1345 9.86786 18.182H9.8611Z" fill="#E8D398"/>
<path id="Vector_14" d="M2.94685 14.2023C3.65656 13.7745 4.26488 14.0733 4.71098 14.4468C5.10977 14.7728 5.3193 15.3365 5.57615 15.8186C5.63022 15.9273 5.56263 16.1718 5.468 16.2668C5.38689 16.3415 5.11653 16.3483 5.03542 16.2668C4.33247 15.5945 3.6498 14.9018 2.94685 14.2023Z" fill="#E8D398"/>
</g>
<defs>
<clipPath id="clip0_83_58">
<rect width="181.141" height="31.6468" fill="white" transform="translate(0.871826 0.742188)"/>
</clipPath>
</defs>
</svg>
