<svg width="168" height="56" viewBox="0 0 168 56" fill="none" xmlns="http://www.w3.org/2000/svg">
<g id="Group 87">
<path id="Vector" d="M65.0534 7.42206C64.7289 7.55778 64.479 7.65202 64.2366 7.76888C62.1294 8.77541 59.8917 9.25417 57.5869 9.47281C55.8191 9.63868 54.0551 9.70277 52.2836 9.51428C51.3661 9.41627 50.8775 8.98651 50.9521 8.29665C51.0267 7.61055 51.6123 7.24488 52.485 7.30143C55.4499 7.49369 58.3813 7.33159 61.253 6.48716C63.528 5.81992 65.5494 4.68522 67.3545 3.14716C68.1377 2.47991 68.9134 1.80135 69.7041 1.13788C69.8607 1.00593 70.0472 0.91546 70.3232 0.738281C70.3082 1.00593 70.3343 1.16049 70.2859 1.29244C69.5437 3.39219 68.8985 5.52587 67.802 7.48238C65.8217 11.026 62.8381 13.1031 58.8997 13.8193C55.9385 14.3584 52.9623 14.2114 49.9825 14.0644C46.4171 13.891 42.8479 13.6497 39.2751 14.0191C33.9382 14.5771 29.1457 16.4733 25.0284 19.9791C23.3538 21.4079 21.918 23.0515 21.0751 25.1512C20.7879 25.8637 20.6649 26.5951 20.6947 27.3603C20.7656 29.0718 22.1082 30.0972 23.7119 29.5166C24.5398 29.2188 25.3118 28.6835 26.013 28.1294C27.4824 26.972 28.8735 25.7129 30.3205 24.5292C32.562 22.7009 35.0197 21.2495 37.7124 20.2053C37.9735 20.1035 38.2383 20.0017 38.477 19.8585C38.9208 19.5871 39.0998 19.1913 38.9431 18.8444C38.7604 18.4373 38.3874 18.3468 38.0033 18.4071C37.5446 18.4788 37.0896 18.5919 36.642 18.7238C33.3601 19.6813 30.4921 21.4116 27.9038 23.6245C26.9342 24.4538 26.0726 25.4076 25.1626 26.3048C25.0731 26.3915 24.9985 26.4933 24.9016 26.5724C24.413 26.9607 23.7641 26.9532 23.365 26.5611C22.9287 26.1314 22.8802 25.5697 23.324 25.0381C23.9058 24.3445 24.5025 23.6546 25.1589 23.0364C27.4973 20.8424 30.0632 18.9688 33.0132 17.7022C34.2663 17.1631 35.5829 16.7673 36.8919 16.3828C37.414 16.2282 37.9996 16.2169 38.5515 16.232C39.7151 16.2659 40.5655 16.854 41.0242 17.9322C41.4941 19.0405 41.2927 20.0885 40.5431 21.0196C40.0135 21.6718 39.3049 22.0525 38.5366 22.3428C36.0118 23.3003 33.7181 24.6725 31.6109 26.3651C30.2982 27.4206 29.0674 28.5817 27.7435 29.6184C26.8409 30.3233 25.875 30.9831 24.8605 31.5033C23.5366 32.1818 22.1529 32.0951 20.8252 31.3977C19.3409 30.6174 18.595 29.3432 18.4719 27.6921C18.3227 25.6903 19.0351 23.9298 20.0719 22.2787C21.6905 19.7039 23.9207 17.7625 26.4344 16.1491C29.4516 14.2114 32.7111 12.8241 36.2504 12.2134C37.7161 11.9609 39.2079 11.8666 40.6885 11.7045C43.5155 11.3954 46.3387 11.7422 49.162 11.7686C51.5824 11.7912 54.0066 11.9307 56.427 11.8704C58.3627 11.8251 60.2349 11.3765 61.9691 10.4115C63.1662 9.74424 64.1023 8.79803 64.9713 7.76511C65.0198 7.70857 65.0161 7.60678 65.0608 7.42583L65.0534 7.42206Z" fill="#DB331E"/>
<path id="Vector_2" d="M63.8264 13.476C63.8003 13.7512 63.8264 13.9095 63.7704 14.0377C62.8455 16.2656 62.0661 18.5539 60.8353 20.6499C58.4671 24.6873 55.2523 27.7596 51.0118 29.7086C50.7582 29.8255 50.5009 29.9499 50.2286 30.0102C49.6282 30.1421 49.121 29.8745 48.9308 29.3656C48.7144 28.7925 48.9158 28.2459 49.4902 27.9406C50.3703 27.4731 51.2915 27.0811 52.1419 26.5684C54.6145 25.0869 56.6023 23.0889 58.2172 20.5933C58.0792 20.5933 57.9934 20.5669 57.9412 20.5971C54.1073 23.0135 49.8631 24.2764 45.466 25.1095C43.5081 25.4789 41.5948 25.9954 39.7525 26.7946C37.6975 27.6842 35.9148 28.981 34.2253 30.4249C32.3718 32.0082 30.4958 33.5575 28.3924 34.794C26.8782 35.6837 25.3006 36.3773 23.5478 36.6676C21.3399 37.0332 19.3595 36.4678 17.4948 35.3331C15.1676 33.9194 13.9891 31.7631 13.6236 29.1017C13.1164 25.4035 14.2949 22.154 16.2939 19.1533C18.6248 15.6549 21.8658 13.2008 25.4871 11.2179C29.638 8.94476 34.0426 7.46702 38.7679 7.18052C41.6806 7.00334 44.6045 7.05989 47.521 7.01465C47.6441 7.01465 47.7709 7.01842 47.894 7.04104C48.5541 7.16167 48.9382 7.59142 48.9196 8.1795C48.9046 8.76382 48.4944 9.21619 47.8306 9.24635C47.0884 9.28404 46.3388 9.24635 45.5929 9.21242C39.5548 8.93723 33.6957 9.6384 28.1761 12.3602C25.1925 13.8341 22.3954 15.5607 20.0793 17.9846C18.1064 20.0505 16.6184 22.4179 15.9918 25.2678C15.63 26.9227 15.6673 28.5588 16.141 30.1987C17.0398 33.3049 20.7208 34.9146 23.145 34.4623C24.5063 34.2059 25.7743 33.7196 26.9715 33.0335C28.8735 31.9441 30.6301 30.6397 32.2375 29.1582C35.9558 25.7277 40.3081 23.7034 45.2386 22.8401C47.5658 22.433 49.8557 21.8637 52.0747 21.0118C54.9502 19.9072 57.531 18.2975 59.9738 16.439C61.0666 15.6059 62.122 14.7313 63.1998 13.8831C63.3602 13.755 63.5429 13.6607 63.8227 13.476H63.8264Z" fill="#DB331E"/>
<path id="Vector_3" d="M92.1333 38.7787C92.234 38.168 92.3198 37.6628 92.413 37.0974C95.7211 36.8184 98.2795 35.2276 100.338 32.7546C101.412 31.4653 102.05 30.1836 102.162 29.1733H99.4841C97.9327 31.6953 96.053 33.7837 92.8904 34.5528C92.9799 33.9006 93.0508 33.3917 93.1328 32.7998C96.3626 31.3598 97.8245 28.6229 98.4697 25.2415C98.2459 25.1472 98.0744 25.0794 97.9103 25.0077C96.8474 24.5478 96.4633 23.8806 96.6497 22.6893C96.8362 21.4793 97.0712 20.2767 97.2912 19.0741C97.3658 18.6746 97.4255 18.2674 97.5485 17.8791C97.914 16.7218 98.9247 15.8887 100.107 15.8812C103.773 15.8548 107.439 15.8699 111.109 15.8736C111.228 15.8736 111.344 15.9189 111.523 15.9566C111.639 16.5409 111.501 17.0649 111.24 17.6529C110.889 17.6756 110.527 17.717 110.162 17.717C107.178 17.7208 104.195 17.717 101.211 17.7246C100.816 17.7246 100.424 17.7773 99.9391 17.815C99.831 18.4069 99.7303 18.9384 99.6035 19.617H110.993C110.878 20.2654 110.788 20.7668 110.684 21.3586H99.4991C99.0553 21.958 98.9993 22.5122 99.156 23.1794C99.4469 23.2058 99.7154 23.2548 99.9876 23.2548C103.624 23.2586 107.26 23.2623 110.896 23.2548C111.896 23.2548 111.974 23.1832 112.164 22.1691C112.396 20.9364 112.612 19.6999 112.843 18.4634C113.156 16.7784 114.197 15.8812 115.872 15.8623C116.327 15.8548 116.782 15.8925 117.371 15.9113C117.27 16.5258 117.184 17.0309 117.095 17.5851C116.521 17.6718 116.01 17.7472 115.409 17.8339C115.256 18.5539 115.092 19.2513 114.958 19.9487C114.801 20.7818 114.674 21.6187 114.529 22.4556C114.238 24.1633 113.156 25.102 111.433 25.1095C108.293 25.1208 105.157 25.1133 102.016 25.1133C101.681 25.1133 101.345 25.1133 100.968 25.1133C100.756 25.8484 100.566 26.5006 100.338 27.2809C100.767 27.2998 101.092 27.3299 101.416 27.3299C105.082 27.3299 108.748 27.3299 112.418 27.3299C112.698 27.3299 112.977 27.3186 113.257 27.345C114.238 27.4355 114.921 28.1517 114.954 29.1356C114.965 29.4787 114.935 29.8293 114.88 30.1685C114.536 32.1477 114.178 34.123 113.828 36.1021C113.5 37.9456 112.455 38.8503 110.632 38.8654C109.916 38.8729 109.203 38.8729 108.487 38.8654C108.219 38.8654 107.95 38.8201 107.57 38.7824C107.674 38.1755 107.76 37.6666 107.864 37.0559C109.002 37.0257 110.072 36.9994 111.24 36.9692C111.773 34.3907 112.224 31.8838 112.567 29.2977C111.654 28.9924 110.863 29.1432 110.005 29.1432C109.878 29.4862 109.744 29.7953 109.647 30.1158C108.912 32.5322 107.659 34.647 105.947 36.4754C105.418 37.0408 104.776 37.5045 104.18 38.0021C103.027 38.9634 101.688 38.986 100.189 38.7862C101.323 37.8815 102.419 37.0936 103.415 36.1926C104.415 35.2917 105.194 34.1833 105.899 33.026C106.615 31.8461 107.111 30.5832 107.499 29.162H104.814C104.672 29.4636 104.523 29.769 104.381 30.0781C102.195 34.9184 98.5555 37.8702 93.3379 38.7636C92.9911 38.8239 92.6219 38.7711 92.1333 38.7711V38.7787Z" fill="white"/>
<path id="Vector_4" d="M128.097 23.2591C128.794 23.2591 129.316 23.2478 129.835 23.2591C130.297 23.2704 130.771 23.2628 131.226 23.3496C132.315 23.5531 132.923 24.3071 132.83 25.4154C132.751 26.3201 132.565 27.2136 132.404 28.1108C131.946 30.7044 131.476 33.2979 131.021 35.8953C130.969 36.1969 130.972 36.506 130.946 36.8415C131.185 36.9094 131.356 36.9998 131.532 37.0036C132.528 37.0187 133.52 37.0262 134.515 37.0036C135.134 36.9923 135.313 36.8491 135.422 36.2723C135.832 34.018 136.223 31.7637 136.615 29.5056C136.63 29.4226 136.593 29.3284 136.567 29.1474C135.534 29.1211 134.5 29.0947 133.464 29.0645C133.285 28.4161 133.464 27.926 133.687 27.3455H136.973C137.607 26.0223 138.215 24.7632 138.868 23.3986C137.577 22.7539 136.272 23.3119 135.011 22.9801C134.982 22.426 135.026 21.8944 135.388 21.3101C136.227 21.3101 137.089 21.3101 137.954 21.3101C138.484 21.3101 139.009 21.295 139.539 21.3139C140.919 21.3629 141.609 22.4222 141.079 23.719C140.721 24.5898 140.292 25.4267 139.901 26.2824C139.774 26.5614 139.655 26.8403 139.505 27.1909C140.576 27.4925 141.609 27.1909 142.627 27.4096C142.855 27.9675 142.638 28.4538 142.444 29.0607C141.363 29.0909 140.263 29.1211 139.099 29.1512C138.868 30.4442 138.644 31.6732 138.428 32.9021C138.234 33.984 138.051 35.066 137.85 36.1441C137.506 37.9762 136.462 38.8508 134.62 38.8621C133.344 38.8696 132.073 38.8772 130.797 38.8621C129.081 38.8395 128.283 37.8933 128.578 36.1818C129.137 32.936 129.73 29.6941 130.301 26.4521C130.364 26.0902 130.372 25.7207 130.409 25.291C129.559 24.9743 128.761 25.1666 127.907 25.1176C127.81 25.4078 127.694 25.6604 127.646 25.9243C127.068 29.1663 126.437 32.4045 125.952 35.6616C125.55 38.357 124.009 39.0619 121.701 38.8433C121.589 38.832 121.481 38.7528 121.298 38.6736C121.391 38.1496 121.484 37.6407 121.581 37.0979C122.133 37.0375 122.618 36.9885 123.166 36.9282C123.271 36.6229 123.413 36.3439 123.469 36.0499C124.394 30.8627 125.311 25.6717 126.225 20.4808C126.277 20.183 126.277 19.8776 126.307 19.4893C125.919 19.4629 125.617 19.429 125.318 19.429C123.983 19.4215 122.648 19.4328 121.309 19.4215C120.97 19.4215 120.619 19.3951 120.299 19.3046C119.638 19.1199 119.187 18.4941 119.258 17.8118C119.321 17.1973 119.485 16.5904 119.612 15.9344H121.242C121.268 16.4622 121.291 16.9183 121.309 17.3519C121.995 17.612 125.501 17.6723 126.676 17.4499C126.799 16.9787 126.933 16.4735 127.079 15.9307H129.316C129.272 16.4622 129.234 16.9146 129.186 17.4989C130.611 17.6761 132.054 17.4838 133.508 17.612C133.676 18.2604 133.512 18.7768 133.244 19.3913H128.82C128.589 20.6655 128.373 21.853 128.116 23.2553L128.097 23.2591Z" fill="white"/>
<path id="Vector_5" d="M89.7987 36.8304C90.0821 36.9397 90.3357 37.0378 90.6229 37.1509C90.7982 37.6899 90.5632 38.18 90.4178 38.7643C89.6159 38.9453 88.8327 38.9792 88.1204 38.4778C87.326 37.9199 87.2104 37.1056 87.3745 36.2084C87.6989 34.4479 88.0234 32.6912 88.3367 30.927C89.0453 26.9423 89.7502 22.9539 90.4439 18.9655C90.5035 18.6338 90.4886 18.287 90.5147 17.8421C90.194 17.7969 89.9292 17.7253 89.6681 17.7253C84.2603 17.7177 78.8526 17.7177 73.4448 17.7253C73.1725 17.7253 72.8966 17.7743 72.5646 17.8082C72.4602 18.1286 72.3259 18.4152 72.2737 18.713C71.498 23.101 70.7334 27.4927 69.9652 31.8845C69.5848 34.0483 69.2081 36.2122 68.8277 38.376C68.8053 38.4967 68.7456 38.606 68.6934 38.7605C67.9624 38.9528 67.2389 38.9189 66.4669 38.7832C66.4669 38.5306 66.4371 38.3157 66.4706 38.1121C67.4217 32.7327 68.3764 27.357 69.3312 21.9813C69.54 20.8052 69.7116 19.6252 69.9428 18.4566C70.2934 16.7075 71.3115 15.8743 73.083 15.8706C78.9272 15.863 84.7713 15.8668 90.6154 15.8706C90.9846 15.8706 91.365 15.9083 91.7156 16.01C92.4503 16.2212 92.8568 16.7602 92.9277 17.5179C92.965 17.9213 92.9464 18.3398 92.8755 18.7394C92.1893 22.6674 91.4918 26.5918 90.7944 30.5161C90.4662 32.3708 90.1268 34.2217 89.8024 36.0765C89.7614 36.314 89.7949 36.5665 89.7949 36.838L89.7987 36.8304Z" fill="white"/>
<path id="Vector_6" d="M163.024 23.0748H165.108C165.094 24.0097 163.993 26.4525 162.781 28.3713C161.759 29.9923 160.603 31.5002 159.175 32.8611C160.186 35.6356 162.42 36.3707 165.019 36.4951C165.269 37.3283 164.881 38.0106 164.818 38.8098C163.162 38.8927 161.681 38.5987 160.26 37.8899C158.824 37.1775 157.944 35.9448 157.18 34.5311C156.948 34.6253 156.743 34.6743 156.568 34.7799C154.834 35.8467 152.939 36.4122 150.933 36.5705C149.721 36.6648 148.535 36.514 147.323 35.8204C147.625 35.5075 147.845 35.2662 148.08 35.0325C148.3 34.8138 148.527 34.6027 148.773 34.3728C151.723 35.3378 154.166 34.2144 156.572 32.4728C155.994 28.8086 156.467 25.1708 156.941 21.4463C155.938 21.4048 155.061 21.3671 154.08 21.3219C154.196 20.7225 154.289 20.2437 154.405 19.6519C155.326 19.6255 156.21 19.5991 157.209 19.5689C157.452 18.3551 157.687 17.1714 157.914 16.0253C158.757 15.7992 159.44 15.8029 160.234 16.0442C160.055 17.1638 159.876 18.2947 159.675 19.5501C160.033 19.5727 160.327 19.6066 160.622 19.6066C162.546 19.6104 164.474 19.6066 166.399 19.6104C166.731 19.6104 167.063 19.6368 167.417 19.6556C167.581 20.2701 167.477 20.7677 167.197 21.3709C164.657 21.4123 162.091 21.3633 159.559 21.3973C158.94 22.5056 158.369 28.2394 158.686 30.1695C158.873 30.0074 159.041 29.9018 159.152 29.751C160.495 28.0094 161.58 26.1095 162.468 24.0926C162.58 23.8363 162.696 23.5762 162.819 23.3236C162.86 23.2444 162.934 23.1803 163.02 23.0786L163.024 23.0748Z" fill="white"/>
<path id="Vector_7" d="M42.3519 28.9997C45.4548 29.0714 47.838 31.9439 47.342 35.0238C46.9839 37.2517 45.8502 39.0612 44.4106 40.7048C42.2251 43.2042 39.5995 45.1381 36.7129 46.7289C34.8295 47.7694 32.8752 48.6552 30.8389 49.3489C30.6338 49.4205 30.4287 49.4997 30.2161 49.5449C29.6865 49.6542 29.1868 49.4017 28.9779 48.938C28.7504 48.4404 28.9182 47.8523 29.418 47.5469C29.679 47.3848 29.9849 47.2944 30.2758 47.185C33.7405 45.9071 37.0001 44.2484 39.9016 41.9187C41.4904 40.6445 42.9635 39.2422 44.0115 37.4704C44.4516 36.724 44.8059 35.8984 45.0371 35.0653C45.3504 33.9419 45.1304 32.8637 44.2129 32.057C43.2768 31.2352 42.2176 31.1334 41.0764 31.5933C39.7897 32.1098 38.7044 32.9467 37.608 33.776C35.5455 35.3367 33.5167 36.9501 31.3872 38.4053C28.9369 40.079 26.2218 41.1346 23.2457 41.4135C23.0927 41.4286 22.9361 41.4701 22.7832 41.4626C22.1455 41.4249 21.6979 41.0064 21.6494 40.4259C21.6009 39.8453 21.9851 39.3703 22.6266 39.2535C23.268 39.1366 23.917 39.0763 24.5547 38.9444C27.0647 38.4241 29.2986 37.263 31.3499 35.7551C33.4347 34.2246 35.456 32.6112 37.5147 31.0429C38.5142 30.2814 39.6032 29.6745 40.8004 29.3051C41.3002 29.1505 41.826 29.094 42.3407 28.9922L42.3519 28.9997Z" fill="#DB331E"/>
<path id="Vector_8" d="M16.9251 14.6825C16.7387 14.9502 16.5559 15.2178 16.3657 15.4817C15.3363 16.8991 14.2136 18.2562 13.2999 19.7415C11.5693 22.55 10.6667 25.6374 10.8718 28.9737C11.0509 31.899 12.0691 34.4775 14.2062 36.532C15.2393 37.5235 16.4627 38.187 17.8091 38.628C18.2231 38.7637 18.6483 38.8693 19.0399 39.054C19.5546 39.2953 19.7448 39.7816 19.6068 40.3093C19.4837 40.7843 18.9989 41.1387 18.4767 41.1198C18.3238 41.1123 18.1709 41.0633 18.0217 41.0256C14.0309 40.0153 11.2448 37.5725 9.68578 33.7424C8.03724 29.6899 8.32443 25.6412 9.8648 21.6226C10.0513 21.1363 10.249 20.65 10.3198 20.0393C10.0774 20.1939 9.82005 20.3296 9.59253 20.503C7.47779 22.1202 5.79942 24.1107 4.5798 26.4969C4.46418 26.7193 4.35975 26.9531 4.21056 27.1491C3.87489 27.5789 3.3117 27.6995 2.87159 27.4733C2.36435 27.217 2.14803 26.693 2.32706 26.12C2.39419 25.9126 2.50235 25.7166 2.59932 25.5206C4.79612 21.076 8.31697 18.0753 12.7479 16.0924C13.8556 15.5986 15.0006 15.1914 16.1307 14.7504C16.3508 14.6637 16.5857 14.6222 16.8133 14.5581C16.8506 14.5996 16.8878 14.641 16.9251 14.6825Z" fill="#DB331E"/>
<path id="Vector_9" d="M52.4141 33.7313C52.3805 35.8423 51.7913 37.8101 50.8067 39.6611C48.5205 43.9511 45.1006 47.1365 41.0876 49.715C36.9703 52.3614 32.4725 54.0163 27.6763 54.8495C26.5463 55.0455 25.4013 55.136 24.2601 55.2679C24.0774 55.2905 23.8834 55.2604 23.7007 55.2867C22.9511 55.3961 22.3618 54.7741 22.373 54.1634C22.3842 53.5112 22.8243 53.0927 23.5963 53.0249C24.2154 52.9721 24.8345 52.9344 25.4498 52.8666C32.107 52.1352 38.063 49.6736 43.2321 45.3647C45.4213 43.5402 47.3271 41.4253 48.6958 38.8732C49.6543 37.0826 50.2846 35.1939 50.21 33.1206C50.2025 32.9622 50.1988 32.8039 50.2212 32.6493C50.3144 32.0537 50.7284 31.6805 51.2953 31.6692C51.8621 31.6579 52.3209 32.0123 52.4029 32.6003C52.4551 32.9698 52.4141 33.3505 52.4141 33.7275V33.7313Z" fill="#DB331E"/>
<path id="Vector_10" d="M21.5862 48.7427C22.705 48.6296 23.9693 48.4976 25.2336 48.3694C25.4499 48.3468 25.6662 48.3167 25.8825 48.3318C26.4718 48.3732 26.8783 48.7766 26.9268 49.3345C26.9753 49.9037 26.6583 50.375 26.0877 50.5258C25.7595 50.6125 25.4163 50.6502 25.077 50.6916C19.6692 51.3626 14.4703 50.6577 9.62938 48.0566C5.11668 45.6326 2.18156 41.8968 1.05898 36.7963C0.596527 34.6928 0.42124 32.5817 0.954559 30.4556C1.13357 29.7393 1.55128 29.3699 2.17411 29.4189C2.86033 29.4716 3.24447 30.0333 3.17361 30.8401C3.09529 31.7147 2.97968 32.5892 2.98341 33.4638C3.00951 39.0318 5.60897 43.088 10.2746 45.8475C12.9374 47.4232 15.8614 48.245 18.9307 48.524C19.7624 48.5994 20.5978 48.6635 21.5862 48.7427Z" fill="#DB331E"/>
<path id="Vector_11" d="M141.706 36.5582C141.814 35.9173 141.903 35.4084 141.997 34.8505C143.16 34.5979 144.294 34.3642 145.096 33.4557C143.686 28.9998 144.872 24.7211 145.574 21.4716C146.282 21.2642 146.816 21.2567 147.752 21.4716C147.729 21.8109 147.729 22.1765 147.677 22.5347C147.42 24.2725 147.121 26.0028 146.89 27.7445C146.804 28.3929 146.834 29.0601 146.853 29.7198C146.864 30.0893 146.961 30.4587 147.05 31.0355C147.289 30.6472 147.442 30.4361 147.558 30.2023C148.688 27.9367 149.322 25.5128 149.769 23.0323C149.971 21.9277 150.15 20.8194 150.359 19.5905C149.952 19.5264 149.639 19.4359 149.318 19.4284C148.169 19.4095 147.021 19.4284 145.868 19.4171C145.536 19.4171 145.204 19.3756 144.746 19.3417C144.835 18.7423 144.913 18.2371 144.999 17.6792C145.301 17.634 145.536 17.5699 145.771 17.5699C147.356 17.5623 148.941 17.551 150.527 17.5699C152.194 17.5887 152.929 18.5236 152.649 20.2125C152.212 22.8438 151.776 25.4788 150.873 28.0008C150.172 29.9649 149.262 31.8158 147.92 33.418C146.349 35.2953 144.406 36.4564 141.706 36.5506V36.5582Z" fill="white"/>
<path id="Vector_12" d="M20.6537 46.3147C19.367 46.1036 17.8901 45.9114 16.4356 45.6136C15.4025 45.4025 15.0408 44.5316 15.589 43.8116C15.9209 43.3781 16.3722 43.3442 16.8533 43.4309C17.5246 43.5477 18.1922 43.691 18.8672 43.7965C21.7203 44.2527 24.4913 43.8267 27.2325 43.0237C32.1592 41.5761 36.3027 38.8619 39.842 35.1487C40.144 34.832 40.4349 34.5041 40.7594 34.2138C41.3151 33.72 41.8596 33.7313 42.3295 34.2138C42.7994 34.6926 42.8144 35.2279 42.3183 35.8046C37.8019 41.022 32.3345 44.6259 25.4834 45.8134C23.958 46.0772 22.4028 46.1413 20.6537 46.3185V46.3147Z" fill="#DB331E"/>
<path id="Vector_13" d="M81.318 23.6734C81.7693 22.9308 82.1982 22.2258 82.6309 21.5171C82.7017 21.5284 82.7726 21.5397 82.8434 21.551C83.0971 22.4595 83.3507 23.3643 83.6677 24.5028C84.727 22.7536 85.6594 21.2118 86.5881 19.6699H88.5872C88.4268 20.0054 88.3336 20.2618 88.1956 20.4917C87.0282 22.4558 85.8645 24.4236 84.6673 26.3726C84.3652 26.8664 84.2868 27.315 84.436 27.8805C84.9395 29.7917 85.3908 31.7181 85.8608 33.6369C85.9205 33.8744 85.9503 34.1194 86.0025 34.3908C85.3274 34.6623 84.7008 34.5529 84.0295 34.4813C83.4961 32.9696 83.3059 31.375 82.7092 29.6786C81.6686 31.4052 80.7399 32.947 79.8 34.5039H77.7822C77.9426 34.1722 78.0358 33.9271 78.1701 33.7047C79.3412 31.7407 80.5012 29.7729 81.7022 27.8277C82.0229 27.3075 82.1273 26.8325 81.9446 26.2368C81.6984 25.4301 81.538 24.597 81.3143 23.6809L81.318 23.6734Z" fill="white"/>
<path id="Vector_14" d="M78.5098 30.4626C78.0474 31.2203 77.6184 31.9328 77.1858 32.6415C77.1149 32.634 77.0403 32.6264 76.9695 32.6151C76.727 31.7066 76.4846 30.7981 76.2422 29.8896C76.175 29.8821 76.1079 29.8745 76.0408 29.8632C75.1009 31.3975 74.1647 32.9356 73.2211 34.4774H71.2033C72.6057 31.8574 74.1871 29.5013 75.5522 27.0208C74.9592 24.5856 74.3736 22.1804 73.7656 19.6849H75.8319C76.231 21.2229 76.6263 22.7534 77.0814 24.5102C78.1443 22.7648 79.0805 21.2267 80.0278 19.666H82.0158C81.8927 19.945 81.8181 20.1674 81.7025 20.3597C80.5351 22.3237 79.3826 24.299 78.1742 26.2405C77.8087 26.8286 77.7266 27.3714 77.9131 28.0198C78.1406 28.8039 78.3084 29.6031 78.5173 30.4588L78.5098 30.4626Z" fill="white"/>
<path id="Vector_15" d="M119.881 27.4058H122.182C122.093 28.0353 122.026 28.5857 121.932 29.1285C121.526 31.4469 121.101 33.7616 120.709 36.0837C120.407 37.8593 119.292 38.8545 117.52 38.8696C116.752 38.8771 115.98 38.8696 115.204 38.8696C114.943 38.1948 115.182 37.6784 115.331 37.0526C115.935 37.0413 116.517 37.0262 117.095 37.0149C118.042 36.996 118.124 36.9357 118.303 35.9707C118.781 33.3469 119.247 30.7194 119.717 28.0956C119.754 27.8845 119.814 27.6772 119.881 27.4095V27.4058Z" fill="white"/>
<path id="Vector_16" d="M5.07953 34.1197C5.09072 33.3959 5.48607 32.9134 6.05671 32.8455C6.67585 32.7739 7.17936 33.1282 7.29871 33.8407C7.53741 35.228 8.07076 36.4871 8.80178 37.6708C9.75286 39.2126 11.0023 40.4642 12.4755 41.5009C12.7292 41.6818 13.0089 41.8288 13.2439 42.0362C13.6914 42.432 13.7735 43.0314 13.4751 43.48C13.1544 43.9625 12.6247 44.151 12.0877 43.8607C11.4611 43.5177 10.8569 43.1219 10.3011 42.6733C7.71644 40.5924 5.91871 37.9875 5.19515 34.6814C5.14666 34.4665 5.10937 34.2516 5.07953 34.1197Z" fill="#DB331E"/>
<path id="Vector_17" d="M137.428 49.8888C136.929 49.395 136.6 49.0708 136.239 48.7127C135.448 49.165 134.825 49.9718 133.672 50.1565C134.094 49.3761 134.806 49.2593 135.243 48.8069C135.69 48.3432 136.25 47.97 136.47 47.2462C135.992 47.201 135.571 47.1595 135.056 47.1105C135.474 46.3302 136.194 46.8655 136.735 46.4923C136.768 46.4018 136.835 46.2133 136.936 45.9494H134.911C134.747 46.3 134.597 46.6242 134.426 46.9899C134.083 46.4508 134.139 45.7722 134.579 45.5951C135.023 45.4179 135.534 45.4141 136.071 45.3274V44.4076C136.664 44.4792 136.57 45.0409 136.887 45.3425H138.036C137.991 44.8901 137.958 44.5282 137.921 44.1136C137.078 43.959 136.153 44.3774 135.213 43.7894C135.485 43.6989 135.642 43.5971 135.795 43.6046C137.82 43.6989 139.841 43.3634 141.874 43.5292C140.77 44.204 139.506 43.8421 138.297 44.1136C138.454 44.5395 138.592 44.9127 138.734 45.3048C139.319 45.5649 139.726 45.3689 140.103 44.8864C140.308 44.6225 140.405 44.1739 141.031 44.1927C140.852 44.581 140.71 44.8939 140.535 45.2784C141.057 45.3953 141.568 45.5084 142.057 45.6177C142.031 46.5941 141.982 46.6883 141.311 46.9673C141.389 46.6581 141.453 46.4056 141.527 46.1002C141.404 46.0361 141.277 45.9155 141.147 45.9155C139.968 45.9004 138.79 45.908 137.57 45.908C137.503 46.1341 137.451 46.3226 137.384 46.5564C138.551 46.6431 139.647 46.726 140.74 46.8202C140.759 46.8202 140.77 46.9296 140.811 47.0879C139.558 47.3819 138.223 46.971 136.996 47.4611C137.529 47.872 138.115 47.7061 138.67 47.7363C139.248 47.7702 139.83 47.7627 140.505 47.7778C140.472 48.9652 139.465 49.2027 138.883 49.8624C139.636 50.3827 140.561 50.2281 141.345 50.5825C140.863 51.0461 140.379 50.9896 138.003 50.2281C136.899 50.4467 135.802 50.9067 134.515 50.869C134.829 50.1904 135.422 50.4241 135.839 50.2658C136.291 50.0962 136.783 50.0396 137.439 49.8888H137.428ZM136.791 48.445C137.335 48.92 137.73 49.2668 138.088 49.5797C138.786 49.3007 139.286 48.9765 139.7 48.4639C138.972 48.2301 137.924 48.2075 136.791 48.445Z" fill="#D4D4D4"/>
<path id="Vector_18" d="M155.889 48.3655C156.557 47.7812 157.366 47.7435 158.034 47.3967C158.713 47.0461 159.414 46.7332 160.081 46.3336C158.933 46.0471 157.747 46.3901 156.635 45.9152C157.724 45.4854 158.873 45.8021 160.074 45.5947C160.122 45.3723 160.175 45.1273 160.253 44.7654C159.388 44.739 158.634 44.7164 157.717 44.6862C158.108 44.0604 158.571 44.2225 158.951 44.2037C159.38 44.1773 159.813 44.1961 160.219 44.1961C160.398 43.9021 160.54 43.6684 160.749 43.3291C160.909 43.6533 161.021 43.8757 161.178 44.1961C161.681 44.1961 162.241 44.2565 162.782 44.1773C163.263 44.1057 163.725 43.8795 164.344 43.6721C163.919 44.5957 163.136 44.9275 162.509 45.5646C163.296 45.8096 164.083 45.5005 164.811 45.8058C164.62 46.2243 164.318 46.179 164.057 46.1866C163.531 46.2017 162.994 46.2507 162.476 46.1828C161.487 46.0546 160.782 46.6012 159.921 47.1139C161.07 47.3288 162.144 47.0008 163.117 47.3665C163.382 48.0338 163.106 48.5766 163.013 49.1119C162.696 50.9553 162.677 50.9516 160.824 50.9553C160.048 50.9553 159.272 50.9629 158.496 50.9516C158.194 50.9478 157.896 50.9025 157.594 50.8724C157.176 49.9224 157.825 49.1006 157.717 48.1996C157.116 48.0225 156.594 48.7199 155.885 48.3655H155.889ZM162.204 50.3409C162.289 49.9413 162.494 49.6359 162.3 49.323H158.123C158.078 49.6698 158.041 49.9639 157.993 50.3409H162.2H162.204ZM158.336 48.6746H162.524C162.569 48.3806 162.61 48.128 162.67 47.7435C161.215 47.7397 159.876 47.6568 158.489 47.8113C158.437 48.1016 158.395 48.3316 158.336 48.6746ZM162.308 44.7993H160.857V45.6098C161.573 45.7455 161.916 45.2705 162.308 44.7993Z" fill="#D4D4D4"/>
<path id="Vector_19" d="M135.645 15.9229H137.853V17.4911C139.688 17.6796 141.449 17.476 143.217 17.6155C143.336 18.2601 143.269 18.7916 142.933 19.3533C142.683 19.376 142.415 19.4174 142.143 19.4212C140.468 19.4287 138.793 19.4287 137.119 19.4212C136.843 19.4212 136.555 19.3986 136.294 19.3194C135.664 19.1271 135.254 18.5768 135.269 17.9133C135.276 17.5099 135.369 17.1066 135.44 16.707C135.485 16.4657 135.563 16.2282 135.642 15.9266L135.645 15.9229Z" fill="white"/>
<path id="Vector_20" d="M90.94 48.9011C90.1903 49.5797 89.5749 50.4128 88.4411 50.8237C88.6649 50.0471 89.2765 49.8888 89.6197 49.4817C89.9591 49.0821 90.3395 48.7202 90.6864 48.3583C90.3843 47.6194 90.1157 46.9672 89.8546 46.3113C89.8472 46.2924 89.9367 46.2321 90.0187 46.1492C90.6714 46.4206 90.6267 47.2688 91.2085 47.6609C91.8799 46.9597 92.0626 46.0436 92.361 45.1201C91.574 44.6941 90.7199 45.1427 89.8845 44.7582C90.2985 44.204 90.8244 44.4226 91.2607 44.4C91.7158 44.3736 92.1745 44.4302 92.6072 44.4528C92.7899 44.777 92.9205 45.0145 93.0473 45.2407H94.1736C94.5914 44.6564 94.2967 43.8421 94.8711 43.2842C95.356 43.9024 94.707 44.5433 95.0874 45.2331C95.8296 45.2633 96.6688 45.2935 97.508 45.3274L97.5155 45.5762C96.6949 45.9796 95.7401 45.546 94.8301 45.8589V48.347C95.755 47.8531 95.8818 46.7825 96.7136 46.2585C96.8851 46.9974 96.363 47.3517 96.0907 47.789C95.7961 48.264 95.4268 48.69 95.1023 49.1198C95.2105 49.7192 95.4007 50.1866 95.9788 50.4128C96.6539 50.066 96.2884 49.1575 96.8478 48.7353C97.1238 49.41 96.8105 50.6201 96.3108 50.9293C95.9788 51.1328 95.5499 51.0574 95.2291 50.6804C94.9718 50.3751 94.7629 50.0245 94.513 49.6588C93.6328 49.9416 93.0137 50.7558 92.0365 50.7935C92.596 49.9491 93.7335 49.8247 94.196 49.0632V45.8438C93.685 45.7722 93.2636 45.7119 92.8496 45.6516C92.4281 46.5299 92.0104 47.4008 91.5852 48.2829C91.5405 48.935 92.223 49.4138 92.0887 50.1678C91.3316 50.0697 91.5069 49.2329 90.94 48.9011Z" fill="#D4D4D4"/>
<path id="Vector_21" d="M118.549 21.6494H120.291C120.265 22.1696 120.243 22.5919 120.217 23.0706C121.059 23.4966 122.011 23.0518 122.921 23.4212C122.82 23.9754 122.73 24.4805 122.626 25.0799C121.496 25.1402 120.422 25.2043 119.355 25.0535C118.672 24.9555 118.24 24.3561 118.273 23.621C118.303 22.9764 118.449 22.3393 118.549 21.6532V21.6494Z" fill="white"/>
<path id="Vector_22" d="M114.365 49.0744C114.51 48.8105 114.626 48.524 114.809 48.2828C115.182 47.7889 115.592 47.3215 115.894 46.9558C116.006 46.2735 115.32 45.9003 115.667 45.2368C115.931 45.4517 116.151 45.6288 116.461 45.8814C116.573 45.5195 116.67 45.2142 116.782 44.8485C116.312 44.7618 115.935 44.6902 115.458 44.6035C115.808 44.0078 116.36 44.317 116.774 44.1134C116.905 43.8571 117.05 43.5668 117.293 43.0918C117.442 43.5479 117.531 43.8156 117.621 44.0832C118.117 44.2001 118.613 44.317 119.165 44.4451C119.023 45.5158 118.904 46.4733 118.773 47.4232C118.729 47.7588 118.632 48.0943 119.023 48.4562C119.243 47.8605 119.441 47.3328 119.635 46.805C120.138 47.5062 119.751 48.0641 119.482 48.607C119.284 49.0028 118.934 49.2063 118.404 48.9048C117.942 47.5891 118.494 46.2395 118.523 44.8108H117.367C117.173 45.3725 116.901 45.9191 116.819 46.4921C116.763 46.8879 116.968 47.329 117.073 47.7437C117.151 48.049 117.453 48.3355 117.11 48.7012C116.554 48.5353 116.647 47.902 116.26 47.5891C115.872 47.6381 115.726 48.0377 115.458 48.2639C115.111 48.5579 114.887 49.0329 114.35 49.0518L114.369 49.0669L114.365 49.0744Z" fill="#D4D4D4"/>
<path id="Vector_23" d="M163.807 18.4942C163.904 16.9788 164.176 15.5802 164.571 14.1816C164.855 14.2043 165.038 14.1628 165.146 14.2382C165.862 14.7283 166.574 15.2183 167.253 15.7574C167.436 15.9044 167.488 16.2211 167.581 16.4171C166.929 17.2314 164.784 18.4377 163.811 18.4942H163.807Z" fill="white"/>
<path id="Vector_24" d="M73.0533 44.8633C72.8929 45.0669 72.7027 45.3044 72.4826 45.5871C73.2137 45.8811 74.0416 45.4288 74.657 46.0432C74.5228 46.8274 73.6873 46.9254 73.3591 47.5285C73.3927 48.618 74.5377 47.8376 74.9815 48.5124C74.5489 48.618 74.1871 48.7047 73.7731 48.8065C73.7022 49.666 73.7134 50.6122 72.6579 50.9364C72.0761 51.1173 71.6173 50.9515 71.1511 50.3935C71.4047 50.3935 71.6024 50.3596 71.7814 50.4011C72.7176 50.6197 73.1391 50.3182 73.1652 49.3644C73.1689 49.1872 73.1129 49.0063 73.0719 48.7725C72.546 48.7122 72.0463 48.6519 71.4682 48.5878C71.7553 47.9583 72.3148 48.3013 72.684 48.0261C72.7251 47.8 72.7736 47.5323 72.8146 47.3061C73.1652 46.9857 73.4785 46.6992 73.8067 46.3938C73.0868 46.2129 72.4602 46.0508 71.7367 45.8698C72.2812 44.9839 72.7586 44.2111 73.2398 43.4346C73.2994 43.4496 73.3554 43.4685 73.4151 43.4836C73.4486 43.7286 73.4822 43.9736 73.5269 44.2715C74.12 44.3092 74.713 44.3469 75.306 44.3845C75.306 44.4562 75.306 44.524 75.306 44.5957C74.6496 44.9726 73.8887 44.6296 73.057 44.8671L73.0533 44.8633Z" fill="#D4D4D4"/>
<path id="Vector_25" d="M71.3527 44.2488C71.6325 44.3166 71.8935 44.3769 72.2814 44.4674C71.6996 45.0065 71.032 44.5616 70.4725 44.9386C70.4501 45.1045 70.4166 45.3344 70.3867 45.5418C70.838 45.7076 71.2185 45.8471 71.666 46.013C71.4199 47.3136 71.2446 48.5237 70.9574 49.6998C70.7112 50.7026 69.8571 50.9778 68.9172 50.4198C69.2044 49.9712 69.7005 50.3822 70.0735 50.1522C70.8157 49.0326 70.7112 47.6755 71.0954 46.3636C70.7858 46.3108 70.562 46.2769 70.2562 46.2279C70.148 46.6049 70.0473 46.9253 69.9578 47.2495C69.6968 48.1919 69.3946 49.1155 68.8016 49.9034C68.5293 50.2653 68.2795 50.6837 67.6342 50.7968C67.7424 50.5631 67.7834 50.3935 67.8804 50.2804C69.0664 48.9308 69.5215 47.2796 69.7602 45.5493C69.8049 45.2251 69.6333 44.8708 69.5401 44.4222C69.7639 44.3732 70.0735 44.3053 70.4464 44.2224V43.5325C71.0171 43.4684 71.0059 44.0188 71.349 44.245L71.3527 44.2488Z" fill="#D4D4D4"/>
<path id="Vector_26" d="M114.096 43.4571C114.145 43.721 114.19 43.9886 114.238 44.2525C114.533 44.3317 114.79 44.4033 115.07 44.4787C114.849 44.725 114.522 44.8858 114.089 44.9612C114.037 45.0592 113.966 45.1912 113.847 45.4136C114.175 45.4324 114.425 45.4475 114.701 45.4664C114.686 45.5681 114.701 45.6925 114.652 45.7302C114.38 45.9338 114.093 46.1148 113.735 46.3522C113.627 46.9102 113.526 47.5246 113.38 48.1278C113.168 49.0325 112.403 49.1984 111.542 48.4143C111.978 48.3615 112.321 48.3201 112.765 48.2635C112.866 47.7998 112.978 47.2985 113.093 46.7594C112.519 46.5747 112.112 47.2231 111.568 46.8612C111.982 46.2957 112.683 46.2882 113.224 45.8546C113.272 45.6322 113.332 45.342 113.403 45.0027C112.951 44.9084 112.578 44.833 112.123 44.7388C112.511 44.1394 113.078 44.5201 113.447 44.26C113.589 43.9773 113.731 43.6908 113.873 43.4043C113.944 43.4231 114.018 43.442 114.089 43.4608L114.096 43.4571Z" fill="#D4D4D4"/>
<path id="Vector_27" d="M68.7644 47.4565C68.5108 48.727 67.3172 50.3479 66.4594 50.6533C66.5676 49.9182 67.1942 49.5827 67.5224 49.0625C67.8506 48.546 68.0147 47.8712 68.7606 47.4565H68.7644Z" fill="#D4D4D4"/>
<path id="Vector_28" d="M67.72 43.6756C68.5293 43.7812 68.8277 44.275 69.1671 44.6972C69.2231 44.7689 69.1336 44.9574 69.1 45.1722C68.4361 44.8594 67.9848 44.4786 67.72 43.6719V43.6756Z" fill="#D4D4D4"/>
<path id="Vector_29" d="M118.038 49.1191C118.71 49.5828 119.012 50.2915 118.803 50.9173C118.188 50.5177 117.859 49.7525 118.038 49.1191Z" fill="#D4D4D4"/>
<path id="Vector_30" d="M68.5443 47.1557C67.8506 46.8126 67.3583 46.4696 67.0674 45.84C67.8021 45.7156 68.4511 46.2547 68.5443 47.1557Z" fill="#D4D4D4"/>
<path id="Vector_31" d="M114.35 49.0591C114.398 49.4926 114.473 49.9261 114.492 50.3634C114.503 50.6273 114.499 50.9327 114.037 51.0834C113.97 50.5142 113.91 49.9789 113.839 49.3682C114.014 49.274 114.193 49.1759 114.369 49.0779L114.35 49.0629V49.0591Z" fill="#D4D4D4"/>
<path id="Vector_32" d="M116.192 49.0518C116.726 49.7416 116.834 50.4353 116.547 51.0196C116.043 50.5144 115.916 49.9 116.192 49.0518Z" fill="#D4D4D4"/>
<path id="Vector_33" d="M112.728 49.3531C112.321 50.0619 111.739 50.6047 110.982 51.1702C110.889 50.4803 111.378 50.322 111.624 50.0242C111.889 49.7037 112.206 49.4248 112.5 49.127C112.579 49.2023 112.653 49.2777 112.731 49.3531H112.728Z" fill="#D4D4D4"/>
<path id="Vector_34" d="M97.0862 45.1761C96.5491 44.6106 96.0568 44.2148 95.8703 43.54C96.6274 43.5853 97.1645 44.245 97.0862 45.1761Z" fill="#D4D4D4"/>
</g>
</svg>
